<svg preserveAspectRatio="none" width="100%" height="100%" overflow="visible" style="display: block;" viewBox="0 0 89.5248 87.1843" fill="none" xmlns="http://www.w3.org/2000/svg">
<g id="Frame 5">
<path id="Vector" d="M8.12726 57.9278C8.42238 58.222 8.84603 59.6331 9.00031 60.0749C9.52747 60.2717 10.279 60.4606 10.5318 60.8512C10.2668 61.2378 9.5648 61.3952 9.03487 61.5805C8.74931 62.2369 8.54944 63.019 8.21718 63.7791C7.04148 61.7611 8.34589 61.8386 5.26562 60.8129C7.71704 60.1245 7.40132 59.8805 8.12726 57.9278Z" fill="var(--fill-0, #F9F469)"/>
<path id="Vector_2" d="M42.0851 11.1175C42.8036 11.6063 41.8031 12.3215 43.9004 13.0438C43.4472 13.2233 43.07 13.4362 42.6413 13.6668C42.5093 14.1135 42.3694 14.5577 42.2205 14.999C41.8937 14.7801 41.7617 14.0336 41.6285 13.5847C41.2692 13.3989 40.7555 13.1864 40.375 13.0157C41.7885 12.5789 41.7326 12.4948 42.0851 11.1175Z" fill="var(--fill-0, #F9F469)"/>
<path id="Vector_3" d="M83.3955 18.139C84.2806 18.5955 83.4078 19.3976 85.368 20.5261C85.6603 21.1094 84.8304 20.9613 84.3767 21.5152C84.0946 21.8607 83.7451 22.9662 83.5918 23.4052C83.2831 23.0424 83.2913 22.5369 83.0297 22.1158C82.9091 21.9214 81.7215 20.7404 81.9464 20.5601C83.0072 19.7045 83.1401 19.4345 83.3955 18.139Z" fill="var(--fill-0, #F9F469)"/>
<path id="Vector_4" d="M44.7925 50.3212C45.8283 51.2774 44.5685 51.6136 46.7877 52.7811C46.9641 53.319 46.1168 53.1677 45.7562 53.6392C45.457 54.0306 45.1046 55.1077 44.9284 55.5873C44.8638 55.4881 44.7868 55.3675 44.7603 55.2525C44.507 54.1539 43.96 53.7924 43.3008 52.8567C44.3951 51.9189 44.4536 51.7062 44.7925 50.3212Z" fill="var(--fill-0, #F9F469)"/>
<g id="Group 9">
<path id="Vector_5" d="M46.1149 28.7034C46.6767 27.258 47.6268 26.1422 48.9816 25.3844C50.2056 24.6997 51.5219 24.4586 52.9123 24.6272C53.5085 24.6995 54.0822 24.8626 54.6325 25.1031C55.6986 25.5692 56.5749 26.2731 57.2613 27.2127C57.3791 27.3739 57.4836 27.5432 57.5554 27.7303C57.5807 27.7964 57.6058 27.8644 57.6169 27.9337C57.6421 28.0901 57.551 28.231 57.4009 28.2834C57.3007 28.3184 57.2049 28.3006 57.1106 28.261C56.9512 28.1942 56.81 28.0995 56.6906 27.9753C56.5085 27.7858 56.3275 27.5952 56.1507 27.4007C55.0192 26.1562 53.6144 25.5268 51.9317 25.568C49.0185 25.6393 46.632 28.0493 46.6866 31.0774C46.7236 33.1278 47.9287 34.9744 49.7838 35.8482C50.0021 35.951 50.2281 36.0373 50.4478 36.1373C50.5766 36.1959 50.7039 36.2599 50.8246 36.3335C50.9554 36.4132 51.0488 36.53 51.0964 36.6779C51.151 36.8468 51.0893 36.9928 50.931 37.0679C50.8331 37.1144 50.7289 37.1293 50.62 37.1259C50.3087 37.1162 50.0189 37.0177 49.7352 36.9041C46.8296 35.7404 45.2731 32.7444 45.8158 29.7727C45.8673 29.4448 45.973 29.0683 46.1149 28.7034Z" fill="var(--fill-0, #F0AACC)"/>
<path id="Vector_6" d="M48.9038 31.1766C48.6002 30.8312 48.4705 30.4352 48.5496 29.9751C48.647 29.4093 49.17 28.9391 49.8396 28.9619C49.9175 28.9645 49.9949 28.9784 50.0726 28.9858C50.144 28.9926 50.1642 28.9771 50.162 28.9066C50.1566 28.7343 50.1831 28.5662 50.2278 28.4012C50.2944 28.1552 50.4208 27.9419 50.6146 27.7762C50.9768 27.4669 51.3887 27.4113 51.8325 27.563C52.0227 27.6281 52.1889 27.7368 52.3415 27.8674C52.3995 27.917 52.4186 27.9138 52.4575 27.8509C52.5478 27.705 52.6509 27.5699 52.783 27.4594C53.0396 27.245 53.3304 27.1392 53.6691 27.1738C54.307 27.2389 54.7345 27.8375 54.7702 28.3566C54.7758 28.4393 54.7631 28.5286 54.7362 28.6072C54.6844 28.7587 54.5165 28.7805 54.4181 28.6519C54.3798 28.6019 54.354 28.5418 54.3262 28.4846C54.2796 28.3888 54.2404 28.2893 54.1903 28.1955C54.1193 28.0627 54.0271 27.9464 53.9005 27.8602C53.6691 27.7025 53.4113 27.7068 53.1875 27.8739C53.0834 27.9517 52.9972 28.0472 52.9443 28.1657C52.8954 28.2754 52.8596 28.3909 52.8183 28.504C52.7965 28.5636 52.7844 28.6291 52.7518 28.6819C52.6609 28.8288 52.4791 28.8558 52.3461 28.7469C52.3134 28.7203 52.2869 28.6858 52.2592 28.6535C52.199 28.5835 52.1415 28.5111 52.0799 28.4422C51.965 28.3138 51.8329 28.2058 51.6724 28.1404C51.2572 27.971 50.9311 28.1611 50.8008 28.498C50.7202 28.7064 50.7291 28.915 50.7688 29.1269C50.7832 29.2036 50.8088 29.2783 50.8204 29.3553C50.8376 29.4703 50.7951 29.5644 50.7015 29.6341C50.5914 29.716 50.4711 29.7415 50.3397 29.6949C50.246 29.6618 50.1541 29.6237 50.0598 29.5926C49.9145 29.5444 49.7655 29.5438 49.6183 29.5792C49.339 29.6463 49.151 29.8647 49.1192 30.1494C49.1039 30.287 49.1262 30.4184 49.1821 30.5443C49.2718 30.7463 49.4156 30.8974 49.6085 31.0045C49.6889 31.0492 49.7723 31.0929 49.8418 31.1518C49.9951 31.2818 49.9878 31.4873 49.8302 31.6113C49.7863 31.6459 49.7342 31.6722 49.6826 31.695C49.4132 31.8142 49.2459 32.0262 49.1312 32.2888C49.0702 32.4283 49.0425 32.5716 49.0542 32.7243C49.0742 32.9821 49.1982 33.1625 49.4346 33.2698C49.5789 33.3352 49.7296 33.371 49.8984 33.395C49.969 33.4076 50.0538 33.4188 50.1364 33.4388C50.2246 33.4602 50.2946 33.5098 50.3052 33.6077C50.3157 33.7051 50.2562 33.7661 50.1791 33.8122C50.1043 33.8568 50.0218 33.8758 49.9353 33.8799C49.6833 33.8919 49.4404 33.8517 49.2066 33.7551C48.737 33.5613 48.4742 33.1702 48.4649 32.6622C48.4596 32.369 48.5384 32.1012 48.6831 31.85C48.7795 31.6829 48.8946 31.5302 49.0377 31.4C49.0711 31.3696 49.0697 31.3406 49.0404 31.3111C48.9954 31.2657 48.9459 31.2245 48.9038 31.1766Z" fill="var(--fill-0, #F0AACC)"/>
<path id="Vector_7" d="M56.8871 46.2177C56.8059 46.0625 56.7895 45.8928 56.8008 45.7256C56.8076 45.6997 56.8126 45.6787 56.8183 45.6585C56.9031 45.3555 57.0205 45.0671 57.1942 44.8037C57.3155 44.6203 57.4362 44.4361 57.5659 44.2583C58.1756 43.4245 58.9154 42.7256 59.7722 42.1495C59.8356 42.1076 59.9092 42.0728 59.983 42.0542C60.1294 42.0163 60.2732 42.0889 60.3326 42.2263C60.3543 42.2772 60.3636 42.3362 60.3633 42.3919C60.3619 42.5924 60.3308 42.7878 60.2527 42.9745C60.0517 43.4528 59.8215 43.9166 59.5467 44.3577C59.1192 45.0437 58.6007 45.6513 57.9914 46.1829C57.8672 46.2912 57.7312 46.3809 57.5823 46.4495C57.3238 46.5691 57.018 46.4681 56.8871 46.2177Z" fill="var(--fill-0, #EBEAE2)"/>
<path id="Vector_8" d="M50.5602 71.9612C50.6658 71.8012 50.7715 71.6413 50.885 71.4861C51.444 70.7242 52.0036 69.9631 52.5669 69.2044C53.0709 68.5257 53.5803 67.8511 54.0869 67.174C54.3851 66.7757 54.6629 66.3636 54.9148 65.9337C55.3075 65.2639 55.65 64.5715 55.8893 63.8306C55.9526 63.6343 56.021 63.4403 56.0942 63.2472C56.3472 62.5823 56.5349 61.8979 56.6887 61.2039C56.7562 60.8985 56.827 60.5939 56.9035 60.2909C56.9651 60.0477 57.0638 59.8166 57.2447 59.6372C57.6119 59.2744 58.053 59.0862 58.5756 59.1411C59.0826 59.1936 59.5128 59.4078 59.8594 59.7867C60.0522 59.9968 60.2144 60.2295 60.3757 60.4638C60.4681 60.5987 60.569 60.7272 60.6724 60.8532C60.7638 60.9647 60.8794 61.0496 61.0154 61.0988C61.1751 61.1578 61.3358 61.2144 61.4986 61.2637C61.7165 61.3299 61.9315 61.401 62.1314 61.5125C62.3553 61.6378 62.4683 61.8301 62.4839 62.083C62.5032 62.3964 62.4085 62.6752 62.2012 62.9071C62.0069 63.1236 61.8017 63.3313 61.5898 63.5308C61.0716 64.018 60.5819 64.5319 60.1235 65.0765C59.7297 65.5435 59.3551 66.0259 58.9879 66.5147C58.2498 67.4972 57.5052 68.4756 56.7621 69.4541C55.9718 70.4956 55.18 71.5362 54.389 72.5769C54.0752 72.9898 53.7621 73.4034 53.4482 73.8163C53.0224 74.3762 52.5962 74.9354 52.1695 75.4945C52.0699 75.6254 51.9596 75.7474 51.8244 75.8403C51.7199 75.9122 51.6089 75.9809 51.4913 76.0269C51.2793 76.1093 51.0823 76.0633 50.9265 75.896C50.855 75.8193 50.7925 75.7288 50.7478 75.6343C50.654 75.4347 50.5689 75.2311 50.4904 75.0258C50.3325 74.6114 50.2661 74.1751 50.2034 73.7388C50.1607 73.4422 50.1529 73.1441 50.2135 72.85C50.2634 72.5268 50.382 72.2319 50.5602 71.9612Z" fill="var(--fill-0, #EBEAE2)"/>
<path id="Vector_9" d="M61.8144 69.9907C61.8545 70.0295 61.9016 70.0658 61.9521 70.0893C62.0812 70.1475 62.211 70.2064 62.3457 70.2493C62.7528 70.3785 63.1703 70.465 63.5905 70.5385C64.5761 70.7138 65.5695 70.7696 66.5671 70.7494C66.6577 70.7478 66.7482 70.7462 66.8388 70.7429C67.8705 70.7074 68.8921 70.5862 69.8987 70.3519C70.3489 70.2468 70.7934 70.1232 71.2256 69.9576C71.2985 69.9301 71.371 69.8994 71.4401 69.8639C71.4836 69.8412 71.5256 69.8113 71.5596 69.7758C71.6305 69.7031 71.6361 69.5996 71.5633 69.5269C71.4937 69.4574 71.4145 69.3944 71.3303 69.3435C71.154 69.2369 70.974 69.1367 70.7914 69.0413C70.2751 68.7723 69.7561 68.5081 69.2392 68.2398C69.0943 68.1647 68.952 68.0839 68.8104 68.0023C68.2969 67.7082 67.9412 67.28 67.7308 66.7281C67.6192 66.4348 67.5362 66.1343 67.4782 65.8264C67.3108 64.9385 67.2074 64.0424 67.1359 63.1431C67.0459 62.0088 67.0075 60.8735 67.0261 59.7367C67.042 58.7631 67.0704 57.7903 67.1354 56.8191C67.1756 56.2164 67.2291 55.6153 67.3129 55.0166C67.3297 54.897 67.3554 54.779 67.3719 54.6594C67.3836 54.5754 67.3963 54.489 67.3911 54.4049C67.3824 54.2643 67.3001 54.1884 67.1612 54.173C67.126 54.169 67.0903 54.1682 67.0548 54.169C66.8922 54.173 66.7297 54.1763 66.5671 54.1803C66.2615 54.1876 65.956 54.1949 65.6504 54.2021C65.6362 54.2029 65.6219 54.2021 65.6077 54.2021C65.3772 54.1997 65.3093 54.3088 65.311 54.5229C65.3114 54.5794 65.3219 54.6368 65.3349 54.6918C65.5094 55.4335 65.603 56.1873 65.6814 56.9436C65.8108 58.1943 65.9058 59.4483 65.9465 60.7055C65.9789 61.7066 65.9735 62.7076 65.919 63.7087C65.8792 64.4399 65.8195 65.1687 65.714 65.8935C65.6575 66.2813 65.5637 66.6602 65.407 67.0214C65.2363 67.4157 64.979 67.7405 64.6308 67.991C64.5041 68.0823 64.3726 68.1679 64.2375 68.2463C63.7332 68.538 63.2255 68.824 62.7214 69.1157C62.4878 69.2514 62.2576 69.3928 62.0302 69.5382C61.9474 69.5908 61.8702 69.657 61.8029 69.7289C61.7195 69.8178 61.7266 69.9059 61.8144 69.9907ZM60.4201 69.5964C60.7746 69.2118 61.1806 68.8902 61.6288 68.6236C62.0622 68.3651 62.5011 68.1162 62.9369 67.8617C63.2623 67.6726 63.5871 67.482 63.9114 67.2897C64.2448 67.0933 64.468 66.8057 64.578 66.4372C64.6429 66.2199 64.6978 65.9977 64.7335 65.7739C64.7827 65.4653 64.8124 65.1534 64.8456 64.8423C64.9171 64.1709 64.9547 63.497 64.9702 62.8216C64.9958 61.6993 64.9754 60.577 64.9001 59.4564C64.8248 58.3357 64.7384 57.2167 64.5891 56.1033C64.5191 55.5821 64.4272 55.0642 64.2832 54.5576C64.156 54.11 63.9055 53.765 63.4482 53.6042C63.4415 53.6018 63.4348 53.5994 63.4282 53.597C62.8879 53.378 62.4116 53.0605 61.9934 52.6565C61.4896 52.1685 61.0682 51.6174 60.7173 51.0106C60.2568 50.2132 59.8999 49.3704 59.573 48.5124C59.5541 48.4631 59.5369 48.413 59.5192 48.3629C59.48 48.2522 59.4423 48.1407 59.4066 48.0292C59.3344 47.803 59.3093 47.5703 59.3376 47.3344C59.3653 47.1041 59.4435 46.8916 59.6051 46.7195C59.6523 46.6694 59.7132 46.6266 59.7761 46.5983C59.871 46.5563 59.9632 46.5991 60.0044 46.6936C60.0243 46.7389 60.0353 46.7882 60.0509 46.835C60.1892 47.2536 60.3167 47.6753 60.4684 48.089C60.502 48.1803 60.5363 48.2716 60.5711 48.3629C60.8375 49.0618 61.1384 49.7462 61.5044 50.4014C61.8255 50.9767 62.2132 51.4995 62.6881 51.9568C62.9826 52.2404 63.3136 52.4739 63.6883 52.6363C64.1326 52.8278 64.5924 52.9789 65.071 53.0605C65.3158 53.1025 65.5639 53.1259 65.8101 53.1598C66.0624 53.1954 66.3152 53.1954 66.5671 53.172C66.5912 53.1695 66.6153 53.1687 66.6394 53.1663C67.3861 53.0847 68.1063 52.9005 68.7931 52.591C69.2137 52.402 69.5816 52.1386 69.8988 51.8065C70.2334 51.4558 70.529 51.0737 70.7706 50.6519C70.7988 50.6026 70.8259 50.5525 70.8583 50.5065C70.9124 50.4289 70.9972 50.3982 71.0821 50.4346C71.1464 50.462 71.2098 50.4992 71.2626 50.5444C71.3823 50.6479 71.4686 50.7788 71.532 50.9234C71.5768 51.026 71.5853 51.1294 71.5364 51.2328C71.5031 51.3039 71.4769 51.3791 71.4348 51.4437C71.1318 51.9099 70.7871 52.3438 70.3742 52.7179C70.0138 53.0451 69.6129 53.3134 69.1642 53.5057C68.7805 53.6697 68.5655 53.9759 68.4536 54.3597C68.3903 54.5778 68.3462 54.8024 68.3098 55.0263C68.2177 55.5951 68.1632 56.1679 68.1254 56.7432C68.0737 57.5302 68.0468 58.3179 68.0248 59.1065C67.9947 60.1795 68.0073 61.2517 68.0672 62.3239C68.1258 63.3742 68.2294 64.4205 68.4126 65.4572C68.4557 65.7012 68.5196 65.9428 68.584 66.1827C68.713 66.6627 69.002 67.0125 69.4491 67.2347C69.7923 67.406 70.1306 67.587 70.4697 67.7664C70.9218 68.0055 71.3754 68.2422 71.8231 68.4887C72.2042 68.6996 72.5514 68.9589 72.8637 69.2627C72.9145 69.312 72.9659 69.3621 73.0099 69.4178C73.2005 69.6586 73.1893 69.9325 72.9726 70.1474C72.8929 70.2266 72.8001 70.2985 72.702 70.3527C72.4847 70.4731 72.2644 70.5902 72.0378 70.6912C71.4588 70.9506 70.8553 71.1405 70.2382 71.2843C69.0169 71.5679 67.7909 71.7165 66.5671 71.7392C65.5299 71.7577 64.4943 71.6858 63.4648 71.5234C62.8634 71.4079 62.3081 71.2867 61.7693 71.1001C61.3452 70.9538 60.9348 70.7761 60.553 70.5385C60.4812 70.4933 60.4096 70.444 60.3501 70.3842C60.1772 70.2113 60.1521 69.964 60.284 69.7596C60.322 69.7006 60.3721 69.6481 60.4201 69.5964Z" fill="var(--fill-0, #EBEAE2)"/>
<path id="Vector_10" d="M57.4237 48.3668C57.4292 48.3652 57.4351 48.3644 57.4406 48.3628C57.4825 48.3498 57.5251 48.3393 57.5679 48.3296C57.6961 48.3013 57.8134 48.3135 57.9207 48.3628C57.9763 48.3886 58.0296 48.4234 58.0798 48.4694C58.1805 48.5615 58.2619 48.6698 58.3229 48.791C58.4317 49.0059 58.541 49.2216 58.6392 49.4422C59.1602 50.6113 59.5914 51.8136 59.9584 53.0393C60.0888 53.474 60.2117 53.9119 60.268 54.3652C60.2883 54.5284 60.2971 54.69 60.2571 54.8516C60.247 54.9073 60.2453 54.9663 60.2251 55.018C60.1917 55.1037 60.1571 55.1917 60.104 55.2645C59.9432 55.485 59.6888 55.5222 59.4686 55.3622C59.4004 55.3121 59.339 55.2515 59.2808 55.1901C59.1038 55.0027 58.9696 54.7845 58.8496 54.5583C58.6796 54.2375 58.5366 53.9046 58.4093 53.5653C58.2746 53.2065 58.1437 52.8462 58.0157 52.485C57.7124 51.6278 57.3981 50.7746 57.1477 49.9003C57.0971 49.7234 57.0587 49.5424 57.024 49.3622C56.9845 49.1562 57.0072 48.9526 57.0602 48.7506C57.1117 48.5542 57.2338 48.429 57.4237 48.3668Z" fill="var(--fill-0, #EBEAE2)"/>
<path id="Vector_11" d="M62 56.0515C62.4288 56.1242 62.7695 56.3335 63.0216 56.6849C63.2931 57.0631 63.4908 57.4792 63.6302 57.9228C63.69 58.1126 63.7301 58.3074 63.7461 58.5069C63.7594 58.6709 63.7551 58.8333 63.6786 58.9852C63.5883 59.1654 63.4734 59.3262 63.317 59.4539C63.1587 59.584 62.9771 59.6631 62.7721 59.6712C62.631 59.6769 62.4892 59.6656 62.3478 59.6623C62.0348 59.6058 61.7675 59.4644 61.5379 59.2527C61.1404 58.8859 60.8304 58.4479 60.631 57.951C60.4052 57.3879 60.521 56.8554 60.9365 56.4119C61.2194 56.1097 61.5784 55.9812 62 56.0515Z" fill="var(--fill-0, #EBEAE2)"/>
<path id="Vector_12" d="M49.0476 68.4747C49.6905 67.7443 50.3306 67.0115 50.9732 66.2811C51.2594 65.9555 51.5493 65.6339 51.8368 65.3099C52.2237 64.8744 52.6207 64.4486 53.0369 64.0406C53.1394 63.9404 53.2526 63.8564 53.3793 63.7901C53.4508 63.753 53.4958 63.7707 53.539 63.841C53.5871 63.9186 53.5986 63.9986 53.5638 64.0842C53.5424 64.1376 53.5214 64.1901 53.499 64.2426C53.261 64.7993 52.9689 65.3277 52.6345 65.8303C52.2571 66.3983 51.87 66.9598 51.4711 67.5116C50.7894 68.4562 50.0771 69.3781 49.3384 70.2789C49.316 70.3056 49.2939 70.3347 49.2668 70.3573C49.1831 70.426 49.0887 70.4422 48.9876 70.401C48.8915 70.3614 48.8158 70.2967 48.7792 70.199C48.7471 70.1133 48.72 70.0236 48.7033 69.9339C48.6588 69.694 48.6617 69.4532 48.6988 69.2124C48.7288 68.9264 48.8595 68.6881 49.0476 68.4747Z" fill="var(--fill-0, #EBEAE2)"/>
<path id="Vector_13" d="M60.9823 40.5619C60.7572 40.4359 60.5183 40.3454 60.2516 40.3704C60.0461 40.3906 59.8431 40.4205 59.65 40.5005C59.5516 40.5409 59.4501 40.574 59.35 40.6104C59.1379 40.688 58.9709 40.6484 58.8284 40.4561C58.6081 40.1587 58.3444 39.8986 58.0694 39.6505C57.763 39.3734 57.4329 39.1286 57.0975 38.8887C56.6643 38.579 56.234 38.2651 55.805 37.9497C55.506 37.7298 55.2415 37.472 54.9984 37.1925C54.8113 36.9775 54.6489 36.744 54.5043 36.4986C54.4138 36.345 54.3485 36.1813 54.3107 36.0049C54.2874 35.8959 54.3266 35.8257 54.4078 35.7681C54.4423 35.7437 54.4812 35.7242 54.5203 35.7081C54.6517 35.6541 54.7827 35.5988 54.9163 35.5507C55.3852 35.382 55.8681 35.2641 56.355 35.1623C57.5521 34.9123 58.7636 34.7621 59.9794 34.6425C62.1699 34.4271 64.3673 34.3484 66.5667 34.3145C66.5753 34.3144 66.5839 34.3142 66.5925 34.3141C67.4087 34.3017 68.2253 34.2975 69.0416 34.303C69.7301 34.3078 70.4184 34.3308 71.1068 34.3489C71.2697 34.3532 71.433 34.3658 71.5951 34.3838C71.6714 34.3923 71.748 34.4162 71.8199 34.4446C71.8999 34.4762 71.9428 34.5441 71.9336 34.6308C71.9262 34.7006 71.9107 34.7712 71.8873 34.8373C71.8324 34.9924 71.7977 35.1513 71.7777 35.3141C71.751 35.5318 71.7827 35.7401 71.8852 35.9342C71.9513 36.0597 72.0231 36.1826 72.0988 36.3027C72.29 36.6057 72.5353 36.8632 72.7976 37.1037C73.0436 37.3292 73.2992 37.5444 73.549 37.7659C73.6232 37.8316 73.6969 37.8993 73.7616 37.9741C73.7971 38.0152 73.8194 38.0711 73.8366 38.1239C73.8552 38.1812 73.8232 38.2439 73.7656 38.2614C73.7056 38.2797 73.6406 38.2961 73.5791 38.2925C73.3877 38.2813 73.1964 38.2678 73.0093 38.2181C72.879 38.1833 72.746 38.1586 72.6412 38.1354C72.2413 38.0736 71.8678 38.0275 71.4907 38.0152C70.9516 37.9977 70.4307 38.0729 69.9304 38.2885C69.3883 38.5224 69.0232 38.9128 68.8391 39.4704C68.728 39.8073 68.7316 40.1394 68.8966 40.4642C69.027 40.7211 69.1902 40.9506 69.4145 41.1332C69.5853 41.2729 69.763 41.4022 69.9593 41.504C70.0225 41.5371 70.0829 41.5735 70.1227 41.6365C70.1673 41.7068 70.1593 41.7706 70.0961 41.8256C70.0231 41.8902 69.935 41.9096 69.8412 41.9201C69.6084 41.9453 69.3754 41.971 69.1434 42.0033C68.6545 42.0712 68.1866 42.2102 67.7417 42.4259C67.4967 42.5447 67.2734 42.6934 67.0785 42.8848C66.8427 43.1159 66.6674 43.3769 66.5667 43.6758C66.5239 43.8027 66.4933 43.936 66.4795 44.0774C66.4576 44.3012 66.486 44.5113 66.5667 44.7092C66.5975 44.7844 66.6353 44.8587 66.6819 44.9306C66.7797 45.0825 66.9081 45.2045 67.0533 45.3088C67.2623 45.4582 67.4885 45.5754 67.7338 45.6554C67.8215 45.6837 67.9105 45.7119 67.9926 45.7531C68.0837 45.7984 68.1051 45.9164 68.0336 45.9875C67.9797 46.0416 67.9127 46.0868 67.8438 46.12C67.6903 46.1943 67.5323 46.2589 67.3756 46.326C67.0929 46.448 66.8206 46.5878 66.5667 46.7583C66.4789 46.8172 66.3931 46.8795 66.3101 46.9465C66.1667 47.0612 66.0292 47.1873 65.9039 47.3214C65.6271 47.6196 65.4554 47.9646 65.4022 48.3629C65.3958 48.4106 65.3903 48.4582 65.3874 48.5075C65.3621 48.9349 65.4602 49.326 65.6952 49.6815C65.8603 49.9312 66.0908 50.0903 66.3893 50.1291C66.4482 50.1372 66.5075 50.1445 66.5667 50.1509C66.7404 50.1695 66.915 50.1824 67.0891 50.1841C67.3154 50.1865 67.5421 50.1598 67.7685 50.1429C68.1577 50.1138 68.5465 50.0798 68.9357 50.0516C69.0274 50.0443 69.1207 50.0451 69.2123 50.0532C69.3482 50.0645 69.4418 50.1711 69.4233 50.298C69.4156 50.3505 69.3859 50.4063 69.3514 50.4483C69.1338 50.7125 68.8936 50.9549 68.6027 51.1391C67.9691 51.5423 67.2866 51.7548 66.5667 51.8081C66.3404 51.8251 66.1104 51.8259 65.8771 51.8121C65.451 51.7863 65.0319 51.7022 64.6284 51.5528C64.198 51.3936 63.8011 51.1811 63.4615 50.866C63.1936 50.6187 62.9643 50.34 62.7659 50.0346C62.5291 49.6702 62.3314 49.2848 62.1514 48.8897C62.0719 48.716 61.9974 48.5398 61.9254 48.3629C61.6245 47.6252 61.3817 46.8673 61.1638 46.0998C61.0793 45.8024 61.0452 45.5027 61.0361 45.1973C61.0275 44.9088 61.0747 44.6293 61.1744 44.361C61.2979 44.0281 61.4305 43.6993 61.5626 43.3696C61.6845 43.065 61.7851 42.7556 61.8427 42.4324C61.9568 41.7925 61.7533 41.2544 61.3062 40.8019C61.2128 40.7074 61.0987 40.6274 60.9823 40.5619Z" fill="var(--fill-0, #F0AACC)"/>
<path id="Vector_14" d="M80.4781 34.2982C80.3841 35.1979 80.1347 36.0532 79.7385 36.866C79.7167 36.9106 79.6936 36.955 79.6663 36.9963C79.6323 37.0475 79.5813 37.0687 79.5196 37.0654C79.4606 37.0622 79.409 37.0433 79.3646 37.0036C79.2798 36.9279 79.1982 36.8478 79.1082 36.7789C78.9232 36.6372 78.8938 36.4537 78.9553 36.2452C78.9813 36.1568 79.0166 36.0709 79.0517 35.9855C79.2774 35.4362 79.4179 34.8648 79.4904 34.2767C79.561 33.7053 79.6158 33.1324 79.6475 32.5573C79.6734 32.0889 79.6858 31.6202 79.6709 31.1512C79.6662 31.0026 79.6486 30.8536 79.6254 30.7066C79.5979 30.5318 79.5027 30.4063 79.3262 30.3542C79.2106 30.3201 79.0966 30.2777 78.979 30.2534C77.7045 29.9898 76.4217 29.7792 75.1277 29.6356C74.4354 29.5589 73.7425 29.4926 73.0483 29.4366C72.1628 29.3653 71.276 29.3164 70.3885 29.2837C69.3733 29.2463 68.3576 29.2319 67.3415 29.2363C67.0831 29.2375 66.8247 29.2425 66.5663 29.2461C65.0771 29.2672 63.5896 29.3277 62.1038 29.4351C59.9626 29.5899 57.8318 29.8325 55.7155 30.1968C54.7 30.3717 53.6903 30.5755 52.6898 30.8233C52.5529 30.8573 52.4205 30.9118 52.289 30.9644C52.1757 31.0098 52.111 31.105 52.0799 31.219C52.0614 31.2869 52.0506 31.3588 52.0495 31.4291C52.0458 31.6704 52.0388 31.9123 52.0493 32.1533C52.089 33.0632 52.2001 33.9656 52.3545 34.8627C52.455 35.4463 52.6208 36.0096 52.8637 36.552C53.3229 37.5775 54.0173 38.4043 54.9333 39.0486C55.1715 39.2158 55.4168 39.3734 55.6559 39.5398C56.0699 39.8283 56.4842 40.1159 56.8932 40.4108C57.1529 40.5983 57.3898 40.814 57.6148 41.0418C57.7052 41.1331 57.7834 41.2333 57.8413 41.3498C57.9351 41.5371 57.9072 41.7068 57.7736 41.8619C57.7227 41.9209 57.6689 41.9783 57.6118 42.0316C57.5054 42.1302 57.425 42.1415 57.3064 42.0599C57.2135 41.9953 57.1277 41.9193 57.0457 41.8409C56.7417 41.5518 56.4236 41.2787 56.082 41.0346C55.8102 40.8407 55.5348 40.6516 55.2601 40.4617C54.8977 40.2112 54.5268 39.9729 54.173 39.7111C53.2414 39.0211 52.5291 38.15 52.0319 37.1002C51.7128 36.4266 51.5004 35.7226 51.3765 34.99C51.1641 33.7336 51.0333 32.4701 51.047 31.194C51.0489 31.0164 51.0457 30.8385 51.0544 30.6612C51.067 30.4016 51.1949 30.2192 51.4415 30.1274C51.5079 30.1026 51.5766 30.0832 51.6453 30.0655C51.9756 29.9807 52.3053 29.8934 52.6371 29.8143C54.5329 29.362 56.4526 29.0446 58.3859 28.8052C60.4246 28.5528 62.471 28.3943 64.5233 28.3122C65.2041 28.2849 65.8851 28.2657 66.5663 28.2571C66.9292 28.2525 67.2922 28.25 67.6553 28.2528C68.4012 28.2585 69.1472 28.2645 69.8928 28.2841C70.5319 28.3009 71.1709 28.3297 71.8091 28.3668C72.4191 28.4023 73.0285 28.4487 73.6372 28.5023C74.2812 28.5591 74.9255 28.6184 75.5671 28.6978C76.3003 28.7886 77.0308 28.9029 77.6751 28.9945C78.3201 29.1221 78.8784 29.23 79.4354 29.3439C79.6511 29.3881 79.8653 29.4412 80.0779 29.4985C80.4543 29.6 80.6031 29.8307 80.6153 30.1505C80.6207 30.2924 80.6308 30.4341 80.6378 30.5761C80.6784 31.4146 80.6704 32.2525 80.5969 33.089C80.5615 33.4924 80.5202 33.8953 80.4781 34.2982Z" fill="var(--fill-0, #EBEAE2)"/>
<path id="Vector_15" d="M74.5134 45.1213C74.4561 44.933 74.4484 44.7423 74.4682 44.5516C74.4941 44.3028 74.6742 44.1089 74.9092 44.0644C75.0548 44.037 75.1915 44.0669 75.3189 44.1412C75.5243 44.2616 75.7005 44.4143 75.8324 44.613C76.0133 44.8861 76.1929 45.1592 76.3673 45.4356C76.9545 46.3672 77.4599 47.3391 77.8591 48.3628C77.9252 48.5325 77.9891 48.703 78.0493 48.8759C78.1451 49.1506 78.235 49.4277 78.2841 49.7162C78.3202 49.9279 78.3295 50.1404 78.3038 50.3246C78.2529 50.6429 78.0751 50.8183 77.799 50.8522C77.711 50.8627 77.6319 50.8498 77.5536 50.8053C77.4413 50.7415 77.3417 50.6631 77.2507 50.5718C77.0272 50.348 76.8599 50.0846 76.7156 49.8059C76.5817 49.5473 76.4543 49.2847 76.3258 49.0238C76.2176 48.8032 76.1096 48.5834 76.0015 48.3628C75.6429 47.6324 75.2846 46.902 74.9256 46.1716C74.759 45.8331 74.6235 45.4824 74.5134 45.1213Z" fill="var(--fill-0, #EBEAE2)"/>
<path id="Vector_16" d="M77.0516 43.1928C76.8849 42.8446 76.7735 42.4777 76.6796 42.1052C76.6133 41.8426 76.6548 41.5962 76.8443 41.3894C76.9603 41.2625 77.1021 41.1922 77.278 41.198C77.4122 41.2027 77.5243 41.2577 77.6236 41.3441C77.8239 41.5194 77.9823 41.7287 78.1181 41.955C78.5581 42.6886 78.9146 43.4618 79.2029 44.2674C79.4553 44.9719 79.6397 45.6934 79.7122 46.44C79.7218 46.5386 79.7182 46.6379 79.7207 46.7365C79.7155 46.7365 79.7102 46.7365 79.7049 46.7357C79.6974 46.7777 79.6935 46.8214 79.6818 46.8618C79.592 47.1744 79.2235 47.2754 78.9899 47.0532C78.8802 46.9482 78.8001 46.8246 78.7344 46.6889C78.4369 46.0748 78.136 45.4623 77.84 44.8483C77.5749 44.2973 77.3158 43.7438 77.0516 43.1928Z" fill="var(--fill-0, #EBEAE2)"/>
<path id="Vector_17" d="M78.3413 39.0098C78.3195 38.9072 78.2992 38.7987 78.3145 38.6972C78.3306 38.5905 78.3865 38.503 78.4282 38.4136C78.4713 38.321 78.5412 38.2503 78.6366 38.2091C78.8133 38.1326 78.9819 38.1423 79.1394 38.2596C79.36 38.4238 79.5239 38.637 79.6586 38.8733C80.2425 39.897 80.6818 40.9789 80.958 42.1263C81.0066 42.3274 81.0176 42.5334 81.0267 42.7386C81.0283 42.7743 81.0272 42.8105 81.0187 42.8446C80.9765 43.0133 80.8861 43.1499 80.7102 43.1911C80.5468 43.2299 80.3985 43.1806 80.2946 43.0408C80.2103 42.9269 80.1183 42.8154 80.0551 42.6901C79.5699 41.7262 79.0928 40.7583 78.6084 39.7936C78.4828 39.5431 78.3989 39.2813 78.3413 39.0098Z" fill="var(--fill-0, #EBEAE2)"/>
<path id="Vector_18" d="M75.2305 41.1532C74.932 41.2631 74.6231 41.3075 74.3084 41.2825C73.3476 41.2074 72.4089 41.0151 71.4921 40.7201C71.2902 40.6555 71.099 40.5569 70.9049 40.4696C70.7855 40.4155 70.6874 40.3307 70.6261 40.2151C70.4924 39.9622 70.5574 39.8273 70.7393 39.6997C70.8346 39.6326 70.9414 39.5962 71.0551 39.5793C71.1042 39.5728 71.1542 39.572 71.2039 39.5688C72.045 39.5195 72.8792 39.5857 73.7093 39.719C73.8492 39.7441 73.9897 39.7667 74.129 39.795C74.4711 39.8637 74.8041 39.9598 75.1177 40.1198C75.2684 40.1966 75.387 40.3048 75.4871 40.4349C75.5906 40.569 75.6032 40.7217 75.5384 40.8785C75.4802 41.0199 75.3707 41.1015 75.2305 41.1532Z" fill="var(--fill-0, #EBEAE2)"/>
<path id="Vector_19" d="M72.7359 44.2867C72.5608 44.3812 72.3852 44.4758 72.1851 44.5097C71.947 44.5493 71.7103 44.6018 71.4707 44.6277C70.6385 44.7198 69.8104 44.6721 68.9867 44.5323C68.8468 44.5073 68.7064 44.4838 68.567 44.4564C68.3689 44.4168 68.1917 44.3247 68.0242 44.2172C67.9058 44.1405 67.8713 44.012 67.917 43.8787C67.9632 43.7437 68.0423 43.6492 68.1906 43.608C68.7044 43.4642 69.2208 43.3357 69.7494 43.259C70.4484 43.158 71.1489 43.1208 71.8524 43.2113C72.138 43.2476 72.4045 43.3406 72.6573 43.4763C72.8042 43.5555 72.8924 43.6799 72.9395 43.835C72.9533 43.8811 72.9576 43.9352 72.9475 43.9813C72.9193 44.1097 72.8571 44.2204 72.7359 44.2867Z" fill="var(--fill-0, #EBEAE2)"/>
<path id="Vector_20" d="M73.5537 35.6453C73.4937 35.4741 73.5663 35.3327 73.7379 35.2836C73.8593 35.2489 73.9764 35.2608 74.0953 35.2936C74.3055 35.358 74.5175 35.4169 74.7255 35.4876C75.4936 35.7485 76.2225 36.0947 76.9282 36.4941C77.1972 36.6464 77.3891 36.8663 77.5638 37.1098C77.6208 37.1893 77.6334 37.2774 77.6202 37.373C77.5955 37.5514 77.4548 37.7527 77.19 37.7749C76.7744 37.8097 76.3831 37.7228 76.015 37.5402C75.1968 37.1344 74.4488 36.6248 73.7824 35.9974C73.6754 35.8967 73.6014 35.7816 73.5537 35.6453Z" fill="var(--fill-0, #EBEAE2)"/>
<path id="Vector_21" d="M70.3701 47.9525C70.2828 48.0341 70.1839 48.1068 70.0799 48.1658C69.9529 48.2377 69.8224 48.3031 69.6895 48.3629C69.57 48.4171 69.4484 48.4663 69.325 48.5124C68.637 48.7669 67.9281 48.8881 67.1937 48.8606C67.0921 48.8566 67.0001 48.8243 66.9038 48.8017C66.7317 48.7605 66.6415 48.5358 66.667 48.3629C66.6754 48.3056 66.6966 48.2539 66.732 48.2167C66.8055 48.1399 66.8719 48.0599 66.9668 48.0042C67.7876 47.5259 68.6574 47.1623 69.5621 46.8779C69.7008 46.8342 69.8397 46.8205 70.0336 46.8496C70.1708 46.8787 70.3278 46.9708 70.4522 47.1154C70.6128 47.3021 70.6382 47.5105 70.5305 47.7295C70.4905 47.8111 70.4359 47.8911 70.3701 47.9525Z" fill="var(--fill-0, #EBEAE2)"/>
<path id="Vector_22" d="M73.8252 52.0334C73.4454 51.2707 73.0666 50.508 72.6895 49.7436C72.4628 49.2847 72.2383 48.8242 72.0157 48.3628C72.0069 48.3442 71.998 48.3264 71.9891 48.3087C71.8271 47.9717 71.7297 47.6187 71.72 47.243C71.7158 47.0781 71.7636 46.9327 71.8626 46.8075C71.9844 46.6523 72.1437 46.5756 72.3472 46.5982C72.5038 46.616 72.6348 46.6806 72.7355 46.7978C72.9158 47.007 73.1094 47.209 73.263 47.4377C73.4661 47.7399 73.6573 48.0501 73.8447 48.3628C73.9057 48.4646 73.9678 48.5648 74.0277 48.6674C74.557 49.5683 75.0185 50.5039 75.4269 51.4662C75.5296 51.7078 75.6221 51.9542 75.6725 52.2128C75.7161 52.4366 75.7432 52.662 75.6956 52.8891C75.6893 52.9238 75.6842 52.9594 75.6767 52.9941C75.6226 53.2365 75.4538 53.3682 75.2312 53.4353C75.006 53.5039 74.8017 53.4393 74.6506 53.268C74.4444 53.0337 74.241 52.7953 74.0839 52.523C73.9916 52.3639 73.9074 52.1991 73.8252 52.0334Z" fill="var(--fill-0, #EBEAE2)"/>
<path id="Vector_23" d="M69.8311 57.6528C69.7725 57.6779 69.7133 57.7037 69.6521 57.7207C69.4832 57.7692 69.3527 57.6803 69.3392 57.5025C69.3333 57.4258 69.3416 57.345 69.3602 57.2707C69.44 56.9499 69.5687 56.6526 69.7844 56.3972C69.9186 56.2381 70.0726 56.1031 70.243 55.9852C70.6174 55.7266 71.0058 55.4899 71.3996 55.262C71.9165 54.9631 72.4732 54.7789 73.062 54.6876C73.2737 54.6552 73.4862 54.6472 73.7083 54.6924C73.848 54.7102 73.9878 54.7619 74.1208 54.8306C74.3489 54.9485 74.4469 55.1788 74.3671 55.4244C74.3414 55.5028 74.297 55.5804 74.245 55.6458C74.0831 55.8486 73.8837 56.011 73.6454 56.1136C73.1955 56.3084 72.7457 56.5047 72.2877 56.6784C71.4638 56.9903 70.6406 57.3046 69.8311 57.6528Z" fill="var(--fill-0, #EBEAE2)"/>
</g>
<g id="Group 15">
<path id="Vector_24" d="M19.9432 28.2253C20.3536 26.5818 21.3884 24.0789 21.6463 22.6112L21.6587 22.543C21.8711 21.3277 20.8661 19.5925 22.4732 18.5212C23.8879 17.5779 26.8025 18.6545 28.3412 18.9719C29.4263 19.1958 30.5348 19.3587 31.6087 19.6296C34.2672 20.2996 42.5441 24.1437 43.9044 26.4254C44.263 27.0269 44.3988 27.7562 44.2144 28.4385C43.7475 30.167 38.9278 32.3438 37.3487 33.4463C37.5482 34.0189 37.6326 35.7823 37.4607 36.4759C37.1822 37.6043 38.9815 40.0714 38.5752 40.6885C37.6994 42.021 38.8182 41.637 38.2039 42.8412C36.7466 44.7262 35.4661 46.3646 34.9668 48.7659C34.9048 49.0639 34.7412 49.544 34.6098 49.8391C33.9666 50.3576 33.5173 50.3481 33.2677 50.7874C33.2288 52.2914 34.2402 52.0087 33.1994 54.1283C35.2227 56.3771 33.3024 58.5858 33.1796 61.425C33.1001 63.2456 34.3662 73.7981 33.9115 74.509L33.7066 74.5835C33.4711 74.4322 33.5283 74.512 33.417 74.279C33.3759 74.3827 33.3584 74.5003 33.2806 74.5241C32.4532 74.7783 31.2709 74.8941 30.4133 75.0047C30.1683 75.1301 30.1588 75.1417 29.8944 75.1123C29.676 74.7348 29.8177 73.1638 29.801 72.6075C29.6815 68.6321 30.093 62.3348 27.5298 59.1067C26.7536 62.6481 27.6612 67.9183 28.1937 71.5701C28.3474 72.6243 28.7723 74.1957 28.8213 75.2699C28.8243 75.335 28.7569 75.3488 28.6695 75.404C28.3154 75.3341 28.4402 75.4133 28.2138 75.0859C28.2105 75.2492 28.2164 75.1863 28.1285 75.3443C27.5872 75.5397 26.7635 75.623 26.1747 75.7056C25.996 74.7721 25.855 73.7097 25.7074 72.7621C25.4976 73.3271 26.3181 75.5369 25.8753 75.8243C25.211 75.5477 25.2027 73.8309 25.1057 73.1631C24.6066 69.7306 24.484 66.3049 23.9006 62.8808C23.4643 60.3199 21.4167 58.427 23.1465 56.0185C22.0704 55.3219 21.7378 55.0606 21.8674 53.702C21.4193 53.5212 20.6691 53.9124 20.2243 53.5727C19.418 52.957 18.8106 52.0437 18.0247 51.4099C16.2886 50.01 14.4052 48.8501 12.5325 47.6527C12.3154 47.5139 11.9734 47.1959 11.8785 46.9576C11.782 46.7303 11.8182 46.138 11.7067 45.9906C11.4854 45.6984 10.8735 45.549 10.841 45.0896C10.7818 44.1114 10.9579 43.1127 10.9911 42.1226C11.0334 40.8563 10.0731 38.9838 10.5002 37.8553C10.7767 37.1247 11.906 36.9694 11.6201 35.7055C11.5963 35.5999 12.274 33.9821 12.3042 33.7487C12.798 31.8128 12.5092 30.4225 14.7418 29.5831C14.8477 29.5432 15.478 29.4634 15.6034 29.4476C15.67 28.3492 15.4775 27.3206 15.5555 26.3391C15.8423 26.0457 16.3564 25.2391 16.5493 25.1172C17.4855 24.5254 19.327 22.3989 20.3076 22.2457C21.1779 22.4781 20.8434 23.6599 20.6324 24.2864C20.4105 24.9451 19.6046 25.2513 19.0595 25.6571C18.7863 26.4202 18.7417 26.6726 18.1268 27.2038L17.8241 28.8359C18.5339 28.6444 19.2403 28.4409 19.9432 28.2253Z" fill="var(--fill-0, #1B1B1B)"/>
<path id="Vector_25" d="M30.4138 75.0047C30.5915 71.2295 30.7055 63.6357 29.0142 60.266C27.0999 56.4505 26.7308 56.6137 31.3844 55.6872C32.0729 55.5501 32.5049 54.5148 33.109 54.9669C34.1377 57.0295 32.4618 58.8031 32.49 61.1181C32.5143 63.1492 32.7163 64.9877 32.8906 67.0024C33.0902 69.4262 33.2659 71.8518 33.4175 74.279C33.3764 74.3827 33.3589 74.5003 33.2811 74.5242C32.4536 74.7783 31.2714 74.8942 30.4138 75.0047Z" fill="var(--fill-0, #EBEAE2)"/>
<path id="Vector_26" d="M25.7068 72.7621C25.0265 67.7897 25.3189 63.2429 23.184 58.6674C22.8365 57.9227 23.2405 56.4914 24.2849 56.5651C28.3914 56.7614 26.3721 59.4383 26.5005 61.2256C26.7988 65.3771 26.9889 71.1458 28.2131 75.0859C28.2098 75.2493 28.2158 75.1863 28.1279 75.3443C27.5866 75.5397 26.7628 75.623 26.174 75.7056C25.9954 74.7721 25.8544 73.7098 25.7068 72.7621Z" fill="var(--fill-0, #EBEAE2)"/>
<path id="Vector_27" d="M22.2047 23.2627C22.2791 22.9652 22.2884 22.751 22.5208 22.5732C24.4688 22.7247 25.8839 22.6814 27.6247 23.6306C28.2101 23.7037 29.1759 23.6066 29.7039 23.7967C31.6154 24.4843 33.0361 25.8015 35.0376 26.3015C35.9646 26.5334 38.5266 28.6558 39.239 29.3955L39.4103 29.5522C39.3252 29.759 39.2046 29.7952 38.9431 29.8926C38.2007 30.1691 37.1431 30.6458 36.5157 31.1353C34.3348 32.835 34.4559 33.4644 31.6538 34.3427C31.2159 33.6012 30.819 33.0894 29.9357 32.8573C29.2822 32.6914 28.5895 32.8012 28.0195 33.161C27.4696 33.5003 27.0761 34.0441 26.9261 34.6731C26.7095 35.6201 27.0784 36.3928 27.6876 37.0936C27.4419 37.2052 26.1374 37.7557 26.0226 37.8473C24.9919 38.6681 23.7409 40.6629 23.0283 41.748C22.6764 42.2837 23.6134 44.0351 22.7359 44.5847C22.5284 44.464 22.4608 44.3846 22.3985 44.1475C22.187 43.3425 22.2164 42.0759 21.4475 41.547C21.2867 41.4365 21.115 41.4073 20.9261 41.457C20.482 41.5737 20.1309 42.0301 19.8723 42.3836C19.6187 42.7301 19.1569 42.8495 18.9454 43.1796C17.6844 45.1473 18.9214 48.5536 18.2674 49.2685C17.1935 49.0749 18.1739 44.8076 16.1377 45.0584C15.6498 45.1184 15.1937 45.5037 14.7877 45.7805C15.4141 43.9711 16.0143 42.1527 16.588 40.3259C16.8412 39.5369 17.297 37.9678 17.6292 37.2951L17.8383 36.5281C18.0157 35.9388 18.1372 35.6892 18.4015 35.1459C19.336 34.7992 19.5956 34.6755 20.4266 34.173C20.74 34.6373 21.0235 34.8891 21.5761 35.062C22.2312 35.2612 22.9392 35.1863 23.5381 34.8544C25.2152 33.9203 24.8788 31.4668 22.8494 30.8951C20.542 30.245 20.5082 32.9258 19.3733 32.6527C19.1817 32.1721 19.732 30.8563 19.9234 30.3003C20.5313 29.9536 20.8 29.7307 21.2794 29.226L21.3044 29.1248C21.5408 28.147 21.1057 28.3113 20.9651 27.9411C20.697 27.2351 21.9407 24.04 22.2047 23.2627Z" fill="var(--fill-0, #66F9FF)"/>
<path id="Vector_28" d="M17.8381 36.528C18.3959 36.3072 18.7734 36.4425 19.2678 36.0972L19.4368 36.2497C20.2529 36.0239 21.127 36.2665 21.7101 36.8805C22.4998 37.7121 22.5541 38.9991 21.8371 39.8941C21.1202 40.789 19.8525 41.0165 18.8691 40.4267C17.8857 39.837 17.489 38.6113 17.9404 37.5571L17.629 37.2951L17.8381 36.528Z" fill="var(--fill-0, #1B1B1B)"/>
<path id="Vector_29" d="M19.2495 36.9445C20.1041 36.7653 20.8698 36.6835 21.4802 37.4441C21.7311 37.7517 21.8412 38.1505 21.784 38.5434C21.6925 39.2035 21.3206 39.5511 20.8235 39.9298C20.0255 40.208 19.1899 40.1782 18.6311 39.4611C18.3642 39.1146 18.2506 38.6739 18.3166 38.2415C18.4203 37.586 18.7463 37.3118 19.2495 36.9445Z" fill="var(--fill-0, #F0AACC)"/>
<path id="Vector_30" d="M32.0866 27.0391C33.4224 26.6884 34.7932 27.4708 35.1717 28.7996C35.5501 30.1283 34.7965 31.5156 33.4761 31.9212C32.5977 32.1912 31.6415 31.9648 30.9765 31.3295C30.3126 30.694 30.0438 29.7488 30.2733 28.8587C30.5036 27.9685 31.1976 27.2724 32.0866 27.0391Z" fill="var(--fill-0, #1B1B1B)"/>
<path id="Vector_31" d="M32.3317 27.5274C33.3893 27.317 34.4204 27.9892 34.6554 29.0413C34.8913 30.0933 34.2437 31.1408 33.1976 31.4005C32.4984 31.5741 31.7609 31.3552 31.2694 30.8289C30.7779 30.3025 30.6095 29.5511 30.8303 28.8656C31.051 28.18 31.6253 27.668 32.3317 27.5274Z" fill="var(--fill-0, #F0AACC)"/>
<path id="Vector_32" d="M23.951 23.9592C25.1881 23.4067 26.6381 23.9637 27.1879 25.2021C27.7377 26.4405 27.1774 27.89 25.9374 28.4366C24.702 28.9814 23.2592 28.4232 22.7116 27.1889C22.164 25.9545 22.7184 24.5098 23.951 23.9592Z" fill="var(--fill-0, #1B1B1B)"/>
<path id="Vector_33" d="M24.6462 24.3412C26.8426 24.0284 27.888 26.9153 25.3675 27.9727C22.7648 28.2415 22.0992 25.4162 24.6462 24.3412Z" fill="var(--fill-0, #F0AACC)"/>
<path id="Vector_34" d="M17.448 41.6436C17.5541 41.6302 17.6488 41.6514 17.7572 41.6649L17.8213 41.8088C17.7302 42.1923 17.3063 42.7063 17.0883 43.2511L17.0513 43.3452C16.9668 43.4348 17.0101 43.3948 16.849 43.4234L16.7553 43.2525C16.7015 42.6945 17.1365 42.0687 17.448 41.6436Z" fill="var(--fill-0, #1B1B1B)"/>
<path id="Vector_35" d="M29.6947 26.0239L29.9098 26.0825L29.979 26.2509C29.8594 26.5412 29.1862 27.252 28.8964 27.6706L28.8116 27.7124L28.6683 27.6284L28.6321 27.3542C28.7898 26.8058 29.2805 26.3926 29.6947 26.0239Z" fill="var(--fill-0, #1B1B1B)"/>
<path id="Vector_36" d="M23.6181 36.4339C24.2564 36.2957 25.2872 36.2334 25.2219 37.1543C24.4332 36.7654 23.9158 36.9609 23.6199 36.7253L23.6181 36.4339Z" fill="var(--fill-0, #1B1B1B)"/>
<path id="Vector_37" d="M27.4902 28.6033L27.7346 28.7682C27.8251 29.1842 27.9789 30.0779 27.8281 30.466C27.1784 30.0641 27.1817 29.2249 27.4902 28.6033Z" fill="var(--fill-0, #1B1B1B)"/>
<path id="Vector_38" d="M36.4828 29.4165C36.8362 29.4524 36.7534 29.389 36.9345 29.5965C36.8571 29.8396 36.4876 30.0475 36.2259 30.4223L36.1775 30.4913L36.1055 30.5774L35.9618 30.5591L35.9157 30.3581C36.0683 29.857 36.1228 29.8023 36.4828 29.4165Z" fill="var(--fill-0, #1B1B1B)"/>
<path id="Vector_39" d="M28.3476 31.7642L28.5237 31.8154L28.5253 31.9376C28.2729 32.1796 28.0147 32.255 27.6901 32.3839L27.4664 32.2826L27.4746 32.1183C27.7386 31.8938 28.0118 31.8522 28.3476 31.7642Z" fill="var(--fill-0, #1B1B1B)"/>
<path id="Vector_40" d="M23.3145 18.8206C24.4305 18.6293 26.5603 19.2538 27.6793 19.5575C28.9454 19.9016 30.6143 19.9779 31.7989 20.3663C35.5006 21.5811 39.6772 23.7437 42.8412 26.026C41.4726 26.2294 41.0843 26.4723 40.3377 27.6437C40.1157 28.185 40.0962 28.5003 40.0226 29.0712C38.4751 28.0853 37.7873 27.2172 36.3895 26.1453C35.918 25.7834 34.5968 25.5769 33.9756 25.2701C32.6985 24.6391 31.454 23.8819 30.1592 23.2988C29.4099 22.9615 28.5003 23.0761 27.6973 22.947C27.2469 22.8745 26.3652 22.2566 25.936 22.2076C24.7067 22.067 23.5828 22.0664 22.3272 21.9031C22.0252 20.4704 22.0582 19.6778 23.3145 18.8206Z" fill="var(--fill-0, #EBEAE2)"/>
<path id="Vector_41" d="M42.2884 26.7126C43.2336 26.6019 43.7599 27.2641 43.5726 28.1627C43.404 28.9699 42.2743 29.6621 41.6016 30.0667C40.1247 30.9547 38.6502 31.8387 37.1828 32.7432C33.347 35.0937 29.5322 37.4782 25.7392 39.8967L24.6924 40.54C24.9339 40.0279 25.5182 38.9901 25.9506 38.6567C26.8985 37.9261 28.3077 37.7154 29.2975 37.0779C29.997 36.6274 30.6056 35.7585 31.3005 35.2539C32.1306 34.6511 33.2309 34.5765 34.0981 34.0306C34.9467 33.5031 35.7971 32.448 36.5339 31.8268C38.2667 30.3662 40.6313 30.7789 40.9512 28.0571C41.0202 27.4691 41.7118 26.9867 42.2884 26.7126Z" fill="var(--fill-0, #EBEAE2)"/>
<path id="Vector_42" d="M35.5795 41.4329C36.0873 41.3576 37.4937 41.5744 37.7294 42.1361C37.7056 42.6712 37.3634 42.9911 37.015 43.3581C35.9506 44.4794 35.2151 45.883 34.7262 47.3414C34.4743 48.0946 34.3269 48.9133 33.9594 49.6168L33.6004 49.7981C32.645 49.7569 30.951 47.9666 32.7551 47.1715C33.7108 46.7504 34.4892 44.9391 34.8423 43.9955C35.1475 43.18 34.9939 42.0895 35.5795 41.4329Z" fill="var(--fill-0, #EBEAE2)"/>
<path id="Vector_43" d="M13.5284 45.2069C13.8901 45.1649 13.7686 45.1351 14.0584 45.2617C14.5299 46.2277 13.7449 47.7887 15.5349 47.3238C15.7948 47.374 16.7516 48.2579 17.0753 48.5216L17.0962 48.6134C17.1812 48.9775 17.3763 49.6282 17.7004 49.8294C19.0785 49.569 18.8743 50.1032 19.9013 50.4024C21.9154 50.9893 22.6989 50.649 21.2587 53.0538C20.4969 53.1966 20.3459 52.8796 19.8879 52.3401C17.9039 50.0005 14.9218 48.6291 12.518 46.7908C11.933 46.3434 13.2518 45.4515 13.5284 45.2069Z" fill="var(--fill-0, #EBEAE2)"/>
<path id="Vector_44" d="M28.7345 38.8292C28.7718 38.8195 28.9407 38.8368 28.975 38.839C29.2194 39.3693 29.0945 42.7701 29.2401 43.7172C29.4967 45.3958 29.9801 46.7001 30.4914 48.3248C30.7311 49.0855 29.623 49.1784 29.0854 49.2618C28.1918 49.1129 28.2535 48.485 28.3639 47.777C28.7821 45.0877 28.0126 42.4052 27.2633 39.7899L28.7345 38.8292Z" fill="var(--fill-0, #EBEAE2)"/>
<path id="Vector_45" d="M19.3614 44.6135C19.8252 44.6848 21.6636 47.464 22.1789 47.9503C22.8026 48.5391 24.5555 49.3565 24.6487 50.1662C24.5137 50.4809 24.603 50.3836 24.3229 50.5462C23.7834 50.6037 23.1841 50.7016 22.6416 50.7777C22.0994 49.9924 21.7585 49.2156 21.0715 48.3852C20.5184 47.7165 19.4672 46.5383 18.944 45.8211C18.7521 45.5581 19.1546 44.9178 19.3614 44.6135Z" fill="var(--fill-0, #EBEAE2)"/>
<path id="Vector_46" d="M36.4099 34.0349C36.7247 33.9923 36.6056 33.9641 36.8611 34.1316C37.0421 34.6599 36.6509 36.277 36.7421 36.9015C36.9101 38.0532 37.6671 39.1575 37.8732 40.2604C37.9226 40.5258 37.7885 40.6307 37.64 40.7736C37.3146 40.8602 37.0892 40.7357 36.7603 40.6205C36.4216 40.6595 36.1521 40.7309 35.8486 40.5979C35.3451 39.939 36.1515 38.2565 35.9174 37.1359C35.488 35.0801 34.231 35.2706 36.4099 34.0349Z" fill="var(--fill-0, #EBEAE2)"/>
<path id="Vector_47" d="M23.6721 42.1355C24.0429 42.4031 25.3364 46.6222 26.1573 47.1482C26.4505 47.3362 27.4583 48.6524 27.4561 49.0041C27.4544 49.2653 27.3221 49.382 27.1581 49.5687C26.6386 49.6649 26.1199 49.8241 25.6157 49.721C25.1664 49.399 24.9143 47.8923 24.7314 47.2938C24.4336 46.3194 24.075 45.5832 23.6016 44.685C23.8613 43.6857 23.5391 42.9592 23.6721 42.1355Z" fill="var(--fill-0, #EBEAE2)"/>
<path id="Vector_48" d="M11.0608 38.0511C11.1238 38.0621 12.295 38.6787 12.3828 38.7301C12.9305 39.0511 12.7142 40.0121 12.5972 40.5591C12.4787 41.1135 12.5716 41.4039 12.5759 41.9571C12.5834 42.9372 13.9313 43.9314 13.1819 44.6844C12.6237 45.0198 12.0465 45.5556 11.525 44.9836C11.4758 44.834 11.5887 43.048 11.6129 42.7803C11.7211 41.5874 10.8856 38.8453 11.0608 38.0511Z" fill="var(--fill-0, #EBEAE2)"/>
<path id="Vector_49" d="M27.4823 50.0615C29.5757 49.2526 29.1195 51.9596 28.7199 53.0158C28.5675 53.4185 28.3015 53.4938 27.945 53.6482C26.5026 53.6319 26.8341 53.2029 26.2416 52.0808C26.0237 51.6682 25.8297 51.2102 25.9556 50.752C26.3083 50.2265 26.8714 50.1914 27.4823 50.0615Z" fill="var(--fill-0, #EBEAE2)"/>
<path id="Vector_50" d="M22.536 53.9488C23.4927 53.9037 24.1773 54.301 25.1057 54.4457C25.8928 54.5684 27.8311 53.791 28.1537 54.8069C28.1248 55.1676 28.0131 55.285 27.8132 55.5771C26.3702 56.7055 22.1029 55.7558 22.536 53.9488Z" fill="var(--fill-0, #EBEAE2)"/>
<path id="Vector_51" d="M27.4153 34.9913C28.056 32.8905 30.0007 32.8803 31.2172 34.561C30.9671 34.7743 30.4603 35.2401 30.1891 35.3623C28.9756 36.7959 27.7099 37.668 27.4153 34.9913Z" fill="var(--fill-0, #F0AACC)"/>
<path id="Vector_52" d="M21.5484 31.6254C23.8177 30.9916 25.0608 33.1509 22.9406 34.5075C22.2574 34.6421 21.1078 34.5304 20.7987 33.8241C20.8276 33.3489 20.8408 33.5854 21.2419 33.1117C21.2542 32.8444 21.2591 32.784 21.1162 32.5626C21.0506 32.4589 20.983 32.3563 20.9136 32.2551C21.0117 31.96 21.2823 31.82 21.5484 31.6254Z" fill="var(--fill-0, #F0AACC)"/>
<path id="Vector_53" d="M23.2241 51.2811C23.6471 51.1946 24.2062 51.086 24.6123 51.2656C25.4024 51.615 26.2571 52.6723 25.878 53.5724C25.5781 53.7968 25.5913 53.7296 25.1606 53.7731C24.2767 53.6002 22.5536 53.4062 22.362 52.3789C22.4935 51.8426 22.7906 51.5964 23.2241 51.2811Z" fill="var(--fill-0, #EBEAE2)"/>
<path id="Vector_54" d="M32.5169 52.0176C33.6394 52.2202 32.8456 53.3885 32.414 53.8567C31.5734 54.7697 30.9326 55.2726 29.6866 55.3597C29.2882 55.2038 28.8874 55.0082 28.7866 54.5511C29.0463 53.5633 30.392 53.5848 31.138 53.1211C31.5061 52.8922 32.1642 52.3142 32.5169 52.0176Z" fill="var(--fill-0, #EBEAE2)"/>
<path id="Vector_55" d="M30.4668 49.8629C30.6232 49.8254 31.1005 49.7105 31.2328 49.743C33.8947 50.3976 32.5681 51.1596 31.3552 52.0274C31.0192 52.3124 30.6546 52.6132 30.2191 52.6853C29.1175 52.4303 29.8962 50.3731 30.4668 49.8629Z" fill="var(--fill-0, #EBEAE2)"/>
<path id="Vector_56" d="M20.4298 28.6034C20.5643 28.558 20.5614 28.5762 20.7122 28.5791C20.7595 28.852 20.7447 28.7684 20.6418 29.0614C19.6118 29.9738 17.8141 30.1615 16.6762 30.9937C16.2331 31.3177 15.93 31.6701 15.3659 31.6579C14.9976 31.3767 14.381 30.8786 14.5215 30.3821C14.8274 30.1482 16.0621 30.08 16.6498 29.8965C17.9315 29.4963 19.18 29.0993 20.4298 28.6034Z" fill="var(--fill-0, #EBEAE2)"/>
<path id="Vector_57" d="M13.6282 30.9524C13.7482 31.018 14.4113 31.6533 14.4996 31.7666C15.0507 32.4742 14.0753 33.4415 13.8386 34.0928C13.7288 34.3949 13.6887 34.9092 13.6539 35.2335L12.9607 35.804C12.717 35.9596 12.6386 35.987 12.365 36.0846L12.2335 36C12.2343 35.7588 12.7066 34.6451 12.8172 34.2709C13.0803 33.3808 13.2459 31.6671 13.6282 30.9524Z" fill="var(--fill-0, #EBEAE2)"/>
<path id="Vector_58" d="M15.1658 34.6296C15.3173 34.6016 15.3504 34.6357 15.4938 34.6977C15.7275 35.0204 15.7822 35.0771 15.8481 35.4771C15.6325 36.2141 14.7618 36.2699 14.2261 36.7289C13.5832 37.2799 13.5642 38.0898 12.6565 38.212C12.3155 37.9789 11.816 37.7206 11.7669 37.2984C11.938 37.0451 12.2699 36.9098 12.5457 36.7678C13.6109 36.2196 14.3398 35.4843 15.1658 34.6296Z" fill="var(--fill-0, #EBEAE2)"/>
<path id="Vector_59" d="M20.0194 22.886L20.2106 23.0034C20.703 23.9995 19.028 24.7796 18.5343 25.3653C18.2923 25.6526 18.368 26.1461 17.9628 26.5028C17.6679 26.5747 17.7775 26.5937 17.5419 26.4656C17.1878 26.1835 16.9957 25.9901 16.679 25.6633C18.1952 24.6586 18.7854 24.2182 20.0194 22.886Z" fill="var(--fill-0, #EBEAE2)"/>
<path id="Vector_60" d="M14.431 37.4697C14.6068 37.5984 15.6835 39.421 16.027 39.8643C15.8891 40.3217 15.7364 40.9146 15.5104 41.3221L13.6234 38.5308L14.431 37.4697Z" fill="var(--fill-0, #EBEAE2)"/>
<path id="Vector_61" d="M20.2907 33.0022L20.3306 33.2105C20.2542 33.4172 20.1283 33.5471 19.9602 33.6832C19.5452 34.0195 16.9801 35.2455 16.5278 35.2034C16.305 34.8356 16.11 34.5927 16.1856 34.1807C17.9519 33.8246 18.6024 33.6874 20.2907 33.0022Z" fill="var(--fill-0, #EBEAE2)"/>
<path id="Vector_62" d="M16.2172 26.4637C16.5311 26.5479 17.2356 27.0973 17.5394 27.3144C17.4662 27.9454 17.3145 28.4581 17.1519 29.069L16.2203 29.3307C16.2023 28.6748 16.0819 26.988 16.2172 26.4637Z" fill="var(--fill-0, #EBEAE2)"/>
<path id="Vector_63" d="M17.5872 31.1718C18.0309 31.4669 18.2846 32.3776 18.1299 32.9265C17.8328 33.2577 17.7535 33.1954 17.2589 33.349C16.9502 33.0195 16.6671 32.3391 16.4954 31.9129C16.801 31.6528 17.2402 31.3921 17.5872 31.1718Z" fill="var(--fill-0, #EBEAE2)"/>
<path id="Vector_64" d="M20.8391 42.0693C21.0117 42.0652 21.1713 42.1554 21.3352 42.2253C21.63 42.7736 20.3794 43.3351 19.941 43.6042L19.6111 43.7353L19.5065 43.6727C19.5992 43.4545 20.4743 42.6277 20.8391 42.0693Z" fill="var(--fill-0, #EBEAE2)"/>
<path id="Vector_65" d="M16.0803 45.6765C16.2058 45.6542 16.2931 45.6762 16.4223 45.6904L16.4579 45.8373C16.2184 46.1278 15.6151 46.494 15.2809 46.7179C15.074 46.802 15.1682 46.809 14.9892 46.7337L14.9882 46.5135C15.321 46.0965 15.6278 45.9467 16.0803 45.6765Z" fill="var(--fill-0, #EBEAE2)"/>
</g>
<rect id="Rectangle 8" x="12.2871" y="66.1196" width="68.4602" height="10.5323" fill="url(#paint0_linear_0_126)"/>
</g>
<defs>
<linearGradient id="paint0_linear_0_126" x1="46.5172" y1="66.1196" x2="46.5172" y2="76.652" gradientUnits="userSpaceOnUse">
<stop stop-color="#1C1C1C" stop-opacity="0"/>
<stop offset="0.971154" stop-color="#1C1C1C"/>
</linearGradient>
</defs>
</svg>
