<svg preserveAspectRatio="none" width="100%" height="100%" overflow="visible" style="display: block;" viewBox="0 0 61.8702 90.2023" fill="none" xmlns="http://www.w3.org/2000/svg">
<g id="Group 9">
<path id="Vector" d="M61.1591 7.23132C60.1749 4.6993 58.5104 2.74463 56.1372 1.41712C53.9929 0.217703 51.687 -0.204655 49.2514 0.0905981C48.2068 0.217277 47.2019 0.503046 46.2379 0.924412C44.3704 1.74082 42.8352 2.97392 41.6327 4.62003C41.4263 4.90241 41.2433 5.19893 41.1176 5.52674C41.0732 5.64252 41.0293 5.76156 41.0098 5.883C40.9656 6.15703 41.1253 6.40387 41.3883 6.49559C41.5638 6.55688 41.7316 6.52574 41.8968 6.45639C42.1759 6.33933 42.4234 6.17345 42.6325 5.9559C42.9514 5.62385 43.2686 5.28995 43.5783 4.94926C45.5605 2.76911 48.0214 1.66665 50.9692 1.73884C56.0725 1.86368 60.2532 6.08555 60.1575 11.3902C60.0927 14.9821 57.9816 18.2168 54.7319 19.7476C54.3494 19.9276 53.9535 20.0788 53.5687 20.254C53.3431 20.3567 53.12 20.4689 52.9085 20.5978C52.6795 20.7374 52.5159 20.9421 52.4324 21.2011C52.3369 21.497 52.4449 21.7528 52.7223 21.8843C52.8937 21.9657 53.0763 21.9919 53.2669 21.9859C53.8124 21.9689 54.32 21.7964 54.8169 21.5974C59.907 19.5588 62.6338 14.3105 61.6829 9.1046C61.5928 8.53023 61.4076 7.87052 61.1591 7.23132Z" fill="var(--fill-0, #F0AACC)"/>
<path id="Vector_2" d="M56.2718 11.5636C56.8035 10.9585 57.0308 10.2648 56.8923 9.45885C56.7217 8.46765 55.8055 7.64402 54.6324 7.68379C54.496 7.68846 54.3604 7.71281 54.2242 7.72569C54.0991 7.73772 54.0637 7.71054 54.0677 7.58697C54.077 7.28521 54.0306 6.99067 53.9523 6.70165C53.8357 6.27066 53.6143 5.89698 53.2748 5.60682C52.6402 5.06487 51.9187 4.96749 51.1413 5.2333C50.8081 5.34724 50.5169 5.53775 50.2496 5.76648C50.148 5.85339 50.1145 5.84773 50.0464 5.73761C49.8883 5.48199 49.7077 5.24534 49.4761 5.05185C49.0267 4.6762 48.5172 4.49092 47.924 4.5515C46.8064 4.66558 46.0575 5.71412 45.9951 6.62352C45.9852 6.76845 46.0075 6.92485 46.0545 7.06243C46.1454 7.32796 46.4394 7.36603 46.6117 7.14084C46.6788 7.05323 46.7241 6.94792 46.7728 6.84771C46.8544 6.67985 46.9231 6.50561 47.0109 6.34128C47.1353 6.10873 47.2968 5.90491 47.5186 5.75389C47.9238 5.47774 48.3755 5.48511 48.7676 5.77795C48.95 5.91426 49.101 6.08155 49.1936 6.28905C49.2792 6.48126 49.3419 6.68367 49.4144 6.88168C49.4525 6.98614 49.4737 7.10093 49.5309 7.19336C49.6901 7.45068 50.0086 7.49809 50.2416 7.3073C50.2987 7.26059 50.3452 7.20015 50.3937 7.14368C50.4992 7.02096 50.5999 6.89414 50.7078 6.77355C50.9091 6.5485 51.1406 6.3594 51.4217 6.24475C52.1491 5.94794 52.7204 6.28099 52.9487 6.87121C53.0898 7.23625 53.0742 7.6017 53.0046 7.97296C52.9794 8.10729 52.9345 8.23821 52.9143 8.37309C52.8841 8.57451 52.9586 8.73926 53.1226 8.86141C53.3154 9.00493 53.5261 9.04966 53.7564 8.96799C53.9205 8.90996 54.0816 8.8433 54.2467 8.78866C54.5012 8.7043 54.7622 8.70331 55.0201 8.7653C55.5094 8.88278 55.8388 9.26537 55.8944 9.76415C55.9213 10.0052 55.8822 10.2353 55.7843 10.456C55.6272 10.8097 55.3752 11.0745 55.0372 11.2621C54.8964 11.3404 54.7503 11.4169 54.6286 11.5201C54.3601 11.7478 54.3728 12.1079 54.6488 12.325C54.7258 12.3858 54.817 12.4318 54.9074 12.4717C55.3793 12.6805 55.6725 13.0519 55.8735 13.512C55.9803 13.7563 56.0289 14.0074 56.0082 14.2749C55.9732 14.7264 55.756 15.0425 55.342 15.2304C55.0892 15.3451 54.8251 15.4078 54.5294 15.4497C54.4058 15.4719 54.2572 15.4915 54.1126 15.5266C53.958 15.5641 53.8354 15.6508 53.8169 15.8224C53.7985 15.9929 53.9026 16.0999 54.0377 16.1806C54.1687 16.2587 54.3133 16.292 54.4647 16.2992C54.9063 16.3202 55.3318 16.2498 55.7413 16.0807C56.564 15.7411 57.0243 15.0559 57.0406 14.1661C57.0499 13.6524 56.9118 13.1834 56.6583 12.7433C56.4896 12.4506 56.2879 12.1831 56.0372 11.9549C55.9788 11.9017 55.9812 11.8509 56.0324 11.7992C56.1112 11.7197 56.198 11.6475 56.2718 11.5636Z" fill="var(--fill-0, #F0AACC)"/>
<path id="Vector_3" d="M42.2864 37.9125C42.4286 37.6407 42.4574 37.3435 42.4375 37.0505C42.4257 37.0052 42.417 36.9684 42.407 36.933C42.2585 36.4022 42.0527 35.8969 41.7484 35.4355C41.5359 35.1142 41.3246 34.7915 41.0973 34.4801C40.0292 33.0194 38.7333 31.7951 37.2324 30.7859C37.1213 30.7124 36.9923 30.6514 36.863 30.6189C36.6065 30.5525 36.3547 30.6797 36.2507 30.9204C36.2126 31.0095 36.1963 31.1128 36.1969 31.2105C36.1993 31.5617 36.2538 31.9041 36.3906 32.231C36.7427 33.069 37.1459 33.8814 37.6273 34.6542C38.3762 35.8559 39.2846 36.9203 40.3519 37.8516C40.5695 38.0413 40.8077 38.1984 41.0686 38.3187C41.5215 38.5282 42.0571 38.3512 42.2864 37.9125Z" fill="var(--fill-0, #EBEAE2)"/>
<path id="Vector_4" d="M53.3728 83.0101C53.1878 82.7298 53.0027 82.4496 52.804 82.1778C51.8246 80.8431 50.8443 79.5098 49.8575 78.1807C48.9746 76.9918 48.0822 75.8099 47.1947 74.6238C46.6724 73.926 46.1858 73.2042 45.7445 72.4512C45.0565 71.2778 44.4566 70.0648 44.0374 68.7669C43.9264 68.4229 43.8067 68.0832 43.6784 67.7449C43.2351 66.5801 42.9063 65.3812 42.637 64.1654C42.5186 63.6304 42.3946 63.0968 42.2606 62.566C42.1528 62.1399 41.9798 61.7351 41.663 61.4209C41.0197 60.7854 40.2471 60.4556 39.3316 60.5519C38.4434 60.6439 37.6897 61.0189 37.0825 61.6828C36.7448 62.0508 36.4606 62.4584 36.178 62.8689C36.0163 63.1052 35.8395 63.3303 35.6583 63.5511C35.4982 63.7464 35.2957 63.895 35.0575 63.9814C34.7776 64.0847 34.4961 64.1838 34.2109 64.2701C33.8292 64.3862 33.4525 64.5107 33.1025 64.7061C32.7102 64.9255 32.5123 65.2623 32.485 65.7054C32.4511 66.2545 32.617 66.7428 32.9802 67.1491C33.3205 67.5284 33.68 67.8921 34.0513 68.2417C34.959 69.0952 35.8168 69.9954 36.6199 70.9494C37.3098 71.7675 37.966 72.6125 38.6091 73.4688C39.9023 75.19 41.2066 76.904 42.5083 78.6181C43.8929 80.4425 45.2799 82.2656 46.6656 84.0886C47.2154 84.8119 47.7637 85.5366 48.3137 86.2599C49.0596 87.2407 49.8063 88.2202 50.5537 89.1997C50.7281 89.429 50.9215 89.6427 51.1583 89.8055C51.3413 89.9314 51.5358 90.0517 51.7417 90.1324C52.1131 90.2768 52.4583 90.1961 52.7312 89.9031C52.8565 89.7687 52.9659 89.6101 53.0443 89.4445C53.2086 89.0949 53.3577 88.7382 53.4951 88.3787C53.7718 87.6526 53.888 86.8883 53.9979 86.124C54.0727 85.6045 54.0863 85.0823 53.9802 84.567C53.8928 84.0009 53.685 83.4843 53.3728 83.0101Z" fill="var(--fill-0, #EBEAE2)"/>
<path id="Vector_5" d="M33.6601 79.5585C33.5897 79.6264 33.5074 79.6901 33.4189 79.7312C33.1927 79.8331 32.9653 79.9364 32.7293 80.0114C32.0162 80.2379 31.2847 80.3893 30.5486 80.5181C28.8221 80.8253 27.0818 80.9229 25.3342 80.8876C25.1756 80.8847 25.0171 80.8819 24.8582 80.8762C23.0509 80.8139 21.2613 80.6016 19.498 80.1912C18.7093 80.0072 17.9305 79.7906 17.1734 79.5005C17.0458 79.4523 16.9188 79.3985 16.7977 79.3363C16.7215 79.2966 16.6479 79.2443 16.5883 79.182C16.4642 79.0546 16.4544 78.8734 16.5819 78.7461C16.7038 78.6243 16.8427 78.5139 16.9901 78.4248C17.2988 78.2379 17.6142 78.0624 17.9341 77.8954C18.8387 77.4241 19.7478 76.9612 20.6534 76.4913C20.9071 76.3597 21.1564 76.2181 21.4045 76.0752C22.304 75.56 22.9271 74.8098 23.2956 73.8431C23.4912 73.3293 23.6366 72.8028 23.7382 72.2635C24.0315 70.708 24.2125 69.1383 24.3378 67.5629C24.4955 65.5757 24.5627 63.5871 24.5302 61.5956C24.5024 59.89 24.4526 58.1859 24.3388 56.4846C24.2683 55.4287 24.1746 54.3756 24.0277 53.3268C23.9984 53.1173 23.9532 52.9107 23.9244 52.7012C23.904 52.554 23.8816 52.4025 23.8908 52.2553C23.9061 52.009 24.0502 51.876 24.2935 51.8491C24.3552 51.842 24.4178 51.8406 24.4799 51.842C24.7647 51.8491 25.0495 51.8548 25.3342 51.8618C25.8696 51.8746 26.4049 51.8873 26.9402 51.9001C26.9651 51.9015 26.99 51.9001 27.0149 51.9001C27.4187 51.8958 27.5378 52.0869 27.5348 52.462C27.5339 52.561 27.5155 52.6615 27.4929 52.7578C27.1872 54.0571 27.0231 55.3777 26.8858 56.7025C26.6591 58.8936 26.4928 61.0903 26.4214 63.2926C26.3647 65.0463 26.3741 66.8 26.4697 68.5537C26.5393 69.8347 26.6439 71.1113 26.8288 72.381C26.9277 73.0604 27.092 73.7242 27.3665 74.3569C27.6656 75.0476 28.1162 75.6166 28.7263 76.0554C28.9482 76.2153 29.1786 76.3653 29.4153 76.5026C30.2986 77.0136 31.1881 77.5146 32.0712 78.0256C32.4803 78.2634 32.8836 78.5111 33.282 78.7659C33.4271 78.8579 33.5623 78.9739 33.6802 79.0999C33.8263 79.2556 33.8138 79.4099 33.6601 79.5585ZM36.1025 78.8678C35.4816 78.194 34.7703 77.6307 33.9852 77.1636C33.226 76.7107 32.4571 76.2748 31.6937 75.8289C31.1237 75.4977 30.5547 75.1637 29.9865 74.8268C29.4024 74.4828 29.0115 73.979 28.8187 73.3335C28.705 72.9528 28.6089 72.5635 28.5464 72.1715C28.4602 71.6308 28.4081 71.0845 28.35 70.5395C28.2248 69.3633 28.1588 68.1829 28.1318 66.9996C28.0868 65.0336 28.1226 63.0676 28.2545 61.1044C28.3864 59.1413 28.5377 57.1809 28.7993 55.2305C28.922 54.3176 29.0829 53.4103 29.3352 52.5228C29.558 51.7387 29.9969 51.1343 30.798 50.8526C30.8097 50.8484 30.8215 50.8442 30.833 50.8399C31.7794 50.4563 32.6138 49.9001 33.3464 49.1924C34.2291 48.3375 34.9672 47.3722 35.5819 46.3092C36.3886 44.9122 37.0139 43.4359 37.5866 41.9328C37.6197 41.8464 37.6498 41.7587 37.6808 41.6709C37.7495 41.477 37.8154 41.2817 37.878 41.0864C38.0045 40.69 38.0484 40.2824 37.9989 39.8691C37.9503 39.4657 37.8134 39.0935 37.5302 38.792C37.4476 38.7042 37.3408 38.6292 37.2307 38.5797C37.0644 38.5061 36.9029 38.5811 36.8307 38.7467C36.7959 38.8259 36.7767 38.9123 36.7493 38.9944C36.507 39.7276 36.2837 40.4664 36.018 41.1911C35.9591 41.351 35.899 41.511 35.8381 41.6709C35.3715 42.8952 34.8442 44.0941 34.203 45.242C33.6406 46.2497 32.9614 47.1655 32.1295 47.9666C31.6135 48.4634 31.0337 48.8725 30.3773 49.157C29.599 49.4924 28.7935 49.7571 27.9551 49.9001C27.5263 49.9737 27.0918 50.0147 26.6603 50.0742C26.2184 50.1365 25.7756 50.1365 25.3342 50.0954C25.2921 50.0912 25.2497 50.0898 25.2076 50.0855C23.8994 49.9426 22.6379 49.6198 21.4348 49.0777C20.6979 48.7465 20.0535 48.2851 19.4978 47.7034C18.9117 47.0891 18.3938 46.4196 17.9706 45.6808C17.9212 45.5944 17.8736 45.5067 17.8169 45.426C17.7222 45.2901 17.5736 45.2363 17.4248 45.3C17.3123 45.3481 17.2012 45.4132 17.1088 45.4925C16.899 45.6737 16.7478 45.903 16.6367 46.1563C16.5583 46.3361 16.5433 46.5173 16.6291 46.6984C16.6874 46.823 16.7332 46.9546 16.807 47.0679C17.3378 47.8845 17.9416 48.6446 18.665 49.3C19.2964 49.8732 19.9986 50.3431 20.7847 50.68C21.4567 50.9673 21.8335 51.5037 22.0294 52.176C22.1404 52.5582 22.2177 52.9517 22.2814 53.3438C22.4427 54.3402 22.5382 55.3437 22.6043 56.3515C22.6949 57.7301 22.7421 59.1101 22.7807 60.4916C22.8334 62.3712 22.8113 64.2495 22.7064 66.1277C22.6036 67.9677 22.4222 69.8007 22.1013 71.6167C22.0257 72.0441 21.9139 72.4673 21.801 72.8877C21.5751 73.7284 21.0688 74.3413 20.2856 74.7305C19.6844 75.0306 19.0917 75.3477 18.4977 75.6619C17.7056 76.0808 16.911 76.4955 16.1268 76.9272C15.4592 77.2967 14.851 77.751 14.3038 78.2832C14.2148 78.3696 14.1248 78.4573 14.0478 78.555C13.7139 78.9767 13.7334 79.4566 14.113 79.8331C14.2527 79.9718 14.4152 80.0978 14.5872 80.1926C14.9678 80.4035 15.3537 80.6087 15.7507 80.7856C16.765 81.24 17.8221 81.5726 18.9032 81.8246C21.0427 82.3214 23.1905 82.5818 25.3342 82.6214C27.1512 82.654 28.9653 82.528 30.7688 82.2435C31.8223 82.0411 32.7951 81.8288 33.7391 81.5018C34.482 81.2457 35.2009 80.9343 35.8697 80.5181C35.9955 80.4389 36.1209 80.3525 36.2252 80.2478C36.5281 79.9449 36.572 79.5118 36.341 79.1537C36.2743 79.0504 36.1866 78.9584 36.1025 78.8678Z" fill="var(--fill-0, #EBEAE2)"/>
<path id="Vector_6" d="M41.3451 41.6773C41.3355 41.6745 41.3253 41.6731 41.3155 41.6702C41.2422 41.6476 41.1676 41.6292 41.0926 41.6122C40.868 41.5627 40.6624 41.5839 40.4746 41.6702C40.3771 41.7155 40.2838 41.7764 40.1958 41.8571C40.0194 42.0184 39.8769 42.2081 39.7699 42.4204C39.5794 42.7969 39.3879 43.1748 39.2159 43.5612C38.3032 45.6093 37.5478 47.7154 36.9048 49.8626C36.6764 50.6241 36.4612 51.3913 36.3626 52.1853C36.3271 52.4712 36.3115 52.7543 36.3817 53.0374C36.3994 53.135 36.4022 53.2384 36.4377 53.3289C36.4962 53.479 36.5568 53.6333 36.6499 53.7606C36.9314 54.1471 37.3772 54.2122 37.7628 53.9319C37.8824 53.8441 37.9899 53.738 38.0919 53.6304C38.4019 53.302 38.637 52.9199 38.8473 52.5236C39.1451 51.9617 39.3957 51.3785 39.6186 50.784C39.8545 50.1556 40.0838 49.5243 40.308 48.8916C40.8395 47.3899 41.39 45.8952 41.8286 44.3638C41.9173 44.0538 41.9846 43.7367 42.0454 43.4211C42.1147 43.0602 42.0747 42.7035 41.9819 42.3496C41.8917 42.0057 41.6779 41.7863 41.3451 41.6773Z" fill="var(--fill-0, #EBEAE2)"/>
<path id="Vector_7" d="M33.3327 55.1399C32.5816 55.2673 31.9848 55.6338 31.5431 56.2495C31.0675 56.912 30.7212 57.6409 30.477 58.418C30.3723 58.7506 30.3021 59.0917 30.2739 59.4413C30.2507 59.7286 30.2582 60.0131 30.3922 60.2792C30.5503 60.5948 30.7517 60.8765 31.0256 61.1001C31.3029 61.328 31.6211 61.4667 31.9802 61.4809C32.2273 61.4908 32.4757 61.471 32.7235 61.4653C33.2719 61.3662 33.7401 61.1185 34.1422 60.7477C34.8386 60.1051 35.3817 59.338 35.731 58.4675C36.1265 57.481 35.9238 56.5482 35.1958 55.7711C34.7001 55.2418 34.0713 55.0167 33.3327 55.1399Z" fill="var(--fill-0, #EBEAE2)"/>
<path id="Vector_8" d="M56.0195 76.9027C54.8933 75.6231 53.7718 74.3394 52.6462 73.0598C52.1448 72.4894 51.637 71.9261 51.1332 71.3585C50.4555 70.5956 49.76 69.8497 49.0309 69.1349C48.8513 68.9594 48.653 68.8122 48.4311 68.6961C48.3058 68.631 48.227 68.6622 48.1514 68.7853C48.067 68.9212 48.0469 69.0613 48.1079 69.2113C48.1455 69.3048 48.1823 69.3968 48.2215 69.4888C48.6384 70.464 49.1501 71.3897 49.736 72.27C50.3969 73.2651 51.0752 74.2488 51.774 75.2155C52.9682 76.8701 54.216 78.4851 55.51 80.0633C55.5493 80.11 55.5879 80.1609 55.6354 80.2005C55.782 80.3209 55.9475 80.3492 56.1245 80.277C56.293 80.2076 56.4254 80.0944 56.4896 79.9231C56.5459 79.7731 56.5933 79.616 56.6226 79.4589C56.7004 79.0385 56.6955 78.6167 56.6305 78.1949C56.5779 77.6939 56.3489 77.2763 56.0195 76.9027Z" fill="var(--fill-0, #EBEAE2)"/>
<path id="Vector_9" d="M35.116 28.0048C35.5103 27.784 35.9288 27.6255 36.3961 27.6694C36.756 27.7047 37.1117 27.7571 37.4498 27.8972C37.6222 27.968 37.8001 28.026 37.9754 28.0897C38.3469 28.2256 38.6395 28.1563 38.8892 27.8194C39.2751 27.2985 39.7371 26.8428 40.2188 26.4082C40.7555 25.9228 41.3338 25.4939 41.9214 25.0736C42.6803 24.5311 43.434 23.9812 44.1856 23.4287C44.7093 23.0435 45.1727 22.5919 45.5986 22.1023C45.9263 21.7257 46.2108 21.3166 46.4641 20.8867C46.6227 20.6177 46.737 20.3309 46.8033 20.0218C46.844 19.8308 46.7754 19.7078 46.6331 19.6069C46.5728 19.5642 46.5046 19.5301 46.4361 19.5019C46.206 19.4072 45.9764 19.3104 45.7424 19.2262C44.9211 18.9306 44.0751 18.724 43.222 18.5458C41.1251 18.1077 39.0027 17.8446 36.8728 17.6351C33.0356 17.2578 29.1861 17.1199 25.3333 17.0606C25.3181 17.0605 25.3031 17.0601 25.288 17.0599C23.8581 17.0381 22.4277 17.0307 20.9977 17.0405C19.7917 17.0489 18.5859 17.0891 17.38 17.1208C17.0945 17.1284 16.8084 17.1505 16.5245 17.1821C16.3907 17.1969 16.2567 17.2387 16.1307 17.2885C15.9905 17.3438 15.9154 17.4629 15.9314 17.6147C15.9444 17.7369 15.9716 17.8606 16.0125 17.9764C16.1088 18.2481 16.1696 18.5264 16.2046 18.8116C16.2514 19.1931 16.1958 19.558 16.0164 19.8979C15.9004 20.1177 15.7747 20.3332 15.6421 20.5435C15.3072 21.0743 14.8775 21.5254 14.4179 21.9467C13.9869 22.3418 13.5393 22.7187 13.1016 23.1067C12.9717 23.2219 12.8425 23.3403 12.7292 23.4714C12.6669 23.5435 12.628 23.6414 12.5979 23.734C12.5653 23.8342 12.6212 23.944 12.7221 23.9747C12.8273 24.0069 12.9411 24.0356 13.0488 24.0292C13.3841 24.0095 13.7193 23.9859 14.0471 23.8989C14.2754 23.838 14.5084 23.7947 14.692 23.7541C15.3924 23.6458 16.0468 23.565 16.7073 23.5435C17.6517 23.5129 18.5642 23.6445 19.4406 24.0223C20.3904 24.4319 21.03 25.1158 21.3524 26.0926C21.5471 26.6828 21.5407 27.2646 21.2518 27.8336C21.0232 28.2837 20.7373 28.6856 20.3445 29.0055C20.0452 29.2504 19.7339 29.4768 19.3901 29.6552C19.2794 29.7132 19.1736 29.7769 19.1038 29.8873C19.0256 30.0104 19.0397 30.1222 19.1505 30.2185C19.2783 30.3317 19.4327 30.3657 19.5969 30.3841C20.0048 30.4281 20.413 30.4733 20.8194 30.5299C21.6758 30.6488 22.4955 30.8922 23.2748 31.2702C23.7041 31.4782 24.0952 31.7388 24.4366 32.0741C24.8498 32.4789 25.1569 32.9361 25.3333 33.4598C25.4081 33.682 25.4618 33.9156 25.486 34.1632C25.5243 34.5553 25.4745 34.9233 25.3333 35.2701C25.2792 35.4017 25.2131 35.5319 25.1314 35.6579C24.96 35.924 24.7351 36.1377 24.4808 36.3203C24.1147 36.5822 23.7184 36.7874 23.2887 36.9275C23.1351 36.9771 22.9792 37.0266 22.8354 37.0988C22.6757 37.1781 22.6383 37.3847 22.7635 37.5093C22.858 37.6041 22.9753 37.6833 23.0959 37.7414C23.3649 37.8716 23.6417 37.9848 23.9162 38.1023C24.4114 38.316 24.8884 38.5609 25.3333 38.8596C25.4871 38.9629 25.6373 39.0719 25.7828 39.1893C26.034 39.3903 26.2748 39.6111 26.4943 39.8461C26.9792 40.3684 27.28 40.9728 27.3733 41.6705C27.3843 41.7541 27.3941 41.8376 27.3992 41.9239C27.4435 42.6727 27.2717 43.3577 26.8599 43.9805C26.5707 44.4179 26.1669 44.6967 25.6439 44.7646C25.5408 44.7788 25.437 44.7915 25.3333 44.8028C25.0289 44.8354 24.7231 44.858 24.4181 44.8609C24.0216 44.8651 23.6244 44.8184 23.2278 44.7887C22.5462 44.7377 21.8651 44.6783 21.1833 44.6287C21.0225 44.616 20.8592 44.6174 20.6987 44.6316C20.4606 44.6514 20.2967 44.8382 20.3291 45.0605C20.3425 45.1525 20.3945 45.2501 20.4549 45.3237C20.8362 45.7866 21.257 46.2112 21.7666 46.5339C22.8765 47.2402 24.0721 47.6124 25.3333 47.7058C25.7297 47.7356 26.1325 47.737 26.5413 47.7129C27.2876 47.6676 28.022 47.5204 28.7287 47.2586C29.4827 46.9797 30.178 46.6075 30.7729 46.0555C31.2421 45.6224 31.6438 45.1341 31.9915 44.599C32.4063 43.9607 32.7527 43.2855 33.068 42.5934C33.2072 42.2891 33.3377 41.9805 33.4639 41.6705C33.991 40.3783 34.4163 39.0506 34.7981 37.706C34.9461 37.1851 35.0057 36.66 35.0217 36.125C35.0368 35.6197 34.9542 35.13 34.7795 34.66C34.5631 34.0769 34.3308 33.5008 34.0994 32.9234C33.8858 32.3897 33.7096 31.8476 33.6087 31.2815C33.4089 30.1605 33.7654 29.2178 34.5485 28.4252C34.7122 28.2596 34.912 28.1195 35.116 28.0048Z" fill="var(--fill-0, #F0AACC)"/>
<path id="Vector_10" d="M0.96189 17.032C1.1265 18.6081 1.56344 20.1064 2.25756 21.5303C2.29563 21.6085 2.33611 21.6863 2.38409 21.7586C2.44354 21.8482 2.53285 21.8855 2.64099 21.8797C2.74431 21.874 2.83476 21.8409 2.9126 21.7714C3.06108 21.6387 3.20404 21.4985 3.36171 21.3777C3.6857 21.1295 3.73722 20.808 3.62951 20.4427C3.58393 20.2879 3.52208 20.1374 3.46065 19.9878C3.06533 19.0256 2.81918 18.0247 2.69208 16.9944C2.56852 15.9934 2.47255 14.9897 2.41693 13.9824C2.37149 13.1617 2.34984 12.3407 2.37588 11.5192C2.38409 11.2589 2.41509 10.9977 2.45571 10.7403C2.50383 10.4341 2.67057 10.2143 2.97984 10.1229C3.18238 10.0631 3.38195 9.98897 3.58804 9.94637C5.8207 9.48467 8.06793 9.11566 10.3347 8.86414C11.5474 8.72968 12.7613 8.61362 13.9774 8.51554C15.5287 8.39056 17.0821 8.30492 18.6368 8.2476C20.4152 8.18221 22.1945 8.15687 23.9745 8.16466C24.4273 8.16664 24.88 8.17541 25.3326 8.18178C27.9414 8.21872 30.5471 8.32473 33.1499 8.51284C36.9009 8.78403 40.6337 9.20908 44.3409 9.84729C46.12 10.1536 47.8888 10.5107 49.6414 10.9448C49.8813 11.0042 50.1132 11.0998 50.3435 11.1919C50.5421 11.2715 50.6553 11.4382 50.7098 11.6379C50.7423 11.7568 50.7612 11.8828 50.7631 12.0059C50.7696 12.4287 50.7819 12.8525 50.7635 13.2746C50.694 14.8686 50.4994 16.4494 50.2287 18.021C50.0527 19.0433 49.7622 20.03 49.3368 20.9803C48.5324 22.7767 47.3158 24.2251 45.7112 25.3538C45.2939 25.6468 44.8642 25.9228 44.4454 26.2143C43.7202 26.7196 42.9945 27.2235 42.2778 27.7401C41.8229 28.0685 41.4079 28.4464 41.0137 28.8456C40.8555 29.0055 40.7185 29.181 40.617 29.385C40.4527 29.7132 40.5015 30.0104 40.7356 30.2822C40.8248 30.3855 40.9191 30.486 41.0191 30.5794C41.2055 30.7521 41.3462 30.7719 41.5542 30.629C41.7168 30.5159 41.8671 30.3827 42.0108 30.2454C42.5434 29.7388 43.1005 29.2604 43.6991 28.8328C44.1751 28.4931 44.6576 28.1619 45.1388 27.8293C45.7736 27.3905 46.4234 26.973 47.0432 26.5144C48.6752 25.3056 49.923 23.7795 50.7939 21.9405C51.3529 20.7606 51.7251 19.5274 51.9421 18.2439C52.3142 16.0429 52.5434 13.8295 52.5193 11.5942C52.5159 11.2829 52.5216 10.9714 52.5064 10.6607C52.4843 10.206 52.2603 9.8865 51.8283 9.72557C51.7118 9.68226 51.5915 9.64814 51.4712 9.61729C50.8926 9.46867 50.3149 9.31567 49.7338 9.1771C46.4127 8.3849 43.0498 7.82878 39.663 7.4094C36.0917 6.96722 32.5067 6.68966 28.9115 6.54586C27.7189 6.49802 26.526 6.46433 25.3326 6.44919C24.6968 6.44112 24.0609 6.43673 23.4248 6.44168C22.1182 6.45173 20.8114 6.4622 19.5053 6.4966C18.3857 6.52604 17.2662 6.57643 16.1482 6.64139C15.0797 6.70353 14.0121 6.78492 12.9458 6.87876C11.8176 6.97826 10.689 7.08215 9.56501 7.22128C8.28053 7.38038 7.00086 7.58051 5.87222 7.74102C4.7423 7.96451 3.76425 8.15361 2.78847 8.35318C2.41056 8.43047 2.03533 8.5236 1.66294 8.62396C1.0035 8.80173 0.742927 9.20582 0.721555 9.76604C0.712071 10.0147 0.694381 10.263 0.682209 10.5117C0.611014 11.9806 0.625024 13.4484 0.753825 14.9137C0.81582 15.6204 0.888148 16.3263 0.96189 17.032Z" fill="var(--fill-0, #EBEAE2)"/>
<path id="Vector_11" d="M11.4113 35.9924C11.5116 35.6627 11.5252 35.3286 11.4904 34.9946C11.4451 34.5586 11.1296 34.2189 10.7179 34.1411C10.463 34.093 10.2233 34.1453 10.0003 34.2756C9.64047 34.4865 9.33177 34.754 9.10063 35.1021C8.78386 35.5806 8.46908 36.059 8.16363 36.543C7.13492 38.175 6.24958 39.8777 5.55037 41.671C5.43459 41.9683 5.32249 42.2669 5.21718 42.5698C5.04932 43.0511 4.89178 43.5366 4.80573 44.0419C4.7426 44.4127 4.72632 44.7849 4.77133 45.1077C4.8605 45.6653 5.17189 45.9725 5.65554 46.0319C5.80967 46.0503 5.94824 46.0277 6.08553 45.9498C6.28228 45.838 6.45666 45.7007 6.61603 45.5408C7.00767 45.1487 7.30066 44.6873 7.55345 44.199C7.78813 43.746 8.0112 43.286 8.23639 42.8289C8.42591 42.4424 8.61515 42.0575 8.80453 41.671C9.43269 40.3915 10.0603 39.112 10.6891 37.8325C10.981 37.2394 11.2185 36.6251 11.4113 35.9924Z" fill="var(--fill-0, #EBEAE2)"/>
<path id="Vector_12" d="M6.9643 32.6138C7.25644 32.0039 7.45148 31.3611 7.6161 30.7086C7.73216 30.2486 7.65955 29.8169 7.32749 29.4547C7.12438 29.2324 6.87584 29.1092 6.56785 29.1193C6.3326 29.1276 6.13629 29.224 5.96234 29.3753C5.61146 29.6825 5.3339 30.0491 5.09611 30.4455C4.32528 31.7306 3.7008 33.0851 3.19578 34.4963C2.75361 35.7305 2.43048 36.9945 2.30351 38.3023C2.28681 38.475 2.29304 38.6491 2.28865 38.8217C2.29785 38.8217 2.30705 38.8217 2.31625 38.8203C2.32941 38.8939 2.33635 38.9704 2.35673 39.0411C2.51413 39.5889 3.15969 39.7658 3.56889 39.3766C3.7611 39.1926 3.90136 38.976 4.01644 38.7382C4.53759 37.6625 5.06469 36.5896 5.58329 35.5139C6.04768 34.5486 6.5016 33.5791 6.9643 32.6138Z" fill="var(--fill-0, #EBEAE2)"/>
<path id="Vector_13" d="M4.70548 25.286C4.74355 25.1062 4.77908 24.9161 4.75233 24.7384C4.72416 24.5514 4.62622 24.3981 4.55318 24.2414C4.47774 24.0792 4.35531 23.9555 4.18815 23.8832C3.8786 23.7493 3.5832 23.7663 3.30734 23.9716C2.92079 24.2594 2.63375 24.6329 2.3978 25.0468C1.37489 26.8401 0.605333 28.7353 0.121406 30.7453C0.0363399 31.0976 0.0170895 31.4585 0.00109545 31.8181C-0.00173536 31.8805 0.000246065 31.944 0.0151078 32.0036C0.088992 32.2993 0.247376 32.5385 0.555651 32.6107C0.841846 32.6786 1.10157 32.5923 1.28359 32.3474C1.43136 32.1479 1.59244 31.9525 1.70312 31.7331C2.55322 30.0446 3.38901 28.3489 4.23755 26.6589C4.4575 26.2201 4.60456 25.7615 4.70548 25.286Z" fill="var(--fill-0, #EBEAE2)"/>
<path id="Vector_14" d="M10.1574 29.041C10.6804 29.2335 11.2215 29.3113 11.7728 29.2675C13.456 29.136 15.1004 28.7991 16.7065 28.2823C17.0601 28.1691 17.3951 27.9964 17.7351 27.8436C17.9443 27.7487 18.1161 27.6001 18.2235 27.3977C18.4578 26.9547 18.3438 26.7183 18.0252 26.4947C17.8582 26.3772 17.6711 26.3135 17.4719 26.2838C17.3859 26.2725 17.2983 26.271 17.2112 26.2654C15.7378 26.179 14.2765 26.2951 12.8223 26.5286C12.5773 26.5725 12.3312 26.6122 12.0872 26.6617C11.4878 26.782 10.9045 26.9504 10.3552 27.2307C10.091 27.3652 9.8834 27.5548 9.70803 27.7827C9.52672 28.0177 9.50463 28.2852 9.61815 28.5597C9.72006 28.8074 9.91185 28.9504 10.1574 29.041Z" fill="var(--fill-0, #EBEAE2)"/>
<path id="Vector_15" d="M14.5253 34.5303C14.8321 34.6959 15.1397 34.8615 15.4901 34.9209C15.9073 34.9903 16.322 35.0823 16.7418 35.1276C18.1995 35.2889 19.6502 35.2054 21.0932 34.9605C21.3383 34.9167 21.5842 34.8756 21.8283 34.8275C22.1754 34.7582 22.4859 34.5968 22.7792 34.4086C22.9867 34.2741 23.0471 34.049 22.967 33.8155C22.8861 33.5791 22.7475 33.4135 22.4878 33.3413C21.5877 33.0894 20.6831 32.8644 19.7572 32.7299C18.5326 32.553 17.3054 32.4878 16.073 32.6464C15.5728 32.7101 15.1059 32.8728 14.663 33.1106C14.4057 33.2493 14.2511 33.4673 14.1687 33.7391C14.1445 33.8197 14.137 33.9146 14.1547 33.9953C14.2041 34.2203 14.3131 34.4142 14.5253 34.5303Z" fill="var(--fill-0, #EBEAE2)"/>
<path id="Vector_16" d="M13.0904 19.3918C13.1954 19.092 13.0682 18.8442 12.7677 18.7583C12.5549 18.6974 12.3498 18.7184 12.1415 18.7758C11.7733 18.8886 11.4019 18.9918 11.0376 19.1157C9.692 19.5727 8.41516 20.1791 7.17894 20.8788C6.70761 21.1456 6.37145 21.5309 6.06544 21.9574C5.96551 22.0967 5.94343 22.2511 5.96665 22.4185C6.00996 22.731 6.25638 23.0836 6.72021 23.1225C7.44829 23.1835 8.13377 23.0313 8.77863 22.7114C10.212 22.0004 11.5223 21.1079 12.6897 20.0086C12.8771 19.8323 13.0067 19.6307 13.0904 19.3918Z" fill="var(--fill-0, #EBEAE2)"/>
<path id="Vector_17" d="M18.6701 40.9519C18.823 41.0949 18.9964 41.2223 19.1785 41.3256C19.401 41.4516 19.6295 41.5662 19.8623 41.6709C20.0718 41.7658 20.2848 41.8521 20.5009 41.9328C21.7062 42.3786 22.948 42.591 24.2345 42.5428C24.4126 42.5357 24.5736 42.4791 24.7423 42.4395C25.0438 42.3673 25.2019 41.9738 25.1572 41.6709C25.1425 41.5704 25.1053 41.4799 25.0434 41.4148C24.9146 41.2803 24.7983 41.1402 24.6319 41.0425C23.1942 40.2046 21.6704 39.5676 20.0855 39.0694C19.8425 38.993 19.5993 38.9689 19.2596 39.0199C19.0193 39.0708 18.7443 39.2322 18.5263 39.4856C18.2449 39.8125 18.2005 40.1777 18.3892 40.5613C18.4592 40.7042 18.5549 40.8443 18.6701 40.9519Z" fill="var(--fill-0, #EBEAE2)"/>
<path id="Vector_18" d="M12.6148 48.1006C13.28 46.7645 13.9437 45.4283 14.6043 44.0894C15.0014 43.2854 15.3946 42.4786 15.7846 41.6704C15.8 41.6379 15.8157 41.6067 15.8311 41.5756C16.1151 40.9854 16.2856 40.3668 16.3026 39.7087C16.31 39.4199 16.2262 39.1652 16.0528 38.9458C15.8395 38.674 15.5604 38.5396 15.2038 38.5792C14.9295 38.6103 14.7001 38.7236 14.5237 38.9288C14.2078 39.2954 13.8687 39.6492 13.5996 40.0498C13.2438 40.5792 12.9089 41.1227 12.5805 41.6704C12.4738 41.8488 12.365 42.0243 12.2599 42.204C11.3327 43.7822 10.5244 45.4213 9.80888 47.107C9.62898 47.5302 9.46692 47.9619 9.3786 48.4148C9.30231 48.8069 9.25475 49.2018 9.33825 49.5995C9.34929 49.6604 9.35807 49.7227 9.37138 49.7835C9.46607 50.2082 9.76175 50.4389 10.1517 50.5563C10.5462 50.6767 10.9041 50.5634 11.1688 50.2634C11.53 49.8529 11.8863 49.4353 12.1616 48.9584C12.3232 48.6795 12.4707 48.3908 12.6148 48.1006Z" fill="var(--fill-0, #EBEAE2)"/>
<path id="Vector_19" d="M19.6133 57.9447C19.716 57.9886 19.8196 58.0339 19.9269 58.0636C20.2227 58.1485 20.4515 57.9928 20.4751 57.6815C20.4853 57.547 20.4709 57.4054 20.4383 57.2752C20.2985 56.7133 20.073 56.1925 19.6951 55.7452C19.4601 55.4664 19.1904 55.23 18.8917 55.0233C18.2359 54.5704 17.5556 54.1557 16.8657 53.7565C15.9601 53.2328 14.9849 52.9101 13.9535 52.7502C13.5825 52.6936 13.2104 52.6794 12.8213 52.7587C12.5766 52.7898 12.3316 52.8804 12.0986 53.0007C11.699 53.2074 11.5273 53.6107 11.6672 54.041C11.7122 54.1783 11.7899 54.3142 11.8811 54.4289C12.1647 54.7841 12.514 55.0686 12.9314 55.2484C13.7197 55.5895 14.5075 55.9334 15.3099 56.2377C16.7532 56.7841 18.1952 57.3347 19.6133 57.9447Z" fill="var(--fill-0, #EBEAE2)"/>
</g>
</svg>
