<svg preserveAspectRatio="none" width="100%" height="100%" overflow="visible" style="display: block;" viewBox="0 0 89.5248 87.1843" fill="none" xmlns="http://www.w3.org/2000/svg">
<g id="Frame 5">
<path id="Vector" d="M9.86164 52.0922C10.1568 52.3863 10.5804 53.7974 10.7347 54.2392C11.2618 54.436 12.0133 54.625 12.2662 55.0156C12.0012 55.4021 11.2992 55.5595 10.7692 55.7448C10.4837 56.4013 10.2838 57.1834 9.95155 57.9435C8.77586 55.9255 10.0803 56.0029 7 54.9773C9.45141 54.2889 9.1357 54.0448 9.86164 52.0922Z" fill="var(--fill-0, #F9F469)"/>
<path id="Vector_2" d="M25.7101 12.0922C26.4286 12.581 25.4281 13.2961 27.5254 14.0184C27.0722 14.198 26.695 14.4109 26.2663 14.6415C26.1343 15.0882 25.9944 15.5324 25.8455 15.9737C25.5187 15.7547 25.3867 15.0083 25.2535 14.5594C24.8942 14.3736 24.3805 14.1611 24 13.9903C25.4135 13.5536 25.3576 13.4695 25.7101 12.0922Z" fill="var(--fill-0, #F9F469)"/>
<path id="Vector_3" d="M74.4774 18.0922C75.3624 18.5486 74.4897 19.3507 76.4498 20.4793C76.7421 21.0626 75.9123 20.9145 75.4585 21.4683C75.1765 21.8138 74.8269 22.9194 74.6736 23.3583C74.365 22.9956 74.3732 22.49 74.1115 22.0689C73.9909 21.8745 72.8034 20.6935 73.0282 20.5132C74.0891 19.6577 74.2219 19.3876 74.4774 18.0922Z" fill="var(--fill-0, #F9F469)"/>
<path id="Vector_4" d="M56.4917 71.0922C57.5275 72.0484 56.2678 72.3846 58.4869 73.5521C58.6634 74.0899 57.816 73.9387 57.4555 74.4102C57.1562 74.8016 56.8039 75.8787 56.6276 76.3583C56.563 76.2591 56.486 76.1385 56.4595 76.0235C56.2062 74.9249 55.6592 74.5634 55 73.6277C56.0943 72.6899 56.1528 72.4772 56.4917 71.0922Z" fill="var(--fill-0, #F9F469)"/>
<g id="Group 7">
<path id="Vector_5" d="M36.2974 56.0028C36.3998 55.7732 36.577 55.6164 36.8174 55.5734C37.1852 55.5074 37.561 55.4854 37.9305 55.4255C38.3695 55.3545 38.7186 55.13 38.9421 54.7397C39.081 54.4966 39.2012 54.2424 39.3241 53.9904C39.4265 53.7805 39.5084 53.5599 39.6224 53.3565C39.7382 53.1488 39.9092 52.9779 40.1344 52.8945C40.5414 52.7439 40.9546 52.7162 41.3669 52.8922C41.7676 53.0631 42.0739 53.3442 42.3277 53.6902C42.6385 54.1125 42.829 54.591 42.9626 55.0914C43.1434 55.7704 43.2894 56.4594 43.4844 57.134C43.7453 58.0335 44.0223 58.9291 44.325 59.8158C44.569 60.5299 44.9439 61.1862 45.4399 61.7562C45.7141 62.0722 46.0134 62.3883 46.3606 62.6137C47.2458 63.1906 48.4621 63.3572 49.4648 62.4125C49.5637 62.3189 49.6607 62.196 49.6963 62.0695C49.7311 61.9458 49.707 61.7944 49.6696 61.6662C49.6465 61.586 49.5628 61.5085 49.4862 61.4613C48.9751 61.1452 48.8735 60.6822 48.951 60.1221C49.0089 59.7053 49.0071 59.2811 49.041 58.8609C49.0525 58.7223 49.0784 58.5808 49.1247 58.4499C49.2467 58.1018 49.6002 57.827 50.0116 58.0873C50.1683 58.1865 50.301 58.3239 50.4532 58.4305C50.6598 58.5745 50.9768 58.48 51.0329 58.2621C51.0917 58.0362 51.1345 57.8064 51.195 57.581C51.2547 57.3563 51.309 57.1271 51.4007 56.9149C51.4541 56.7922 51.577 56.6761 51.7302 56.6993C51.8593 56.7187 52.0214 56.7596 52.0962 56.8506C52.2422 57.0279 52.3286 57.2528 52.4568 57.4468C52.5601 57.6035 52.6919 57.731 52.9074 57.7246C53.0944 57.719 53.2787 57.518 53.3295 57.2382C53.3633 57.054 53.4666 56.2171 53.5254 55.9918C53.6572 55.4881 54.4158 55.1486 54.9065 55.3833C55.0249 55.4402 55.1505 55.5479 55.2039 55.6639C55.3197 55.9178 55.382 56.1961 55.4871 56.4561C55.5378 56.582 55.6313 56.6914 55.7115 56.8044C55.805 56.9368 56.1256 56.9109 56.2013 56.7617C56.2636 56.6386 56.3446 56.5113 56.3589 56.3796C56.3927 56.055 56.3696 55.7235 56.4141 55.4009C56.4622 55.0535 56.6776 54.8052 57.0071 54.6754C57.1371 54.6244 57.2761 54.5913 57.415 54.5709C57.9537 54.4913 58.3553 54.7092 58.5494 55.1832C58.691 55.5285 58.8175 55.8799 58.9706 56.2198C59.0009 56.2871 59.1175 56.3209 59.1986 56.3585C59.2939 56.4023 59.5085 56.2814 59.5414 56.1712C59.6625 55.7684 59.7694 55.3606 59.9056 54.9629C59.9671 54.785 60.1095 54.6517 60.2939 54.5815C60.8005 54.3889 61.4052 54.6434 61.5717 55.1311C61.6616 55.3963 61.7213 55.672 61.8023 55.9408C61.8424 56.0735 61.8842 56.2098 61.9528 56.3285C61.9956 56.4025 62.0837 56.4777 62.1639 56.495C62.2387 56.5111 62.3758 56.4773 62.407 56.4215C62.6118 56.0564 62.7792 55.6702 62.9947 55.3128C63.0508 55.22 63.2369 55.1627 63.3615 55.1645C63.5485 55.1675 63.7427 55.2534 63.8192 55.4393C63.9795 55.8255 64.1086 56.2239 64.2556 56.6156C64.2974 56.7277 64.5298 56.7942 64.6135 56.7199C64.7872 56.5669 64.952 56.4042 65.1265 56.2527C65.2431 56.1513 65.5574 56.2043 65.6251 56.3439C65.7257 56.5525 65.8379 56.7637 65.8887 56.9866C66.0356 57.6306 66.0232 58.2919 66.016 58.9459C66.0054 59.9057 66.2128 60.8024 66.6456 61.6556C66.7934 61.9475 66.9279 62.2494 67.0347 62.5585C67.3108 63.3545 67.2538 64.1337 66.8166 64.8594C66.4274 65.5041 65.9582 65.4988 65.5638 65.0838C65.3375 64.846 65.122 64.5985 64.895 64.3616C64.537 63.9876 64.1389 63.6644 63.6857 63.4079C62.5512 62.7659 61.3126 62.4934 60.0356 62.554C58.2395 62.6386 56.5111 63.0705 54.9305 63.9645C53.9519 64.5183 52.9911 65.1052 52.0347 65.6982C51.1986 66.2174 50.3865 66.7748 49.5503 67.2957C49.0739 67.5923 48.5895 67.8861 48.0783 68.1158C46.8477 68.6679 45.5654 68.8256 44.2342 68.5219C43.3722 68.3251 42.6901 67.8656 42.1523 67.1791C41.8041 66.7329 41.5387 66.2361 41.3241 65.7134C41.0935 65.1497 40.8433 64.5914 40.6518 64.0143C39.959 61.9288 38.8522 60.1087 37.276 58.5692C36.9439 58.245 36.6776 57.8495 36.4043 57.4702C36.0721 57.0101 36.073 56.5108 36.2974 56.0028Z" fill="var(--fill-0, white)"/>
<path id="Vector_6" d="M54.6006 47.1557C54.6513 47.54 54.857 47.8546 55.1722 48.0854C55.4937 48.3214 55.857 48.397 56.2301 48.2491C56.4884 48.1472 56.7404 48.0126 56.9666 47.8525C57.3512 47.58 57.7413 47.5766 58.1607 47.7379C58.4652 47.8552 58.7698 47.9679 59.1064 47.9717C59.5097 47.9761 59.8303 47.8301 60.077 47.5121C60.2577 47.28 60.3495 47.023 60.2969 46.7293C60.264 46.5465 60.2337 46.3594 60.1678 46.1871C60.069 45.9257 59.9594 45.6644 59.8214 45.4223C59.1696 44.283 58.6611 43.081 58.2079 41.8519C58.0957 41.5478 57.9496 41.2486 57.7707 40.9794C57.646 40.7925 57.459 40.6261 57.2649 40.5111C56.7288 40.1952 56.0111 40.3759 55.646 40.8881C55.2871 41.393 55.0707 41.9538 54.9817 42.5663C54.8321 43.724 54.6665 44.8799 54.5427 46.0403C54.5026 46.4064 54.5516 46.7872 54.6006 47.1557ZM30.6451 53.119C30.6495 52.935 30.6914 52.7507 30.7288 52.5692C30.7564 52.4343 30.9434 52.2887 31.0333 52.3272C31.1135 52.3614 31.2176 52.4013 31.2515 52.4688C31.442 52.8445 31.6068 53.2332 31.7956 53.6101C31.9416 53.9022 32.093 54.1944 32.2711 54.4668C32.4883 54.7971 33.0084 54.809 33.2417 54.4932C33.3788 54.3075 33.5026 54.1037 33.5899 53.8907C34.0636 52.7418 34.7822 51.7717 35.6923 50.9344C36.0725 50.5851 36.4456 50.2286 36.8134 49.8667C37.6192 49.0733 38.3138 48.1915 38.8882 47.2158C39.516 46.1486 39.9354 45.02 39.9612 43.763C39.9692 43.3428 40.0021 42.9192 40.0636 42.5946C40.1259 42.2717 40.2016 42.0453 40.2942 41.8322C40.4082 41.5697 40.5961 41.3456 40.8802 41.2628C40.995 41.2294 41.174 41.2536 41.2613 41.3262C41.4011 41.4409 41.5044 41.6095 41.5943 41.7713C41.8445 42.2222 42.0636 42.6908 42.3245 43.1353C42.9514 44.2029 43.7724 45.0957 44.808 45.7787C45.5605 46.2745 46.3655 46.6556 47.2827 46.7035C47.9861 46.7402 48.6887 46.7 49.3797 46.5405C51.02 46.162 52.2996 45.2804 53.1153 43.796C53.475 43.1408 53.7609 42.4443 54.0752 41.7641C54.2711 41.3386 54.434 40.896 54.6558 40.4844C54.8312 40.1572 55.052 39.8472 55.2925 39.5634C55.5106 39.3063 55.8161 39.1859 56.166 39.1757C56.711 39.1598 57.1785 39.3378 57.5783 39.7002C58.0707 40.1473 58.4323 40.6966 58.7564 41.2693C59.1251 41.9228 59.4723 42.5885 59.8294 43.2485C60.264 44.0512 60.8597 44.7083 61.6584 45.1505C63.1277 45.9638 64.5997 46.0368 66.0449 45.0782C66.3184 44.8971 66.5819 44.7012 66.8545 44.5191C67.0378 44.3963 67.3637 44.4583 67.4884 44.6347C67.9781 45.3303 68.321 46.1006 68.6273 46.8888C68.8677 47.5075 68.963 48.15 68.9968 48.8129C69.0244 49.3598 68.8704 49.8263 68.5676 50.2639C68.2462 50.7276 67.5409 50.8979 67.0627 50.6017C66.866 50.4794 66.6781 50.3296 66.5196 50.1611C66.1982 49.8199 65.9051 49.4518 65.589 49.1057C65.3682 48.8641 65.1358 48.6321 64.8936 48.4114C64.6487 48.1871 64.3512 48.1631 64.1242 48.3228C63.9078 48.4739 63.817 48.7607 63.914 49.0819C64.0218 49.4405 64.1482 49.7941 64.2764 50.146C64.5828 50.983 64.9024 51.8149 65.2008 52.6547C65.3094 52.9619 65.3806 53.2837 65.4465 53.6035C65.4599 53.6708 65.3878 53.77 65.3325 53.8343C65.2479 53.9309 65.0476 53.8986 64.9568 53.7907C64.8971 53.7193 64.8232 53.6572 64.7733 53.5796C64.6985 53.4617 64.63 53.3376 64.573 53.2097C64.4403 52.9097 64.3236 52.602 64.1829 52.3056C64.1242 52.1814 64.0235 52.0771 63.9389 51.9652C63.8686 51.8707 63.6585 51.8209 63.5614 51.8922C63.491 51.9445 63.4047 52.0229 63.3931 52.0998C63.345 52.4201 63.3272 52.7447 63.2898 53.0668C63.2782 53.164 63.0111 53.2624 62.9336 53.195C62.7947 53.0749 62.6255 52.9621 62.5463 52.8069C62.3325 52.3905 62.1687 51.949 61.9666 51.5262C61.8668 51.3174 61.7404 51.1179 61.6006 50.9333C61.5142 50.8191 61.3646 50.7914 61.2221 50.8361C61.0743 50.8825 60.9746 51.0093 60.9808 51.1459C60.9968 51.5193 61.052 51.8907 61.0832 52.2636C61.1064 52.5242 60.8268 52.7868 60.5436 52.7987C60.2399 52.8116 59.9951 52.6832 59.7831 52.4901C59.4332 52.171 59.1731 51.78 58.9336 51.375C58.7911 51.1344 58.6647 50.8844 58.4278 50.71C58.3094 50.6231 57.9986 50.7051 57.9541 50.8597C57.9149 50.9927 57.8748 51.1271 57.857 51.2637C57.8089 51.6341 57.7894 52.0089 57.7243 52.3759C57.7021 52.4999 57.5997 52.6312 57.4973 52.7156C57.1215 53.0279 56.5427 53.0243 56.2043 52.7156C56.0681 52.5905 55.9363 52.4532 55.8303 52.3017C55.6424 52.033 55.4821 51.7458 55.2978 51.4742C55.2488 51.401 55.1571 51.3561 55.0841 51.2987C55.0102 51.2407 54.7573 51.3513 54.7279 51.4441C54.5792 51.907 54.7039 52.3762 54.6887 52.8419C54.678 53.1455 54.5249 53.3899 54.2818 53.5465C54.0903 53.6698 53.8633 53.7605 53.6397 53.8059C53.296 53.8757 52.9826 53.7622 52.7582 53.4864C52.4937 53.1601 52.2515 52.8149 51.9959 52.4809C51.9238 52.3864 51.7163 52.3656 51.613 52.4482C51.5436 52.5037 51.4652 52.5795 51.4465 52.6594C51.4145 52.7916 51.4162 52.9352 51.4243 53.0727C51.4465 53.4469 51.4973 53.8203 51.5017 54.1945C51.5044 54.4344 51.3949 54.6441 51.1847 54.79C51.0173 54.9059 50.792 54.9183 50.6691 54.7962C50.4038 54.5332 50.1438 54.2654 49.8793 54.0023C49.7876 53.911 49.597 53.9009 49.4946 53.9913C49.4287 54.0503 49.3405 54.1346 49.3397 54.2087C49.3352 54.5335 49.3735 54.8588 49.3664 55.1833C49.3619 55.3655 49.3129 55.5519 49.2542 55.7258C49.2088 55.8587 49.0957 55.9741 48.9425 55.9571C48.8125 55.9426 48.6665 55.8974 48.5694 55.816C48.4679 55.7312 48.402 55.5934 48.3459 55.4671C48.0636 54.8234 47.8161 54.1631 47.5062 53.5329C47.1081 52.7223 47.4047 51.7563 48.0048 51.2292C48.361 50.9165 48.7573 50.674 49.1811 50.4655C49.4305 50.3427 49.67 50.1918 49.8953 50.0281C50.1669 49.8307 50.1072 49.3322 49.8009 49.2027C49.6308 49.1305 49.4518 49.0616 49.2702 49.0336C48.1616 48.8624 47.1215 49.0902 46.1535 49.6353C45.7466 49.8647 45.3503 50.124 44.9817 50.4105C44.2746 50.9588 43.4839 51.166 42.6059 51.0828C42.3717 51.0606 42.1393 51.0238 41.906 51.0142C41.3904 50.993 40.8739 50.9529 40.3601 50.977C38.1963 51.0789 36.5133 52.0614 35.2844 53.8306C34.483 54.9844 34.3085 56.2411 34.7083 57.5845C34.9256 58.3111 35.255 58.9805 35.6949 59.5973C35.9665 59.9784 36.2479 60.3542 36.5106 60.7425C36.6139 60.8965 36.6958 61.0773 36.6184 61.2723C36.5721 61.389 36.1838 61.3979 35.9656 61.267C35.646 61.0746 35.3192 60.8841 35.0324 60.6472C34.2319 59.9873 33.5534 59.2109 32.9594 58.3605C31.9282 56.883 31.215 55.258 30.7225 53.531C30.6842 53.3965 30.6415 53.2556 30.6451 53.119Z" fill="var(--fill-0, white)"/>
<path id="Vector_7" d="M67.7942 42.0585C67.747 42.1671 67.6731 42.2056 67.6027 42.1617C67.568 42.1397 67.5262 42.0931 67.5253 42.0564C67.5155 41.7295 67.5012 41.4019 67.5119 41.0751C67.544 40.0754 67.3383 39.1172 67.0168 38.1797C66.8823 37.7866 66.584 37.5826 66.1789 37.525C66.1326 37.5183 66.0864 37.5059 66.0401 37.5052C65.1496 37.4925 64.2581 37.4559 63.3694 37.5592C63.259 37.5721 63.1548 37.7881 63.2127 37.8974C63.3213 38.1035 63.4229 38.3149 63.5493 38.5098C64.137 39.4153 64.7381 40.3118 65.3205 41.221C65.4692 41.454 65.5671 41.7202 65.6802 41.9747C65.6945 42.0061 65.6704 42.0655 65.6464 42.1006C65.5787 42.2021 65.4844 42.2175 65.4077 42.1276C65.1655 41.843 64.9099 41.5662 64.698 41.2596C64.0854 40.3709 63.4932 39.4679 62.8895 38.5731C62.706 38.3011 62.5235 38.0265 62.316 37.7731C62.1611 37.5837 61.9331 37.503 61.6855 37.5255C61.5003 37.5424 61.316 37.5799 61.1334 37.6166C61.023 37.6387 60.9384 37.859 60.9981 37.9651C61.1352 38.2102 61.2652 38.4599 61.4184 38.6949C61.853 39.3639 62.3 40.0249 62.7372 40.6922C62.9438 41.006 63.1477 41.3218 63.3356 41.6463C63.4282 41.806 63.4879 41.9861 63.5538 42.1601C63.5662 42.1942 63.5538 42.2528 63.5306 42.2829C63.4611 42.3734 63.3614 42.3922 63.2795 42.3153C62.7265 41.7951 62.3623 41.1324 61.9375 40.5163C61.3783 39.7048 60.8325 38.884 60.2893 38.0614C60.0631 37.7186 59.763 37.5426 59.3498 37.5548C58.6473 37.5756 57.9438 37.5916 57.2403 37.6105C54.4273 37.6858 51.6152 37.7596 48.8022 37.8418C48.6214 37.847 48.4353 37.9019 48.2652 37.9672C48.2029 37.9911 48.1272 38.1274 48.145 38.1863C48.1976 38.3618 48.275 38.5363 48.3757 38.6899C48.9393 39.5546 49.519 40.4095 50.0818 41.2752C50.3374 41.6682 50.568 42.0771 50.8057 42.4816C50.8903 42.6248 50.8574 42.8315 50.7612 42.8484C50.6036 42.8761 50.4941 42.7875 50.4122 42.6805C50.1557 42.3454 49.9001 42.0085 49.6624 41.6594C49.0301 40.7275 48.4086 39.788 47.779 38.8539C47.6214 38.6206 47.4647 38.3844 47.2804 38.173C47.194 38.0739 47.0506 37.9906 46.9215 37.9707C46.6944 37.9356 46.4576 37.9427 46.2269 37.9545C46.0435 37.9639 45.8886 38.2251 45.9687 38.3699C46.1049 38.6153 46.2376 38.8635 46.3899 39.0979C46.9545 39.9627 47.5333 40.8182 48.0925 41.686C48.3204 42.0398 48.519 42.4134 48.7158 42.786C48.7479 42.8467 48.7265 42.9666 48.6838 43.0282C48.6277 43.1099 48.5146 43.1002 48.4442 43.0123C48.1236 42.6101 47.7879 42.217 47.4977 41.7936C46.7541 40.71 46.0293 39.6138 45.3026 38.5186C45.0773 38.1796 44.7817 37.9812 44.3694 37.9924C43.5724 38.0142 42.7755 38.0362 41.9794 38.0741C41.5902 38.0926 41.2536 38.2651 40.9776 38.5358C40.7434 38.7654 40.5235 39.0102 40.3044 39.2546C36.9527 42.9927 33.6018 46.7314 30.2528 50.4715C30.0337 50.7159 29.8244 50.9698 29.6178 51.2244C29.3997 51.4921 29.3151 51.8078 29.3436 52.146C29.3881 52.6599 29.4549 53.172 29.5021 53.6858C29.5279 53.9655 29.5395 54.2471 29.5413 54.528C29.5422 54.6166 29.5145 54.728 29.4576 54.7893C29.3676 54.8858 29.2421 55.007 29.1308 55.0087C29.0248 55.0102 28.852 54.8914 28.8209 54.7908C28.5315 53.845 28.3979 52.8681 28.3365 51.8846C28.3097 51.4555 28.4576 51.0473 28.7274 50.7033C29.0444 50.2973 29.365 49.892 29.7069 49.5062C32.3525 46.5211 35.0008 43.5392 37.6526 40.5605C38.2145 39.9298 38.7951 39.3166 39.3685 38.696C40.145 37.8544 41.0738 37.2301 42.1245 36.7853C43.3819 36.2532 44.674 35.8305 46.0186 35.5855C47.6428 35.2895 49.2759 35.1815 50.9188 35.419C51.755 35.5397 52.5983 35.6236 53.422 35.8017C54.926 36.1269 56.4024 36.0649 57.8779 35.6636C58.4665 35.5035 59.0613 35.3696 59.6526 35.2182C60.7114 34.9468 61.7897 34.9418 62.869 35.0076C63.1441 35.0243 63.4211 35.1149 63.682 35.2134C64.1709 35.3987 64.609 35.6783 64.9331 36.096C65.3917 36.6877 65.9803 37.0194 66.7274 37.0759C66.8173 37.0828 66.918 37.1131 66.991 37.1652C67.1397 37.2723 67.2902 37.3872 67.4068 37.5263C67.4941 37.63 67.5449 37.7721 67.5867 37.905C67.9847 39.1774 68.1335 40.4699 67.8957 41.7556C67.8547 41.8813 67.8316 41.9732 67.7942 42.0585Z" fill="var(--fill-0, white)"/>
<path id="Vector_8" d="M59.4942 64.992C59.5654 65.0508 59.6429 65.1033 59.7079 65.1674C59.8744 65.3286 60.0276 65.5049 60.2003 65.6598C60.7079 66.1122 61.3001 66.3402 61.9866 66.2956C62.1718 66.2832 62.357 66.26 62.5423 66.2538C62.8664 66.2422 63.1923 66.2297 63.5164 66.2378C63.6518 66.2413 63.788 66.2903 63.9207 66.3304C63.9581 66.342 64.0089 66.3972 64.008 66.431C64.0071 66.5111 64.0035 66.6385 63.9572 66.6625C63.0151 67.1514 62.0124 67.2253 60.8637 67.0543C60.7088 67.0062 60.4354 66.9439 60.1807 66.8362C59.4773 66.5414 59.0899 65.9991 59.0106 65.2431C59.0026 65.1665 59.0623 65.0739 59.1113 65.0027C59.1772 64.9083 59.3944 64.9101 59.4942 64.992Z" fill="var(--fill-0, white)"/>
<path id="Vector_9" d="M25.3984 43.3291C25.4127 43.7032 25.443 44.0783 25.4946 44.4489C25.5276 44.6823 25.6273 44.9079 25.882 44.9845C26.0788 45.0438 26.2542 44.9438 26.3913 44.8145C26.6291 44.5897 26.8517 44.348 27.077 44.1103C27.6264 43.5322 28.1562 42.9362 28.7226 42.3758C32.4456 38.691 36.817 36.0172 41.6674 34.0926C42.0592 33.9371 42.4537 33.7875 42.8384 33.6168C43.1758 33.4672 43.3157 33.1201 43.1803 32.8029C43.0708 32.5442 42.947 32.2913 42.8303 32.0355C42.5222 31.3615 42.5302 30.6721 42.7377 29.9757C42.7912 29.7964 42.8481 29.6151 42.931 29.448C43.142 29.0193 43.2186 28.5642 43.2667 28.0933C43.3433 27.3434 43.5276 26.6259 43.8838 25.9458C44.5276 24.7189 45.5071 23.8949 46.7921 23.4339C47.7279 23.098 48.6977 22.9886 49.6986 23.0752C54.0583 23.4523 57.6024 26.6105 59.004 29.9097C59.1509 30.2548 59.2783 30.6078 59.4279 30.9517C59.6264 31.4099 59.9577 31.7235 60.4617 31.8136C60.9684 31.9044 61.4768 31.9837 61.9871 32.0563C62.2168 32.0891 62.451 31.8245 62.3976 31.6054C62.354 31.4246 62.3219 31.2347 62.2418 31.0696C60.1313 26.7127 57.053 23.2544 52.6389 21.1703C47.9978 18.9788 43.2337 18.8139 38.4554 20.7853C34.9354 22.2377 32.1447 24.6143 29.9283 27.6843C28.6317 29.481 27.6309 31.4325 26.8784 33.5207C26.4946 34.5838 26.1883 35.6611 25.9523 36.7624C25.4519 38.9248 25.3165 41.1182 25.3984 43.3291ZM54.9764 26.379C54.8918 26.2688 54.8197 26.141 54.7137 26.0567C53.5187 25.1071 52.1661 24.4745 50.6808 24.1494C49.5668 23.9054 48.443 23.9189 47.3424 24.2561C46.2702 24.5845 45.4216 25.2088 44.8392 26.1843C44.6184 26.5541 44.4866 26.9478 44.3842 27.378C44.3896 27.501 44.394 27.6395 44.4029 27.7776C44.4083 27.8723 44.5953 28.0653 44.6825 28.0595C44.8677 28.0473 45.061 28.056 45.2364 28.0052C47.5962 27.3199 50.0209 27.1011 52.4617 26.9985C53.1171 26.971 53.7743 26.9937 54.4305 26.9777C54.5641 26.9745 54.6977 26.905 54.8286 26.8597C54.9764 26.8086 55.0699 26.5013 54.9764 26.379ZM43.5454 30.9636C43.6059 31.6074 43.8775 32.1281 44.3994 32.5134C44.7137 32.7455 45.0717 32.8518 45.4572 32.8117C45.736 32.7826 46.0111 32.7149 46.2854 32.6541C49.825 31.869 53.4047 31.4954 57.0307 31.5671C57.2649 31.5717 57.4991 31.5538 57.7324 31.5338C58.2026 31.4938 58.4163 31.1926 58.2916 30.7732C58.0895 30.0916 57.7671 29.469 57.3673 28.886C57.0895 28.4815 56.7057 28.2295 56.2159 28.1498C56.2088 28.1487 56.2026 28.1475 56.1954 28.1463C56.2133 28.1501 56.2328 28.1542 56.2578 28.1595C55.0565 27.9456 54.1643 27.9309 53.2747 27.9346C51.4911 27.9421 49.7173 28.0987 47.9541 28.3751C47.0726 28.5134 46.2017 28.6985 45.3566 28.9883C45.004 29.1094 44.6496 29.2474 44.3272 29.4329C43.7484 29.7665 43.4822 30.2829 43.5454 30.9636ZM23.1732 49.3082C23.4946 48.7904 23.8348 48.2844 24.1705 47.7755C24.5463 47.2058 24.6976 46.5782 24.6513 45.903C24.6219 45.4822 24.5739 45.0628 24.5338 44.6429C24.2702 41.8657 24.459 39.1138 25.0431 36.3917C25.2195 35.5689 25.4946 34.7664 25.7404 33.9591C26.597 31.144 27.9675 28.5944 29.7849 26.289C31.9728 23.5126 34.6585 21.3582 37.9256 19.9704C41.4839 18.4589 45.1589 18.0905 49.4839 19.0069C51.0921 19.3129 53.3602 20.305 55.1509 21.469C59.2231 24.1151 62.0191 27.7928 63.8036 32.2737C63.8722 32.4443 63.8918 32.6349 63.9265 32.8176C63.9541 32.9626 63.7956 33.2135 63.6416 33.2591C63.5089 33.2983 63.3646 33.3543 63.2346 33.3368C62.8633 33.2868 62.4982 33.1951 62.1287 33.1342C61.0645 32.959 60.004 32.7426 58.9336 32.6304C56.8758 32.4146 54.8125 32.4759 52.7529 32.6467C49.4697 32.9188 46.2444 33.4696 43.1242 34.5736C40.8597 35.3747 38.6959 36.3831 36.6166 37.5778C31.2569 40.6582 27.0004 44.8716 23.7858 50.1423C22.8045 51.7507 21.996 53.4395 21.5632 55.2871C21.3165 56.3411 21.1411 57.4023 21.2408 58.4922C21.3842 60.056 22.2168 61.0872 23.6674 61.6384C24.4269 61.9269 25.2212 61.9919 26.0236 61.9305C27.1999 61.8397 28.3388 61.5707 29.4287 61.113C29.8615 60.9314 30.288 60.7346 30.7235 60.5601C30.8944 60.4915 31.0814 60.4523 31.264 60.4256C31.4118 60.4051 31.5347 60.4835 31.6184 60.6081C31.7253 60.7693 31.6994 61.0187 31.5641 61.1202C31.4528 61.2039 31.3468 61.3009 31.2221 61.3588C30.7546 61.5771 30.2827 61.7862 29.809 61.9894C28.7662 62.4355 27.6727 62.6919 26.5516 62.8397C25.5142 62.9768 24.483 62.9278 23.491 62.593C21.8072 62.0232 20.719 60.8877 20.3619 59.1158C20.2978 58.7964 20.2836 58.4646 20.2711 58.1375C20.2061 56.4678 20.5943 54.8751 21.158 53.3251C21.6727 51.9112 22.3806 50.586 23.1732 49.3082Z" fill="var(--fill-0, #66F9FF)"/>
<path id="Vector_10" d="M55.8183 29.4799C55.9723 29.5247 56.113 29.7113 56.1264 29.8894C56.1406 30.0878 55.8913 30.3098 55.6696 30.2959C55.463 30.2828 55.276 30.0325 55.3009 29.8039C55.3241 29.5983 55.6099 29.4194 55.8183 29.4799Z" fill="var(--fill-0, #66F9FF)"/>
<path id="Vector_11" d="M46.8651 30.2435C47.0334 30.2776 47.1866 30.4739 47.1661 30.6356C47.1367 30.8761 46.9221 31.0481 46.7022 31.0026C46.4814 30.9571 46.3513 30.7048 46.4315 30.4799C46.4858 30.3266 46.7022 30.2089 46.8651 30.2435Z" fill="var(--fill-0, #66F9FF)"/>
<path id="Vector_12" d="M49.7293 29.8101C49.8985 29.8614 50.0276 30.0443 50.017 30.2177C50.0045 30.4306 49.7204 30.5852 49.5103 30.4936C49.3429 30.4208 49.2547 30.2288 49.3064 30.0529C49.3571 29.8826 49.5682 29.7613 49.7293 29.8101Z" fill="var(--fill-0, #66F9FF)"/>
<path id="Vector_13" d="M52.8049 29.5728C52.9866 29.6275 53.0756 29.8081 53.0213 30.0129C52.9732 30.1911 52.7853 30.2816 52.5796 30.2251C52.4051 30.1769 52.3178 29.9945 52.3668 29.781C52.4078 29.6011 52.5983 29.5108 52.8049 29.5728Z" fill="var(--fill-0, #66F9FF)"/>
</g>
</g>
</svg>
