<svg preserveAspectRatio="none" width="100%" height="100%" overflow="visible" style="display: block;" viewBox="0 0 183.903 151" fill="none" xmlns="http://www.w3.org/2000/svg">
<g id="Frame 2147225801">
<path id="Vector" d="M33.6356 51.8123C34.2218 52.3966 35.0634 55.1996 35.3698 56.0772C36.417 56.4682 37.9097 56.8435 38.412 57.6194C37.8856 58.3873 36.4911 58.6999 35.4385 59.068C34.8712 60.372 34.4742 61.9256 33.8142 63.4354C31.4788 59.4269 34.0699 59.5806 27.9512 57.5433C32.8207 56.1758 32.1936 55.6911 33.6356 51.8123Z" fill="var(--fill-0, #F9F469)"/>
<path id="Vector_2" d="M144.792 21.5922C146.55 22.4988 144.817 24.0922 148.71 26.3339C149.291 27.4926 147.642 27.1985 146.741 28.2987C146.181 28.9849 145.486 31.181 145.182 32.053C144.569 31.3324 144.585 30.3282 144.065 29.4917C143.826 29.1055 141.467 26.7596 141.914 26.4014C144.021 24.702 144.285 24.1655 144.792 21.5922Z" fill="var(--fill-0, #F9F469)"/>
<path id="Vector_3" d="M99.4905 119.226C101.548 121.126 99.0456 121.794 103.454 124.113C103.804 125.181 102.121 124.881 101.405 125.817C100.811 126.595 100.111 128.734 99.7604 129.687C99.6321 129.49 99.4791 129.25 99.4265 129.022C98.9234 126.84 97.8368 126.122 96.5273 124.263C98.7011 122.4 98.8174 121.978 99.4905 119.226Z" fill="var(--fill-0, #F9F469)"/>
<g id="Group 23">
<path id="Vector_4" d="M119.019 44.9426C127.323 38.4338 137.404 38.3911 146.12 44.1058C145.804 54.1535 148.506 64.5017 152.334 73.7476C149.576 80.0508 141.22 83.2099 135.461 85.8014C132.424 87.1683 129.036 89.1161 125.978 90.313C125.874 90.354 125.769 90.3935 125.665 90.4317L125.498 90.2187C126.28 89.167 128.547 88.3421 129.797 87.743C132.139 86.5934 134.498 85.4799 136.875 84.4029C134.963 84.6327 133.312 84.7743 131.38 84.6039C130.935 84.5647 129.474 84.3636 129.197 84.4987C128.946 84.3496 128.564 84.287 128.269 84.2181C127.933 84.0323 126.302 83.5401 125.836 83.3775C123.623 82.6059 121.345 81.573 119.543 80.0477C122.597 80.4797 124.329 80.184 127.101 78.85C136.374 73.1423 136.175 58.0828 129.767 50.2993C126.94 46.8655 123.378 45.3292 119.019 44.9426Z" fill="var(--fill-0, #F0AACC)"/>
<path id="Vector_5" d="M127.101 78.85C128.307 79.5036 130.732 80.072 132.141 80.2687C137.769 81.0543 143.365 79.9714 148.227 77.0043C149.762 76.0677 150.92 74.7902 152.263 73.7984L152.333 73.7476C149.576 80.0507 141.22 83.2099 135.461 85.8014C132.424 87.1682 129.036 89.116 125.978 90.3129C125.874 90.3539 125.769 90.3935 125.665 90.4316L125.498 90.2186C126.28 89.1669 128.547 88.3421 129.797 87.743C132.139 86.5934 134.498 85.4799 136.875 84.4029C134.963 84.6327 133.312 84.7743 131.38 84.6039C130.935 84.5647 129.474 84.3635 129.197 84.4987C128.946 84.3496 128.564 84.2869 128.269 84.2181C127.933 84.0323 126.302 83.5401 125.836 83.3775C123.623 82.6059 121.345 81.573 119.543 80.0476C122.597 80.4797 124.329 80.184 127.101 78.85Z" fill="var(--fill-0, #DC83AE)"/>
<path id="Vector_6" d="M115.23 48.6393C113.848 49.3064 111.656 50.6936 110.292 51.5047L100.811 57.2053C100.018 57.6848 96.9467 59.8052 96.2428 59.6792L96.1932 59.476C96.6242 58.7102 97.8911 58.2203 98.6618 57.7425C101.357 56.0652 104.073 54.419 106.807 52.8041C109.716 51.0642 113.553 48.6106 116.453 47.0273L116.565 47.2504C116.079 47.6348 115.989 47.7352 115.604 48.2249C119.74 48.1785 122.556 48.7147 125.668 51.7028C131.113 56.9308 132.289 68.7615 126.873 74.3258C125.593 75.6552 123.911 76.526 122.088 76.8034C119.915 76.9574 115.475 76.3846 114.195 74.4054C110.859 69.2522 110.01 63.5891 111.163 57.5961C112.061 53.8396 113.082 51.7804 115.23 48.6393Z" fill="var(--fill-0, #F0AACC)"/>
<path id="Vector_7" d="M111.163 57.596L111.19 57.701C111.519 58.9998 111.607 60.5379 111.985 61.9696C113.785 68.7702 116.72 72.5506 122.088 76.8033C119.915 76.9574 115.475 76.3846 114.195 74.4053C110.859 69.2521 110.01 63.5891 111.163 57.596Z" fill="var(--fill-0, #DC83AE)"/>
<path id="Vector_8" d="M117.794 45.9935C118.573 45.9228 120.375 46.125 121.171 46.2701C134.104 48.6257 137.473 69.8311 127.53 77.3147C124.875 79.313 119.985 79.9479 117.155 78.0138C116.86 77.8159 116.218 77.0916 115.939 76.7907C118.866 77.8738 121.84 78.5113 124.809 77.0469C132.467 73.2717 132.666 62.1484 129.477 55.3506C127.208 50.4274 122.158 46.6762 116.565 47.2503L116.453 47.0273C117.08 46.6673 117.258 46.4923 117.794 45.9935Z" fill="var(--fill-0, #EBEAE2)"/>
<path id="Vector_9" d="M149.337 46.9548C150.366 47.649 152.223 50.4213 152.842 51.5575C155.76 56.8253 156.413 63.052 154.653 68.8105L154.28 69.8425C152.157 64.0475 149.238 53.0606 149.337 46.9548Z" fill="var(--fill-0, #F0AACC)"/>
<path id="Vector_10" d="M147.153 44.9293C147.505 45.1627 147.94 45.5787 148.265 45.8709C148.16 53.1641 150.974 64.3606 153.734 71.1949L153.262 72.1749L153.068 72.4222L152.872 72.2784C149.794 65.1154 146.774 52.6427 147.153 44.9293Z" fill="var(--fill-0, #EBEAE2)"/>
<path id="Vector_11" d="M129.197 84.4987C127.95 85.2514 125.525 86.401 124.142 87.1073L114.561 92.0377L104.826 97.1176C103.922 97.5783 101.376 99.2268 100.518 98.8734C100.798 98.2572 108.874 94.2302 110.118 93.5841L128.268 84.2181C128.563 84.2869 128.946 84.3496 129.197 84.4987Z" fill="var(--fill-0, #F9F469)"/>
<path id="Vector_12" d="M109.523 56.6725C109.7 56.6938 109.701 56.7239 109.868 56.8279L109.894 57.1158C109.59 57.6358 103.696 60.835 102.758 61.3702C98.7718 63.6563 94.8001 65.969 90.8442 68.3079C90.7737 68.2831 90.5872 68.1641 90.5119 68.1193L90.4543 67.8734C90.8688 67.2492 107.426 57.9573 109.523 56.6725Z" fill="var(--fill-0, #F9F469)"/>
<path id="Vector_13" d="M93.1984 102.455L93.4358 102.651L93.4442 102.9C92.9529 103.493 82.14 108.918 80.604 109.698C80.5746 109.695 80.366 109.6 80.3226 109.581L80.2892 109.305C80.722 108.73 91.8352 103.151 93.1984 102.455Z" fill="var(--fill-0, #F9F469)"/>
<path id="Vector_14" d="M119.464 82.381C119.661 82.5318 119.662 82.5808 119.746 82.809C119.505 83.3448 110.254 88.0835 109.127 88.6779C108.898 88.2889 108.891 88.4139 108.948 88.0602C109.694 87.5208 111.813 86.4653 112.719 85.9863L119.464 82.381Z" fill="var(--fill-0, #F9F469)"/>
<path id="Vector_15" d="M122.665 91.2227C122.901 91.251 122.786 91.2251 123.021 91.3948L123.036 91.6385C122.502 92.2501 116.124 95.2028 114.988 95.7524C114.702 95.638 114.798 95.7245 114.656 95.3924C114.959 94.8487 121.592 91.7507 122.665 91.2227Z" fill="var(--fill-0, #F9F469)"/>
<path id="Vector_16" d="M105.994 75.0886C106.293 75.316 106.219 75.1898 106.27 75.5363C105.883 76.134 101.65 78.3149 100.714 78.824C100.475 78.652 100.455 78.6488 100.37 78.3805C100.628 77.9223 105.212 75.5233 105.994 75.0886Z" fill="var(--fill-0, #F9F469)"/>
<path id="Vector_17" d="M77.5359 110.579C77.8204 110.784 77.7266 110.651 77.8179 110.998C77.503 111.539 74.6251 112.882 73.8569 113.28C73.5675 113.071 73.6629 113.204 73.5543 112.871C73.8597 112.354 76.8631 110.936 77.5359 110.579Z" fill="var(--fill-0, #F9F469)"/>
<path id="Vector_18" d="M99.6953 88.8212C99.865 88.7958 99.9618 88.8341 100.136 88.8672L100.2 89.089C99.9486 89.6396 98.4527 90.3287 97.8706 90.6347C97.6777 90.6773 97.6811 90.6512 97.4701 90.6071L97.4151 90.406C97.6125 89.859 99.1373 89.1283 99.6953 88.8212Z" fill="var(--fill-0, #F9F469)"/>
<path id="Vector_19" d="M115.512 80.2271C115.745 80.4262 115.673 80.3341 115.766 80.6547C115.512 81.2 113.833 81.9366 113.205 82.2536C113.107 82.0859 112.934 81.8836 113.001 81.7637C113.287 81.2488 114.99 80.4979 115.512 80.2271Z" fill="var(--fill-0, #F9F469)"/>
<path id="Vector_20" d="M110.255 83.0847C110.536 83.2723 110.459 83.1669 110.575 83.4671C110.364 84.0033 108.689 84.7293 108.097 85.0285C107.823 84.8362 107.919 84.9582 107.794 84.6567C108.002 84.1274 109.671 83.3858 110.255 83.0847Z" fill="var(--fill-0, #F9F469)"/>
<path id="Vector_21" d="M98.1579 99.8276L98.3789 100.104L98.3431 100.37C97.8701 100.844 96.4996 101.449 95.8391 101.773C95.6306 101.399 95.6209 101.517 95.6868 101.186C96.26 100.636 97.4067 100.179 98.1579 99.8276Z" fill="var(--fill-0, #F9F469)"/>
<path id="Vector_22" d="M105.071 85.9577C105.208 86.0664 105.24 86.1777 105.314 86.3369C105.115 86.8909 103.405 87.6153 102.791 87.9198C102.615 87.722 102.627 87.728 102.573 87.4841C102.926 86.9305 104.431 86.2738 105.071 85.9577Z" fill="var(--fill-0, #F9F469)"/>
<path id="Vector_23" d="M85.2205 87.0333C85.4951 87.1416 85.4032 87.0941 85.6049 87.3476L85.5461 87.5678C85.0825 88.0212 84.2448 88.4171 83.6531 88.7343C83.339 88.7269 83.4602 88.7857 83.2574 88.6064C83.3067 87.9377 84.6521 87.3486 85.2205 87.0333Z" fill="var(--fill-0, #F9F469)"/>
<path id="Vector_24" d="M43.7246 110.329C44.0202 110.415 43.9152 110.365 44.1407 110.603L44.083 110.869C43.614 111.317 42.8014 111.696 42.2102 112.01C41.8999 111.915 42.0231 111.999 41.8206 111.758L41.8809 111.498C42.3592 111.05 43.138 110.658 43.7246 110.329Z" fill="var(--fill-0, #F9F469)"/>
<path id="Vector_25" d="M88.3431 63.967C88.4541 64.018 88.576 64.1313 88.6759 64.2122L88.696 64.4455C88.3872 64.8867 87.2549 65.4874 86.7321 65.7969C86.4526 65.5211 86.473 65.626 86.4367 65.3129C86.7128 64.8331 87.8159 64.2722 88.3431 63.967Z" fill="var(--fill-0, #F9F469)"/>
<path id="Vector_26" d="M64.5005 98.6365C64.7204 98.8366 64.7115 98.823 64.7769 99.1139C64.4945 99.6067 63.3389 100.122 62.7888 100.407C62.4923 100.238 62.5989 100.353 62.4493 100.056C62.6879 99.498 63.9105 98.959 64.5005 98.6365Z" fill="var(--fill-0, #F9F469)"/>
<path id="Vector_27" d="M92.8048 61.2049C93.0803 61.2822 92.9963 61.2593 93.224 61.4838L93.1751 61.7134C92.7562 62.1626 91.9362 62.6003 91.3873 62.9289C91.0559 62.8976 91.1821 62.9402 90.9117 62.7303L90.9642 62.4794C91.4401 61.997 92.2135 61.5689 92.8048 61.2049Z" fill="var(--fill-0, #F9F469)"/>
<path id="Vector_28" d="M47.9608 107.953C48.1524 108.161 48.1382 108.155 48.1983 108.437C47.9124 108.968 46.7322 109.475 46.1529 109.769C45.9524 109.438 45.9611 109.554 45.9596 109.21C46.3994 108.666 47.3062 108.292 47.9608 107.953Z" fill="var(--fill-0, #F9F469)"/>
<path id="Vector_29" d="M51.9514 105.671C52.2712 105.817 52.1706 105.722 52.358 106.011C52.1767 106.539 50.985 107.08 50.4528 107.372C50.2206 107.321 50.2159 107.278 50.0589 107.099L50.0963 106.866C50.53 106.426 51.3904 105.99 51.9514 105.671Z" fill="var(--fill-0, #F9F469)"/>
<path id="Vector_30" d="M69.9848 75.0751C70.2121 75.1044 70.2472 75.1711 70.4095 75.3331L70.3553 75.5812C69.927 76.0212 69.0819 76.4658 68.5292 76.7902C68.1815 76.73 68.2912 76.8004 68.0872 76.5572C68.2778 75.9694 69.4029 75.4259 69.9848 75.0751Z" fill="var(--fill-0, #F9F469)"/>
<path id="Vector_31" d="M56.2617 83.3174C56.599 83.4151 56.4804 83.3332 56.7038 83.6066C56.5534 84.1658 55.3676 84.7146 54.813 85.0354C54.5206 84.9624 54.625 85.0065 54.3937 84.7877L54.4371 84.56C54.839 84.1325 55.7316 83.6403 56.2617 83.3174Z" fill="var(--fill-0, #F9F469)"/>
<path id="Vector_32" d="M79.2009 69.4724C79.2488 69.5077 79.4431 69.719 79.4974 69.7759L79.4737 70.0281C79.1111 70.4476 78.078 70.9844 77.5437 71.2996C77.3773 71.1874 77.3663 71.1385 77.2438 70.975L77.3106 70.7182C77.7538 70.2455 78.6162 69.8081 79.2009 69.4724Z" fill="var(--fill-0, #F9F469)"/>
<path id="Vector_33" d="M51.7244 86.0669C52.0056 86.1993 51.9085 86.1317 52.0946 86.405C51.9132 86.9708 50.7909 87.4708 50.216 87.7989C49.9206 87.7067 50.026 87.7622 49.808 87.5168C49.9719 86.9526 51.1544 86.4023 51.7244 86.0669Z" fill="var(--fill-0, #F9F469)"/>
<path id="Vector_34" d="M65.4295 77.8247C65.7444 77.9163 65.6108 77.8339 65.8311 78.1003C65.6587 78.6825 64.4106 79.2732 63.8254 79.6202C63.5479 79.333 63.5817 79.4519 63.5412 79.118C63.8992 78.6191 64.8496 78.1624 65.4295 77.8247Z" fill="var(--fill-0, #F9F469)"/>
<path id="Vector_35" d="M60.893 80.5745C61.0852 80.6522 61.1216 80.743 61.2398 80.9136C61.0651 81.5073 59.8244 82.0537 59.2275 82.3878L58.9635 82.0933L58.9767 81.8572C59.3607 81.4241 60.3355 80.9176 60.893 80.5745Z" fill="var(--fill-0, #F9F469)"/>
<path id="Vector_36" d="M74.6583 72.2231C74.9667 72.4823 74.9103 72.3586 74.9754 72.6967C74.6984 73.1551 73.5249 73.7484 73.0018 74.0464C72.7351 73.7873 72.7917 73.9113 72.7188 73.5731C73.0207 73.073 74.1051 72.538 74.6583 72.2231Z" fill="var(--fill-0, #F9F469)"/>
<path id="Vector_37" d="M81.0212 89.4083C81.3101 89.4903 81.2099 89.4462 81.4335 89.6919L81.369 89.9311C80.876 90.3899 80.1043 90.7519 79.4964 91.0753C79.1769 91.002 79.308 91.078 79.0849 90.8474L79.1529 90.5846C79.6174 90.1579 80.4515 89.7305 81.0212 89.4083Z" fill="var(--fill-0, #F9F469)"/>
<path id="Vector_38" d="M103.053 66.9525C103.244 67.0387 103.24 67.0737 103.385 67.2398L103.319 67.4807C102.841 67.9257 101.87 68.4129 101.27 68.7454C101.107 68.6503 101.093 68.598 100.972 68.446L101.037 68.2058C101.503 67.7615 102.461 67.2813 103.053 66.9525Z" fill="var(--fill-0, #EBEAE2)"/>
<path id="Vector_39" d="M56.0037 103.402C56.3549 103.468 56.2395 103.396 56.4658 103.642C56.293 104.222 55.1133 104.742 54.5301 105.068C54.2121 104.936 54.3318 105.039 54.1468 104.765C54.3108 104.231 55.4676 103.705 56.0037 103.402Z" fill="var(--fill-0, #F9F469)"/>
<path id="Vector_40" d="M83.7963 66.7191C83.9506 66.8232 83.9964 66.9387 84.0896 67.1C83.8798 67.703 82.7271 68.2119 82.1216 68.553C81.8095 68.3257 81.8772 68.4459 81.821 68.1201C82.0865 67.6678 83.2818 67.0279 83.7963 66.7191Z" fill="var(--fill-0, #F9F469)"/>
<path id="Vector_41" d="M76.9044 91.6869C77.1773 91.8054 77.0864 91.7538 77.2767 92.0278C77.1119 92.5691 75.8717 93.1027 75.3084 93.4091C75.1596 93.3073 75.1076 93.2176 74.9913 93.0764L75.0515 92.8395C75.4558 92.4123 76.3572 91.9828 76.9044 91.6869Z" fill="var(--fill-0, #F9F469)"/>
<path id="Vector_42" d="M98.4133 69.7033C98.761 69.7772 98.663 69.7042 98.8601 69.9428C98.6463 70.5099 97.396 71.0748 96.8083 71.4023C96.6163 71.3584 96.611 71.3155 96.4503 71.1743L96.4933 70.9369C96.9513 70.4834 97.83 70.0355 98.4133 69.7033Z" fill="var(--fill-0, #EBEAE2)"/>
<path id="Vector_43" d="M72.8525 93.9853C73.1108 94.3067 73.1077 94.1986 73.092 94.5159C72.6651 94.9923 71.7036 95.4399 71.0931 95.7849C70.8234 95.4528 70.8216 95.56 70.8425 95.238C71.2857 94.7434 72.2258 94.3239 72.8525 93.9853Z" fill="var(--fill-0, #F9F469)"/>
<path id="Vector_44" d="M64.318 111.665C64.5548 111.999 64.5342 111.868 64.5238 112.217C64.1237 112.685 63.1116 113.148 62.5171 113.471C62.2883 113.135 62.3084 113.266 62.316 112.912C62.6785 112.456 63.7513 111.965 64.318 111.665Z" fill="var(--fill-0, #EBEAE2)"/>
<path id="Vector_45" d="M78.9013 74.4901C79.1363 74.7564 79.0881 74.6343 79.153 74.9673C78.8216 75.4838 77.6738 76.034 77.0915 76.3549C76.8858 76.0616 76.9241 76.1933 76.8953 75.846C77.198 75.3602 78.3553 74.7931 78.9013 74.4901Z" fill="var(--fill-0, #EBEAE2)"/>
<path id="Vector_46" d="M60.2788 101.018C60.5541 101.272 60.4845 101.143 60.5803 101.497C60.3185 101.938 59.1409 102.465 58.6262 102.731C58.4504 102.664 58.4356 102.602 58.3018 102.445L58.365 102.182C58.838 101.732 59.6819 101.335 60.2788 101.018Z" fill="var(--fill-0, #F9F469)"/>
<path id="Vector_47" d="M107.697 64.3293C107.967 64.3799 107.839 64.3274 108.07 64.5418L108.008 64.7885C107.499 65.2525 106.632 65.6813 106.01 66.0238C105.74 65.9569 105.869 66.0124 105.636 65.7913L105.693 65.5653C106.201 65.102 107.074 64.671 107.697 64.3293Z" fill="var(--fill-0, #EBEAE2)"/>
<path id="Vector_48" d="M74.3898 77.1075C74.6975 77.1996 74.5867 77.1423 74.8153 77.3872L74.7658 77.5951C74.3338 78.0273 73.3986 78.5001 72.8357 78.8164C72.6191 78.7846 72.659 78.7663 72.4601 78.6036L72.4904 78.3843C72.9197 77.9329 73.828 77.4437 74.3898 77.1075Z" fill="var(--fill-0, #EBEAE2)"/>
<path id="Vector_49" d="M110.001 72.8013C110.089 72.8675 110.226 73.0341 110.306 73.1237L110.273 73.3871C109.886 73.8236 109.006 74.2318 108.462 74.5226C108.345 74.4491 108.248 74.3341 108.148 74.2324L108.18 73.9663C108.571 73.5403 109.466 73.0992 110.001 72.8013Z" fill="var(--fill-0, #F9F469)"/>
<path id="Vector_50" d="M69.9257 79.7513C70.2895 79.8363 70.1886 79.7565 70.3734 80.0145C70.1407 80.5591 68.9528 81.111 68.3833 81.4342C68.186 81.3809 68.2222 81.3611 68.0622 81.1784L68.1277 80.9278C68.592 80.4675 69.3446 80.0845 69.9257 79.7513Z" fill="var(--fill-0, #EBEAE2)"/>
<path id="Vector_51" d="M81.5124 102.331C81.7854 102.372 81.6889 102.344 81.9208 102.545L81.8711 102.791C81.4108 103.216 80.5471 103.642 79.9748 103.956L79.8468 103.958L79.6087 103.692L79.6274 103.478C80.0291 103.062 80.9694 102.62 81.5124 102.331Z" fill="var(--fill-0, #EBEAE2)"/>
<path id="Vector_52" d="M80.2509 80.2179C80.5192 80.5297 80.4792 80.3915 80.4803 80.746C80.1161 81.1913 79.0471 81.7205 78.4884 82.0376C78.2577 81.7651 78.3301 81.9165 78.262 81.5668C78.5449 81.0997 79.7224 80.5152 80.2509 80.2179Z" fill="var(--fill-0, #EBEAE2)"/>
<path id="Vector_53" d="M68.5642 96.3611C68.8551 96.6247 68.8068 96.5052 68.8713 96.8372C68.6004 97.2872 67.5331 97.7847 67.0178 98.0652C66.7937 97.9928 66.8419 97.9867 66.6576 97.7886L66.7012 97.5464C67.092 97.147 68.0439 96.6571 68.5642 96.3611Z" fill="var(--fill-0, #F9F469)"/>
<path id="Vector_54" d="M87.5151 69.468C87.5762 69.4917 87.753 69.6169 87.8186 69.6607L87.8583 69.8907C87.6005 70.2759 86.4328 70.8898 85.9503 71.1749C85.7519 71.1121 85.7173 71.0322 85.59 70.8674L85.6461 70.6409C86.0539 70.2164 86.969 69.7686 87.5151 69.468Z" fill="var(--fill-0, #EBEAE2)"/>
<path id="Vector_55" d="M90.2573 97.5534C90.4816 97.8562 90.4399 97.7199 90.4722 98.0802C90.1308 98.5482 89.0337 99.0264 88.4689 99.3124C88.3072 99.0807 88.3087 99.0953 88.2636 98.8191C88.6316 98.2938 89.6518 97.8615 90.2573 97.5534Z" fill="var(--fill-0, #EBEAE2)"/>
<path id="Vector_56" d="M89.1559 75.0789C89.4452 75.1547 89.3135 75.0859 89.538 75.3333C89.3527 75.9015 88.0763 76.4472 87.4907 76.7595C87.3144 76.7408 87.3123 76.6973 87.1467 76.5761L87.1836 76.3336C87.6503 75.8913 88.5718 75.4132 89.1559 75.0789Z" fill="var(--fill-0, #EBEAE2)"/>
<path id="Vector_57" d="M42.7109 123.492C43.0175 123.539 42.8778 123.481 43.1304 123.699L43.0792 123.949C42.6182 124.379 41.8301 124.76 41.2591 125.07C40.9398 125.015 41.0807 125.079 40.8291 124.855L40.8873 124.608C41.3438 124.178 42.1403 123.799 42.7109 123.492Z" fill="var(--fill-0, #EBEAE2)"/>
<path id="Vector_58" d="M93.6531 72.4459C93.9805 72.4637 93.8329 72.4134 94.1054 72.6183L94.0432 72.8654C93.5455 73.3212 92.7519 73.7236 92.1487 74.0629L91.8007 74.0518L91.754 73.8741C91.9667 73.2943 93.0796 72.7709 93.6531 72.4459Z" fill="var(--fill-0, #EBEAE2)"/>
<path id="Vector_59" d="M65.7004 82.2562C65.8156 82.3259 65.9076 82.4497 66.002 82.5547L65.9616 82.7935C65.5293 83.2344 64.6458 83.6574 64.0773 83.9658C63.9072 83.8991 63.873 83.8411 63.7325 83.7159L63.7614 83.4952C64.1841 83.0619 65.1416 82.5733 65.7004 82.2562Z" fill="var(--fill-0, #EBEAE2)"/>
<path id="Vector_60" d="M47.1078 121.097C47.3479 121.174 47.2755 121.153 47.4657 121.369L47.4297 121.568C47.0113 121.991 46.1152 122.428 45.5648 122.729C45.3433 122.717 45.3588 122.711 45.1764 122.581C45.2297 121.946 46.5571 121.392 47.1078 121.097Z" fill="var(--fill-0, #EBEAE2)"/>
<path id="Vector_61" d="M55.6399 116.433C55.9878 116.522 55.8712 116.44 56.0767 116.718C55.9018 117.214 54.6937 117.749 54.1811 118.026C54.0048 118.013 53.9249 117.914 53.7865 117.796L53.8141 117.574C54.2315 117.144 55.0876 116.733 55.6399 116.433Z" fill="var(--fill-0, #EBEAE2)"/>
<path id="Vector_62" d="M75.746 82.8431C75.9822 82.8818 75.9239 82.8847 76.1375 83.0542L76.0958 83.2883C75.6537 83.7244 74.7851 84.1643 74.2203 84.4834L73.9014 84.4575L73.8255 84.2698C74.0578 83.6891 75.1568 83.1789 75.746 82.8431Z" fill="var(--fill-0, #EBEAE2)"/>
<path id="Vector_63" d="M51.4692 118.705C51.5889 118.784 51.6669 118.902 51.7618 119.017L51.7224 119.273C51.2792 119.711 50.3722 120.103 49.7872 120.394C49.51 120.113 49.5449 120.234 49.5407 119.921C49.8587 119.528 50.9584 118.99 51.4692 118.705Z" fill="var(--fill-0, #EBEAE2)"/>
<path id="Vector_64" d="M72.9558 106.99C73.1205 107.099 73.1208 107.143 73.2339 107.315C73.0598 107.88 71.8377 108.382 71.2517 108.692C71.1631 108.617 71.0587 108.464 70.9839 108.366L71.0513 108.135C71.497 107.698 72.3777 107.293 72.9558 106.99Z" fill="var(--fill-0, #EBEAE2)"/>
<path id="Vector_65" d="M83.2248 71.9752C83.5024 72.1429 83.4104 72.0505 83.5533 72.3559C83.3198 72.8364 82.1 73.3998 81.5677 73.6856C81.3191 73.5979 81.4375 73.6639 81.2432 73.4142C81.4042 72.8816 82.6756 72.29 83.2248 71.9752Z" fill="var(--fill-0, #EBEAE2)"/>
<path id="Vector_66" d="M77.3024 104.629C77.5893 104.907 77.5334 104.773 77.5652 105.126C77.2798 105.495 76.1044 106.047 75.6147 106.307C75.4589 106.206 75.442 106.144 75.3301 105.988C75.5159 105.411 76.704 104.939 77.3024 104.629Z" fill="var(--fill-0, #EBEAE2)"/>
<path id="Vector_67" d="M68.5272 109.385C68.7917 109.466 68.701 109.425 68.9025 109.661L68.8394 109.891C68.3738 110.319 67.5558 110.699 66.977 111.003C66.7351 110.971 66.8536 111.013 66.6428 110.804L66.7051 110.522C67.2041 110.08 67.9342 109.715 68.5272 109.385Z" fill="var(--fill-0, #EBEAE2)"/>
<path id="Vector_68" d="M38.5208 125.757C38.7505 126.02 38.6824 125.899 38.7553 126.24C38.45 126.697 37.3515 127.182 36.8117 127.459C36.6471 127.34 36.6542 127.312 36.5408 127.139L36.6073 126.918C37.0604 126.486 37.944 126.065 38.5208 125.757Z" fill="var(--fill-0, #EBEAE2)"/>
<path id="Vector_69" d="M59.9667 114.05C60.0826 114.117 60.1746 114.238 60.2697 114.342L60.2109 114.605C59.7618 115.037 58.9473 115.399 58.3719 115.693C58.2283 115.648 58.1866 115.562 58.0662 115.437L58.1151 115.191C58.54 114.792 59.4288 114.348 59.9667 114.05Z" fill="var(--fill-0, #EBEAE2)"/>
<path id="Vector_70" d="M61.2615 84.8773C61.483 84.9474 61.4287 84.9472 61.6076 85.1517C61.448 85.7094 60.2363 86.2464 59.6713 86.5622C59.5095 86.5083 59.5073 86.4511 59.3778 86.2964L59.4245 86.0681C59.8457 85.6385 60.7135 85.1917 61.2615 84.8773Z" fill="var(--fill-0, #EBEAE2)"/>
<path id="Vector_71" d="M85.8174 99.9497C86.0849 100.031 85.9575 99.9687 86.1819 100.203L86.131 100.437C85.725 100.836 84.8835 101.239 84.3567 101.522C84.1092 101.482 84.182 101.491 83.9617 101.313L84.0063 101.062C84.4153 100.668 85.2908 100.237 85.8174 99.9497Z" fill="var(--fill-0, #EBEAE2)"/>
<path id="Vector_72" d="M84.668 77.7082C84.7886 77.8065 84.8335 77.902 84.9219 78.0343C84.7455 78.6026 83.5245 79.1267 82.9498 79.4379C82.6842 79.2444 82.7716 79.3687 82.6802 79.0513C82.9578 78.5825 84.1378 78.0041 84.668 77.7082Z" fill="var(--fill-0, #EBEAE2)"/>
<path id="Vector_73" d="M71.515 85.2324C71.641 85.3362 71.687 85.4287 71.7814 85.5646L71.722 85.7979C71.2837 86.2505 70.4028 86.6636 69.8223 86.9746C69.6202 86.6657 69.6247 86.7721 69.6417 86.4644C70.044 85.992 70.9302 85.5708 71.515 85.2324Z" fill="var(--fill-0, #EBEAE2)"/>
<path id="Vector_74" d="M34.2355 128.147C34.3352 128.2 34.4574 128.325 34.5466 128.406L34.5358 128.659C34.1567 129.068 33.3346 129.423 32.8104 129.687C32.5279 129.485 32.6275 129.612 32.496 129.296C32.6885 128.889 33.7832 128.386 34.2355 128.147Z" fill="var(--fill-0, #EBEAE2)"/>
<path id="Vector_75" d="M94.2435 95.3947C94.5621 95.4684 94.4455 95.417 94.6933 95.6462L94.6299 95.8698C94.1812 96.2865 93.5347 96.5575 92.9768 96.8304C92.8196 96.8241 92.7616 96.7626 92.6126 96.6777L92.6459 96.4162C93.0387 96.0346 93.7493 95.6742 94.2435 95.3947Z" fill="var(--fill-0, #EBEAE2)"/>
</g>
</g>
</svg>
