<svg preserveAspectRatio="none" width="100%" height="100%" overflow="visible" style="display: block;" viewBox="0 0 89 87.1971" fill="none" xmlns="http://www.w3.org/2000/svg">
<g id="Frame 12">
<path id="Vector" d="M13.9464 13.4295C14.125 13.6363 14.3813 14.628 14.4747 14.9385C14.7937 15.0769 15.2484 15.2097 15.4014 15.4842C15.2411 15.7559 14.8163 15.8665 14.4956 15.9967C14.3228 16.4581 14.2019 17.0078 14.0008 17.542C13.2894 16.1237 14.0787 16.1781 12.2148 15.4573C13.6982 14.9734 13.5072 14.8019 13.9464 13.4295Z" fill="var(--fill-0, #F9F469)"/>
<path id="Vector_2" d="M68.272 58.9731C69.339 59.7084 67.8531 60.7843 70.9677 61.8708C70.2946 62.1409 69.7345 62.4611 69.098 62.808C68.9019 63.48 68.6941 64.1482 68.4731 64.8121C67.9878 64.4826 67.7916 63.3598 67.5939 62.6845C67.0604 62.405 66.2975 62.0854 65.7324 61.8285C67.8315 61.1715 67.7484 61.045 68.272 58.9731Z" fill="var(--fill-0, #F9F469)"/>
<path id="Vector_3" d="M18.5994 67.1476C19.8007 68.314 18.3397 68.7239 20.9135 70.1478C21.1182 70.8038 20.1354 70.6194 19.7172 71.1945C19.3702 71.6718 18.9615 72.9855 18.757 73.5705C18.6821 73.4494 18.5928 73.3023 18.562 73.1621C18.2683 71.8221 17.6339 71.3812 16.8693 70.2401C18.1385 69.0963 18.2064 68.8369 18.5994 67.1476Z" fill="var(--fill-0, #F9F469)"/>
<path id="Vector_4" d="M73.3547 4.67113C74.0879 5.076 73.3648 5.78748 74.9887 6.7885C75.2309 7.30591 74.5434 7.17456 74.1675 7.66583C73.9338 7.97227 73.6442 8.95291 73.5172 9.34227C73.2615 9.0205 73.2683 8.57208 73.0516 8.19857C72.9517 8.0261 71.9679 6.97857 72.1541 6.81864C73.033 6.05977 73.143 5.82023 73.3547 4.67113Z" fill="var(--fill-0, #F9F469)"/>
<g id="Group 17">
<path id="Vector_5" d="M43.1808 6.51273C43.7979 6.4668 44.4158 6.43734 45.0344 6.42437C51.1706 6.33587 59.4571 9.98223 63.8727 14.2639C72.1116 22.2523 67.7657 33.5114 60.7489 40.5884C59.4001 41.9684 57.9033 43.1942 56.286 44.2437C55.0439 45.0589 41.6765 52.312 41.388 52.2929C41.0917 52.2731 41.093 52.1705 40.9097 51.9602C41.6504 49.9411 50.6328 45.7951 52.9713 44.4961C54.3535 43.7338 55.6781 42.8701 56.9341 41.9125C60.119 39.4949 62.7409 36.4093 64.6172 32.8708C66.9517 28.471 67.4872 24.7211 66.0136 19.8831C65.9279 19.716 65.8401 19.5512 65.748 19.3889C62.4817 13.6684 57.0729 10.6685 50.9134 8.80049C35.4681 4.24117 28.6887 18.0764 30.0533 31.245C30.3562 34.1667 35.4921 49.192 33.4146 50.2723L33.0122 50.0716C32.074 48.074 32.1989 44.7447 31.4903 42.7667C27.7801 32.4093 26.3705 21.7258 33.0921 12.2007C35.6041 8.64067 38.8549 7.11764 43.1808 6.51273Z" fill="var(--fill-0, #66F9FF)"/>
<path id="Vector_6" d="M38.3238 68.7619L38.806 69.0088C39.2515 70.183 37.454 75.3901 37.2854 77.1795C37.0526 79.6516 37.2886 82.2724 36.7662 84.6518C36.6585 85.1425 35.0889 86.7036 34.6472 87.1971C33.9005 86.1339 34.3632 73.3445 33.9721 71.2972C33.8894 70.864 37.6127 69.2363 38.3238 68.7619Z" fill="var(--fill-0, #EBEAE2)"/>
<path id="Vector_7" d="M40.1925 79.9635C40.308 78.5837 40.4287 77.2047 40.5446 75.8253C40.5965 75.2106 40.6406 74.5958 40.6895 73.9812C40.7549 73.1547 40.8004 72.3264 40.8089 71.4941C40.8106 71.2894 40.7854 71.0884 40.7286 70.8895C40.6964 70.7774 40.634 70.7456 40.5196 70.7652C40.3929 70.7862 40.2998 70.849 40.2464 70.967C40.2128 71.0402 40.1797 71.1122 40.148 71.1857C39.8123 71.9657 39.5586 72.7773 39.373 73.6102C39.1626 74.551 38.9686 75.4963 38.7959 76.4451C38.4994 78.0679 38.2561 79.7025 38.0602 81.3457C38.055 81.395 38.0469 81.4461 38.0504 81.4966C38.0624 81.6514 38.1387 81.7684 38.2802 81.8387C38.4152 81.9051 38.5557 81.9259 38.6917 81.8735C38.811 81.8277 38.9294 81.7726 39.0376 81.7063C39.3268 81.5286 39.5705 81.2993 39.7804 81.033C40.0436 80.7317 40.159 80.3667 40.1925 79.9635Z" fill="var(--fill-0, #EBEAE2)"/>
<path id="Vector_8" d="M35.0018 42.443C36.7147 42.6578 37.884 44.3284 39.3806 44.9793C40.7553 45.5772 42.4785 45.6279 43.9009 46.3955C44.7598 47.769 42.4654 48.8447 41.4204 49.5395C40.0107 50.5933 38.8059 52.0782 37.2309 52.2604C36.4558 52.1225 36.0981 51.6737 35.5358 51.1299C35.355 48.7176 34.3892 44.1894 35.0018 42.443Z" fill="var(--fill-0, #F0AACC)"/>
<path id="Vector_9" d="M30.8109 60.9507C32.1113 61.1467 33.5442 62.0426 34.6486 62.7426C33.5442 64.9262 32.7318 67.2976 31.932 69.6062C31.5863 70.6041 31.4657 72.2916 30.7141 72.8899L30.136 72.7331C28.4694 72.0752 27.1718 71.5795 25.5957 70.7288C28.5632 66.9942 28.6379 64.6079 30.8109 60.9507Z" fill="var(--fill-0, #F0AACC)"/>
<path id="Vector_10" d="M35.4661 64.8727C36.7526 64.9671 38.0671 64.8421 38.2057 66.3449C37.9099 67.183 37.1233 67.6679 36.4082 68.2288C35.6028 68.569 34.6991 68.9892 34.2285 68.0985C34.275 67.0946 35.009 65.8168 35.4661 64.8727Z" fill="var(--fill-0, #EBEAE2)"/>
<path id="Vector_11" d="M31.3902 57.3696C31.5551 57.5458 31.9244 58.0412 31.7944 58.2668C31.0179 59.6139 28.8308 61.1376 27.581 62.0206C27.2049 61.723 27.222 61.7432 27.0742 61.2838C27.6275 59.6903 29.9716 58.1877 31.3902 57.3696Z" fill="var(--fill-0, #EBEAE2)"/>
<path id="Vector_12" d="M30.123 54.5634C31.7657 55.8036 27.2922 58.3387 26.3534 58.9507C26.2009 58.8385 26.0726 58.6398 25.9512 58.4817C26.1921 56.8499 28.8002 55.4049 30.123 54.5634Z" fill="var(--fill-0, #EBEAE2)"/>
<path id="Vector_13" d="M42.1489 58.1323C44.5149 58.7742 42.1834 61.674 41.399 63.0813C40.9691 62.9888 40.9764 62.9639 40.6423 62.7045C40.2741 61.5179 41.5864 59.3037 42.1489 58.1323Z" fill="var(--fill-0, #EBEAE2)"/>
<path id="Vector_14" d="M29.5048 51.6168C29.6813 51.9204 29.8966 52.1361 29.816 52.4148C29.5389 53.3725 27.3012 54.9219 26.5157 55.538C26.4163 55.5058 26.2092 55.3359 26.1113 55.2641C26.149 53.8067 28.3966 52.3084 29.5048 51.6168Z" fill="var(--fill-0, #EBEAE2)"/>
<path id="Vector_15" d="M38.3088 53.8163C39.1615 53.7406 39.849 53.5017 40.3676 54.2679C40.0778 54.9279 39.7175 55.0288 39.0735 55.3847C38.2929 55.2746 36.915 55.2189 36.625 54.3905C37.1322 53.8901 37.5848 53.9182 38.3088 53.8163Z" fill="var(--fill-0, #EBEAE2)"/>
<path id="Vector_16" d="M49.4687 37.1075C50.1087 36.9301 50.7706 37.309 50.9439 37.9527C51.1174 38.5961 50.7363 39.2585 50.0944 39.4293C49.4574 39.5985 48.8039 39.2194 48.6317 38.5807C48.4597 37.9422 48.8336 37.2839 49.4687 37.1075Z" fill="var(--fill-0, #EBEAE2)"/>
<path id="Vector_17" d="M58.8287 26.9764C59.4085 26.7538 60.0614 27.0168 60.3272 27.5802C60.5928 28.1437 60.382 28.8174 59.8429 29.1269C59.4552 29.3493 58.976 29.3349 58.6025 29.0895C58.2287 28.8441 58.0235 28.4093 58.0713 27.9635C58.1191 27.5177 58.4116 27.1364 58.8287 26.9764Z" fill="var(--fill-0, #EBEAE2)"/>
<path id="Vector_18" d="M28.9409 48.6873L29.4537 48.9006L29.6178 49.3482C29.4115 50.1763 27.6112 51.4828 26.8643 52.0873C26.5672 52.1733 26.7276 52.1606 26.3652 51.9875C26.449 50.8378 28.0361 49.5804 28.9409 48.6873Z" fill="var(--fill-0, #EBEAE2)"/>
<path id="Vector_19" d="M46.2954 21.6452C46.8731 21.359 47.5726 21.599 47.8552 22.1803C48.1377 22.7615 47.8959 23.4628 47.3156 23.7441C46.7388 24.0237 46.0454 23.7826 45.7646 23.2046C45.4836 22.6267 45.7209 21.9297 46.2954 21.6452Z" fill="var(--fill-0, #EBEAE2)"/>
<path id="Vector_20" d="M36.7892 31.9359C37.1311 31.6779 37.5869 31.6299 37.9748 31.8112C38.3625 31.9925 38.6195 32.3733 38.6431 32.8022C38.6666 33.231 38.4531 33.6381 38.0877 33.8611C37.5593 34.1834 36.8721 34.0329 36.5256 33.5191C36.179 33.0052 36.2951 32.3086 36.7892 31.9359Z" fill="var(--fill-0, #EBEAE2)"/>
<path id="Vector_21" d="M39.1139 37.5761C39.6907 37.3028 40.3791 37.5488 40.6541 38.1264C40.9294 38.7041 40.688 39.3965 40.1139 39.6759C39.5358 39.9572 38.8399 39.7127 38.5628 39.1307C38.2856 38.5486 38.5328 37.8514 39.1139 37.5761Z" fill="var(--fill-0, #EBEAE2)"/>
<path id="Vector_22" d="M46.8537 31.4665C47.2054 31.2347 47.655 31.2132 48.027 31.4104C48.3993 31.6078 48.6351 31.9925 48.6431 32.4149C48.6508 32.8372 48.4293 33.2306 48.0647 33.4415C47.523 33.7551 46.8314 33.5792 46.5035 33.0448C46.1758 32.5101 46.3308 31.8108 46.8537 31.4665Z" fill="var(--fill-0, #EBEAE2)"/>
<path id="Vector_23" d="M36.5919 22.031C37.1993 21.9035 37.7984 22.2811 37.9482 22.8859C38.0979 23.4906 37.7442 24.1059 37.1479 24.2785C36.742 24.3962 36.3042 24.2816 36.0071 23.9798C35.71 23.6779 35.601 23.2373 35.7229 22.831C35.8448 22.4246 36.1783 22.1177 36.5919 22.031Z" fill="var(--fill-0, #EBEAE2)"/>
<path id="Vector_24" d="M56.291 21.3958C56.6429 21.1654 57.0916 21.1452 57.4626 21.3435C57.8334 21.5416 58.0675 21.9265 58.0739 22.3482C58.0801 22.77 57.8574 23.1618 57.4926 23.371C56.9511 23.6814 56.2619 23.5033 55.9367 22.9691C55.6118 22.4347 55.7686 21.7377 56.291 21.3958Z" fill="var(--fill-0, #EBEAE2)"/>
<path id="Vector_25" d="M57.9952 17.5138C58.3426 17.2566 58.8042 17.216 59.1908 17.4089C59.5775 17.6018 59.824 17.9955 59.8298 18.4289C59.8353 18.8622 59.5991 19.2624 59.2176 19.4654C58.6851 19.7486 58.025 19.5717 57.7041 19.0594C57.3833 18.5471 57.5103 17.873 57.9952 17.5138Z" fill="var(--fill-0, #EBEAE2)"/>
<path id="Vector_26" d="M43.7309 39.483C44.3139 39.2587 44.9687 39.5423 45.2063 40.1221C45.4436 40.7017 45.1771 41.3658 44.6059 41.6185C44.2235 41.7873 43.7802 41.735 43.4473 41.4815C43.1147 41.2281 42.9448 40.8135 43.0037 40.3985C43.0626 39.9834 43.3409 39.6329 43.7309 39.483Z" fill="var(--fill-0, #EBEAE2)"/>
<path id="Vector_27" d="M39.6832 14.2882C40.0154 14.0233 40.466 13.9631 40.8556 14.1319C41.2453 14.3007 41.5107 14.671 41.5466 15.0958C41.5824 15.5203 41.3828 15.9302 41.027 16.1624C40.5117 16.4988 39.8241 16.3695 39.4651 15.8687C39.1059 15.3678 39.2021 14.6721 39.6832 14.2882Z" fill="var(--fill-0, #EBEAE2)"/>
<path id="Vector_28" d="M45.9041 11.953C46.4696 11.7842 47.0706 12.0728 47.2947 12.6209C47.519 13.1689 47.2934 13.7984 46.7729 14.0773C46.3861 14.2846 45.9157 14.253 45.5599 13.9958C45.2042 13.7386 45.0251 13.3007 45.0981 12.8668C45.1712 12.4328 45.4839 12.0784 45.9041 11.953Z" fill="var(--fill-0, #EBEAE2)"/>
<path id="Vector_29" d="M32.1914 54.8007C33.634 55.0916 35.443 55.8376 36.0239 57.2972C35.1419 57.2413 33.028 56.528 32.3931 55.7985C32.0703 55.4275 32.1886 55.4235 32.1914 54.8007Z" fill="var(--fill-0, #EBEAE2)"/>
<path id="Vector_30" d="M55.3642 34.9178C55.9723 34.7473 56.6034 35.1026 56.776 35.7122C56.9484 36.3221 56.5976 36.9574 55.991 37.1333C55.3805 37.3105 54.7429 36.9555 54.5694 36.3417C54.3957 35.7279 54.7521 35.0895 55.3642 34.9178Z" fill="var(--fill-0, #EBEAE2)"/>
<path id="Vector_31" d="M56.9153 31.0381C57.4572 30.7426 58.1347 30.9301 58.4491 31.4626C58.7636 31.9953 58.6021 32.6821 58.0835 33.0172C57.7307 33.2456 57.2818 33.2617 56.9134 33.0598C56.5449 32.8578 56.316 32.4699 56.3164 32.0484C56.3168 31.6269 56.5464 31.2394 56.9153 31.0381Z" fill="var(--fill-0, #EBEAE2)"/>
<path id="Vector_32" d="M43.8267 16.0233C44.1626 15.7745 44.6066 15.7289 44.9859 15.9042C45.365 16.0794 45.6193 16.4478 45.6493 16.8659C45.6795 17.2837 45.4807 17.6852 45.1307 17.9134C44.6113 18.2519 43.918 18.1147 43.5652 17.6037C43.2126 17.0925 43.3285 16.3925 43.8267 16.0233Z" fill="var(--fill-0, #EBEAE2)"/>
<path id="Vector_33" d="M52.5532 19.4437C53.1422 19.3336 53.7162 19.6976 53.8702 20.2789C54.024 20.8604 53.706 21.4626 53.1403 21.6607C52.7342 21.8028 52.2829 21.7047 51.9719 21.4067C51.6608 21.1084 51.5422 20.6604 51.6647 20.2467C51.7874 19.8327 52.1304 19.5228 52.5532 19.4437Z" fill="var(--fill-0, #EBEAE2)"/>
<path id="Vector_34" d="M51.1055 33.1959C51.4925 33.0174 51.9464 33.0695 52.2833 33.3312C52.6203 33.5931 52.7841 34.0211 52.7089 34.4422C52.6337 34.8632 52.3317 35.2073 51.9254 35.3353C51.3495 35.5166 50.7324 35.2174 50.5158 34.6518C50.299 34.0865 50.5572 33.4491 51.1055 33.1959Z" fill="var(--fill-0, #EBEAE2)"/>
<path id="Vector_35" d="M54.1896 15.5562C54.7879 15.345 55.4429 15.6635 55.6487 16.2659C55.8543 16.868 55.5322 17.5233 54.9307 17.7254C54.3357 17.9252 53.6916 17.6059 53.4879 17.01C53.2844 16.4143 53.5976 15.765 54.1896 15.5562Z" fill="var(--fill-0, #EBEAE2)"/>
<path id="Vector_36" d="M34.7514 26.0994C35.2927 25.862 35.9248 26.0781 36.2094 26.5977C36.4939 27.117 36.3373 27.7686 35.8479 28.1007C35.4891 28.3439 35.0241 28.3626 34.6471 28.1488C34.2699 27.9353 34.0456 27.5258 34.0679 27.0916C34.09 26.6575 34.3547 26.2734 34.7514 26.0994Z" fill="var(--fill-0, #EBEAE2)"/>
<path id="Vector_37" d="M38.7336 27.8682C39.1016 27.6775 39.5437 27.7026 39.8881 27.9336C40.2326 28.1645 40.4247 28.5652 40.39 28.9794C40.3555 29.3938 40.0993 29.7566 39.7215 29.9267C39.159 30.18 38.4978 29.9377 38.2301 29.38C37.9625 28.8224 38.1857 28.1521 38.7336 27.8682Z" fill="var(--fill-0, #EBEAE2)"/>
<path id="Vector_38" d="M38.0127 18.1303C38.3766 17.9095 38.8328 17.9106 39.1957 18.1331C39.5587 18.3557 39.7678 18.7628 39.738 19.1886C39.7085 19.6146 39.4448 19.9884 39.0545 20.1581C38.5047 20.3972 37.8645 20.1678 37.5899 19.6331C37.3151 19.0985 37.4999 18.4417 38.0127 18.1303Z" fill="var(--fill-0, #EBEAE2)"/>
<path id="Vector_39" d="M42.2008 19.9065C42.5739 19.7082 43.0257 19.7338 43.3739 19.9729C43.7224 20.2123 43.9101 20.6256 43.8614 21.0465C43.8128 21.4673 43.5357 21.8267 43.142 21.9794C42.5808 22.197 41.9478 21.9379 41.6983 21.3882C41.4488 20.8387 41.669 20.1891 42.2008 19.9065Z" fill="var(--fill-0, #EBEAE2)"/>
<path id="Vector_40" d="M60.6212 23.063C61.1592 22.8529 61.7686 23.0811 62.0385 23.5936C62.3082 24.1061 62.1525 24.74 61.6765 25.068C61.3156 25.3164 60.845 25.3351 60.4659 25.1157C60.0868 24.8966 59.8666 24.4783 59.8998 24.0402C59.933 23.6024 60.2136 23.2224 60.6212 23.063Z" fill="var(--fill-0, #EBEAE2)"/>
<path id="Vector_41" d="M54.5891 25.2944C54.9586 25.0912 55.4097 25.1101 55.7612 25.3433C56.1127 25.5764 56.3069 25.9856 56.2658 26.4067C56.2247 26.8276 55.955 27.1912 55.5652 27.3514C55.0072 27.5807 54.3681 27.3325 54.1087 26.7861C53.8495 26.2396 54.0603 25.585 54.5891 25.2944Z" fill="var(--fill-0, #EBEAE2)"/>
<path id="Vector_42" d="M48.8171 27.4147C49.205 27.2491 49.6524 27.3129 49.9793 27.5805C50.3059 27.848 50.4582 28.2753 50.3747 28.6901C50.2914 29.1052 49.9859 29.4394 49.5813 29.5587C49.0038 29.7289 48.3945 29.4175 48.1916 28.8486C47.989 28.2798 48.2631 27.651 48.8171 27.4147Z" fill="var(--fill-0, #EBEAE2)"/>
<path id="Vector_43" d="M49.7292 13.8699C50.2568 13.542 50.9491 13.7033 51.2785 14.2312C51.6081 14.759 51.4511 15.4549 50.9272 15.7887C50.3992 16.1248 49.6997 15.9656 49.3677 15.4338C49.0357 14.902 49.1978 14.2005 49.7292 13.8699Z" fill="var(--fill-0, #EBEAE2)"/>
<path id="Vector_44" d="M48.199 17.6857C48.7458 17.4943 49.3481 17.7517 49.5897 18.2803C49.8314 18.8087 49.6332 19.4351 49.132 19.7267C48.7627 19.9416 48.3039 19.9278 47.9482 19.691C47.5922 19.4543 47.4009 19.0355 47.454 18.6102C47.5071 18.185 47.7959 17.8267 48.199 17.6857Z" fill="var(--fill-0, #EBEAE2)"/>
<path id="Vector_45" d="M43.0925 29.5411C43.674 29.4596 44.2196 29.8419 44.3436 30.4181C44.4676 30.9942 44.1279 31.5688 43.5648 31.7355C43.1617 31.8546 42.726 31.7376 42.4362 31.432C42.1464 31.1265 42.0511 30.6839 42.1895 30.2854C42.3276 29.8869 42.6763 29.5996 43.0925 29.5411Z" fill="var(--fill-0, #EBEAE2)"/>
<path id="Vector_46" d="M41.0285 33.6379C41.5792 33.3482 42.2595 33.5641 42.5446 34.1189C42.8295 34.6736 42.6103 35.3553 42.056 35.6379C41.5066 35.9179 40.8351 35.7 40.5526 35.1503C40.2703 34.6007 40.4827 33.925 41.0285 33.6379Z" fill="var(--fill-0, #EBEAE2)"/>
<path id="Vector_47" d="M44.6794 25.6536C45.2472 25.4553 45.8695 25.7439 46.0871 26.3067C46.3047 26.8693 46.0395 27.5039 45.4871 27.7424C45.1121 27.9044 44.6788 27.8476 44.3573 27.5947C44.036 27.3416 43.8777 26.9328 43.9449 26.5282C44.012 26.1237 44.2937 25.7885 44.6794 25.6536Z" fill="var(--fill-0, #EBEAE2)"/>
<path id="Vector_48" d="M40.4107 23.9643C40.7669 23.7697 41.2004 23.785 41.5419 24.0046C41.8835 24.2239 42.079 24.6127 42.0523 25.019C42.0255 25.4252 41.7807 25.7846 41.4131 25.9568C40.8686 26.2123 40.2207 25.9871 39.9498 25.4486C39.6788 24.9099 39.8829 24.2527 40.4107 23.9643Z" fill="var(--fill-0, #EBEAE2)"/>
<path id="Vector_49" d="M50.406 23.5513C50.7483 23.3263 51.1863 23.3093 51.5451 23.507C51.9039 23.7046 52.1249 24.0848 52.12 24.4956C52.1148 24.9063 51.8848 25.2809 51.5215 25.4698C50.9976 25.7422 50.3529 25.5545 50.0556 25.0429C49.7581 24.5313 49.9121 23.8753 50.406 23.5513Z" fill="var(--fill-0, #EBEAE2)"/>
<path id="Vector_50" d="M52.7116 29.3624C53.0509 29.1336 53.4881 29.1112 53.8488 29.3043C54.2095 29.4972 54.4346 29.8744 54.4342 30.2848C54.4338 30.6951 54.208 31.0719 53.8471 31.2643C53.3274 31.5413 52.6827 31.3613 52.3801 30.8547C52.0776 30.348 52.2233 29.6921 52.7116 29.3624Z" fill="var(--fill-0, #EBEAE2)"/>
<path id="Vector_51" d="M45.3505 35.3931C45.7446 35.2312 46.1964 35.3114 46.5114 35.5989C46.8265 35.8865 46.9488 36.3303 46.8259 36.7396C46.7029 37.149 46.3566 37.4507 45.9357 37.5155C45.3826 37.6004 44.8536 37.2568 44.7043 36.7153C44.555 36.1738 44.8326 35.6058 45.3505 35.3931Z" fill="var(--fill-0, #EBEAE2)"/>
<path id="Vector_52" d="M31.3262 51.3734C32.4518 51.5112 34.771 52.0787 35.0531 53.3099C33.5009 53.1815 31.4806 53.1615 31.3262 51.3734Z" fill="var(--fill-0, #EBEAE2)"/>
<path id="Vector_53" d="M32.8164 58.8183C34.2873 58.9983 34.9185 60.071 35.406 61.3215C33.7537 60.9303 33.2154 60.5103 32.8164 58.8183Z" fill="var(--fill-0, #EBEAE2)"/>
<path id="Vector_54" d="M41.7402 54.3331C42.7132 55.0742 43.4173 55.6682 42.9671 56.8686C42.2077 56.7273 42.0402 56.6912 41.5356 56.1172C41.3023 55.368 41.4829 55.0581 41.7402 54.3331Z" fill="var(--fill-0, #EBEAE2)"/>
</g>
</g>
</svg>
