<svg preserveAspectRatio="none" width="100%" height="100%" overflow="visible" style="display: block;" viewBox="0 0 293.607 266" fill="none" xmlns="http://www.w3.org/2000/svg">
<g id="Group 5">
<path id="Vector" d="M4.48184 186.544C13.019 181.285 25.677 175.128 34.8102 170.282L46.5965 164.031C48.1916 163.183 53.2993 160.298 54.799 160.035C63.6363 158.521 72.7182 157.745 81.6441 156.698C95.4235 155.082 109.246 153.3 123.031 151.772C126.505 151.387 150.226 147.986 151.328 149.104C151.172 150.492 149.215 150.797 148.006 150.973C141.086 151.979 134.109 152.62 127.171 153.493C110.632 155.586 94.077 157.554 77.5079 159.394C70.9742 160.102 63.8721 160.982 57.3126 161.83C56.2847 161.963 55.7326 164.242 56.0503 165.3C56.621 165.864 56.7935 166.049 57.7754 166.006C63.6073 165.751 70.7324 163.813 76.4739 163.944C70.2497 165.793 63.6884 166.106 57.3148 167.253C55.8952 167.508 55.3628 169.46 55.7123 170.719C56.9788 173.757 63.8167 169.726 65.7385 170.991L65.593 171.434C61.8153 173.258 57.2548 171.141 55.91 174.65C55.1287 176.688 56.2598 185.929 54.9462 187.283C53.2518 186.124 54.8469 177.22 54.001 175.393C52.4698 174.596 49.2834 176.809 47.6576 177.456C50.3445 174.709 55.5744 173.442 53.7272 169.03C52.9281 168.732 53.2069 168.933 52.7195 168.063L52.9111 167.892C54.171 166.747 54.3823 165.761 53.3738 164.368C52.8448 164.082 52.1049 163.882 51.5433 164.161C38.6413 170.567 26.0345 177.702 13.2095 184.295C12.3885 184.717 11.2397 185.47 10.729 186.152C11.0843 186.971 11.4563 187.427 12.3811 187.705C20.0921 190.024 27.9585 191.635 35.7803 193.59C39.7649 194.586 44.1067 196.035 48.2322 196.645C55.4547 196.92 64.8427 196.19 72.0866 195.659C79.1413 195.193 86.2013 194.81 93.2651 194.513L106.088 193.864C108.122 193.748 112.715 192.801 113.783 194.523C112.8 196.103 108.435 195.955 106.633 196.244C103.038 200.48 99.0772 203.315 93.3561 203.909C88.136 204.452 86.3759 202.204 82.4834 201.326C77.7274 200.582 70.602 205.361 66.4987 201.221C62.599 197.288 58.1164 198.911 53.1279 198.938C50.2173 198.955 49.4791 200.588 49.665 203.169C50.7116 204.663 52.7266 204.034 54.4555 204.652C58.5519 206.117 61.669 209.439 65.8082 210.689C70.5872 212.205 77.5852 208.323 81.7378 208.838C92.7253 210.203 94.1719 213.944 104.865 207.096C102.258 210.337 99.8642 211.517 95.6535 212.05C90.5771 212.693 86.6533 209.929 81.6896 209.827C75.9637 209.708 70.403 213.445 64.7301 211.5C61.1794 210.283 53.89 203.675 50.1335 205.482C49.3325 206.864 49.5671 212.701 49.7165 214.523C53.7576 215.657 57.6608 216.523 61.8636 216.82C63.4957 216.936 66.1398 217.23 67.1176 218.697C67.1187 222.436 53.2321 224.986 50.2108 225.717C49.1685 225.969 49.3922 239.928 50.0937 241.355C51.2656 242.415 53.9889 242.242 55.3891 241.789C55.7491 241.382 56.2477 240.821 56.0684 240.244C53.1622 230.855 62.363 231.831 68.5532 229.565C72.3199 228.186 75.8303 227.209 80.1389 226.492C84.3598 225.79 92.2251 227.856 88.3115 233.759C87.5195 234.953 81.5295 238.609 83.5289 240.42C85.0826 240.673 86.6958 240.324 87.7975 240.756L88.1596 241.272C88.0779 241.683 88.1264 241.922 87.7545 242.16C85.8759 243.362 60.9272 244.034 57.2729 244.217C54.9163 244.336 51.3294 244.039 49.1902 244.962C48.3577 245.321 47.8218 246.274 47.5847 247.115C47.3605 247.91 47.4528 248.388 47.7941 249.101C49.773 250.613 55.8499 249.828 58.5325 249.688L76.2258 248.671C78.0512 248.573 82.8677 247.834 83.8255 249.431C83.6854 249.804 83.5429 250.349 83.0349 250.39C73.7807 251.133 54.2548 252.461 45.5916 252.087C43.8399 252.012 26.5967 247.27 24.9649 246.85L10.2792 243.104C7.67067 242.438 3.72335 241.641 1.3651 240.526C-2.44544 238.725 2.77846 233.199 4.23513 231.834C4.4569 221.89 4.20223 211.984 4.19429 202.051C4.191 197.728 3.91688 190.644 4.48184 186.544Z" fill="var(--fill-0, #F297EE)"/>
<path id="Vector_2" d="M33.1232 201.963C31.607 200.74 29.9766 199.855 28.2351 198.999C26.4251 198.108 24.367 197.197 22.3552 196.948C17.812 196.386 13.2303 198.464 8.69118 196.644C7.69284 196.243 6.85923 195.605 6.4656 194.567C5.98315 193.295 6.38995 191.083 7.03687 189.924C7.22491 189.587 7.43681 189.397 7.81564 189.305C9.22626 188.964 44.6965 198.016 46.3692 199.318C47.0287 199.831 47.2708 200.786 47.3599 201.579C47.4745 202.598 47.3478 203.168 46.7204 203.973L46.9358 205.031C47.6625 206.239 47.7066 219.272 47.0224 220.577C45.9835 220.966 45.5838 220.951 44.4854 221.022C45.7565 221.829 46.3698 220.73 47.0888 221.833C48.4207 228.259 48.3604 230.408 41.8846 229.965C30.6427 229.196 30.3458 222.191 21.4051 217.868C18.2807 216.357 9.59825 217.565 6.99356 215.358C6.55003 212.574 6.13666 199.705 6.94202 197.67C7.64815 197.43 10.238 198.472 11.8967 198.587C15.1949 198.816 18.4383 197.936 21.5126 198.02C25.3727 198.126 29.1989 200.822 33.1232 201.963Z" fill="var(--fill-0, #1B1B1B)"/>
<path id="Vector_3" d="M47.0905 221.833C45.7934 222.204 44.3992 221.999 43.1185 221.931C36.4374 221.826 33.2653 216.738 28.1604 213.776C25.2407 212.082 17.7953 212.438 15.8611 208.513C15.1325 207.034 16.8381 204.775 18.3532 204.403C24.77 202.829 31.1491 206.99 36.8878 209.275C38.4884 209.916 39.862 210.033 41.254 210.657L41.1912 210.937C37.8809 211.855 29.7686 206.625 26.1264 205.935C24.3624 205.462 16.7646 203.983 16.8362 207.308C16.9116 210.817 26.1387 211.643 28.546 212.824C29.7947 213.437 31.6175 214.667 32.4229 215.466C36.3036 219.314 39.3006 220.197 44.4872 221.022C45.7583 221.829 46.3715 220.73 47.0905 221.833Z" fill="var(--fill-0, #F297EE)"/>
<path id="Vector_4" d="M36.1309 202.997C40.6966 204.097 42.0656 204.518 46.7228 203.973L46.9383 205.031C42.375 205.93 39.9137 205.478 36.1309 202.997Z" fill="var(--fill-0, #F297EE)"/>
<path id="Vector_5" d="M6.74799 217.108C7.00127 217.099 7.25484 217.097 7.5084 217.1C11.8984 217.141 22.0806 218.083 24.9465 221.016C28.7653 224.925 30.2864 227.387 35.7849 229.794C38.4735 230.972 45.7262 230.576 47.0052 231.866C47.8097 233.841 47.5334 239.022 46.8893 241.014C43.7774 242.016 28.8927 237.467 24.912 236.389C24.9087 233.349 24.9926 231.41 22.742 228.822C18.9896 224.509 12.0207 224.432 6.68878 224.162C6.51772 222.074 6.58214 219.191 6.74799 217.108Z" fill="var(--fill-0, #1B1B1B)"/>
<path id="Vector_6" d="M78.624 227.679C81.0711 227.397 84.5332 227.368 86.7103 228.529C91.3577 231.007 84.7701 235.11 83.2353 237.272C82.4198 238.421 81.7764 239.497 81.0933 240.662C79.729 240.811 76.8559 241.22 75.6707 240.816C74.6315 239.307 76.004 237.718 74.2721 236.195C72.2507 235.335 69.208 236.614 67.1719 237.389C65.165 238.685 64.9641 239.267 64.1077 241.518C61.7037 241.74 59.6741 241.814 57.2567 241.869C57.1964 240.103 56.0146 235.899 56.8847 234.936C59.0294 232.563 65.7081 231.482 68.6452 230.584C72.0819 229.532 75.4185 228.167 78.624 227.679Z" fill="var(--fill-0, #1B1B1B)"/>
<path id="Vector_7" d="M5.52702 234.178C6.17257 234.232 6.82279 234.343 7.68626 234.566C20.1828 237.792 33.0207 240.48 45.3651 244.146C45.4742 244.32 45.583 244.494 45.6921 244.668C45.7936 245.905 45.4882 247.475 44.8807 248.559C44.2483 249.093 44.1647 249.147 43.3418 249.198C34.7945 247.11 26.2672 244.94 17.7613 242.689C13.9093 241.695 6.21396 239.925 2.91329 238.59C1.67454 236.841 4.19178 234.995 5.52702 234.178Z" fill="var(--fill-0, #1B1B1B)"/>
<path id="Vector_8" d="M99.2349 196.501C101.016 196.332 103.26 196.327 105.092 196.279C101.489 200.842 94.898 204.281 88.9886 202.659C86.9338 202.095 84.2647 200.338 82.0881 200.224C79.3267 200.08 75.9476 201.207 73.0726 201.758C70.6045 202.078 66.7078 201.352 65.6289 198.799C66.7333 197.758 95.5118 196.693 99.2349 196.501Z" fill="var(--fill-0, #1B1B1B)"/>
<path id="Vector_9" d="M6.85054 225.374C10.2568 225.366 13.2641 225.367 16.576 226.356C20.7717 227.607 25.0768 231.183 23.3882 236.027C20.4803 235.388 9.31378 233.188 7.38782 231.084C6.27105 229.864 6.57615 227.02 6.85054 225.374Z" fill="var(--fill-0, #1B1B1B)"/>
<path id="Vector_10" d="M49.6804 216.039C52.4107 216.013 57.983 217.595 61.0822 217.631C62.2321 217.645 64.8902 218.213 65.7027 219.251L65.6298 219.838C65.0383 220.548 64.1477 220.733 63.2622 221.021C57.006 222.533 56.9997 224.364 49.6689 224.024C49.6234 221.4 49.5286 218.648 49.6804 216.039Z" fill="var(--fill-0, #1B1B1B)"/>
<path id="Vector_11" d="M71.982 236.967L73.1848 236.986C73.9858 237.376 74.0568 237.451 74.4852 238.234C74.6883 241.49 71.1505 241.304 68.8726 241.34C68.4444 241.379 68.0157 241.41 67.5867 241.434C66.4535 241.489 66.3008 241.416 65.5859 240.762L65.6254 240.157C67.0078 238.216 69.7419 237.351 71.982 236.967Z" fill="var(--fill-0, #1B1B1B)"/>
<path id="Vector_12" d="M233.536 168.426C234.369 168.535 234.975 168.627 235.515 169.267L235.474 169.739C233.711 171.518 224.435 172.475 222.999 173.687C218.245 177.702 219.586 181.562 211.845 184.405C206.434 186.392 201.349 183.617 196.754 186.132C192.922 188.229 192.029 194.872 186.634 196.313C185.716 196.64 183.742 196.771 182.944 196.123C178.701 192.67 187.226 187.486 186.223 183.711C184.537 182.948 181.113 184.406 179.277 185.067C176.078 190.48 174.041 193.996 167.128 194.107C161.311 194.201 158.666 199.273 153.564 200.741C151.533 201.325 146.613 200.289 145.185 201.402C144.757 203.409 144.992 207.765 145.058 209.934C147.388 210.302 150.31 210.815 152.618 210.483C159.866 209.405 163.663 201.283 171.264 200.893C173.408 200.784 175.486 201.673 175.581 204.04C174.578 206.321 170.973 206.599 169.049 208.573C166.36 211.33 166.039 213.3 162.75 215.9C161.094 217.193 159.222 218.184 157.224 218.828C155.171 219.496 146.892 220.103 145.296 220.812C144.69 221.081 144.653 226.022 145.68 227.271C147.064 228.183 148.696 227.896 150.247 227.588C162.72 225.107 163.04 218.924 175.052 228.888C177.289 228.465 182.451 227.85 183.682 226.143C183.832 222.159 166.859 220 177.062 212.824C177.972 212.794 180.019 212.783 180.781 212.467C184.203 211.054 182.042 206.85 185.37 205.412C190.833 203.051 192.045 210.418 194.986 210.955C200.962 212.047 204.158 209.194 210.661 211.927L210.724 212.191C208.964 212.484 204.948 211.905 202.777 211.881C199.964 211.851 197.802 212.578 195.102 212.206C191.612 211.725 190.633 206.306 187.824 206.047C183.553 205.652 184.611 210.514 182.673 212.608C181.127 214.629 177.728 213.283 176.212 214.807C172.317 218.722 180.831 221.487 183.073 223.284C184.334 224.292 185.173 225.077 186.226 226.086C191.267 225.15 201.286 221.764 205.455 221.493C206.417 221.898 206.159 221.639 206.601 222.406L206.384 222.948C203.01 225.997 148.197 236.662 146.418 239.866C146.377 241.258 147.005 242.855 147.439 244.213C147.761 244.55 148.065 244.807 148.561 244.806C151.377 244.801 157.47 242.638 160.53 241.801C165.732 240.377 202.072 230.101 204.586 230.585C204.852 230.636 204.923 230.884 205.071 231.097C204.978 231.636 204.986 231.745 204.548 232.077C203.47 232.893 150.253 247.139 145.643 247.824C142.966 248.223 140.152 248.166 137.449 248.255C132.919 248.399 128.391 248.575 123.864 248.784C121.025 248.922 107.475 249.893 105.714 249.689C104.897 248.993 105.109 249.348 104.854 248.372C104.972 248.195 105.052 247.986 105.209 247.843C107.045 246.174 142.659 247.03 144.691 244.926C144.984 244.623 144.945 244.37 144.961 243.963C145.004 242.881 144.416 241.184 143.634 240.425C143.002 239.812 141.913 239.746 141.074 239.709C138.273 239.586 135.312 239.946 132.512 240.147C125.678 240.638 118.612 241.429 111.767 241.394C110.899 241.39 109.838 241.413 109.212 240.776L109.336 240.365C109.696 240.005 110.657 239.164 111.166 239.127C114.782 238.864 118.375 238.779 121.997 238.472C127.548 231.086 133.657 228.788 142.624 228.555C142.811 226.712 143.261 218.137 141.632 217.094C136.276 213.662 125.356 227.447 121.25 224.235C121.628 223.531 123.627 223.655 124.886 223.137C129.328 221.31 131.264 218.125 136.035 216.468C138.713 215.537 140.911 216.524 142.373 215.448C142.868 214.041 143.006 206.648 142.048 205.671C140.241 205.078 135.88 205.359 134.081 206.024C133.129 206.377 131.92 207.376 130.481 207.899L130.118 207.689C132.48 204.11 138.758 204.214 142.586 204.265C142.575 202.062 142.81 199.83 142.674 197.615C142.341 192.201 135.67 195.537 134.291 193.738L134.538 193.184C136.05 191.893 143.118 191.85 146.82 190.928L233.536 168.426Z" fill="var(--fill-0, #F297EE)"/>
<path id="Vector_13" d="M218.361 174.708C218.964 174.624 218.978 174.652 219.55 174.758L219.767 175.328C219.323 177.737 217.034 179.495 215.411 181.091C210.718 185.707 204.77 183.283 199.093 184.159C194.715 184.835 193.051 188.434 190.836 191.73C189.151 194.147 187.55 195.024 184.707 195.508C183.877 195.266 183.498 195.233 182.991 194.509C182.383 192.272 185.96 188.651 186.897 186.439C187.52 184.972 187.626 184.427 187.947 182.874C190.524 181.698 197.138 180.232 200.187 179.471C206.264 177.956 212.322 176.369 218.361 174.708Z" fill="var(--fill-0, #1B1B1B)"/>
<path id="Vector_14" d="M170.25 202.144C172.005 202.018 173.537 201.787 174.461 203.563C173.68 205.778 169.472 206.267 168.51 207.482C162.112 215.573 160.431 218.296 149.585 219.073L145.064 219.141C144.92 216.69 145.009 213.57 145.016 211.067C147.251 211.278 148.949 211.809 151.333 211.631C160.903 210.921 161.155 204.292 170.25 202.144Z" fill="var(--fill-0, #1B1B1B)"/>
<path id="Vector_15" d="M176.169 185.693L176.824 185.756L177.082 186.188C176.799 188.23 173.378 191.625 171.577 192.274L171.41 192.333C166.44 194.128 162.139 192.454 157.567 197.399C154.853 200.336 150.138 199.984 146.388 199.572L145.478 199.235C144.11 197.669 145.194 193.697 147.067 193.225C156.742 190.786 166.476 188.004 176.169 185.693Z" fill="var(--fill-0, #1B1B1B)"/>
<path id="Vector_16" d="M162.159 224.627C166.773 224.192 170.561 225.933 173.486 229.458C167.962 231.272 160.421 232.933 154.572 234.573C151.778 235.09 147.066 237.536 145.175 235.129C144.888 233.986 144.816 229.888 145.308 229.169C146.005 228.152 151.491 228.726 153.557 228.097C156.924 227.072 158.941 225.761 162.159 224.627Z" fill="var(--fill-0, #1B1B1B)"/>
<path id="Vector_17" d="M137.765 229.854C143.679 228.999 144.223 232.507 141.801 236.724C141.191 237.786 131.671 238.006 130.15 238.135C128.5 238.284 125.304 239.018 124.592 237.247C125.567 233.724 134.433 230.437 137.765 229.854Z" fill="var(--fill-0, #1B1B1B)"/>
<path id="Vector_18" d="M173.587 134.442C179.84 134.02 182.241 135.947 187.532 135.72C190.182 137.393 192.488 137.824 195.437 138.88C198.307 139.928 201.015 141.379 203.477 143.191C205.708 144.847 212.444 151.026 210.116 153.873C209.151 153.496 207.77 149.524 205.451 147.562C202.202 144.815 192.636 139.537 188.661 139.954C187.707 140.496 187.995 140.192 187.474 141.071C187.644 141.622 187.891 142.068 188.502 142.241C197.921 144.915 209.647 150.02 210.113 161.427C210.157 162.466 209.996 162.773 209.286 163.498C208.885 163.427 208.433 163.271 208.395 162.739C207.646 152.709 197.249 147.888 188.875 145.286C187.263 144.786 185.037 144.233 183.762 145.644C183.705 147.261 186.112 147.775 187.482 148.225C195.703 150.922 208.112 158.376 207.507 168.357C207.463 169.095 207.175 169.606 206.602 170.067L206.103 169.993C205.182 168.399 206.457 166.591 203.968 163.092C199.475 156.773 192.109 152.267 184.694 150.27C183.266 149.885 181.079 150.025 180.805 151.806C181.438 153.047 183.941 153.831 185.223 154.354C191.421 156.879 197.394 160.147 201.566 165.526C202.438 166.649 205.267 171.093 203.57 172.225C201.643 171.935 199.064 166.805 197.424 165.201C194.612 162.446 181.016 152.901 177.935 156.641C178.255 159.589 188.4 162.488 190.678 164.385C192.636 166.016 199.162 170.908 198.356 173.661C197.638 174.085 196.44 174.184 195.876 173.509C191.402 168.167 186.8 165.459 180.437 162.778C178.738 162.039 176.312 161.035 174.966 162.77C174.906 164.003 175.352 164.099 176.613 164.725C179.308 166.066 193.156 173.02 191.649 176.56C188.795 177.357 178.296 166.21 174.313 167.696C167.685 170.167 180.884 174.171 182.035 177.232L181.761 177.725C177.765 178.971 175.572 174.797 171.989 174.671C170.339 174.613 169.875 178.13 167.902 177.979C165.169 177.863 166.948 174.701 165.202 173.475C163.327 172.16 158.648 172.263 156.526 172.724C154.456 173.174 152.562 174.367 150.358 174.697C150.12 174.237 149.936 173.571 150.144 173.147C153.406 167.305 162.545 171.589 167.301 168.3C168.143 167.717 167.584 166.232 166.909 165.864C164.473 164.538 160.076 164.74 157.406 164.768C151.296 164.832 152.044 166.789 149.037 170.161L148.398 170.134L147.992 169.599C147.877 168.619 148.031 168.474 148.245 167.608C150.566 158.257 165.928 162.941 168.987 161.352C169.456 160.542 169.39 160.916 169.198 159.941C167.203 157.17 156.978 156.528 154.157 158.637C153.061 159.457 152.113 160.923 150.934 161.332L150.572 161C150.487 159.994 150.684 158.984 151.142 158.084C153.881 152.605 165.243 154.947 170.056 155.774C171.145 155.961 171.509 155.475 171.863 154.641C171.783 154.038 171.517 153.239 170.956 152.975C167.798 151.495 162.225 150.469 158.933 151.741C157.296 152.373 156.26 153.742 154.939 153.878L154.637 153.539C154.434 148.968 162.022 148.217 165.273 148.643C167.729 148.965 173.434 150.778 175.391 149.336L175.407 148.732C174.182 146.649 173.006 146.438 170.742 146.014C167.97 145.495 165.18 145.028 162.419 145.889C161.084 146.305 160.303 147.45 159.042 147.668L158.59 147.327L158.552 146.604C161.844 138.664 175.577 146.03 178.625 143.798C178.93 142.393 173.458 140.661 172.236 140.546C170.459 140.378 166.276 141.593 164.673 141.065C164.714 136.613 175.695 138.556 178.466 139.409C179.916 139.855 181.424 140.216 182.189 138.616L181.953 137.993C180.026 135.883 173.453 136.967 171.309 136.233L171.205 135.728C171.975 134.945 172.554 134.815 173.587 134.442Z" fill="var(--fill-0, #EBEAE2)"/>
<path id="Vector_19" d="M219.897 140.516C225.053 140.046 231.788 142.034 236.994 143.168L264.143 149.323C269.019 150.42 284.271 153.281 288.038 155.018C288.923 156.154 288.553 167.9 288.548 170.211C288.498 179.929 288.523 189.647 288.624 199.365C289.54 200.448 296.176 207.366 292.514 208.676C286.009 211.003 278.762 212.609 272.043 214.408L249.551 220.437C246.925 221.15 234.05 225.04 232.041 224.388L231.854 223.852C232.822 221.913 247.665 218.589 250.541 217.837L279.085 210.242C282.196 209.417 287.037 208.322 290.036 207.036C290.612 206.789 290.625 206.202 290.713 205.681C290.206 203.888 289.153 203.244 287.676 202.149C282.317 203.526 236.051 216.036 234.839 215.43C234.527 215.273 234.582 215.172 234.491 214.86C236.004 212.617 242.474 211.697 245.516 210.828C248.477 209.972 247.405 207.707 248.825 205.282C250.938 201.672 255.031 201.209 257.262 197.97C257.413 197.75 257.076 195.903 257.26 195.15L257.61 195.094C262.687 199.321 249.683 202.985 249.337 206.691C249.247 207.64 248.381 208.24 248.83 209.413C250.84 209.913 262.402 206.451 264.702 205.542C265.184 199.052 268.318 199.79 270.9 195.311C271.39 191.555 264.732 190.858 263.326 187.469C262.09 184.481 265.527 182.772 267.895 182.702C269.102 182.851 271.103 183.844 272.216 183.935C276.777 184.308 279.957 185.259 283.882 187.621C284.417 187.943 285.148 187.969 285.768 187.706C286.574 186.583 286.303 186.077 286.366 184.906C286.703 178.644 274.614 180.902 274.293 176.293C275.598 172.561 283.065 174.929 285.357 173.127C286.733 172.044 286.308 167.835 286.25 166.09C279.4 169.633 279.074 166.683 271.996 167.382C271.377 167.442 268.762 168.468 268.011 168.761C273.378 163.425 277.229 168.043 283.057 166.405C284.222 166.078 285.381 165.333 285.949 164.233C286.503 163.163 286.418 160.053 285.949 158.925C285.664 158.238 285.118 157.905 284.403 157.821C279.798 157.281 261.596 165.196 257.783 163.411C257.353 163.21 257.372 163.196 257.224 162.755C258.726 160.93 277.904 157.798 279.606 155.94L279.504 155.423C278.907 154.939 278.019 154.513 277.262 154.384C268.937 152.955 260.659 150.593 252.377 148.966C243.164 147.155 233.773 144.318 224.552 142.846C224.083 143.602 223.562 144.636 223.126 145.439C222.578 144.62 221.928 143.771 221.342 142.969C219.648 142.755 218.529 142.725 217.17 141.642L217.164 141.202C217.86 140.541 218.913 140.594 219.897 140.516Z" fill="var(--fill-0, #F297EE)"/>
<path id="Vector_20" d="M266.348 183.725C268.228 183.646 275.481 185.716 277.905 186.095C279.198 186.297 284.599 189.056 286.172 189.737C286.972 201.547 286.46 199.915 275.95 202.915C273.149 203.594 269.379 204.665 266.55 205.129C266.084 205.206 266.002 204.979 265.676 204.639C265.665 201.373 272.058 197.608 272.195 194.293C272.384 189.773 259.593 189.507 266.348 183.725Z" fill="var(--fill-0, #1B1B1B)"/>
<path id="Vector_21" d="M284.569 174.81C285.411 174.693 285.164 174.616 285.888 174.893C286.737 176.238 286.702 179.742 285.364 180.657C284.755 180.559 281.192 178.804 279.934 178.357C278.558 178.119 275.918 177.985 275.49 176.534C276.746 174.71 282.346 174.909 284.569 174.81Z" fill="var(--fill-0, #1B1B1B)"/>
<path id="Vector_22" d="M190.507 97.3684L190.915 96.7002C190.43 96.3087 190.644 96.415 189.841 96.485C189.317 96.8628 186.954 99.2268 186.79 99.223C187.308 98.3275 188.295 96.8661 188.344 95.9256C184.967 94.0049 185.03 98.195 184.136 98.906C183.539 96.9039 184.451 95.7611 186.181 94.9111C188.053 93.9901 188.791 91.4525 190.312 90.0504C195.117 84.7909 203.629 83.5426 210.208 85.6875C215.062 87.2868 219.067 90.7764 221.318 95.3674C223.818 100.381 224.07 105.97 222.288 111.249C221.507 113.564 219.097 118.314 217.425 120.017L217.083 120.005C216.929 118.801 217.595 117.351 218.017 116.166C215.284 111.112 212.412 106.174 209.613 101.16C208.404 100.771 207.403 100.376 206.126 100.371L205.594 99.9498L203.944 99.8001L203.231 99.3272C199.731 98.6543 196.535 97.3242 193.051 96.913C191.902 96.7775 191.559 97.2842 190.808 97.9565L190.507 97.3684Z" fill="var(--fill-0, #EBEAE2)"/>
<path id="Vector_23" d="M216.448 97.6464C222.36 97.5441 222.322 104.375 221.645 108.614C221.382 110.261 220.398 114.633 218.166 114.162C216.423 111.073 214.364 108.085 212.758 104.94C210.598 100.708 213.007 99.141 216.448 97.6464Z" fill="var(--fill-0, #1B1B1B)"/>
<path id="Vector_24" d="M200.012 96.3723L200.33 96.3375C202.21 96.1401 206.909 96.0954 207.117 98.8369L206.629 99.0308C205.308 98.7273 200.324 97.7547 199.529 96.9067L200.012 96.3723Z" fill="var(--fill-0, #1B1B1B)"/>
<path id="Vector_25" d="M201.728 87.9485L202.126 88.204L202.087 88.6907C199.812 90.6624 198.784 91.9157 197.307 94.4952L196.843 94.3014C195.695 92.089 200.086 88.8525 201.728 87.9485Z" fill="var(--fill-0, #1B1B1B)"/>
<path id="Vector_26" d="M189.756 93.2046C191.159 93.1805 193.834 93.7445 193.936 95.4466L193.506 95.9289C192.25 95.5856 189.265 95.2588 188.928 94.0066L189.756 93.2046Z" fill="var(--fill-0, #1B1B1B)"/>
<path id="Vector_27" d="M122.332 186.31C122.863 186.619 123.486 187.292 124.045 187.543C125.61 188.245 127.651 188.443 128.219 190.374C128.186 190.983 127.872 191.67 127.487 192.118C124.425 195.637 121.393 198.587 119.12 202.739C112.302 215.196 104.951 227.479 99.5016 240.625C98.2618 243.616 98.258 246.02 96.0853 248.581C94.1015 249.347 91.8249 249.896 90.7402 247.572C92.0404 243.735 97.5746 234.044 99.8007 229.835C105.999 218.282 111.995 206.621 117.784 194.857C118.89 192.575 120.796 187.931 122.332 186.31Z" fill="var(--fill-0, #EBEAE2)"/>
<path id="Vector_28" d="M120.254 0.114674C121.043 0.0561075 121.834 0.018545 122.626 0.00201164C130.479 -0.110816 141.084 4.53817 146.735 9.99718C157.279 20.1821 151.717 34.5371 142.737 43.56C141.011 45.3194 139.095 46.8823 137.025 48.2203C135.436 49.2598 118.329 58.5072 117.959 58.4828C117.58 58.4576 117.582 58.3268 117.347 58.0587C118.295 55.4843 129.791 50.1983 132.783 48.5422C134.552 47.5702 136.247 46.4691 137.855 45.2482C141.931 42.1658 145.286 38.2317 147.688 33.7203C150.675 28.1107 151.36 23.3297 149.475 17.1614C149.365 16.9483 149.253 16.7383 149.135 16.5313C144.955 9.23796 138.033 5.41312 130.15 3.03149C110.383 -2.7815 101.707 14.858 103.453 31.6474C103.841 35.3725 110.414 54.5294 107.755 55.9066L107.24 55.6508C106.039 53.1039 106.199 48.8592 105.292 46.3372C100.544 33.1319 98.7402 19.5109 107.342 7.36662C110.557 2.82772 114.718 0.885904 120.254 0.114674Z" fill="var(--fill-0, #F297EE)"/>
<path id="Vector_29" d="M194.647 98.7004C198.216 99.5298 196.084 105.537 200.311 107.302C205.492 109.463 206.585 105.536 209.294 104.434C209.623 104.619 210.127 105.293 209.932 105.484C208.068 107.333 213.485 117.813 214.401 118.202C214.916 117.767 215.28 117.479 215.837 117.096L216.04 117.359C216.037 118.415 215.327 119.959 214.924 120.996C212.572 122.583 211.522 123.27 208.907 124.213C218.553 113.463 206.33 114.741 203.584 111.691C202.756 110.81 200.673 109.103 199.425 109.833C199.483 110.626 200.552 111.939 201.051 112.984C200.785 114.073 200.119 115.474 199.195 116.141C198.06 115.625 199.181 115.989 198.491 114.751L197.109 114.517C196.388 113.65 197.274 113.715 196.684 112.5C195.966 112.92 195.73 113.127 194.889 113.219C194.102 112.545 194.242 112.222 194.077 110.963L193.526 110.907C192.997 111.436 192.855 111.686 192.158 111.84C191.194 111.215 191.687 111.345 191.218 109.795C189.826 109.618 190.445 110.636 188.699 110.711L188.225 109.856C187.274 109.561 185.36 110.196 184.33 110.502C184.119 109.691 186.279 107.373 185.969 106.032C184.913 105.953 183.981 107.211 182.307 107.499C181.597 107.113 181.835 107.308 181.438 106.462C181.432 104.581 182.88 102.857 183.943 101.288C188.787 106.824 190.692 101.377 194.412 98.8553L194.647 98.7004Z" fill="var(--fill-0, #EBEAE2)"/>
<path id="Vector_30" d="M194.281 99.9785C194.503 100.05 195.111 100.373 195.353 100.493C196.641 101.943 196.021 105.761 194.796 107.263C193.818 107.684 194.133 107.571 192.927 107.275C191.841 106.91 191.2 106.752 190.265 106.079L190.213 105.498C190.827 103.948 192.897 100.982 194.281 99.9785Z" fill="var(--fill-0, #1B1B1B)"/>
<path id="Vector_31" d="M162.189 132.299C163.592 132.193 168.644 131.699 168.864 133.658C167.912 134.852 164.275 137.434 162.786 137.466C158.047 137.567 153.412 137.782 148.694 138.307C146.102 138.596 143.437 138.709 140.838 138.975C139.678 139.081 134.503 139.678 133.843 139.16C133.968 138.559 134.067 138.026 134.159 137.42C132.892 136.802 131.099 138.967 129.759 139.454C128.853 139.783 128.433 139.881 127.484 140.073C125.47 140.261 119.151 141.077 117.565 140.193C117.486 139.699 119.166 136.346 119.597 134.801C121.856 134.937 124.219 135.492 126.501 135.397C138.406 134.902 150.358 133.355 162.189 132.299Z" fill="var(--fill-0, #EBEAE2)"/>
<path id="Vector_32" d="M185.442 112.374L186.152 113.387L186.728 113.471C187.095 112.94 187.158 112.842 187.63 112.411C188.825 112.761 188.502 113.1 189.521 114.09C189.974 113.694 190.108 113.525 190.489 113.054L191.246 113.079C192.01 113.803 191.794 113.748 192.019 114.996L192.424 115.218L193.496 114.543C195.212 114.921 194.072 115.721 194.897 116.853C195.486 116.687 195.799 116.523 196.369 116.725C196.503 117.206 196.627 117.591 196.794 118.061C197.164 118.087 197.304 118.098 197.665 118.052L197.934 118.016C198.91 120.097 196.969 120.877 197.35 122.43C201.832 125.978 203.433 116.553 206.297 114.951C208.6 114.949 207.589 116.94 209.59 118.057C209.872 118.214 210.294 118.66 210.53 118.912C210.598 120.042 210.215 120.465 209.283 121.041C205.574 123.413 204.384 127.407 202.054 128.571C197.457 130.868 192.904 122.136 188.562 120.602C184.894 119.307 181.841 121.485 180.412 121.064C180.385 119.362 182.383 114.728 183.263 113.21C183.716 113.211 184.118 113.227 184.565 113.25L185.442 112.374Z" fill="var(--fill-0, #EBEAE2)"/>
<path id="Vector_33" d="M260.395 170.568C272.999 170.407 249.373 192.065 247.21 193.972C246.61 193.85 244.403 192.546 243.734 192.173C246.094 189.503 249.461 185.887 251.418 183.056C255.042 177.811 254.655 174.263 260.395 170.568Z" fill="var(--fill-0, #EBEAE2)"/>
<path id="Vector_34" d="M111.882 103.296L112.249 103.836C112.91 108.403 112.127 115.789 112.999 121.357C113.807 126.517 117.288 131.079 116.555 135.438C116.377 136.493 114.88 137.03 113.933 137.396C109.864 136.672 109.89 130.891 109.773 127.523C109.532 120.605 108.965 113.573 109.072 106.659C109.872 105.59 111.001 104.334 111.882 103.296Z" fill="var(--fill-0, #EBEAE2)"/>
<path id="Vector_35" d="M89.1581 174.015C90.722 174 91.052 175.681 92.1022 176.174C93.0967 176.64 93.4188 176.39 94.5465 177.184C95.0961 178.211 94.8793 179.684 93.9996 180.227C88.583 183.57 85.543 186.997 81.4513 191.769C81.3597 191.819 81.267 191.868 81.1736 191.915C80.1763 192.419 78.1807 193.09 77.0985 192.719C75.5382 190.673 87.3602 175.739 89.1581 174.015Z" fill="var(--fill-0, #EBEAE2)"/>
<path id="Vector_36" d="M210.205 143.332C214.635 144.211 225.271 151.997 230.334 153.845C231.417 154.24 235.112 156.411 236.159 157.155C235.92 157.895 235.685 157.839 234.887 158.339C233.936 158.785 232.521 159.213 231.488 159.56C226.633 157.661 221.726 153.822 216.691 152.034C213.363 150.853 211.617 147.434 209.852 144.631C209.624 144.273 210.041 143.653 210.205 143.332Z" fill="var(--fill-0, #EBEAE2)"/>
<path id="Vector_37" d="M238.851 159.083C240.778 158.854 246.663 162.313 248.897 163.333C252.028 164.764 255.929 166.308 258.848 168.04C257.258 169.451 256.049 170.097 254.191 170.986C253.33 171.219 252.025 170.791 251.356 170.323C248.719 168.479 235.921 162.715 234.736 160.982C235.471 159.73 237.371 159.479 238.851 159.083Z" fill="var(--fill-0, #EBEAE2)"/>
<path id="Vector_38" d="M106.043 168.013C106.878 168.009 108.097 168.202 108.725 168.709C110.359 170.028 122.965 176.988 123.364 178.039L123.11 178.602C122.265 179.256 121.078 179.213 119.975 179.297C117.909 179.027 103.761 175.027 102.521 174.277C103.237 172.354 105.026 171.401 105.998 168.166L106.043 168.013Z" fill="var(--fill-0, #EBEAE2)"/>
<path id="Vector_39" d="M137.756 177.285C137.981 177.298 138.206 177.321 138.43 177.354C139.692 177.539 154.263 183.257 154.745 183.933L154.572 184.386C153.816 184.993 152.96 185.03 152.004 185.173C149.72 185.402 137.428 185.836 135.088 184.685C134.815 184.551 134.885 184.163 134.867 183.781C137.122 180.995 136.444 180.419 137.756 177.285Z" fill="var(--fill-0, #EBEAE2)"/>
<path id="Vector_40" d="M124.774 200.611C124.909 200.887 125.096 201.396 125.029 201.659C123.364 208.158 106.969 237.469 103.579 240.438C103.474 240.171 103.365 239.79 103.388 239.535C103.486 238.401 105.529 234.07 105.968 233.345C108.454 229.237 122.524 202.554 124.774 200.611Z" fill="var(--fill-0, #EBEAE2)"/>
<path id="Vector_41" d="M114.038 79.4802L114.655 79.7949C115.225 81.292 112.925 87.9308 112.709 90.2123C112.411 93.3641 112.713 96.7056 112.044 99.7392C111.907 100.365 109.898 102.355 109.333 102.984C108.377 101.629 108.969 85.3228 108.469 82.7125C108.363 82.1603 113.128 80.085 114.038 79.4802Z" fill="var(--fill-0, #EBEAE2)"/>
<path id="Vector_42" d="M109.785 45.9246C111.977 46.1985 113.473 48.3284 115.388 49.1583C117.148 49.9205 119.353 49.9853 121.173 50.9638C122.273 52.715 119.336 54.0865 117.999 54.9724C116.195 56.3159 114.653 58.2092 112.637 58.4414C111.645 58.2657 111.188 57.6934 110.468 57C110.237 53.9245 109.001 48.1512 109.785 45.9246Z" fill="var(--fill-0, #66F9FF)"/>
<path id="Vector_43" d="M111.193 48.3971C115.021 50.6279 115.128 50.8739 119.531 51.9676L116.401 54.3906C115.284 55.3582 113.999 56.8097 112.451 56.5775C111.403 55.5254 111.438 50.5421 111.193 48.3971Z" fill="var(--fill-0, #1B1B1B)"/>
<path id="Vector_44" d="M104.422 69.5212C106.086 69.771 107.92 70.9132 109.334 71.8057C107.92 74.5898 106.881 77.6132 105.857 80.5566C105.415 81.8288 105.26 83.9804 104.298 84.7432L103.559 84.5433C101.426 83.7045 99.765 83.0725 97.748 81.9879C101.546 77.2263 101.641 74.184 104.422 69.5212Z" fill="var(--fill-0, #66F9FF)"/>
<path id="Vector_45" d="M242.855 193.875C244.036 194.135 244.9 194.395 245.549 195.397C245.355 196.19 232.781 207.908 231.873 210.005C231.747 210.294 230.725 211.108 230.379 211.345C229.165 209.517 228.425 208.489 227.008 206.818C230.582 204.889 231.21 204.368 234.231 201.884C236.514 200.005 240.697 194.78 242.855 193.875Z" fill="var(--fill-0, #EBEAE2)"/>
<path id="Vector_46" d="M233.59 178.869C235.024 178.812 237.666 178.74 238.902 179.41C237.071 179.967 232.902 179.701 231.8 180.277C225.824 183.4 226.427 188.932 219.185 191.904C212.211 194.765 207.107 191.085 201.28 194.883C200.04 195.671 198.05 197.906 198.017 199.476C197.858 207.131 207.283 202.154 211.035 201.299C212.447 200.978 215.383 201.467 216.759 201.677C217.897 201.843 218.28 201.858 219.328 202.352L219.456 202.767C218.154 203.857 214.668 202.301 212.746 202.333C207.296 202.422 199.986 208.611 196.778 200.871C196.211 199.506 197.609 197.227 198.399 196.159C202.606 190.467 209.04 192.69 214.939 192.011C221.161 191.19 223.563 187.75 226.888 183.127C228.76 180.525 230.449 179.317 233.59 178.869Z" fill="var(--fill-0, #F297EE)"/>
<path id="Vector_47" d="M98.8448 165.637C99.9635 165.586 101.827 165.847 102.657 166.694C102.999 167.04 103.171 167.52 103.127 168.005C102.911 170.512 99.1809 172.539 97.1653 174.447C90.7454 176.18 92.0903 167.874 98.8448 165.637Z" fill="var(--fill-0, #EBEAE2)"/>
<path id="Vector_48" d="M130.629 176.601C139.138 176.272 131.399 183.951 129.015 186.078C122.516 187.109 124.951 178.465 130.629 176.601Z" fill="var(--fill-0, #EBEAE2)"/>
<path id="Vector_49" d="M114.922 92.8665C116.463 93.8023 117.082 119.868 116.535 123.034L115.882 122.496C114.893 119.238 114.127 96.2302 114.922 92.8665Z" fill="var(--fill-0, #EBEAE2)"/>
<path id="Vector_50" d="M90.6688 252.63C96.0465 253.119 96.7666 257.801 91.7192 259.339C85.9358 258.997 84.9274 253.54 90.6688 252.63Z" fill="var(--fill-0, #EBEAE2)"/>
<path id="Vector_51" d="M250.492 179.33C250.681 179.62 250.695 179.892 250.61 180.226C250.119 182.127 232.553 200.682 230.034 202.099L229.834 201.858C230.108 199.997 247.512 182.204 250.492 179.33Z" fill="var(--fill-0, #EBEAE2)"/>
<path id="Vector_52" d="M84.1408 260.867L84.805 260.856C85.6696 261.412 85.4664 261.108 85.6871 261.95L85.2545 262.605C83.0917 263.957 74.7341 265.215 72.042 265.306C70.94 265.007 71.1925 265.226 70.5176 264.555L70.6505 263.995C72.358 262.611 81.5065 261.327 84.1408 260.867Z" fill="var(--fill-0, #EBEAE2)"/>
<path id="Vector_53" d="M98.5767 252.823C102.085 252.901 106.351 255.723 103.065 259.43C99.0794 259.482 94.8007 256.228 98.5767 252.823Z" fill="var(--fill-0, #EBEAE2)"/>
<path id="Vector_54" d="M81.5175 256.472C82.736 256.335 83.5033 256.324 84.2141 257.505L84.0126 258.054C82.2385 259.285 75.7553 259.951 73.0017 260.628C71.735 260.79 71.3762 260.968 70.4609 260.014L70.6761 259.449C72.8343 257.889 78.795 256.949 81.5175 256.472Z" fill="var(--fill-0, #EBEAE2)"/>
<path id="Vector_55" d="M79.0516 252.641C80.1053 252.5 81.6749 252.433 81.9471 253.746C80.7467 254.987 74.0853 255.915 71.9253 256.321C70.8444 256.436 70.0355 256.672 69.1953 255.86L69.3548 255.325C71.3482 253.784 76.5351 253.041 79.0516 252.641Z" fill="var(--fill-0, #EBEAE2)"/>
<path id="Vector_56" d="M221.853 214.069C222.305 214.2 222.141 214.129 222.519 214.449C222.283 216.069 216.45 224.177 215.2 225.471C214.356 224.795 214.548 225.145 214.402 224.188C215.162 221.594 219.992 216.239 221.853 214.069Z" fill="var(--fill-0, #EBEAE2)"/>
<path id="Vector_57" d="M223.848 216.243L224.317 216.756C224.092 218.769 220.082 226.443 218.547 227.953C218.267 227.675 218.108 227.45 217.867 227.143C217.864 224.75 222.245 218.171 223.848 216.243Z" fill="var(--fill-0, #EBEAE2)"/>
<path id="Vector_58" d="M80.2735 216.992C85.0133 216.912 86.0939 217.988 90.4826 219.141C92.0387 219.55 93.4184 219.564 95.3835 220.161L95.4666 220.412C93.9724 220.863 92.9466 220.713 91.4551 220.443C88.1772 219.609 85.4338 218.345 81.978 217.991C79.7565 217.763 77.6003 218.939 76.0938 218.462C77.0145 217.359 78.8747 217.206 80.2735 216.992Z" fill="var(--fill-0, #F297EE)"/>
<path id="Vector_59" d="M214.379 155.763C215.679 155.612 216.219 155.448 217.203 156.201C217.485 157.907 215.914 159.586 214.854 161.112C214.259 162.029 214.111 162.452 213.181 162.679L212.877 162.159C212.704 160.235 213.118 157.348 214.379 155.763Z" fill="var(--fill-0, #EBEAE2)"/>
<path id="Vector_60" d="M65.5068 263.362C66.6257 263.271 68.6632 263.137 68.8283 264.546C67.5424 266.109 66.1427 265.857 64.2587 265.942C63.012 265.978 61.6455 266.197 60.748 265.202L60.804 264.692C62.2924 263.274 63.4555 263.48 65.5068 263.362Z" fill="var(--fill-0, #EBEAE2)"/>
<path id="Vector_61" d="M110.383 74.5215C112.029 74.6419 113.711 74.4826 113.889 76.3986C113.51 77.4671 112.504 78.0854 111.588 78.8005C110.558 79.2342 109.401 79.77 108.799 78.6343C108.858 77.3544 109.798 75.7252 110.383 74.5215Z" fill="var(--fill-0, #EBEAE2)"/>
<path id="Vector_62" d="M219.896 211.871L220.307 212.084L220.384 212.498C218.824 214.932 215.151 219.304 213.224 221.632L212.728 221.465L212.561 220.837C213.216 218.218 217.687 213.466 219.896 211.871Z" fill="var(--fill-0, #EBEAE2)"/>
<path id="Vector_63" d="M50.9304 263.551C52.9542 263.441 56.7647 262.934 58.2343 264.064C58.6647 264.966 58.5843 264.563 58.4338 265.657C56.5712 266.126 53.2598 266.192 51.4517 265.361C50.7626 264.516 50.9561 264.821 50.9304 263.551Z" fill="var(--fill-0, #EBEAE2)"/>
<path id="Vector_64" d="M226.154 217.842L226.834 218.204C227.204 219.968 224.655 227.017 223.539 228.534C223.208 228.306 223.142 228.172 222.887 227.86C222.72 225.749 225.242 219.965 226.154 217.842Z" fill="var(--fill-0, #EBEAE2)"/>
<path id="Vector_65" d="M142.974 155.308C144.304 155.141 144.841 154.995 146.089 155.44L146.116 155.756C144.345 156.762 135.887 157.247 133.19 157.469C131.346 157.704 130.314 157.647 128.486 157.579C131.652 156.64 139.211 155.876 142.974 155.308Z" fill="var(--fill-0, #F297EE)"/>
<path id="Vector_66" d="M211.074 224.078C213.245 225.483 211.978 231.247 210.904 233.112C210.479 233.008 210.561 232.993 210.177 232.718C209.593 231.136 210.449 225.76 211.074 224.078Z" fill="var(--fill-0, #EBEAE2)"/>
<path id="Vector_67" d="M63.4871 258.926C64.697 258.827 67.376 258.391 67.3678 260.255C66.4689 261.015 66.5904 260.804 65.302 261.07C63.3352 261.166 62.2505 261.459 60.5938 260.368L60.6357 259.88C61.4408 259.137 62.395 259.104 63.4871 258.926Z" fill="var(--fill-0, #EBEAE2)"/>
<path id="Vector_68" d="M52.72 168.063C53.2073 168.933 52.9286 168.732 53.7276 169.03C50.561 169.773 44.8659 174.4 39.8925 175.787C41.6348 174.525 50.9231 168.702 52.72 168.063Z" fill="var(--fill-0, #F297EE)"/>
<path id="Vector_69" d="M214.391 226.932C216.773 227.857 216.853 233.261 216.677 235.482C216.118 235.536 216.112 235.485 215.63 235.23C214.586 233.809 214.235 228.746 214.391 226.932Z" fill="var(--fill-0, #EBEAE2)"/>
<path id="Vector_70" d="M193.078 133.22C194.788 133.261 196.959 134.325 197.088 136.22C196.502 136.748 196.754 136.589 195.907 136.733C194.52 136.214 192.02 135.992 191.34 134.735C191.866 133.756 192 133.899 193.078 133.22Z" fill="var(--fill-0, #EBEAE2)"/>
<path id="Vector_71" d="M105.164 64.9556C105.375 65.1801 105.848 65.8118 105.682 66.0995C104.688 67.817 101.889 69.7596 100.289 70.8854C99.808 70.5059 99.8299 70.5317 99.6408 69.946C100.349 67.9143 103.349 65.9986 105.164 64.9556Z" fill="var(--fill-0, #EBEAE2)"/>
<path id="Vector_72" d="M103.542 61.3776C105.644 62.9588 99.9194 66.1909 98.7179 66.9712C98.5227 66.8281 98.3586 66.5748 98.2031 66.3732C98.5115 64.2927 101.849 62.4505 103.542 61.3776Z" fill="var(--fill-0, #EBEAE2)"/>
<path id="Vector_73" d="M63.0491 254.829C64.4046 254.666 64.9186 254.465 65.8871 255.512L65.7903 256.143C65.1933 256.809 64.5124 256.823 63.6357 256.976C62.1231 257.056 61.0234 257.456 60.0039 256.206L60.2372 255.66C61.0617 254.986 61.9855 254.973 63.0491 254.829Z" fill="var(--fill-0, #EBEAE2)"/>
<path id="Vector_74" d="M55.8315 258.937C56.9656 258.865 57.516 258.753 58.221 259.745L58.0873 260.409C57.1536 261.275 57.323 261.029 55.9187 261.336C54.5034 261.256 53.5931 261.437 52.6816 260.297L52.8702 259.767C53.7055 259.041 54.7131 259.06 55.8315 258.937Z" fill="var(--fill-0, #EBEAE2)"/>
<path id="Vector_75" d="M118.932 65.9278C121.96 66.7462 118.976 70.4434 117.972 72.2376C117.422 72.1197 117.432 72.0879 117.004 71.7573C116.533 70.2443 118.212 67.4213 118.932 65.9278Z" fill="var(--fill-0, #EBEAE2)"/>
<path id="Vector_76" d="M226.148 212.258C227.664 212.05 228.486 211.983 229.251 213.386C229.265 214.356 228.999 214.617 228.459 215.393C226.823 215.821 225.926 215.783 225.293 214.189C225.345 213.193 225.537 213.024 226.148 212.258Z" fill="var(--fill-0, #EBEAE2)"/>
<path id="Vector_77" d="M194.852 130.02C196.234 130.125 198.029 130.054 198.854 131.337C198.909 132.429 199.002 131.988 198.396 133.009C197.092 132.482 194.233 132.088 194.178 130.737L194.852 130.02Z" fill="var(--fill-0, #EBEAE2)"/>
<path id="Vector_78" d="M102.751 57.6208C102.977 58.008 103.252 58.283 103.149 58.6384C102.795 59.8593 99.9309 61.8348 98.9257 62.6204C98.7985 62.5792 98.5335 62.3626 98.4082 62.271C98.4564 60.4129 101.333 58.5026 102.751 57.6208Z" fill="var(--fill-0, #EBEAE2)"/>
<path id="Vector_79" d="M218.76 229.401C220.813 229.769 222.633 232.436 222.521 234.334C220.711 234.217 218.834 231.142 218.76 229.401Z" fill="var(--fill-0, #EBEAE2)"/>
<path id="Vector_80" d="M223.929 208.016C225.173 208.215 225.59 208.291 225.87 209.482C225.606 210.53 225.129 210.823 224.31 211.535L223.572 211.609C222.229 210.531 223.065 209.131 223.929 208.016Z" fill="var(--fill-0, #EBEAE2)"/>
<path id="Vector_81" d="M114.018 60.4252C115.109 60.3287 115.989 60.0241 116.653 61.001C116.282 61.8425 115.821 61.9711 114.997 62.4248C113.998 62.2845 112.234 62.2135 111.863 61.1573C112.512 60.5193 113.092 60.5552 114.018 60.4252Z" fill="var(--fill-0, #EBEAE2)"/>
<path id="Vector_82" d="M128.303 39.122C129.122 38.8958 129.969 39.3789 130.19 40.1995C130.412 41.0199 129.925 41.8644 129.103 42.0821C128.288 42.2979 127.452 41.8145 127.231 41.0002C127.011 40.1861 127.49 39.3468 128.303 39.122Z" fill="var(--fill-0, #EBEAE2)"/>
<path id="Vector_83" d="M140.281 26.2052C141.023 25.9214 141.858 26.2567 142.199 26.9751C142.538 27.6934 142.269 28.5525 141.579 28.947C141.083 29.2305 140.469 29.2122 139.991 28.8993C139.513 28.5865 139.25 28.0321 139.311 27.4637C139.373 26.8953 139.747 26.4092 140.281 26.2052Z" fill="var(--fill-0, #EBEAE2)"/>
<path id="Vector_84" d="M102.029 53.8858L102.685 54.1578L102.895 54.7284C102.631 55.7843 100.327 57.4499 99.3711 58.2207C98.9909 58.3304 99.1962 58.3142 98.7324 58.0935C98.8396 56.6277 100.871 55.0245 102.029 53.8858Z" fill="var(--fill-0, #EBEAE2)"/>
<path id="Vector_85" d="M124.239 19.408C124.978 19.043 125.873 19.349 126.235 20.0902C126.597 20.8313 126.287 21.7254 125.544 22.084C124.806 22.4405 123.919 22.1331 123.56 21.3961C123.2 20.6594 123.504 19.7707 124.239 19.408Z" fill="var(--fill-0, #FF99F7)"/>
<path id="Vector_86" d="M112.073 32.5284C112.511 32.1994 113.094 32.1383 113.59 32.3694C114.086 32.6005 114.415 33.0861 114.446 33.6329C114.476 34.1796 114.202 34.6986 113.735 34.9829C113.059 35.3939 112.179 35.202 111.736 34.547C111.292 33.8917 111.441 33.0036 112.073 32.5284Z" fill="var(--fill-0, #EBEAE2)"/>
<path id="Vector_87" d="M115.05 39.7195C115.788 39.371 116.669 39.6846 117.021 40.4211C117.373 41.1576 117.065 42.0405 116.33 42.3966C115.59 42.7553 114.699 42.4435 114.345 41.7016C113.99 40.9593 114.306 40.0704 115.05 39.7195Z" fill="var(--fill-0, #EBEAE2)"/>
<path id="Vector_88" d="M141.275 159.7C142.026 159.563 143.255 159.394 143.897 159.807L143.676 160.149C142.628 160.852 141.407 160.832 140.141 160.935C139.213 161.016 138.293 161.188 137.443 160.824L137.57 160.532C138.771 159.891 139.932 159.851 141.275 159.7Z" fill="var(--fill-0, #F297EE)"/>
<path id="Vector_89" d="M124.953 31.9297C125.403 31.6341 125.978 31.6067 126.455 31.8582C126.931 32.1099 127.233 32.6004 127.243 33.1389C127.253 33.6774 126.969 34.1789 126.503 34.4478C125.81 34.8476 124.924 34.6233 124.505 33.942C124.085 33.2603 124.284 32.3687 124.953 31.9297Z" fill="var(--fill-0, #FF99F7)"/>
<path id="Vector_90" d="M111.819 19.8998C112.597 19.7372 113.364 20.2187 113.555 20.9897C113.747 21.7607 113.294 22.5452 112.531 22.7653C112.012 22.9153 111.451 22.7692 111.071 22.3845C110.691 21.9995 110.551 21.4377 110.707 20.9198C110.863 20.4016 111.29 20.0103 111.819 19.8998Z" fill="var(--fill-0, #EBEAE2)"/>
<path id="Vector_91" d="M137.031 19.0901C137.481 18.7964 138.056 18.7706 138.531 19.0234C139.005 19.276 139.305 19.7668 139.313 20.3044C139.321 20.8421 139.036 21.3417 138.569 21.6085C137.876 22.0041 136.994 21.7771 136.578 21.096C136.162 20.4147 136.363 19.526 137.031 19.0901Z" fill="var(--fill-0, #EBEAE2)"/>
<path id="Vector_92" d="M139.21 14.1407C139.655 13.8128 140.245 13.761 140.74 14.0069C141.235 14.2529 141.551 14.7549 141.558 15.3074C141.565 15.8599 141.263 16.3702 140.774 16.629C140.093 16.9901 139.248 16.7644 138.838 16.1113C138.427 15.4582 138.589 14.5986 139.21 14.1407Z" fill="var(--fill-0, #EBEAE2)"/>
<path id="Vector_93" d="M120.957 42.1507C121.703 41.8647 122.541 42.2264 122.845 42.9656C123.149 43.7045 122.808 44.5512 122.077 44.8734C121.588 45.0886 121.02 45.022 120.594 44.6987C120.168 44.3757 119.951 43.8471 120.026 43.3179C120.102 42.7887 120.458 42.3418 120.957 42.1507Z" fill="var(--fill-0, #EBEAE2)"/>
<path id="Vector_94" d="M115.778 10.0282C116.203 9.69037 116.779 9.6136 117.278 9.82884C117.777 10.0441 118.116 10.5162 118.162 11.0577C118.208 11.599 117.953 12.1216 117.497 12.4177C116.838 12.8465 115.958 12.6817 115.498 12.0432C115.039 11.4046 115.162 10.5176 115.778 10.0282Z" fill="var(--fill-0, #EBEAE2)"/>
<path id="Vector_95" d="M123.742 7.05098C124.465 6.8358 125.234 7.20379 125.521 7.9025C125.808 8.6012 125.52 9.40375 124.853 9.75936C124.358 10.0237 123.756 9.98337 123.301 9.65545C122.846 9.32752 122.617 8.76928 122.71 8.216C122.804 7.66272 123.204 7.21083 123.742 7.05098Z" fill="var(--fill-0, #EBEAE2)"/>
<path id="Vector_96" d="M106.192 61.6802C108.038 62.0511 110.353 63.0023 111.097 64.8632C109.968 64.7919 107.263 63.8824 106.45 62.9524C106.037 62.4794 106.188 62.4742 106.192 61.6802Z" fill="var(--fill-0, #EBEAE2)"/>
<path id="Vector_97" d="M135.845 36.3302C136.623 36.1127 137.431 36.5657 137.652 37.343C137.872 38.1206 137.423 38.9305 136.647 39.1548C135.866 39.3808 135.05 38.9281 134.828 38.1455C134.605 37.363 135.062 36.549 135.845 36.3302Z" fill="var(--fill-0, #EBEAE2)"/>
<path id="Vector_98" d="M137.831 31.3837C138.524 31.0069 139.391 31.246 139.794 31.9249C140.196 32.6041 139.989 33.4798 139.326 33.907C138.874 34.1982 138.3 34.2188 137.828 33.9613C137.357 33.7038 137.064 33.2092 137.064 32.6718C137.065 32.1344 137.359 31.6403 137.831 31.3837Z" fill="var(--fill-0, #EBEAE2)"/>
<path id="Vector_99" d="M121.082 12.2403C121.512 11.9231 122.08 11.865 122.565 12.0884C123.051 12.3119 123.376 12.7816 123.414 13.3146C123.453 13.8473 123.199 14.3592 122.751 14.6501C122.086 15.0817 121.199 14.9068 120.747 14.2553C120.296 13.6036 120.444 12.7111 121.082 12.2403Z" fill="var(--fill-0, #EBEAE2)"/>
<path id="Vector_100" d="M132.249 16.6012C133.002 16.4608 133.737 16.925 133.934 17.6661C134.131 18.4075 133.724 19.1752 133 19.4277C132.48 19.609 131.903 19.484 131.505 19.1039C131.107 18.7236 130.955 18.1525 131.112 17.625C131.269 17.0972 131.708 16.7021 132.249 16.6012Z" fill="var(--fill-0, #EBEAE2)"/>
<path id="Vector_101" d="M210.779 235.117C212.879 235.473 213.816 238.278 213.435 240.104C212.034 239.609 210.727 236.521 210.779 235.117Z" fill="var(--fill-0, #EBEAE2)"/>
<path id="Vector_102" d="M130.396 34.1348C130.891 33.9072 131.472 33.9736 131.903 34.3072C132.334 34.6412 132.544 35.1868 132.448 35.7237C132.351 36.2605 131.965 36.6992 131.445 36.8624C130.708 37.0935 129.918 36.7121 129.641 35.991C129.364 35.2702 129.694 34.4575 130.396 34.1348Z" fill="var(--fill-0, #FF99F7)"/>
<path id="Vector_103" d="M216.888 237.427C219.084 237.362 221.088 238.668 221.365 240.926C219.638 240.034 217.234 239.356 216.888 237.427Z" fill="var(--fill-0, #EBEAE2)"/>
<path id="Vector_104" d="M134.343 11.6447C135.108 11.3755 135.947 11.7815 136.21 12.5495C136.473 13.3172 136.061 14.1527 135.291 14.4104C134.53 14.6651 133.705 14.258 133.445 13.4982C133.184 12.7387 133.585 11.9109 134.343 11.6447Z" fill="var(--fill-0, #EBEAE2)"/>
<path id="Vector_105" d="M109.466 25.0869C110.159 24.7842 110.968 25.0598 111.332 25.7222C111.696 26.3844 111.496 27.2152 110.87 27.6385C110.411 27.9486 109.815 27.9725 109.333 27.6999C108.85 27.4277 108.563 26.9056 108.592 26.352C108.62 25.7984 108.959 25.3088 109.466 25.0869Z" fill="var(--fill-0, #EBEAE2)"/>
<path id="Vector_106" d="M114.563 27.3421C115.033 27.0989 115.599 27.131 116.04 27.4254C116.481 27.7199 116.727 28.2307 116.682 28.7588C116.638 29.2872 116.31 29.7497 115.827 29.9666C115.107 30.2896 114.261 29.9806 113.918 29.2696C113.576 28.5586 113.861 27.704 114.563 27.3421Z" fill="var(--fill-0, #EBEAE2)"/>
<path id="Vector_107" d="M113.641 14.9267C114.107 14.6451 114.691 14.6464 115.155 14.9302C115.62 15.214 115.887 15.733 115.849 16.2759C115.811 16.8191 115.474 17.2956 114.974 17.512C114.271 17.8169 113.451 17.5243 113.1 16.8427C112.748 16.1611 112.985 15.3237 113.641 14.9267Z" fill="var(--fill-0, #EBEAE2)"/>
<path id="Vector_108" d="M118.999 17.1912C119.476 16.9384 120.055 16.971 120.5 17.2759C120.946 17.5811 121.186 18.1081 121.124 18.6447C121.062 19.1812 120.707 19.6394 120.203 19.8341C119.485 20.1115 118.675 19.7812 118.356 19.0803C118.037 18.3798 118.318 17.5515 118.999 17.1912Z" fill="var(--fill-0, #EBEAE2)"/>
<path id="Vector_109" d="M142.574 21.2158C143.263 20.948 144.042 21.2389 144.388 21.8923C144.733 22.5456 144.534 23.3539 143.925 23.7721C143.463 24.0888 142.86 24.1126 142.375 23.8329C141.89 23.5536 141.608 23.0203 141.651 22.4617C141.693 21.9035 142.052 21.419 142.574 21.2158Z" fill="var(--fill-0, #EBEAE2)"/>
<path id="Vector_110" d="M134.852 24.0607C135.325 23.8016 135.902 23.8257 136.352 24.1229C136.802 24.4201 137.051 24.9419 136.998 25.4788C136.945 26.0153 136.6 26.479 136.101 26.6833C135.387 26.9755 134.569 26.6591 134.237 25.9624C133.906 25.2657 134.175 24.4311 134.852 24.0607Z" fill="var(--fill-0, #EBEAE2)"/>
<path id="Vector_111" d="M127.466 26.7639C127.962 26.5528 128.535 26.6342 128.953 26.9753C129.371 27.3164 129.566 27.8612 129.459 28.3901C129.353 28.9193 128.962 29.3454 128.444 29.4976C127.705 29.7144 126.925 29.3174 126.665 28.5922C126.406 27.867 126.757 27.0653 127.466 26.7639Z" fill="var(--fill-0, #EBEAE2)"/>
<path id="Vector_112" d="M128.634 9.49483C129.31 9.07669 130.196 9.28233 130.617 9.95546C131.039 10.6283 130.838 11.5156 130.168 11.9411C129.492 12.3697 128.597 12.1668 128.172 11.4887C127.747 10.8106 127.954 9.91625 128.634 9.49483Z" fill="var(--fill-0, #FF99F7)"/>
<path id="Vector_113" d="M126.677 14.3598C127.377 14.1158 128.148 14.444 128.457 15.1179C128.767 15.7916 128.513 16.5903 127.872 16.9621C127.399 17.236 126.812 17.2185 126.357 16.9166C125.901 16.6147 125.656 16.0809 125.724 15.5385C125.792 14.9965 126.162 14.5397 126.677 14.3598Z" fill="var(--fill-0, #FF99F7)"/>
<path id="Vector_114" d="M120.144 29.4751C120.888 29.3711 121.586 29.8586 121.745 30.5932C121.904 31.3277 121.469 32.0604 120.748 32.2728C120.232 32.4247 119.675 32.2756 119.304 31.886C118.933 31.4964 118.811 30.9321 118.988 30.424C119.165 29.9159 119.611 29.5496 120.144 29.4751Z" fill="var(--fill-0, #FF99F7)"/>
<path id="Vector_115" d="M117.499 34.6983C118.204 34.3289 119.075 34.6042 119.44 35.3116C119.804 36.0188 119.524 36.8879 118.814 37.2482C118.111 37.6052 117.252 37.3274 116.89 36.6266C116.529 35.9258 116.801 35.0643 117.499 34.6983Z" fill="var(--fill-0, #EBEAE2)"/>
<path id="Vector_116" d="M122.17 24.5185C122.897 24.2657 123.693 24.6336 123.972 25.3512C124.251 26.0684 123.911 26.8776 123.204 27.1816C122.724 27.3881 122.17 27.3157 121.758 26.9933C121.347 26.6706 121.144 26.1493 121.231 25.6336C121.316 25.1178 121.677 24.6904 122.17 24.5185Z" fill="var(--fill-0, #FF99F7)"/>
<path id="Vector_117" d="M116.708 22.3648C117.164 22.1167 117.719 22.1361 118.156 22.4161C118.593 22.6958 118.843 23.1915 118.809 23.7094C118.774 24.2274 118.461 24.6855 117.991 24.9051C117.294 25.2309 116.465 24.9438 116.118 24.2572C115.771 23.5704 116.032 22.7325 116.708 22.3648Z" fill="var(--fill-0, #EBEAE2)"/>
<path id="Vector_118" d="M129.503 21.8382C129.941 21.5514 130.502 21.5298 130.961 21.7817C131.42 22.0337 131.703 22.5185 131.697 23.0422C131.69 23.5659 131.396 24.0435 130.931 24.2842C130.261 24.6316 129.435 24.3923 129.055 23.74C128.674 23.0877 128.871 22.2514 129.503 21.8382Z" fill="var(--fill-0, #EBEAE2)"/>
<path id="Vector_119" d="M132.45 29.2472C132.884 28.9555 133.444 28.927 133.905 29.1732C134.367 29.4191 134.655 29.9001 134.654 30.4232C134.654 30.9464 134.365 31.4267 133.903 31.6721C133.238 32.0253 132.413 31.7958 132.026 31.1498C131.639 30.5038 131.825 29.6676 132.45 29.2472Z" fill="var(--fill-0, #EBEAE2)"/>
<path id="Vector_120" d="M123.029 36.9361C123.533 36.7297 124.111 36.832 124.515 37.1985C124.918 37.5651 125.074 38.131 124.917 38.6528C124.76 39.1749 124.316 39.5596 123.778 39.6421C123.07 39.7504 122.393 39.3122 122.202 38.6218C122.011 37.9314 122.366 37.2073 123.029 36.9361Z" fill="var(--fill-0, #EBEAE2)"/>
<path id="Vector_121" d="M105.082 57.3104C106.523 57.4862 109.491 58.2098 109.852 59.7795C107.865 59.6158 105.28 59.5903 105.082 57.3104Z" fill="var(--fill-0, #EBEAE2)"/>
<path id="Vector_122" d="M89.3112 188.015L89.5966 188.288C90.0256 189.762 88.3077 191.561 87.1769 192.321C86.6742 191.638 86.7507 191.936 86.7266 191.157C87.2581 189.878 88.3184 188.991 89.3112 188.015Z" fill="var(--fill-0, #EBEAE2)"/>
<path id="Vector_123" d="M223.969 229.551C225.846 229.517 227.508 229.847 228.207 231.754C226.619 231.791 224.207 231.396 223.969 229.551Z" fill="var(--fill-0, #EBEAE2)"/>
<path id="Vector_124" d="M223.957 234.212C225.7 234.208 227.444 234.108 227.748 236.111C226.175 235.957 224.171 236.035 223.957 234.212Z" fill="var(--fill-0, #EBEAE2)"/>
<path id="Vector_125" d="M106.99 66.8026C108.873 67.032 109.68 68.3997 110.304 69.9941C108.19 69.4953 107.501 68.9598 106.99 66.8026Z" fill="var(--fill-0, #EBEAE2)"/>
<path id="Vector_126" d="M118.412 61.084C119.657 62.0289 120.558 62.7862 119.982 64.3167C119.01 64.1366 118.796 64.0905 118.15 63.3587C117.851 62.4034 118.082 62.0083 118.412 61.084Z" fill="var(--fill-0, #EBEAE2)"/>
<path id="Vector_127" d="M186.861 123.008L187.165 122.93L187.319 123.257C186.406 124.422 185.128 124.228 183.818 124.091L183.119 123.453C183.889 122.858 184.838 123.739 186.861 123.008Z" fill="var(--fill-0, #EBEAE2)"/>
<path id="Vector_128" d="M205.592 99.95L206.124 100.371C205.178 101.366 204.197 102.328 203.182 103.254L202.716 103.16L202.555 103.394L202.705 103.594L202.5 103.687L202.453 103.497C203.232 102.138 204.468 101.054 205.592 99.95Z" fill="var(--fill-0, #EBEAE2)"/>
<path id="Vector_129" d="M203.23 99.3271L203.943 99.8001C203.101 100.953 201.72 102.176 200.527 102.956C201.226 101.711 203.041 100.065 203.23 99.3271Z" fill="var(--fill-0, #EBEAE2)"/>
<path id="Vector_130" d="M190.505 97.3683L190.806 97.9565C190.272 98.5899 189.301 99.9383 188.471 99.9106C188.734 98.9929 189.797 98.0779 190.505 97.3683Z" fill="var(--fill-0, #EBEAE2)"/>
</g>
</svg>
