<svg preserveAspectRatio="none" width="100%" height="100%" overflow="visible" style="display: block;" viewBox="0 0 183.903 151" fill="none" xmlns="http://www.w3.org/2000/svg">
<g id="Frame 2147225801">
<g id="Group 691314587">
<path id="Vector" d="M40.7728 142.687C41.7702 141.953 44.127 140.348 45.3412 140.498C46.7104 141.277 46.5001 144.123 46.7724 145.66C46.3333 145.758 45.2618 145.971 44.895 146.115C44.7608 144.998 43.3137 145.195 42.8684 144.002L43.1724 143.564C42.9735 142.829 41.5057 142.805 40.7728 142.687Z" fill="var(--fill-0, #EBEAE2)"/>
<path id="Vector_2" d="M109.844 141.294C108.586 140.992 104.844 140.628 104.287 140.067L104.372 139.874C105.268 139.092 109.246 138.156 110.521 137.97C110.201 139.084 110.04 140.154 109.844 141.294Z" fill="var(--fill-0, #EBEAE2)"/>
<path id="Vector_3" d="M72.8294 55.5864C81.6114 54.8948 90.165 61.1009 94.6163 68.2683C93.3329 70.6563 93.3803 70.3786 93.2939 73.1772C92.6725 73.9248 90.2294 76.3044 90.6052 77.256C91.6397 77.3361 91.8294 75.8003 92.5117 75.0892C92.9417 74.6407 93.3515 74.2841 93.8256 73.8895C95.7151 77.8852 91.55 79.1939 92.7623 81.0914C93.0958 80.9332 94.3606 78.0909 95.0768 77.0657L94.9701 74.8895C95.5813 74.263 96.4126 73.5845 97.0882 73.0036C97.7451 74.4705 98.2023 76.017 98.6831 77.5502C98.2226 78.0794 97.1017 78.9843 96.4956 79.3572C94.8533 80.3677 94.4571 82.9065 94.1981 84.7987C93.7308 85.2697 93.1619 85.7825 92.6742 86.2445C92.4237 84.8453 92.5591 83.8872 91.4874 82.8415C90.7255 82.0977 89.9974 81.6409 88.9121 81.6182C88.2755 81.8846 88.4922 81.708 88.1045 82.2989C88.1045 83.2073 89.1593 88.2173 89.5453 88.8716C90.91 89.2899 91.1945 87.9241 92.2171 87.8647C93.0958 89.1389 91.2097 90.1877 91.1708 91.0773C91.0556 93.7641 92.6912 96.3167 92.3966 99.1461C92.1087 101.907 89.2389 104.076 91.8243 106.397C92.4287 106.94 91.1809 108.152 91.3993 108.884C91.4738 109.474 91.8988 110.511 91.7904 110.964C91.4315 111.077 91.0759 111.199 90.7238 111.33C87.6491 112.498 89.2237 117.377 88.9511 119.746C88.6937 121.993 88.0926 123.993 87.1767 126.061C86.5418 122.179 85.917 116.798 82.993 113.961C81.7946 112.798 79.8184 111.731 78.0829 111.921C69.256 112.888 70.6769 123.097 70.9761 129.393L71.6547 142.85C69.905 142.687 68.1442 142.687 66.3945 142.847C62.8476 143.052 58.4732 144.211 55.0105 145.134C53.8014 137.831 52.6839 129.037 51.7463 121.632L53.7411 122.295C54.3281 123.375 54.7667 124.283 55.5749 125.218C56.2266 125.436 57.0305 125.646 57.7018 125.842C58.0864 126.451 58.9095 127.916 59.6173 128.01C59.578 127.138 58.7053 126.002 58.2022 125.24L55.7725 124.535C53.6646 121.287 54.6237 121.512 51.2695 118.187C50.5017 112.687 49.9514 106.96 48.9999 101.519C50.7579 102.79 51.6835 103.268 53.6216 104.212C53.9316 104.666 54.3703 105.299 54.5552 105.812C54.9258 106.84 55.1078 108.918 55.7764 109.729L56.0033 109.601C56.1609 108.883 55.6071 107.226 55.3963 106.361C56.1362 106.816 56.9247 107.796 57.7316 107.731L57.8756 107.516C57.2958 106.693 55.3169 105.63 54.941 105.092C54.1827 103.895 53.8532 102.262 53.1861 101.028C52.1142 99.0447 51.2663 97.8822 50.6436 95.6927C49.9028 95.3982 48.9825 95.1001 48.2177 94.8285C45.6622 81.542 48.2608 68.1684 59.7456 59.8872C60.9997 61.3422 61.3503 61.1687 62.5525 63.1091C64.1389 65.6697 61.9165 70.151 62.7114 71.5314C62.9762 71.1693 63.5666 68.0825 63.8106 67.2247C64.41 68.0603 64.6684 68.9076 65.5007 69.5476L65.6041 69.4387C64.7395 66.7634 63.9809 67.1695 63.4708 63.8038C64.6452 61.3846 65.652 59.6858 65.147 57.1216C67.6262 56.2635 70.2108 55.7471 72.8294 55.5864Z" fill="var(--fill-0, #EBEAE2)"/>
<path id="Vector_4" d="M62.774 75.8401C66.3868 75.53 67.9751 81.6406 65.3873 83.9921C61.5223 84.3345 60.1505 78.084 62.774 75.8401Z" fill="var(--fill-0, black)"/>
<path id="Vector_5" d="M63.362 76.9301C65.2568 77.7806 65.99 81.2528 64.7559 82.9489C62.8095 82.2711 62.1052 78.5545 63.362 76.9301Z" fill="var(--fill-0, #EBEAE2)"/>
<path id="Vector_6" d="M74.7246 73.1721C77.7743 72.8519 80.3299 74.0905 78.1296 77.3824C78.986 78.4839 79.8697 79.3615 79.9836 80.7573L79.8212 80.9297C78.8174 80.644 78.2404 79.6443 77.6727 78.8172C77.3696 78.3789 77.1754 78.017 76.6389 77.9496C76.3128 78.7619 77.1712 80.4677 76.7147 81.573L76.4275 81.6713C75.367 81.1756 74.2221 75.0465 74.1401 73.6546C74.1266 73.4246 74.5296 73.2824 74.7246 73.1721Z" fill="var(--fill-0, black)"/>
<path id="Vector_7" d="M75.4914 74.2895C76.5349 74.2412 77.1151 74.164 77.6056 75.2107C77.6185 75.8578 77.5279 75.9784 77.2326 76.5251C76.5242 76.7808 76.7481 76.8084 76.1658 76.6552C75.6767 76.1422 75.6108 75.0361 75.4914 74.2895Z" fill="var(--fill-0, #EBEAE2)"/>
<path id="Vector_8" d="M58.4309 88.3805C61.2357 88.9575 62.7204 94.1712 59.7463 95.7007C56.5983 95.0685 55.5917 89.6681 58.4309 88.3805Z" fill="var(--fill-0, black)"/>
<path id="Vector_9" d="M58.425 89.5189C60.2674 90.0351 60.6025 93.0984 59.761 94.6693C57.9163 94.0652 57.4719 91.0138 58.425 89.5189Z" fill="var(--fill-0, #EBEAE2)"/>
<path id="Vector_10" d="M81.6125 83.1689L82.1874 83.3135C82.8817 84.1455 84.0279 89.5338 83.4032 90.5178L83.1475 90.4781C82.7334 89.9999 82.0897 87.0091 81.7734 85.9977C81.6586 86.7405 81.5765 88.1421 80.9456 88.5468C80.1903 88.1025 79.8685 87.0811 79.3372 86.9368L79.3588 87.3868C79.7278 88.8801 80.1966 89.6942 79.906 91.2272L79.4552 91.3034L79.8241 91.3722L79.5243 91.3607C78.7901 90.6519 77.7297 85.6467 77.7443 84.4458C77.7465 84.2627 78.0157 84.2173 78.1611 84.1587C79.155 84.372 79.9325 85.8209 80.5979 86.7442C80.8142 85.5092 81.0425 84.294 81.6125 83.1689Z" fill="var(--fill-0, black)"/>
<path id="Vector_11" d="M69.8371 74.2532C70.3169 74.2399 70.3855 74.2453 70.8424 74.3898C71.9866 76.1795 73.7013 84.8013 68.9311 82.5993C67.6959 82.0293 67.1965 78.752 66.9146 77.492C66.6933 76.6652 66.2764 75.7986 66.7871 75.0844L67.2915 75.007C68.5393 75.7336 68.1895 80.1954 69.5513 81.5172C70.1765 81.6802 69.9271 81.6965 70.5023 81.4909C71.5788 80.2141 69.8198 76.0552 69.8371 74.2532Z" fill="var(--fill-0, black)"/>
<path id="Vector_12" d="M73.4346 85.0344C75.9824 84.8044 78.4987 85.6575 76.5587 88.6725C77.1076 89.5285 78.2959 90.5955 78.0905 91.5853L77.7608 91.7535C77.215 91.5256 76.8972 90.9694 76.5221 90.4722C75.9328 89.6208 75.6106 89.2462 74.8989 88.4899C74.9988 89.5035 75.6087 91.5638 75.3945 92.1318C74.9072 92.3054 75.1097 92.2777 74.5867 92.1747C74.0246 91.0544 73.2568 87.0763 73.0694 85.6089C73.0325 85.3194 73.1989 85.26 73.4346 85.0344Z" fill="var(--fill-0, black)"/>
<path id="Vector_13" d="M74.3218 86.0137C75.2381 85.9669 75.5383 85.937 76.0867 86.7302C76.1062 87.5519 76.127 87.2804 75.7344 88.0459L75.1725 88.1958C74.3515 87.9138 74.184 86.77 74.3218 86.0137Z" fill="var(--fill-0, #EBEAE2)"/>
<path id="Vector_14" d="M64.405 86.8863L65.0208 87.073C65.5861 87.8298 67.1257 93.4842 66.1311 94.263C65.3801 94.0371 63.3906 90.9593 62.792 90.1191C63.1551 91.582 63.6026 93.2144 63.7912 94.6934C63.4259 94.8492 63.4304 94.8263 63.0227 94.7818C62.3434 94.009 60.6903 88.2046 61.973 87.6495C62.614 87.9429 64.5276 90.7667 65.0834 91.5347C64.7863 90.1237 64.1055 88.2513 64.405 86.8863Z" fill="var(--fill-0, black)"/>
<path id="Vector_15" d="M82.4442 71.6462C83.3678 71.5456 83.2171 71.4105 83.825 71.8323C83.5862 72.9683 81.7682 73.1504 80.83 73.3071C80.939 74.0089 81.0418 74.4263 81.2304 75.1129C81.7294 75.6404 81.9864 75.1291 83.146 75.1627C83.5151 75.5276 83.4271 75.3337 83.4389 75.907C83.0038 76.4719 82.4097 76.4702 81.6036 76.6904L82.0827 78.9035C83.0173 78.7091 84.0197 78.4488 84.956 78.2258C85.32 78.7372 85.4097 78.8859 85.0745 79.3899C84.0518 79.9775 82.4258 80.1726 81.2198 80.4094C80.5081 77.7951 79.9264 75.0597 79.3289 72.409C80.1951 72.1094 81.5198 71.8533 82.4442 71.6462Z" fill="var(--fill-0, black)"/>
<path id="Vector_16" d="M86.7577 82.3285C87.0963 82.3998 86.9998 82.399 87.2758 82.7636L87.2081 83.1121C86.5816 83.665 85.862 83.3902 84.9545 83.8742C84.5787 84.3514 84.599 84.1806 84.582 84.6854C85.0409 85.6321 86.5596 85.5061 87.1573 86.1356C86.7204 86.5395 85.9568 86.7097 85.3626 86.8956L85.7858 88.8139C86.6883 88.6005 87.628 88.422 88.5389 88.2367C88.5846 88.8589 88.6709 88.7426 88.4119 89.1917C87.4282 89.7225 86.138 89.8669 85.0019 90.0949C84.3772 88.2213 83.8015 85.0349 83.3952 83.0406C84.3653 82.74 85.7334 82.5228 86.7577 82.3285Z" fill="var(--fill-0, black)"/>
<path id="Vector_17" d="M59.7961 76.3946C60.3656 76.7009 60.2889 76.5477 60.5092 77.0269C60.3834 78.5543 59.8579 79.6353 59.6127 80.9994C59.4737 81.7729 60.5529 83.9714 59.9442 84.967C59.461 85.1261 59.6486 85.1406 59.2202 84.9735C58.8063 84.3089 58.5076 82.5632 58.2674 81.6416C57.581 80.6523 55.5824 78.7086 55.5963 77.7795C56.0433 77.4329 55.8531 77.4806 56.3562 77.463C57.1299 77.9502 58.0125 79.2089 58.6583 79.9892C58.9238 78.7409 59.1022 77.4461 59.7961 76.3946Z" fill="var(--fill-0, black)"/>
<path id="Vector_18" d="M53.6899 89.3711C54.7633 89.4744 55.9661 90.0954 55.8728 91.318L55.5235 91.59C54.7437 91.403 54.9506 90.7664 54.0517 90.5344C52.0129 91.1242 53.7146 96.0385 55.2276 95.4651C55.639 94.9982 55.5926 94.6744 55.6192 94.062C56.2287 94.0346 56.0169 93.9673 56.4758 94.2515C56.8151 95.0813 56.2868 96.2026 55.6824 96.5002C53.1058 97.7685 51.5467 92.6864 52.2541 90.9164C52.6601 89.9005 52.9304 89.7674 53.6899 89.3711Z" fill="var(--fill-0, black)"/>
<path id="Vector_19" d="M69.6659 86.0473C70.0654 86.1777 69.9288 86.108 70.2017 86.5634L70.0898 86.8961C69.4935 87.3195 68.3556 87.4784 67.6021 87.6371C67.7398 88.2036 67.8925 88.7663 68.0601 89.3247C68.6111 89.7142 68.7086 89.168 69.7565 89.2696C70.0086 89.7264 69.9727 89.5225 69.8921 90.0375C69.4989 90.4417 68.8569 90.513 68.2746 90.6553L68.8058 92.7326C68.9026 93.0696 68.8784 93.1766 68.8605 93.5175C68.4416 93.822 68.6253 93.7837 68.1832 93.7157C67.5112 92.9785 66.6183 88.1846 66.2847 86.7674C67.2437 86.5054 68.6617 86.2536 69.6659 86.0473Z" fill="var(--fill-0, black)"/>
<path id="Vector_20" d="M71.2613 85.3996C71.5415 85.5384 71.8228 85.6197 71.9052 85.9588C72.2728 87.4675 73.6068 91.6126 73.1143 92.9321L72.5418 92.7029C72.4406 92.5314 72.2455 92.163 72.212 91.9735C71.936 90.4129 70.546 86.7398 71.2613 85.3996Z" fill="var(--fill-0, black)"/>
<path id="Vector_21" d="M59.7133 109.146C60.4263 109.444 62.69 111.782 62.8188 112.654C61.9396 112.517 60.5367 110.752 59.9188 110.094C59.5416 109.693 59.6452 109.646 59.7133 109.146Z" fill="var(--fill-0, black)"/>
<path id="Vector_22" d="M72.2046 73.5457C72.424 73.59 72.687 73.6725 72.9069 73.7338C73.7504 74.5533 73.3363 75.4326 72.784 76.2699L72.4882 76.1579C72.2671 74.6913 71.8343 74.7652 72.2046 73.5457Z" fill="var(--fill-0, black)"/>
<path id="Vector_23" d="M65.1361 109.332C65.92 109.81 67.0493 110.547 66.9252 111.527C66.2239 111.031 65.3719 110.525 64.9517 109.795L65.1361 109.332Z" fill="var(--fill-0, black)"/>
<path id="Vector_24" d="M65.6785 131.384C66.4127 131.801 67.4546 132.497 67.4399 133.38C66.8243 133.099 65.5935 132.448 65.4308 131.744L65.6785 131.384Z" fill="var(--fill-0, black)"/>
<path id="Vector_25" d="M47.4751 145.525C45.6877 135.033 44.5152 123.682 42.987 113.094C41.8746 105.386 40.8655 97.5813 39.7652 89.8891C38.6667 82.2106 41.2876 72.3445 46.1914 66.2703C52.2155 58.8087 58.0901 56.5975 67.322 55.5795C59.4362 58.384 56.6765 60.6361 51.5594 67.1897C50.2872 67.4734 48.3335 67.8928 47.3867 68.9051L47.6309 69.1007C48.0252 69.1135 49.8917 68.2207 51.2291 68.0033C47.6131 74.3372 46.1481 80.9547 46.6797 88.296C46.7627 89.4427 47.4614 93.7536 47.3368 94.5292C46.5773 94.7162 45.6249 93.2647 44.6173 92.6674L44.3552 92.7573L44.3345 93.0674C44.6952 93.7228 45.763 94.5443 46.3673 95.0654C47.1324 95.1841 47.6449 95.3245 48.3938 95.5326C48.4646 96.9015 48.7087 98.9592 48.7294 100.169C47.596 100.581 46.7051 102.941 46.6793 104.079L46.8532 104.215C47.5073 103.589 47.9709 102.367 48.3506 101.513C48.6009 103.129 50.6248 117.953 50.4503 118.382C49.1718 118.957 48.8857 117.746 47.7375 117.549L47.7377 117.839C48.0984 118.55 48.8658 118.97 49.5372 119.424L51.1087 119.005C51.8909 119.818 52.6574 120.645 53.408 121.486C51.4695 120.829 50.0651 120.447 49.8948 123.295L50.0786 123.434C50.6302 123.083 50.7711 122.539 51.0214 121.926C51.5787 124.43 51.9036 127.7 52.2553 130.306L54.2666 145.253C51.5699 145.162 50.1567 144.974 47.4751 145.525Z" fill="var(--fill-0, #1B1B1B)"/>
<path id="Vector_26" d="M42.7166 74.2514L42.9375 74.4573C43.1192 75.0953 43.0107 75.8956 42.9627 76.5702L42.7408 76.3696C42.5528 75.7312 42.6663 74.9281 42.7166 74.2514Z" fill="var(--fill-0, #EBEAE2)"/>
<path id="Vector_27" d="M102.649 61.8857C103.868 62.7211 105.148 63.2285 106.519 63.745C108.321 64.2517 111.9 65.1791 113.759 65.2425C114.726 65.3437 116.023 65.5183 116.969 65.5319C119.182 65.5546 120.408 65.6047 122.561 65.1297L121.456 69.2046C121.065 70.7884 120.723 72.1385 120.215 73.6857C119.851 73.4016 119.351 72.9865 118.984 72.7431C118.137 72.7651 116.962 72.8315 116.146 72.7479C114.639 72.3866 112.525 71.3907 111.284 71.7148C109.995 72.7413 111.258 74.2663 112.277 74.943C109.397 77.013 104.225 80.8641 101.245 82.5841C101.252 82.1634 101.254 80.6047 101.374 80.3217C102.669 77.2731 103.185 77.798 103.37 74.4239C102.86 72.5837 101.804 73.8246 102.029 71.5739L102.434 65.5873C102.444 64.4704 102.574 63.0244 102.649 61.8857Z" fill="var(--fill-0, #F0AACC)"/>
<path id="Vector_28" d="M102.649 61.8857C103.868 62.7211 105.148 63.2285 106.519 63.745C108.32 64.2517 111.9 65.1791 113.759 65.2425C109.907 67.4588 105.996 69.5701 102.029 71.5739L102.433 65.5873C102.444 64.4704 102.574 63.0244 102.649 61.8857Z" fill="var(--fill-0, #F0AACC)"/>
<path id="Vector_29" d="M102.649 61.8857C103.868 62.7211 105.148 63.2285 106.519 63.745C105.266 64.4069 103.751 65.0201 102.434 65.5873C102.444 64.4704 102.574 63.0244 102.649 61.8857Z" fill="var(--fill-0, #EBEAE2)"/>
<path id="Vector_30" d="M113.758 65.2425C114.725 65.3438 116.022 65.5184 116.969 65.5319C117.507 65.6034 118.213 65.675 118.731 65.769C115.374 67.8007 111.974 69.764 108.535 71.6576C107.086 72.4607 104.827 73.7743 103.369 74.424C102.86 72.5838 101.803 73.8246 102.028 71.5739C105.995 69.5701 109.907 67.4588 113.758 65.2425Z" fill="var(--fill-0, #EBEAE2)"/>
<path id="Vector_31" d="M116.146 72.7479C116.488 72.0227 120.55 69.6152 121.455 69.2047C121.064 70.7884 120.722 72.1385 120.214 73.6857C119.85 73.4016 119.351 72.9865 118.983 72.7431C118.137 72.7651 116.962 72.8315 116.146 72.7479Z" fill="var(--fill-0, #EBEAE2)"/>
<path id="Vector_32" d="M91.4028 111.719C92.6439 111.742 92.8775 112.116 93.7816 112.992C94.5334 117.422 92.9317 117.275 96.4568 120.772C96.516 121.309 95.6627 122.32 95.5002 123.693L95.4798 123.872L95.4104 123.918C92.0242 126.205 90.7933 129.408 89.5387 133.147C88.0267 137.653 86.6197 142.19 85.2009 146.726C83.8837 145.829 81.7403 145.287 80.1813 144.985C80.9991 142.985 81.7082 140.866 82.5058 138.811C84.7285 133.082 87.8134 127.586 89.3321 121.619C89.5319 120.831 89.7927 119.318 89.752 118.56C89.5912 115.608 88.3975 113.552 91.4028 111.719Z" fill="var(--fill-0, #EBEAE2)"/>
<path id="Vector_33" d="M112.278 74.943C113.433 75.4179 115.113 75.8651 115.932 76.7102C117.925 78.6789 119.349 76.4574 117.918 81.0838C117.617 82.3095 117.324 83.5821 116.965 84.7885C116.2 84.3513 115.417 83.891 114.642 83.4767C114.49 83.4799 112.134 83.6948 112.001 83.7255C109.678 84.2564 107.424 85.0837 105.039 85.4446C104.7 85.4973 104.548 85.776 104.377 86.0306C104.302 86.8277 104.226 86.5799 104.532 87.2834C105.612 88.2455 107.969 88.1006 109.364 87.951C107.123 89.6757 102.17 93.3062 100.393 95.2183C100.433 92.8714 100.763 89.6303 100.928 87.2042C101 85.6995 101.141 84.0955 101.246 82.5841C104.226 80.8641 109.398 77.013 112.278 74.943Z" fill="var(--fill-0, #F0AACC)"/>
<path id="Vector_34" d="M112.277 74.943C113.431 75.4179 115.111 75.8651 115.931 76.7102C111.473 79.301 105.266 84.1343 100.926 87.2042C100.999 85.6995 101.139 84.0955 101.244 82.5841C104.224 80.8641 109.397 77.013 112.277 74.943Z" fill="var(--fill-0, #EBEAE2)"/>
<path id="Vector_35" d="M117.917 81.0838C117.616 82.3096 117.323 83.5821 116.964 84.7886C116.199 84.3513 115.417 83.891 114.641 83.4767C115.364 82.8666 117.011 81.7825 117.917 81.0838Z" fill="var(--fill-0, #EBEAE2)"/>
<path id="Vector_36" d="M98.0717 120.64C99.0131 120.756 99.7292 121.665 100.762 121.938C101.846 122.45 103.419 120.439 104.282 121.04C107.599 123.349 102.431 126.75 101.709 127.921C100.308 130.192 99.4719 132.298 98.5475 134.321C96.9542 137.768 95.3949 141.232 93.8728 144.712C93.5426 145.383 93.2294 146.125 92.9246 146.813C91.4821 147.176 90.0294 147.498 88.5699 147.779C91.3382 141.969 95.0021 136.18 96.3346 129.778C97.0575 126.311 94.7955 123.243 98.0717 120.64Z" fill="var(--fill-0, #EBEAE2)"/>
<path id="Vector_37" d="M100.75 125.327C101.037 125.454 101.041 125.495 101.237 125.733C101.327 126.8 99.9233 128.675 99.3206 129.611C99.0073 129.476 99.1428 129.576 98.9294 129.265C99.0361 128.663 100.321 126.615 100.75 125.327Z" fill="var(--fill-0, black)"/>
<path id="Vector_38" d="M92.792 89.6366C93.7875 89.6434 94.1888 89.9265 95.0184 90.4326C100.68 90.1221 96.5338 93.6625 95.9344 97.0477C95.1454 101.503 100.69 102.646 97.5378 106.223C96.1732 106.859 95.7262 106.393 94.4716 105.791C92.4872 106.36 90.9431 105.977 91.7118 103.481C92.6972 100.784 93.4913 98.6955 92.7785 95.7657C92.2333 93.518 91.1361 91.5535 92.792 89.6366Z" fill="var(--fill-0, #EBEAE2)"/>
<path id="Vector_39" d="M77.1229 112.637C85.3169 112.17 85.5692 121.505 86.6359 127.373L84.4128 132.633L83.6086 134.3C83.1193 129.632 82.2661 123.826 81.3075 119.191C80.7454 116.473 78.9791 114.499 76.5655 113.165L76.5141 112.907L77.1229 112.637Z" fill="var(--fill-0, #CDCDCD)"/>
<path id="Vector_40" d="M109.364 87.951C109.965 87.947 110.146 88.2168 110.565 88.2889C111.064 88.3748 112.271 88.3128 112.774 88.2359C113.013 88.4098 113.169 88.512 113.377 88.7291L116.091 88.5489C115.444 90.3472 114.863 92.1693 114.352 94.011C112.39 93.918 110.859 93.3632 108.951 93.203C108.751 93.1863 108.259 93.6615 108.113 93.8081C107.652 93.8112 107.524 93.7167 107.089 93.5287C106.577 93.8594 105.077 94.8556 104.584 95.0503C103.293 95.5606 101.437 94.9514 100.646 96.3992C100.631 97.004 100.631 97.0826 100.961 97.5845C101.496 97.9835 101.738 98.0066 102.383 98.1646C101.258 98.78 101.291 98.96 100.418 99.8131C100.015 99.0368 100.321 96.1727 100.392 95.2183C102.17 93.3062 107.122 89.6757 109.364 87.951Z" fill="var(--fill-0, #EBEAE2)"/>
<path id="Vector_41" d="M113.376 88.7291L116.09 88.5489C115.443 90.3472 114.863 92.1693 114.351 94.011C112.389 93.918 110.858 93.3632 108.95 93.203C108.75 93.1863 108.258 93.6615 108.112 93.8081C107.652 93.8112 107.523 93.7167 107.088 93.5287C108.705 92.3717 112.04 90.0043 113.376 88.7291Z" fill="var(--fill-0, #F0AACC)"/>
<path id="Vector_42" d="M95.2071 124.896L95.3882 124.948C97.6367 128.063 91.8293 140.36 89.9719 143.552C89.5521 141.644 89.183 139.382 88.8088 137.438C90.2428 133.354 91.704 127.45 95.2071 124.896Z" fill="var(--fill-0, #EBEAE2)"/>
<path id="Vector_43" d="M102.335 128.277C102.831 129.865 103.585 138.642 103.759 140.536C101.335 140.531 100.012 140.662 97.6641 141.207C97.1324 141.366 96.6838 141.551 96.2148 141.359C96.6821 139.937 101.491 129.487 102.335 128.277Z" fill="var(--fill-0, #EBEAE2)"/>
<path id="Vector_44" d="M100.129 83.7233C100.941 84.4226 99.111 97.8808 99.6054 99.6916C99.9017 100.776 102.242 101.435 102.47 101.811C101.639 102.05 101.41 102.056 101.133 102.906C101.249 103.418 101.38 103.714 101.195 104.195C100.764 104.667 99.7883 104.922 99.1449 105.145C99.3549 100.96 96.7204 101.269 96.5714 97.4889C96.4376 94.1609 100.393 93.4022 98.0562 89.9725C98.041 89.9516 98.9231 88.6905 98.9113 88.3658C98.8876 87.7035 98.7081 86.6621 98.6031 85.9974C99.1517 85.0553 99.4226 84.5819 100.129 83.7233Z" fill="var(--fill-0, #EBEAE2)"/>
<path id="Vector_45" d="M112.316 104.76C113.507 104.936 114.467 105.457 115.257 106.331C112.181 108.44 106.463 109.868 104.23 111.524C103.91 112.101 103.41 113.439 103.112 114.121L102.879 114.11C99.7652 113.121 100.146 113.803 99.2555 110.284C100.175 110.328 101.355 110.508 102.288 110.623L103.304 109.474C107.205 108.524 109.11 107.05 112.316 104.76Z" fill="var(--fill-0, #EBEAE2)"/>
<path id="Vector_46" d="M113.831 84.0402C115.68 84.5125 116.991 85.7567 119.099 86.1976C120.756 86.5446 124.593 85.888 125.106 87.7727C125.543 89.3812 123.78 88.9927 123.211 90.3972C122.089 91.2463 119.701 89.0056 118.428 88.3865C116.899 87.6425 113.439 88.5197 112.985 87.1393C114.255 85.2832 112.963 85.741 113.831 84.0402Z" fill="var(--fill-0, #EBEAE2)"/>
<path id="Vector_47" d="M116.902 109.133C117.102 109.969 117.279 111.171 118.092 111.594C119.018 111.517 119.128 111.498 119.885 112.018C119.228 113.313 113.668 114.117 111.951 114.979C110.233 115.841 110.058 115.937 108.462 117.116C106.731 117.439 107.244 116.496 106.391 115.376C105.973 114.827 105.687 114.751 105.563 114.097L105.77 113.836C107.346 113.025 109.041 113.548 110.732 113.352C113.836 112.991 115.111 111.347 116.902 109.133Z" fill="var(--fill-0, #EBEAE2)"/>
<path id="Vector_48" d="M102.383 98.1646C105.408 98.5336 110.027 97.5554 113.364 97.5322C113.07 98.7512 112.799 99.9224 112.423 101.121C111.348 101.032 110.008 100.919 109.03 100.461C107.77 99.8157 105.31 101.06 104.182 101.718C102.713 101.083 101.814 100.608 100.417 99.813C101.291 98.96 101.257 98.78 102.383 98.1646Z" fill="var(--fill-0, #F0AACC)"/>
<path id="Vector_49" d="M113.364 97.5322C113.07 98.7512 112.799 99.9224 112.423 101.121C111.348 101.032 110.009 100.919 109.03 100.461C110.484 99.4984 111.929 98.5221 113.364 97.5322Z" fill="var(--fill-0, #EBEAE2)"/>
<path id="Vector_50" d="M109.218 93.7123C112.238 94.7092 114.453 95.05 117.612 94.4698C118.735 94.2637 119.659 94.064 120.292 95.1956C120.367 96.6312 119.513 95.9762 118.877 96.9462C118.645 97.4577 118.531 97.6121 118.213 98.0597C117.014 98.5493 114.983 96.8333 113.825 96.815C112.438 96.7931 110.658 97.0522 109.185 97.1069C107.712 96.3161 108.649 94.724 109.218 93.7123Z" fill="var(--fill-0, #EBEAE2)"/>
<path id="Vector_51" d="M120.416 74.3401C121.587 74.637 121.736 75.2771 122.115 76.3894C123.023 79.0598 129.599 81.119 125.095 83.755C121.931 83.8661 122.823 80.7439 121.643 79.7221C117.657 76.2778 118.624 78.9663 120.416 74.3401Z" fill="var(--fill-0, #EBEAE2)"/>
<path id="Vector_52" d="M102.519 60.731C103.452 60.4284 104.108 60.1871 105.093 60.0679L106.249 60.1214C106.534 60.7021 106.18 60.3219 106.324 60.7061C106.185 61.4173 106.129 61.2049 106.349 61.7512C107.882 63.0813 119.364 65.3154 119.32 63.058C118.184 61.8142 115.89 61.6279 114.312 60.7414C115.646 60.4538 122 62.3833 122.849 63.6791C122.481 65.0069 120.163 64.943 119.019 64.9373C114.363 64.9139 105.99 64.0807 102.519 60.731Z" fill="var(--fill-0, #DC83AE)"/>
<path id="Vector_53" d="M125.815 89.3348C126.149 89.4763 126.183 89.5977 126.371 89.9083C126.438 90.3577 126.44 91.1908 126.33 91.6098C125.798 93.6466 126.379 99.4491 124.381 100.384C123.762 100.305 123.933 100.307 123.415 99.7072C121.632 96.415 123.318 97.3986 123.531 94.2913C123.56 93.8857 122.89 92.0203 122.71 91.4977C123.846 90.7386 124.657 89.9875 125.815 89.3348Z" fill="var(--fill-0, #EBEAE2)"/>
<path id="Vector_54" d="M121.294 95.5775C122.041 96.2521 121.743 97.8038 122.078 98.7441C122.986 101.285 127.899 104.562 122.759 105.975C121.623 105.554 121.494 104.527 121.25 103.466C120.746 101.265 120.339 100.37 118.746 98.8198C119.748 96.6912 120.642 97.1474 121.294 95.5775Z" fill="var(--fill-0, #EBEAE2)"/>
<path id="Vector_55" d="M116.741 102.317C118.759 103.229 118.207 104.643 119.37 106.052C120.716 107.68 124.165 109.233 120.41 110.964C116.614 111.601 118.628 109.769 117.262 107.462C116.803 106.688 115.772 105.745 115.12 105.074C116.519 104.024 116.63 104.142 116.741 102.317Z" fill="var(--fill-0, #EBEAE2)"/>
<path id="Vector_56" d="M101.65 73.7015C103.233 74.0989 102.595 75.8333 102.391 77.1138C100.495 79.4901 100.961 79.3521 100.216 82.2371C100.075 82.7837 99.7434 82.925 99.3235 83.127C98.6175 83.2008 98.0588 82.8472 97.4069 82.5382L97.0802 82.6046C95.2448 81.6326 95.8459 80.2624 97.3121 79.5923C100.14 78.3001 99.8196 75.4743 101.65 73.7015Z" fill="var(--fill-0, #EBEAE2)"/>
<path id="Vector_57" d="M93.6491 106.636C96.5003 106.423 100.401 109.913 96.3614 112.397C93.3358 113.376 90.2764 108.843 93.6491 106.636Z" fill="var(--fill-0, #EBEAE2)"/>
<path id="Vector_58" d="M94.5356 112.981C96.2694 113.75 93.9667 117.17 99.7047 116.862C100.656 117.978 102.139 118.72 102.702 119.922C102.857 120.255 102.608 120.543 102.429 120.877C100.555 121.997 100.433 120.711 98.9428 120.145C98.0674 119.813 97.1024 120.479 96.1051 119.525C94.5136 118.003 94.6491 115.001 94.5356 112.981Z" fill="var(--fill-0, #EBEAE2)"/>
<path id="Vector_59" d="M95.3053 82.4957C96.1451 82.811 97.8839 83.6365 98.8862 84.0473C98.5459 84.5635 98.1666 85.2529 97.8466 85.7986C98.1497 87.7063 98.7305 88.9816 96.5616 89.7506C96.118 89.7454 93.4716 88.9665 93.199 88.6373C92.2255 87.4581 94.562 85.689 94.9633 84.7032C95.1343 84.2856 95.2545 82.9792 95.3053 82.4957Z" fill="var(--fill-0, #EBEAE2)"/>
<path id="Vector_60" d="M102.442 104.118C103.404 104.269 104.371 104.424 105.348 104.452C105.961 104.469 106.294 104.247 106.87 104.359C104.017 105.713 102.781 106.832 102.146 109.812C100.754 109.622 100.208 109.468 98.8548 109.838C98.0556 107.341 96.9077 106.499 99.979 105.631C100.741 105.416 101.784 104.624 102.442 104.118Z" fill="var(--fill-0, #EBEAE2)"/>
<path id="Vector_61" d="M101.336 114.58C102.243 114.568 102.673 114.906 103.543 114.995C106.215 115.267 107.453 117.113 105.775 119.531C105.118 119.743 104.495 120.003 103.84 119.815C102.871 119.048 101.07 117.458 100.723 116.201C100.565 115.63 101.012 115.043 101.336 114.58Z" fill="var(--fill-0, #EBEAE2)"/>
<path id="Vector_62" d="M108.017 100.913C109.72 101.483 111.085 101.928 112.901 101.596C113.651 101.459 114.799 101.205 115.487 101.536C116.21 102.206 116.081 103.199 115.571 103.939C115.002 104.261 114.601 104.555 113.949 104.581C111.945 103.765 110.079 103.525 107.973 103.349C107.151 103.281 107.846 101.395 108.017 100.913Z" fill="var(--fill-0, #EBEAE2)"/>
<path id="Vector_63" d="M119.164 78.9685C122.839 80.0553 121.989 83.0051 120.852 85.6986C119.572 85.4917 118.903 85.3525 117.662 84.9833C118.195 82.9866 118.696 80.9815 119.164 78.9685Z" fill="var(--fill-0, #EBEAE2)"/>
<path id="Vector_64" d="M111.727 72.072C115.497 73.7367 115.431 73.0349 118.902 73.5625C120.336 74.5073 118.873 75.0966 118.477 76.1768C118.391 76.3438 118.433 76.3104 118.306 76.4098C118.025 76.6317 117.82 76.7041 117.45 76.6037C116.368 76.3107 112.15 74.2023 111.654 73.2705C111.407 72.8043 111.571 72.5331 111.727 72.072Z" fill="var(--fill-0, #EBEAE2)"/>
<path id="Vector_65" d="M115.66 106.978C116.146 107.346 116.622 107.651 116.625 108.297C115.782 108.911 107.057 112.47 105.86 112.754C105.324 112.705 105.205 112.684 104.696 112.511L104.682 112.24C105.305 111.551 113.783 108.009 115.66 106.978Z" fill="var(--fill-0, #EBEAE2)"/>
<path id="Vector_66" d="M48.3933 95.5327L50.156 96.2915C51.1296 99.7575 52.4856 99.9946 53.4244 103.357C51.5547 102.555 50.1408 101.677 48.7289 100.169C48.7082 98.9592 48.4641 96.9015 48.3933 95.5327Z" fill="var(--fill-0, #EBEAE2)"/>
<path id="Vector_67" d="M111.609 84.2937C111.844 84.2608 111.926 84.3032 112.164 84.3508C113.341 85.3547 112.704 87.0955 111.33 87.6311C110.74 87.6725 110.346 87.383 109.833 87.0941C108.648 87.2945 108.123 87.3333 106.938 87.3683C106.249 87.2628 105.473 87.2669 105.113 86.6203C105.758 85.7838 109.405 85.4929 111.609 84.2937Z" fill="var(--fill-0, #EBEAE2)"/>
<path id="Vector_68" d="M98.634 111.107C98.9895 112.086 99.2232 112.641 99.8175 113.51C100.645 114.72 100.263 115.06 99.726 116.233C99.1792 116.243 98.446 116.188 97.8839 116.162C97.0492 115.945 96.438 115.514 95.9115 114.829C95.5508 113.09 97.481 113.101 98.5443 111.263L98.634 111.107Z" fill="var(--fill-0, #EBEAE2)"/>
<path id="Vector_69" d="M108.204 104.275C109.506 104.255 110.231 104.317 111.528 104.463C109.332 106.024 108.136 106.861 105.708 107.96C105.084 108.276 103.909 108.778 103.27 108.37C103.384 107.17 107.117 104.996 108.204 104.275Z" fill="var(--fill-0, #EBEAE2)"/>
<path id="Vector_70" d="M106.924 94.4288C107.289 94.422 107.342 94.4007 107.655 94.6075C108.739 98.2521 105.019 97.548 102.64 97.3767C102.109 97.3261 101.949 97.3432 101.529 97.0257L101.513 96.7088C102.406 95.9245 104.611 96.1638 106.924 94.4288Z" fill="var(--fill-0, #EBEAE2)"/>
<path id="Vector_71" d="M64.3158 57.3999C65.3588 58.7185 63.8202 61.2661 63.2864 62.6939L62.2922 61.3009C61.6202 60.7798 60.8827 60.3566 60.751 59.527C61.1964 58.4526 63.0897 57.9232 64.3158 57.3999Z" fill="var(--fill-0, #EBEAE2)"/>
<path id="Vector_72" d="M95.0401 68.9989C95.5904 69.7029 96.4184 71.4608 96.718 72.3057C96.2304 72.8517 95.6497 73.2974 95.0808 73.7608L94.6338 74.036L94.346 73.8974C93.5705 72.453 94.1309 70.2943 95.0401 68.9989Z" fill="var(--fill-0, #EBEAE2)"/>
<path id="Vector_73" d="M89.1549 82.7294C91.549 83.1046 91.9807 85.3894 91.2645 87.3624C90.8988 87.6017 90.8853 87.6208 90.4637 87.6116C89.7289 86.8983 89.3564 83.8937 89.1549 82.7294Z" fill="var(--fill-0, #EBEAE2)"/>
<path id="Vector_74" d="M106.539 101.207C106.673 101.261 106.759 101.375 106.878 101.488C107.76 104.422 104.194 103.647 102.63 103.415C102.142 103.241 102.235 103.357 102.003 102.999C102.425 102.546 104.768 102.341 106.539 101.207Z" fill="var(--fill-0, #EBEAE2)"/>
<path id="Vector_75" d="M122.189 83.6635C122.746 83.7885 123.494 84.3987 123.972 84.4657C124.663 84.5629 125.49 84.1091 126.132 84.4127C126.197 84.9489 125.936 85.2551 125.656 85.7418C125.531 85.8599 125.17 86.1096 125.044 86.0853C123.872 85.8612 122.81 85.8026 121.644 85.8114C121.781 85.112 122.003 84.3574 122.189 83.6635Z" fill="var(--fill-0, #EBEAE2)"/>
<path id="Vector_76" d="M117.4 98.747C117.986 98.9409 119.112 100.193 119.619 100.699C119.01 101.119 118.406 101.547 117.808 101.983C117.058 101.587 116.166 100.976 115.439 100.509C116.137 99.9281 116.739 99.3655 117.4 98.747Z" fill="var(--fill-0, #EBEAE2)"/>
<path id="Vector_77" d="M118.625 89.5487C119.643 89.8818 120.543 90.0105 120.559 91.1942C120.313 91.805 119.853 92.1972 119.389 92.6689L119.119 92.7595C118.667 92.6342 117.834 91.4114 117.442 90.9313C117.797 90.4295 118.21 90.0029 118.625 89.5487Z" fill="var(--fill-0, #EBEAE2)"/>
<path id="Vector_78" d="M115.136 109.9L115.272 110.11C113.604 112.241 111.327 112.698 108.751 112.72L108.667 112.663L108.679 112.49C110.812 111.581 112.966 110.718 115.136 109.9Z" fill="var(--fill-0, #EBEAE2)"/>
<path id="Vector_79" d="M88.2893 139.306C88.7024 139.695 89.273 143.227 88.975 143.849L88.5213 143.779C88.0235 143.703 87.8034 143.704 87.3615 143.451C86.9551 142.469 87.9084 140.471 88.2893 139.306Z" fill="var(--fill-0, #EBEAE2)"/>
<path id="Vector_80" d="M116.552 91.3095C117.457 91.6594 118.008 92.401 117.864 93.3734C117.376 93.9097 117.407 93.7565 116.538 93.9251C116.108 93.9707 115.834 94.0455 115.439 93.8767C115.065 92.9124 115.695 91.7589 116.552 91.3095Z" fill="var(--fill-0, #EBEAE2)"/>
<path id="Vector_81" d="M114.058 97.6513C114.899 97.8663 115.67 97.942 116.123 98.6267C115.873 99.3253 115.703 99.293 115.057 99.8495L113.237 101.304C113.353 100.379 113.826 98.6076 114.058 97.6513Z" fill="var(--fill-0, #EBEAE2)"/>
<path id="Vector_82" d="M121.475 91.1881C121.976 91.7678 122.538 92.5163 122.428 93.2865C121.842 93.9018 121.424 93.8573 120.528 94.019C119.997 93.8439 120.032 93.9421 119.707 93.5833C119.868 93.1716 120.999 91.9376 121.475 91.1881Z" fill="var(--fill-0, #EBEAE2)"/>
<path id="Vector_83" d="M114.085 61.6125C115.224 61.9116 117.806 62.4017 118.428 63.2327C116.907 63.3316 115.576 63.637 114.283 62.9609C113.907 62.386 114.039 62.4473 114.085 61.6125Z" fill="var(--fill-0, #F0AACC)"/>
<path id="Vector_84" d="M106.889 61.3335C108.062 61.1936 110.866 60.8215 111.704 61.7663L111.613 62.5701C110.362 62.7877 107.976 61.9658 106.889 61.3335Z" fill="var(--fill-0, #F0AACC)"/>
<path id="Vector_85" d="M105.094 60.0679C106.416 59.7834 110.685 59.7883 111.956 60.2528L112.042 60.4223C110.647 60.8168 108.221 60.4052 106.325 60.7062C106.181 60.3219 106.535 60.7021 106.25 60.1214L105.094 60.0679Z" fill="var(--fill-0, #F0AACC)"/>
<path id="Vector_86" d="M120.298 103.717C120.731 104.054 120.748 105.316 121.173 105.761C121.539 106.144 122.333 106.345 122.485 106.746L122.052 107.566C121.302 106.935 119.89 105.926 119.727 104.951C119.634 104.397 119.966 104.148 120.298 103.717Z" fill="var(--fill-0, #EBEAE2)"/>
<path id="Vector_87" d="M113.393 58.7988C113.524 59.8647 113.605 61.9928 113.094 62.9323L112.493 63.0693C112.085 62.2327 113.053 59.8443 113.393 58.7988Z" fill="var(--fill-0, #EBEAE2)"/>
<path id="Vector_88" d="M119.801 101.573C119.97 101.736 120.121 101.982 120.259 102.181C120.229 102.864 119.616 103.315 119.096 103.832C118.741 103.536 118.597 103.292 118.563 102.843C118.761 102.242 119.279 101.958 119.801 101.573Z" fill="var(--fill-0, #EBEAE2)"/>
<path id="Vector_89" d="M116.785 88.76C117.093 88.8366 117.41 88.9414 117.715 89.0358L117.808 89.3038C117.488 89.7357 117.158 90.1609 116.819 90.5794C116.403 90.7936 116.518 90.8173 116.154 90.7416C116.094 90.2202 116.56 89.2979 116.785 88.76Z" fill="var(--fill-0, #EBEAE2)"/>
<path id="Vector_90" d="M128.779 16.1945C129.198 16.5287 129.75 18.0034 129.872 18.5303C132.252 28.8444 116.828 26.2201 119.953 37.8814C118.788 39.01 118.595 39.5993 117.72 40.8403C116.716 37.9585 116.516 37.1161 119.418 36.0404C118.99 35.512 118.365 34.8547 117.901 34.3335C117.307 28.79 122.459 27.0336 125.83 23.7873C128.226 21.4794 127.972 20.3845 127.86 17.2499C127.841 16.7068 128.38 16.4782 128.779 16.1945Z" fill="var(--fill-0, #CDCDCD)"/>
<path id="Vector_91" d="M130.716 8.74418C131.422 9.07442 132.766 9.55216 133.535 9.85006C129.522 14.0504 134.041 16.1551 131.876 19.8439C131.635 20.0929 131.386 20.4257 131.066 20.4736C129.859 16.0555 127.511 12.8893 130.716 8.74418Z" fill="var(--fill-0, #CDCDCD)"/>
<path id="Vector_92" d="M116.939 33.2037L117.158 33.2349C117.08 35.2168 117.693 34.4191 118.096 35.6796C116.726 36.7972 117.183 35.9235 116.255 37.7088C115.934 37.6345 115.709 37.1669 115.465 36.8257C115.111 36.5235 114.368 36.256 113.909 36.2394C114.49 35.4598 114.263 34.5392 114.691 33.5936C115.712 33.7954 115.888 33.8293 116.789 33.2946L116.939 33.2037Z" fill="var(--fill-0, #EBEAE2)"/>
<path id="Vector_93" d="M97.6862 15.1037C105.393 23.1043 109.56 33.3607 110.081 44.4462C110.234 45.3385 110.417 50.4953 110.041 50.9768C109.902 50.3026 109.872 50.1827 109.946 49.4831C108.595 36.3987 103.727 26.0932 94.1966 17.0667C95.3276 16.3363 96.4993 15.7363 97.6862 15.1037Z" fill="var(--fill-0, #CDCDCD)"/>
<path id="Vector_94" d="M135.243 24.3069C135.797 24.4575 136.887 25.5413 137.361 25.9732C127.99 33.298 124.392 37.3927 119.365 48.4758C119.143 49.0697 118.991 49.4015 118.702 49.966L118.629 49.8301C120.926 39.5138 127.304 30.9823 135.243 24.3069Z" fill="var(--fill-0, #F0AACC)"/>
<path id="Vector_95" d="M134.975 36.0822C136.401 36.2146 140.067 37.2267 138.87 39.1609C137.512 41.3554 135.182 38.2982 136.296 37.416C136.818 37.7148 137.085 38.6022 137.618 39.2826L137.903 39.2948L138.269 38.8601C138.265 38.404 138.292 38.2879 137.894 37.9146C136.687 36.7784 134.281 36.2187 133.04 37.5513C131.735 38.9521 132.817 41.3046 132.935 42.9083C132.969 43.3737 132.493 43.7581 132.168 44.0376C130.629 44.1466 129.439 43.3273 128.189 43.6257C126.54 44.0188 125.975 46.3731 125.228 47.5864C124.967 46.7068 124.988 45.7763 125.364 44.9375C126.786 41.7693 128.647 41.7378 131.454 42.8504C130.072 39.1936 130.809 36.6653 134.975 36.0822Z" fill="var(--fill-0, #66F9FF)"/>
<path id="Vector_96" d="M140.337 32.3388C142.286 32.1881 145.818 32.5685 146.708 34.6441C146.437 36.1567 143.666 33.9377 142.431 33.5787L142.349 33.5553C141.488 33.445 140.051 33.4239 139.259 33.7492C138.426 34.092 137.598 36.3225 136.363 35.6204C136.072 33.7975 138.937 32.6564 140.337 32.3388Z" fill="var(--fill-0, #66F9FF)"/>
<path id="Vector_97" d="M94.097 36.3943C98.3213 36.0429 100.981 41.2664 99.2644 44.4857L98.9444 44.4872C98.2282 43.3281 99.0105 42.2465 98.6837 40.3604C98.6684 40.2776 98.6515 40.1953 98.6312 40.1133C98.0555 37.7165 94.5508 35.6764 93.4604 37.9215C93.6856 37.9901 95.0807 37.7986 95.5971 37.7896L95.7698 37.98C95.1518 39.0293 94.1698 39.5014 93.181 38.6274C92.668 37.46 93.0913 36.9 94.097 36.3943Z" fill="var(--fill-0, #F0AACC)"/>
<path id="Vector_98" d="M89.5611 30.554C93.0523 30.609 95.2076 32.4291 96.0881 35.7779C95.316 35.4519 94.7471 33.4601 93.7363 32.7866C92.4953 31.961 91.3219 32.1215 89.9996 31.6006C89.7456 31.5 89.6508 30.883 89.5611 30.554Z" fill="var(--fill-0, #F0AACC)"/>
<path id="Vector_99" d="M120.842 3.61041L123.092 4.52018C123.2 9.142 121.677 12.2312 118.641 15.5364C118.494 15.7056 118.314 15.8635 118.15 16.0189C117.81 15.7886 117.644 14.8539 117.466 14.3071C117.83 13.9042 118.187 13.4932 118.534 13.0745C120.898 10.1893 121.189 7.12821 120.842 3.61041Z" fill="var(--fill-0, #F0AACC)"/>
<path id="Vector_100" d="M112.674 24.407C112.619 24.9931 112.619 25.1105 112.37 25.6394C111.465 24.9867 111.253 24.9381 110.132 24.9186L110.029 24.9174C109.854 24.4548 110.244 23.9572 110.247 23.6739C110.251 23.5267 109.822 22.9897 109.912 22.5534C111.548 22.4118 110.799 22.4999 112.25 21.5686C112.504 22.062 112.531 22.2848 112.665 22.7224C112.724 22.917 113.522 23.2369 113.552 23.778L113.038 24.184L112.674 24.407Z" fill="var(--fill-0, #66F9FF)"/>
<path id="Vector_101" d="M120.875 53.235C121.53 53.121 122.157 53.5562 122.279 54.2113C122.401 54.8665 121.972 55.4977 121.319 55.6274C120.889 55.7126 120.447 55.5604 120.161 55.2284C119.874 54.8965 119.79 54.4364 119.937 54.0238C120.084 53.6113 120.443 53.3098 120.875 53.235Z" fill="var(--fill-0, #EBEAE2)"/>
<path id="Vector_102" d="M147.891 20.4194C148.301 20.2165 148.789 20.2529 149.163 20.5146C149.537 20.7761 149.738 21.2211 149.689 21.6753C149.64 22.1294 149.346 22.5202 148.924 22.6948C148.301 22.9521 147.586 22.6698 147.309 22.0562C147.031 21.4426 147.288 20.7188 147.891 20.4194Z" fill="var(--fill-0, #F0AACC)"/>
<path id="Vector_103" d="M104.896 8.32079C105.316 8.18514 105.776 8.28845 106.098 8.59057C106.421 8.8927 106.553 9.34606 106.445 9.77435C106.337 10.2026 106.005 10.5385 105.578 10.6511C104.942 10.8191 104.288 10.4497 104.102 9.81822C103.917 9.1867 104.269 8.52266 104.896 8.32079Z" fill="var(--fill-0, #EBEAE2)"/>
<path id="Vector_104" d="M104.638 50.9472C105.065 51.4124 105.637 51.883 106.121 52.3022C105.683 52.7234 105.224 53.2262 104.802 53.6704L103.365 52.4559L104.638 50.9472Z" fill="var(--fill-0, #66F9FF)"/>
<path id="Vector_105" d="M92.3308 46.4585C92.8861 46.1457 93.5888 46.3416 93.902 46.8961C94.2153 47.4507 94.0205 48.1542 93.4669 48.4682C92.9115 48.7827 92.2072 48.5872 91.894 48.0318C91.579 47.4763 91.7755 46.7716 92.3308 46.4585Z" fill="var(--fill-0, #CDCDCD)"/>
<path id="Vector_106" d="M131.354 47.469C131.857 47.2908 132.409 47.5542 132.587 48.057C132.764 48.5596 132.5 49.1112 131.997 49.2884C131.495 49.4653 130.944 49.2018 130.766 48.6999C130.59 48.1977 130.853 47.6468 131.354 47.469Z" fill="var(--fill-0, #CDCDCD)"/>
<path id="Vector_107" d="M99.6321 30.3616C99.9453 30.1484 100.369 30.2161 100.601 30.5161C100.831 30.8158 100.787 31.2434 100.501 31.4904C100.299 31.6629 100.02 31.7105 99.7743 31.6142C99.5288 31.5178 99.3561 31.2932 99.3256 31.0306C99.2968 30.7681 99.4153 30.5106 99.6321 30.3616Z" fill="var(--fill-0, #EBEAE2)"/>
<path id="Vector_108" d="M145.102 43.7293C145.458 43.57 145.874 43.7246 146.04 44.0769C146.204 44.4291 146.057 44.8486 145.707 45.019C145.476 45.1318 145.202 45.1111 144.99 44.9651C144.779 44.8191 144.662 44.5703 144.686 44.3145C144.709 44.0584 144.869 43.8348 145.102 43.7293Z" fill="var(--fill-0, #66F9FF)"/>
<path id="Vector_109" d="M132.031 0.734281C132.263 0.634702 132.534 0.672467 132.73 0.832336C132.928 0.992375 133.02 1.24844 132.971 1.49739C132.922 1.74651 132.739 1.94787 132.495 2.02069C132.148 2.12467 131.779 1.93889 131.655 1.59714C131.532 1.25555 131.696 0.876877 132.031 0.734281Z" fill="var(--fill-0, #CDCDCD)"/>
<path id="Vector_110" d="M120.369 145.176C120.927 145.148 121.459 145.028 121.799 145.487C121.313 145.947 118.725 145.973 117.712 146.132L116.928 146.253C116.51 146.094 116.578 146.195 116.42 145.887C117.106 145.281 119.41 145.239 120.369 145.176Z" fill="var(--fill-0, #EBEAE2)"/>
<path id="Vector_111" d="M109.306 149.232C110.469 149.08 113.122 149.053 114.281 149.409C114.44 149.458 114.501 149.729 114.594 149.937C113.676 150.05 111.043 149.881 110.01 149.8C109.555 149.764 109.579 149.627 109.306 149.232Z" fill="var(--fill-0, #EBEAE2)"/>
<path id="Vector_112" d="M64.002 149.395C65.1846 149.298 67.6486 149.412 68.7771 149.842C68.9252 149.9 68.9894 150.184 69.0725 150.384C68.2773 150.318 64.6594 150.184 64.1728 149.934L64.002 149.395Z" fill="var(--fill-0, #EBEAE2)"/>
</g>
<path id="Vector_113" d="M36.6356 43C37.2218 43.5843 38.0634 46.3874 38.3698 47.265C39.417 47.6559 40.9097 48.0313 41.412 48.8071C40.8856 49.575 39.4911 49.8876 38.4385 50.2557C37.8712 51.5597 37.4742 53.1133 36.8142 54.6231C34.4788 50.6146 37.0699 50.7684 30.9512 48.731C35.8207 47.3636 35.1936 46.8788 36.6356 43Z" fill="var(--fill-0, #F9F469)"/>
<path id="Vector_114" d="M136.914 112C138.972 113.9 136.469 114.567 140.878 116.886C141.228 117.955 139.545 117.654 138.829 118.591C138.234 119.368 137.534 121.508 137.184 122.461C137.056 122.264 136.903 122.024 136.85 121.796C136.347 119.613 135.261 118.895 133.951 117.037C136.125 115.174 136.241 114.751 136.914 112Z" fill="var(--fill-0, #F9F469)"/>
</g>
</svg>
