<svg preserveAspectRatio="none" width="100%" height="100%" overflow="visible" style="display: block;" viewBox="0 0 159.668 127.179" fill="none" xmlns="http://www.w3.org/2000/svg">
<g id="Group">
<path id="Vector" d="M57.3721 103.583C57.3501 103.585 57.1747 103.589 57.0037 103.621C55.5326 103.892 54.0608 103.889 52.5884 103.639C51.7793 103.501 51.0325 103.681 50.3283 104.076C49.7795 104.384 49.5783 104.912 49.765 105.521C49.9807 106.226 50.4295 106.742 51.0702 107.079C52.0006 107.568 52.9858 107.891 54.0313 108.05C54.7304 108.156 55.4106 108.164 56.104 108.02C56.7233 107.892 57.2508 107.617 57.6852 107.166C58.3384 106.486 58.73 105.676 58.8463 104.737C58.8514 104.694 58.8533 104.65 58.8514 104.607C58.83 104.063 58.6464 103.634 57.9153 103.584C57.7851 103.576 57.6544 103.583 57.3721 103.583Z" fill="var(--fill-0, #EBEAE2)"/>
<path id="Vector_2" d="M48.2382 123.052C47.1348 123.177 46.3113 123.033 45.5097 122.72C45.1557 122.581 44.7968 122.451 44.4315 122.349C43.9267 122.207 43.408 122.435 43.1188 122.888C42.7781 123.421 42.7033 123.98 42.9057 124.584C43.0993 125.163 43.4149 125.65 43.894 126.028C44.7471 126.701 45.7096 127.118 46.7985 127.172C47.6126 127.212 48.3928 127.08 49.0737 126.557C49.9639 125.872 50.3204 124.989 50.1638 123.888C50.1255 123.614 49.9677 123.415 49.7319 123.298C49.4276 123.147 49.1007 123.054 48.7556 123.052C48.5022 123.051 48.2482 123.052 48.2382 123.052Z" fill="var(--fill-0, #EBEAE2)"/>
<path id="Vector_3" d="M49.452 120.873C50.2549 120.863 51.003 120.576 51.5952 119.922C51.8335 119.658 52.0045 119.357 52.0981 119.017C52.2327 118.528 52.1554 118.063 51.8611 117.651C51.7643 117.516 51.6172 117.4 51.4682 117.324C51.2771 117.227 51.0652 117.15 50.854 117.116C49.8575 116.96 48.9126 116.647 47.9947 116.236C47.7181 116.112 47.422 116.029 47.1297 115.946C46.7198 115.828 46.2395 116.024 45.9949 116.398C45.5567 117.067 45.4989 117.774 45.7868 118.515C46.3463 119.952 47.9539 120.938 49.452 120.873Z" fill="var(--fill-0, #EBEAE2)"/>
<path id="Vector_4" d="M51.5888 114.573C52.2596 114.585 52.882 114.443 53.4446 114.067C54.0677 113.652 54.377 113.054 54.4455 112.327C54.4788 111.972 54.3675 111.635 54.1733 111.34C54.0262 111.117 53.8061 110.966 53.5383 110.922C53.2824 110.88 53.0222 110.848 52.7638 110.843C51.6265 110.818 50.5257 110.619 49.455 110.23C49.1746 110.127 48.8685 110.082 48.5698 110.048C48.2429 110.011 47.9883 110.169 47.7903 110.428C47.3477 111.003 47.3332 111.627 47.6042 112.268C47.6872 112.464 47.8116 112.653 47.9525 112.813C48.9162 113.91 50.1309 114.497 51.5888 114.573Z" fill="var(--fill-0, #EBEAE2)"/>
<path id="Vector_5" d="M46.699 104.494C46.6562 104.957 46.9391 105.267 47.3189 105.275C47.6407 105.281 47.9155 105.164 48.1198 104.913C48.2657 104.734 48.3122 104.527 48.2198 104.306C48.1456 104.126 47.9828 104.058 47.8124 104.024C47.5534 103.97 47.2943 103.974 47.0485 104.095C46.8386 104.199 46.7204 104.367 46.699 104.494Z" fill="var(--fill-0, #EBEAE2)"/>
<path id="Vector_6" d="M44.8275 110.727C44.7841 111.191 45.0676 111.501 45.4473 111.508C45.7686 111.515 46.044 111.398 46.2483 111.146C46.3941 110.967 46.4407 110.76 46.3482 110.539C46.2734 110.36 46.1112 110.292 45.9409 110.257C45.6818 110.204 45.4222 110.208 45.177 110.329C44.967 110.432 44.8488 110.6 44.8275 110.727Z" fill="var(--fill-0, #EBEAE2)"/>
<path id="Vector_7" d="M42.9937 116.797C42.951 117.261 43.2339 117.571 43.6142 117.579C43.9355 117.585 44.2108 117.468 44.4152 117.216C44.5604 117.037 44.6069 116.831 44.5145 116.609C44.4403 116.43 44.2775 116.362 44.1077 116.327C43.8481 116.274 43.5891 116.278 43.3433 116.399C43.1333 116.502 43.0151 116.67 42.9937 116.797Z" fill="var(--fill-0, #EBEAE2)"/>
<path id="Vector_8" d="M40.2383 123.168C40.1949 123.631 40.4784 123.942 40.8582 123.95C41.1794 123.956 41.4548 123.839 41.6591 123.587C41.8043 123.408 41.8508 123.201 41.7591 122.98C41.6842 122.801 41.5214 122.733 41.3517 122.698C41.0927 122.645 40.833 122.649 40.5872 122.769C40.3778 122.873 40.259 123.041 40.2383 123.168Z" fill="var(--fill-0, #EBEAE2)"/>
<path id="Vector_9" d="M68.3761 88.496C68.1995 88.6853 68.0234 88.8795 67.8751 89.0908C67.147 90.1287 66.5831 91.2553 66.0984 92.4228C65.9318 92.8245 65.7696 93.2281 65.6231 93.6374C65.1541 94.9488 64.6197 96.232 63.9848 97.473C63.8458 97.7433 63.717 98.0199 63.6032 98.3016C63.5397 98.4613 63.4975 98.6348 63.4812 98.8052C63.4648 98.9774 63.5001 99.1503 63.656 99.2685C63.8075 99.3842 63.9665 99.393 64.1445 99.3339C64.3588 99.2629 64.5286 99.1321 64.6788 98.973C65.0391 98.5889 65.3169 98.1444 65.5445 97.6742C65.9041 96.9311 66.2681 96.1867 66.5737 95.421C67.1697 93.9266 67.7393 92.4222 68.2944 90.9121C68.5182 90.3016 68.6785 89.6673 68.8583 89.0411C68.9061 88.8739 68.9105 88.6922 68.808 88.5401C68.7653 88.4759 68.6735 88.4445 68.6037 88.398C68.5264 88.4294 68.4277 88.4407 68.3761 88.496ZM75.1395 64.5439C74.568 65.1694 74.2052 65.8962 74.1499 66.7506C74.1273 67.1095 74.2128 67.4421 74.5573 67.6452C74.5944 67.6672 74.629 67.6936 74.6661 67.7162C75.8178 68.4059 76.1202 69.4935 76.0234 70.7307C75.9832 71.2431 75.8109 71.7448 75.7103 72.2534C75.6695 72.4634 75.6487 72.6797 75.643 72.8934C75.6412 72.9682 75.694 73.0776 75.755 73.1103C75.8159 73.1436 75.9448 73.1311 75.997 73.0852C76.1561 72.945 76.322 72.7972 76.4327 72.6199C77.0563 71.6191 77.4543 70.5283 77.7454 69.386C77.9849 68.4467 78.0226 67.5062 77.9428 66.5513C77.8912 65.9358 77.6938 65.3656 77.3719 64.8425C77.0758 64.3609 76.6408 64.1189 76.0643 64.1491C75.7009 64.1459 75.3853 64.2754 75.1395 64.5439ZM78.667 69.2973C78.4746 70.2341 78.2244 71.1576 77.8579 72.0434C77.26 73.4894 76.6609 74.9335 75.9706 76.3386C75.2809 77.7424 74.5919 79.1475 73.9443 80.5709C73.2968 81.9942 72.7084 83.444 72.0797 84.8761C70.9267 87.5021 69.8435 90.1551 68.8866 92.8604C68.2636 94.6213 67.5802 96.3602 66.9044 98.1017C66.7007 98.6266 66.4448 99.1327 66.1902 99.6357C65.9532 100.103 65.6369 100.518 65.2585 100.885C65.0064 101.129 64.7272 101.331 64.4041 101.472C63.4391 101.895 62.4432 101.549 61.973 100.612C61.8573 100.381 61.758 100.134 61.6957 99.884C61.4964 99.0768 61.4091 98.2551 61.4933 97.4259C61.5549 96.8204 61.6234 96.2131 61.7441 95.6184C62.0975 93.8713 62.5243 92.143 63.1235 90.4613C63.4737 89.4793 63.8282 88.4979 64.14 87.5034C65.3528 83.6338 66.9823 79.9434 68.8621 76.3574C69.5077 75.1259 70.1484 73.8911 70.7525 72.6394C71.6226 70.8376 72.3689 68.9868 72.8643 67.0397C73.0353 66.3677 73.2729 65.7113 73.5093 65.0581C73.7331 64.4383 74.0883 63.8938 74.5548 63.4229C74.9025 63.0728 75.3186 62.8559 75.7939 62.7396C76.0536 62.6761 76.3076 62.6918 76.5647 62.7653C77.1827 62.942 77.6278 63.3431 77.9836 63.8536C78.3898 64.4357 78.6111 65.0927 78.701 65.7906C78.7626 66.2646 78.7877 66.743 78.8097 66.9926C78.8393 67.918 78.8072 68.6146 78.667 69.2973Z" fill="var(--fill-0, #EBEAE2)"/>
<path id="Vector_10" d="M134.754 89.3323C135.219 89.3933 135.735 89.47 136.254 89.5259C136.512 89.5536 136.777 89.5725 137.033 89.5423C137.348 89.5058 137.597 89.3424 137.744 89.0375C137.893 88.7294 137.864 88.4471 137.664 88.1818C137.366 87.7883 136.967 87.5286 136.518 87.3444C136.237 87.2287 135.944 87.1401 135.657 87.0383C131.594 85.5992 127.602 83.986 123.684 82.1905C123.013 81.8831 122.357 81.5367 121.713 81.1726C119.29 79.8002 116.82 78.5095 114.459 77.0284C113.5 76.4267 112.547 75.82 111.65 75.1247C110.891 74.5363 110.181 73.8969 109.539 73.1821C109.015 72.5987 108.5 72.009 107.972 71.4293C107.445 70.8491 106.897 70.2889 106.258 69.8268C104.736 68.726 103.11 68.7059 101.428 69.3836C101.193 69.4785 100.966 69.6407 100.789 69.8237C100.34 70.2889 100.137 70.8358 100.335 71.4934C100.451 71.8788 100.64 72.2133 100.919 72.4987C101.594 73.1909 102.351 73.7749 103.262 74.1213C103.831 74.3376 104.413 74.5212 104.996 74.6966C105.662 74.8965 106.336 75.07 107.007 75.2567C108.267 75.6075 109.485 76.0753 110.674 76.6172C110.99 76.7612 111.299 76.9253 111.596 77.1044C111.741 77.1918 111.859 77.3289 111.977 77.454C112.136 77.6212 112.155 77.8947 112.031 78.0525C111.915 78.199 111.759 78.275 111.577 78.2549C111.405 78.2361 111.235 78.1946 111.068 78.1487C110.481 77.9852 109.899 77.8073 109.31 77.6539C109.146 77.6118 108.964 77.6193 108.794 77.6351C108.724 77.6413 108.653 77.7212 108.597 77.7822C108.525 77.862 108.543 77.9444 108.624 78.0135C108.723 78.0971 108.812 78.1939 108.918 78.2675C109.203 78.4668 109.493 78.6598 109.785 78.8503C113.575 81.3267 117.418 83.7157 121.333 85.9902C121.822 86.275 122.316 86.5504 122.8 86.8427C125.86 88.6873 129.036 90.3124 132.241 91.8835C133.412 92.4575 134.61 92.9799 135.806 93.5011C136.283 93.7086 136.787 93.8569 137.285 94.0141C137.651 94.1298 137.971 94.0147 138.241 93.7532C138.486 93.5162 138.523 93.0585 138.324 92.7926C138.057 92.4374 137.72 92.1608 137.329 91.9627C136.825 91.7075 136.313 91.4667 135.793 91.2454C135.231 91.0065 134.675 90.7613 134.161 90.4294C133.826 90.2125 133.684 89.9296 133.79 89.6812C133.912 89.3952 134.177 89.365 134.438 89.3355C134.524 89.326 134.612 89.3329 134.754 89.3323Z" fill="var(--fill-0, #EBEAE2)"/>
<path id="Vector_11" d="M53.6017 61.9102C52.8001 61.9611 51.4069 61.9404 50.0326 62.2158C49.2606 62.3704 48.5137 62.5948 47.7857 62.879C45.0447 63.949 44.1626 66.2349 44.2815 68.4095C44.3179 69.0734 44.5021 69.6902 44.7888 70.2836C45.3087 71.3624 46.0606 72.2476 47.0125 72.9706C48.9551 74.4455 51.1397 75.3596 53.5325 75.789C55.2979 76.1059 57.0827 76.1763 58.8619 76.0141C61.3011 75.7921 63.6675 75.2427 65.861 74.1004C66.2834 73.8803 66.6858 73.6175 67.0813 73.3497C67.4075 73.1284 67.6571 72.826 67.8602 72.484C68.5499 71.3241 67.8646 69.9039 66.5198 69.7266C65.9106 69.6461 65.3033 69.6889 64.7073 69.8391C64.2861 69.9448 63.8712 70.0755 63.4519 70.19C62.1524 70.5452 60.8416 70.8513 59.5257 71.1411C58.3602 71.3983 57.194 71.4272 56.024 71.321C54.2857 71.1632 52.5826 70.8224 50.9688 70.1283C50.6104 69.9743 50.2583 69.8027 49.9151 69.6179C49.2418 69.2551 48.7696 68.6956 48.4144 68.0292C48.3742 67.9525 48.3333 67.8752 48.3006 67.7953C47.9178 66.8523 48.3283 66.0457 48.9846 65.6307C49.2751 65.4478 49.6039 65.3152 49.9302 65.202C50.2571 65.0895 50.5991 65.0052 50.9417 64.9511C52.4009 64.7211 53.8601 64.4752 55.3406 64.4256C55.731 64.4124 56.1227 64.4306 56.5131 64.4482C56.9475 64.4677 57.3807 64.5192 57.8151 64.5274C58.8637 64.5475 59.8916 64.7273 60.9107 64.9486C62.9062 65.3812 64.8953 65.8439 66.8882 66.289C67.2699 66.3739 67.6552 66.4418 68.0419 66.5021C68.1664 66.5222 68.3028 66.5078 68.4279 66.4807C68.602 66.4436 68.7586 66.3531 68.8202 66.1752C68.8799 66.0029 68.846 65.8282 68.7209 65.6924C68.6039 65.5654 68.4776 65.4434 68.338 65.3422C67.7728 64.9304 67.1561 64.6022 66.5073 64.352C64.1925 63.4593 61.8349 62.6904 59.3849 62.2742C57.6705 61.9831 55.9316 61.87 53.6017 61.9102Z" fill="var(--fill-0, #EBEAE2)"/>
<path id="Vector_12" d="M91.3541 82.5298C93.0151 82.6285 94.3535 82.5222 95.6549 82.1004C96.3628 81.8716 97.0223 81.5478 97.6409 81.1291C99.0429 80.1798 99.8262 78.4553 99.3629 76.5422C99.014 75.1013 98.2162 73.92 97.1254 72.9361C96.5426 72.4105 95.897 71.9704 95.2067 71.5894C93.5149 70.6559 91.7049 70.0473 89.834 69.6148C88.5615 69.3205 87.2683 69.1433 85.9613 69.0691C85.3527 69.0351 84.7492 68.9484 84.1412 68.91C83.4472 68.866 82.7525 68.8365 82.0572 68.8283C81.8968 68.8264 81.7183 68.9119 81.5775 69.0031C81.116 69.301 81.1713 70.0699 81.6655 70.3013C81.8208 70.3742 81.988 70.4333 82.1558 70.4673C82.9228 70.6232 83.6924 70.7684 84.4606 70.9161C85.8274 71.1789 87.1998 71.414 88.559 71.7102C90.0093 72.027 91.4044 72.513 92.7064 73.2441C93.4728 73.6748 94.148 74.2155 94.744 74.8599C95.0746 75.2182 95.3092 75.63 95.4387 76.1002C95.5229 76.4026 95.5021 76.6988 95.3984 76.9968C95.1859 77.6078 94.7735 78.0391 94.2077 78.3214C93.7783 78.5351 93.3231 78.6848 92.8403 78.7338C91.9683 78.8224 91.097 78.8055 90.2394 78.6382C88.7828 78.3541 87.3613 77.9398 86.0373 77.257C84.8007 76.6189 83.5823 75.9443 82.3583 75.2817C81.861 75.0126 81.3738 74.7247 80.874 74.46C80.6005 74.3154 80.2975 74.2702 79.9869 74.2896C79.5173 74.3198 79.1539 74.5386 78.9207 74.9422C78.6723 75.3729 78.5667 75.8368 78.7578 76.319C78.8697 76.5994 78.9929 76.8817 79.1551 77.1351C79.6518 77.9121 80.2729 78.5766 81.0167 79.1274C81.6825 79.6209 82.3866 80.0503 83.1221 80.4325C84.1676 80.9757 85.2546 81.4151 86.3743 81.7772C87.3727 82.1004 88.4087 82.2462 89.4442 82.3745C90.1778 82.4657 90.9184 82.4958 91.3541 82.5298Z" fill="var(--fill-0, #EBEAE2)"/>
<path id="Vector_13" d="M86.6697 102.501C87.4713 102.532 88.3446 102.415 89.1725 102.161C90.9668 101.61 92.2845 100.472 93.0597 98.7354C93.4375 97.8873 93.5953 96.9883 93.6777 96.078C93.7085 95.7422 93.6161 95.387 93.535 95.0519C93.4275 94.6081 92.8044 94.3195 92.37 94.4792C92.1204 94.571 91.8935 94.7011 91.7262 94.9086C91.5081 95.1789 91.3019 95.46 91.0988 95.7416C90.45 96.6425 89.5447 97.1172 88.4741 97.2913C87.3877 97.468 86.3133 97.3932 85.2382 97.1373C83.6502 96.7601 82.2143 96.0427 80.8236 95.2273C79.4311 94.4107 78.1423 93.4482 76.922 92.3888C76.233 91.7903 75.5037 91.2371 74.787 90.6707C74.6519 90.5638 74.4985 90.4707 74.34 90.4041C73.949 90.24 73.5649 90.2746 73.2367 90.5493C73.0745 90.6857 72.9217 90.8574 72.8237 91.0441C72.5351 91.5948 72.4156 92.1896 72.4886 92.8113C72.5602 93.4224 72.7432 93.9989 73.0437 94.5396C73.4046 95.1896 73.8277 95.7957 74.3199 96.3508C75.2761 97.4302 76.3317 98.4009 77.5281 99.2107C77.9242 99.4791 78.3334 99.7287 78.7314 99.9946C80.2704 101.023 81.9653 101.69 83.752 102.128C84.6806 102.357 85.6268 102.516 86.6697 102.501Z" fill="var(--fill-0, #EBEAE2)"/>
<path id="Vector_14" d="M89.6437 92.802C90.7226 92.67 91.7693 92.631 92.7714 92.2965C93.5642 92.0312 94.2922 91.6502 94.9178 91.0888C96.2141 89.9264 96.7786 88.4905 96.4913 86.7572C96.3989 86.2021 96.3248 85.635 96.0268 85.1346C95.7967 84.7473 95.4899 84.4587 95.0617 84.2965C94.6336 84.135 94.1702 84.3022 93.9653 84.7309C93.8729 84.9246 93.8062 85.1333 93.7459 85.3408C93.661 85.6325 93.6132 85.9361 93.5145 86.2222C93.2423 87.0118 92.6922 87.5424 91.9152 87.8316C91.465 87.9995 90.9992 88.0919 90.5145 88.1189C89.1408 88.195 87.8312 87.9121 86.5538 87.4437C84.7865 86.7955 83.1388 85.9192 81.623 84.8007C81.0981 84.4135 80.597 83.9935 80.0739 83.6031C79.4471 83.1347 78.8141 82.6733 78.1722 82.2256C77.8465 81.9987 77.475 81.866 77.0713 81.8598C76.652 81.8528 76.3069 82.01 76.0686 82.364C75.8718 82.6569 75.7429 82.9776 75.704 83.3315C75.6115 84.1733 75.7247 84.978 76.1264 85.7356C76.393 86.2379 76.7073 86.7069 77.0852 87.1313C78.9442 89.2172 81.1798 90.7676 83.7907 91.7546C84.9324 92.1865 86.1376 92.4059 87.3459 92.5712C88.1204 92.6769 88.9031 92.7291 89.6437 92.802Z" fill="var(--fill-0, #EBEAE2)"/>
<path id="Vector_15" d="M51.3294 92.001C53.1595 91.9614 54.967 91.7646 56.7323 91.2466C57.9545 90.8876 59.066 90.3036 60.114 89.5957C60.3982 89.4033 60.6559 89.1575 60.8829 88.8991C61.5116 88.1849 61.2111 87.0985 60.3102 86.7672C59.8531 86.5987 59.3816 86.5397 58.8994 86.6126C58.255 86.7107 57.6081 86.7955 56.9706 86.9263C54.3188 87.4701 51.645 87.7442 48.9386 87.5958C47.0613 87.4934 45.2325 87.1595 43.5143 86.3416C42.6448 85.928 41.8313 85.4388 41.1196 84.7856C40.3992 84.1243 39.9094 83.3158 39.5693 82.4067C39.4297 82.0345 39.387 81.6466 39.3763 81.255C39.3662 80.9079 39.3864 80.5603 39.3839 80.2126C39.3813 79.8756 38.9821 79.5896 38.6363 79.6958C38.4339 79.7587 38.222 79.8454 38.0598 79.9775C36.7912 81.0079 36.1304 83.0486 36.7289 84.707C37.0137 85.4967 37.4073 86.2121 37.9643 86.8333C38.6332 87.5801 39.3719 88.2497 40.2206 88.7947C42.5159 90.2709 44.998 91.2818 47.6931 91.7175C48.8914 91.9111 50.106 92.0419 51.3294 92.001Z" fill="var(--fill-0, #EBEAE2)"/>
<path id="Vector_16" d="M54.7988 84.2117C56.8753 84.2437 58.9883 83.7741 61.0743 83.1259C61.835 82.8895 62.5064 82.5105 63.1477 82.0534C63.5098 81.7956 63.7889 81.4744 64.0184 81.0978C64.3107 80.6187 64.3327 80.1108 64.1963 79.589C64.0637 79.0816 63.5117 78.6629 62.9201 78.6302C62.2235 78.5919 61.5295 78.6271 60.8417 78.7578C59.3907 79.0332 57.9397 79.3117 56.4862 79.5751C56.0599 79.6525 55.6261 79.6977 55.1942 79.731C54.7611 79.765 54.3241 79.7524 53.891 79.7832C52.0382 79.9127 50.2578 79.5676 48.5063 78.9986C47.2483 78.59 46.1217 77.9424 45.0919 77.1302C44.0728 76.3255 43.3882 75.2863 43.0701 74.0157C42.9645 73.5945 42.8664 73.1695 42.7237 72.7602C42.5269 72.1931 41.7813 72.0322 41.3236 72.4471C41.1972 72.5615 41.0734 72.6973 40.9992 72.8482C40.886 73.0808 40.7987 73.3298 40.7358 73.5813C40.683 73.79 40.683 74.0119 40.6553 74.2276C40.4453 75.854 40.8584 77.3094 41.7505 78.6811C42.845 80.3622 44.2105 81.7221 46.0412 82.5651C46.7498 82.8914 47.4866 83.1712 48.2328 83.3969C49.1463 83.6735 50.0843 83.8502 51.0374 83.9759C52.2476 84.135 53.4553 84.2519 54.7988 84.2117Z" fill="var(--fill-0, #EBEAE2)"/>
<path id="Vector_17" d="M46.23 100.437C48.7617 100.407 51.2576 100.106 53.6868 99.3661C55.1032 98.9349 56.4807 98.4049 57.7122 97.5555C57.855 97.4568 58.0014 97.3625 58.1448 97.2651C58.7251 96.8684 58.9966 96.2969 59.0677 95.616C59.1155 95.1565 58.8898 94.795 58.3749 94.6573C57.9461 94.5429 57.5086 94.5856 57.0817 94.6692C56.4851 94.7862 55.8922 94.9226 55.3006 95.0641C54.3714 95.2866 53.4441 95.518 52.5168 95.7493C51.04 96.1177 49.5519 96.4019 48.0324 96.5496C46.9945 96.6509 45.9634 96.7954 44.9167 96.7835C43.1922 96.7634 41.5614 96.3604 40.0136 95.6123C38.98 95.1125 38.1213 94.3813 37.3605 93.5345C36.7589 92.8643 36.4773 92.0464 36.3785 91.1643C36.3396 90.8198 36.3609 90.4696 36.3377 90.1226C36.3264 89.9516 36.2836 89.7812 36.2402 89.614C36.1981 89.4518 35.8681 89.2946 35.7002 89.3355C35.4399 89.399 35.2048 89.5159 35.0225 89.7058C33.8481 90.9311 33.3948 92.3513 33.9034 94.011C34.1486 94.8107 34.5705 95.5199 35.096 96.1661C35.5908 96.7747 36.1409 97.3298 36.7375 97.8403C37.2694 98.2955 37.8503 98.6702 38.489 98.9594C39.8426 99.5723 41.2533 99.9804 42.7207 100.221C43.8856 100.413 45.0537 100.465 46.23 100.437Z" fill="var(--fill-0, #EBEAE2)"/>
<path id="Vector_18" d="M139.296 84.3059C139.36 84.4706 139.498 84.5806 139.659 84.6617C139.852 84.7598 140.142 84.7164 140.238 84.5366C140.339 84.3499 140.452 84.1487 140.474 83.9444C140.529 83.4257 140.506 82.9033 140.406 82.3884C140.226 81.4498 140.084 80.5061 140.006 79.5524C139.982 79.2513 139.908 78.9533 139.834 78.659C139.805 78.5383 139.725 78.4264 139.654 78.3208C139.576 78.2058 139.442 78.1467 139.319 78.1875C139.206 78.2246 139.102 78.3164 139.019 78.4069C138.966 78.466 138.942 78.5647 138.932 78.649C138.772 79.9881 138.711 81.3291 138.879 82.6725C138.906 82.8876 138.914 83.1076 138.996 83.4433C139.049 83.6577 139.172 83.9827 139.296 84.3059ZM137.663 82.521C137.5 81.0927 137.458 79.6568 137.429 78.2221C137.396 76.612 137.45 75.0014 137.725 73.4095C138.31 70.0184 139.111 66.6782 140.116 63.3865C140.751 61.3062 141.365 59.2189 141.988 57.1348C142.088 56.8016 142.165 56.4603 142.287 56.1352C142.377 55.8932 142.507 55.6631 142.647 55.4449C142.713 55.3431 142.831 55.2519 142.945 55.2073C143.337 55.0526 143.716 55.091 144.051 55.3613C144.339 55.5946 144.483 55.9077 144.479 56.2754C144.471 57.0148 144.442 57.7522 144.344 58.4878C144.12 60.1714 143.78 61.833 143.372 63.4808C142.691 66.2275 142.142 68.9987 141.73 71.7989C141.247 75.0806 141.019 78.368 141.305 81.6836C141.371 82.4607 141.334 83.2484 141.317 84.0305C141.305 84.5529 141.219 85.0703 141.058 85.5708C140.965 85.8631 140.822 86.129 140.612 86.3598C140.179 86.835 139.411 86.8728 138.982 86.4126C138.806 86.2246 138.647 86.0083 138.532 85.7795C138.218 85.1558 137.965 84.507 137.834 83.8142C137.776 83.383 137.712 82.9529 137.663 82.521Z" fill="var(--fill-0, #EBEAE2)"/>
<path id="Vector_19" d="M81.8004 110.492C83.567 110.37 85.2374 109.964 86.6746 108.859C87.5924 108.154 88.2532 107.251 88.7197 106.197C88.8831 105.827 88.9397 105.448 88.8875 105.05C88.8511 104.775 88.7039 104.568 88.4858 104.407C88.1878 104.187 87.7873 104.167 87.512 104.375C87.3039 104.532 87.1058 104.703 86.9103 104.876C85.3172 106.289 83.467 106.641 81.4301 106.201C80.5317 106.007 79.6798 105.678 78.8701 105.246C77.4832 104.506 76.1762 103.644 74.9855 102.616C74.2933 102.019 73.6294 101.39 72.9504 100.779C72.4651 100.342 71.9785 99.9065 71.4881 99.4759C71.2228 99.2427 70.9173 99.0849 70.5734 98.9924C69.9805 98.8328 69.2953 99.115 69.0111 99.6507C68.754 100.136 68.6917 100.643 68.8684 101.166C69.106 101.869 69.4166 102.541 69.8208 103.164C70.0572 103.528 70.3125 103.884 70.5922 104.216C71.92 105.794 73.454 107.135 75.2332 108.187C76.1322 108.719 77.0369 109.241 77.995 109.662C79.2058 110.194 80.4795 110.442 81.8004 110.492Z" fill="var(--fill-0, #EBEAE2)"/>
<path id="Vector_20" d="M71.0881 62.7327C71.2579 62.722 71.3012 62.7207 71.3446 62.7163C72.0525 62.6421 72.5963 62.0707 72.1808 61.2056C72.0884 61.0132 71.9412 60.8422 71.7992 60.6794C71.3371 60.1519 70.7838 59.7282 70.2111 59.3302C68.6212 58.2244 66.8634 57.4894 65.005 56.9739C63.5785 56.5785 62.1262 56.3 60.6765 56.007C58.3749 55.5418 56.0689 55.0904 53.8082 54.4479C52.679 54.1273 51.5625 53.7633 50.4409 53.4156C50.0669 53.2999 49.6972 53.1698 49.3231 53.0547C48.6479 52.8473 47.9551 52.8033 47.256 52.8712C46.853 52.9101 46.5104 53.0906 46.2313 53.3892C45.8233 53.8255 45.8 54.5045 46.1923 54.9332C46.6978 55.4858 47.322 55.8863 47.9664 56.2503C48.3443 56.4634 48.7403 56.6533 49.1452 56.808C50.5692 57.3518 52.0177 57.8063 53.5183 58.1018C55.6533 58.523 57.8041 58.8405 59.956 59.158C61.9823 59.4566 63.9752 59.8973 65.904 60.6083C66.6396 60.8793 67.3613 61.1767 68.0692 61.513C68.8154 61.8676 69.5705 62.2046 70.3318 62.5246C70.6072 62.6409 70.9127 62.6861 71.0881 62.7327Z" fill="var(--fill-0, #EBEAE2)"/>
<path id="Vector_21" d="M98.3907 63.9599C96.4261 64.1014 94.4791 63.9631 92.5421 63.6192C91.5142 63.4369 90.4838 63.247 89.4465 63.1464C88.0615 63.0119 86.6696 62.9119 85.2789 62.8937C84.4585 62.883 83.6349 63.0471 82.8164 63.1571C82.5618 63.1917 82.3034 63.2772 82.0714 63.3904C81.8419 63.5029 81.6162 63.6531 81.4371 63.8342C80.8222 64.4553 81.0768 65.4518 81.9004 65.7265C82.3191 65.8655 82.746 65.9114 83.186 65.9076C83.8826 65.9013 84.5792 65.9095 85.2745 65.9177C87.1543 65.9409 89.0026 66.1899 90.8252 66.6513C92.693 67.1241 94.5897 67.3316 96.5173 67.2278C97.1265 67.1945 97.7294 67.1467 98.3253 66.9921C99.1665 66.7727 100.017 66.5897 100.864 66.3911C101.335 66.2804 101.774 66.0949 102.17 65.8177C102.312 65.719 102.446 65.6033 102.566 65.4795C102.954 65.0803 102.851 64.4145 102.369 64.1297C102.026 63.9266 101.66 63.7946 101.258 63.8009C100.78 63.8084 100.301 63.8248 99.8229 63.8512C99.3451 63.8782 98.8685 63.9235 98.3907 63.9599Z" fill="var(--fill-0, #EBEAE2)"/>
<path id="Vector_22" d="M149.266 57.0675C149.084 56.3439 148.73 55.9378 148.131 55.7674C147.863 55.6914 147.612 55.7498 147.392 55.9164C147.109 56.1308 146.887 56.403 146.767 56.7356C146.589 57.2253 146.414 57.7189 146.287 58.2231C145.903 59.742 145.65 61.2873 145.47 62.8426C145.204 65.1323 145.109 67.4351 144.959 69.7336C144.923 70.2843 145.076 70.7489 145.396 71.194C145.837 71.8083 146.33 72.3414 147.086 72.5558C147.21 72.591 147.341 72.6023 147.469 72.623C147.617 72.6476 147.856 72.4992 147.876 72.3646C147.908 72.1509 147.948 71.9365 147.957 71.7215C148.057 69.2891 148.184 66.8599 148.424 64.4363C148.565 63.0067 148.815 61.5953 149.03 60.1776C149.148 59.4044 149.293 58.6336 149.296 57.8477C149.297 57.5453 149.272 57.2423 149.266 57.0675Z" fill="var(--fill-0, #EBEAE2)"/>
<path id="Vector_23" d="M145.918 80.8286C145.882 80.7677 145.776 80.723 145.699 80.718C145.624 80.7123 145.521 80.7469 145.476 80.801C145.395 80.8984 145.326 81.0173 145.291 81.1386C145.022 82.0571 144.743 82.9731 144.51 83.9004C144.372 84.4467 144.304 85.0106 144.219 85.5689C144.167 85.9178 144.213 86.2617 144.339 86.5943C144.392 86.7326 144.58 86.8891 144.73 86.9011C144.913 86.9162 145.092 86.8684 145.196 86.7257C145.347 86.5182 145.489 86.2925 145.581 86.0543C146.011 84.9459 146.174 83.7847 146.203 82.6047C146.214 82.1721 146.237 81.7295 146.149 81.3492C146.099 81.1292 146.006 80.9751 145.918 80.8286ZM143.241 85.9109C143.312 85.0905 143.363 84.2669 143.471 83.4509C143.728 81.5164 144.029 79.5876 144.282 77.6525C144.444 76.4059 144.549 75.1516 144.688 73.9012C144.716 73.6453 144.769 73.3907 144.824 73.138C144.859 72.9751 145.122 72.8871 145.25 72.9909C145.754 73.3982 146.234 73.8276 146.84 74.103C147.489 74.3978 147.782 74.9706 147.831 75.6703C147.843 75.8438 147.857 76.018 147.851 76.1909C147.797 77.7072 147.75 79.2242 147.681 80.74C147.615 82.1747 147.368 83.5835 147.017 84.9748C146.825 85.7342 146.574 86.473 146.241 87.1815C146.017 87.6555 145.752 88.1063 145.377 88.4753C145.196 88.6545 144.977 88.8066 144.753 88.9292C144.503 89.0644 144.24 89.0103 144.025 88.8318C143.894 88.7236 143.764 88.5922 143.689 88.4439C143.554 88.1735 143.429 87.8931 143.362 87.6354C143.208 87.0507 143.191 86.478 143.241 85.9109Z" fill="var(--fill-0, #EBEAE2)"/>
<path id="Vector_24" d="M143.09 91.918C143.036 90.7122 142.019 89.6667 140.673 89.9087C140.175 89.998 139.736 90.5424 139.809 91.051C139.914 91.7816 140.074 92.502 140.462 93.1471C140.529 93.2577 140.605 93.364 140.686 93.4658C141.051 93.9285 141.726 94.009 142.2 93.6525C142.8 93.2005 143.038 92.5712 143.09 91.918Z" fill="var(--fill-0, #EBEAE2)"/>
<path id="Vector_25" d="M13.652 81.1839C13.195 81.2858 12.687 81.4077 12.1753 81.509C11.9207 81.5593 11.6579 81.6014 11.4007 81.5945C11.0839 81.585 10.8211 81.4442 10.6476 81.1538C10.4722 80.8602 10.4766 80.576 10.6526 80.2944C10.9141 79.8763 11.2901 79.5827 11.7207 79.3595C11.9904 79.2193 12.274 79.1055 12.5512 78.9785C16.4711 77.188 20.306 75.2291 24.0511 73.0966C24.693 72.7313 25.316 72.3283 25.9245 71.909C28.218 70.3291 30.5642 68.8259 32.7866 67.1429C33.6888 66.4596 34.5853 65.7705 35.417 64.9998C36.1218 64.3466 36.7725 63.6468 37.349 62.8786C37.8192 62.2518 38.2807 61.6187 38.7553 60.9951C39.23 60.3708 39.726 59.7641 40.322 59.2473C41.7409 58.017 43.3598 57.8542 45.0943 58.3816C45.337 58.4552 45.5772 58.5966 45.7695 58.7639C46.2587 59.1876 46.5082 59.7144 46.3687 60.3871C46.2869 60.7813 46.1285 61.1309 45.8758 61.4395C45.2634 62.1889 44.5618 62.8371 43.6842 63.2621C43.1366 63.5274 42.5733 63.7619 42.0081 63.987C41.3618 64.2454 40.7055 64.478 40.0542 64.7225C38.8289 65.1827 37.6576 65.7554 36.5204 66.4005C36.2186 66.5715 35.9256 66.7626 35.6452 66.9669C35.5082 67.0662 35.4032 67.2127 35.2963 67.3485C35.153 67.529 35.158 67.8031 35.2957 67.9495C35.4233 68.0847 35.5861 68.147 35.7653 68.1111C35.9344 68.0772 36.101 68.0212 36.2632 67.9602C36.8328 67.7459 37.398 67.5176 37.9714 67.3133C38.1298 67.2567 38.3115 67.2486 38.4825 67.2486C38.5529 67.2492 38.6315 67.3221 38.6918 67.3781C38.771 67.451 38.7604 67.5346 38.6849 67.6107C38.5944 67.7031 38.5133 67.8068 38.4152 67.8892C38.148 68.113 37.8764 68.3312 37.603 68.5462C34.0459 71.3469 30.4265 74.0647 26.7274 76.675C26.2653 77.0007 25.7969 77.3194 25.3405 77.6526C22.4555 79.7593 19.4347 81.658 16.3805 83.5044C15.264 84.1796 14.1173 84.8051 12.9712 85.4294C12.5141 85.6784 12.025 85.8708 11.5434 86.0707C11.1895 86.2178 10.8601 86.1317 10.5677 85.8947C10.3031 85.6797 10.2257 85.2276 10.4011 84.9447C10.635 84.5675 10.9462 84.2626 11.3184 84.0306C11.7981 83.7326 12.2872 83.4472 12.7857 83.1813C13.3239 82.894 13.8564 82.601 14.3392 82.2244C14.6548 81.9792 14.7711 81.685 14.6435 81.4467C14.497 81.1732 14.2298 81.1663 13.9676 81.16C13.8809 81.1575 13.7941 81.1726 13.652 81.1839Z" fill="var(--fill-0, #EBEAE2)"/>
<path id="Vector_26" d="M5.57572 84.4934C5.52354 83.2875 6.44456 82.1565 7.80754 82.2791C8.31049 82.3244 8.7952 82.828 8.76753 83.341C8.72667 84.0778 8.63174 84.8096 8.30168 85.4867C8.24447 85.603 8.17846 85.7155 8.10679 85.8236C7.78365 86.3165 7.11787 86.4567 6.61493 86.143C5.97744 85.7451 5.68511 85.1396 5.57572 84.4934Z" fill="var(--fill-0, #EBEAE2)"/>
<path id="Vector_27" d="M104.667 28.5775C104.716 28.9635 104.787 29.3433 104.871 29.7224C104.924 29.9632 104.975 30.2058 105.01 30.4498C105.055 30.7685 105.026 31.0816 104.894 31.3821C104.768 31.6719 104.56 31.8775 104.277 32.0064C104.051 32.1088 103.818 32.1893 103.569 32.2132C103.271 32.2415 102.974 32.2836 102.672 32.256C101.919 32.1862 101.28 31.8913 100.785 31.3085C100.683 31.1878 100.579 31.0671 100.485 30.9401C100.246 30.6189 99.9301 30.402 99.5635 30.253C99.4491 30.2065 99.3316 30.1675 99.2184 30.1191C98.9147 29.9883 98.6809 29.7808 98.5539 29.4715C98.4671 29.2603 98.3992 29.0415 98.3231 28.8259C98.2226 28.3713 98.1987 27.9149 98.2395 27.4553C98.2892 26.9027 98.4539 26.3859 98.7563 25.9163C98.9091 25.6793 99.0568 25.4398 99.2618 25.2399C99.4655 25.0425 99.6868 24.8746 99.9338 24.7319C100.533 24.3874 101.167 24.1258 101.819 23.9039C102.361 23.7197 102.924 23.6763 103.491 23.7059C103.927 23.7291 104.309 23.9039 104.639 24.1919C104.831 24.3597 104.953 24.564 105.014 24.8142C105.099 25.1669 105.069 25.5159 105.007 25.8641C104.948 26.1936 104.865 26.5186 104.804 26.848C104.745 27.1592 104.689 27.4723 104.654 27.7873C104.624 28.0488 104.634 28.3122 104.667 28.5775ZM101.844 37.3854C101.916 37.7337 101.932 38.0851 101.954 38.4353C101.966 38.6258 101.934 38.8238 101.893 39.0118C101.841 39.2526 101.762 39.4871 101.688 39.7228C101.668 39.7888 101.629 39.8498 101.591 39.9089C101.516 40.0277 101.348 40.0673 101.216 40.0051C101.048 39.9259 100.935 39.7926 100.865 39.6266C100.824 39.5298 100.805 39.4242 100.779 39.3217C100.66 38.8433 100.416 38.446 100.022 38.1448C99.8691 38.0273 99.7144 37.911 99.5573 37.7984C99.4975 37.7557 99.3592 37.8242 99.3485 37.9015C99.3366 37.9877 99.3228 38.0763 99.3316 38.1618C99.3536 38.3737 99.4303 38.5717 99.5044 38.7704C99.5843 38.9847 99.6635 39.2016 99.715 39.4242C99.8194 39.8718 99.7226 40.2974 99.5296 40.7054C99.507 40.7526 99.4718 40.7941 99.4403 40.8362C99.3366 40.9733 99.1983 41.0386 99.0273 41.0292C98.8682 41.0204 98.7123 40.9934 98.5658 40.9261C98.2452 40.7771 97.9327 40.6118 97.6461 40.4056C96.9727 39.9221 96.6276 39.2513 96.5591 38.4353C96.5446 38.2624 96.5704 38.0832 96.5981 37.9097C96.6609 37.5086 96.7527 37.1138 96.8929 36.7322C97.0501 36.3015 97.201 35.8684 97.3682 35.4415C97.5379 35.0064 97.6008 34.5588 97.5838 34.0949C97.5719 33.7598 97.575 33.4247 97.5643 33.0902C97.5505 32.6344 97.7341 32.2679 98.0673 31.9724C98.32 31.748 98.601 31.5675 98.9336 31.482C99.0015 31.4644 99.0707 31.4487 99.1404 31.4374C99.4076 31.3947 99.6239 31.4852 99.798 31.6895C99.9376 31.8536 100.037 32.0372 100.085 32.2478C100.127 32.437 100.173 32.6256 100.217 32.8149C100.301 33.2493 100.431 33.668 100.626 34.0678C100.781 34.384 100.921 34.7078 101.06 35.0316C101.387 35.7942 101.677 36.5681 101.844 37.3854ZM96.4063 25.8509C96.1278 26.0785 95.7971 26.2005 95.4476 26.2715C95.1364 26.3382 94.8233 26.3734 94.5033 26.3539C94.2047 26.3357 93.9067 26.3124 93.6118 26.2583C93.2132 26.1854 92.8146 26.115 92.4179 26.0333C92.2991 26.0094 92.1847 25.9578 92.0728 25.9082C91.9835 25.8692 91.9527 25.7164 92.0018 25.6303C92.0741 25.5026 92.1809 25.4102 92.3054 25.3442C92.5399 25.2191 92.7857 25.1242 93.0548 25.1034C93.3716 25.0795 93.6872 25.0714 94.0041 25.1041C94.3015 25.1349 94.6007 25.1537 94.8981 25.1845C95.0942 25.2053 95.2835 25.1783 95.4752 25.1456C95.7663 25.0972 96.0027 24.9551 96.202 24.7451C96.3591 24.5785 96.5132 24.4094 96.6672 24.2403C96.9413 23.9404 97.2399 23.6663 97.5631 23.4211C97.702 23.3155 97.856 23.2268 98.0107 23.1451C98.0673 23.1149 98.1459 23.1237 98.2144 23.1193C98.2521 23.1174 98.3175 23.1948 98.3112 23.2287C98.3018 23.2803 98.298 23.3343 98.2798 23.3821C98.1848 23.6311 98.049 23.8593 97.8906 24.0705C97.5536 24.5219 97.2104 24.9695 96.8571 25.4083C96.7257 25.5718 96.5685 25.7183 96.4063 25.8509ZM94.8377 32.205C94.7906 32.6853 94.5938 33.1242 94.3511 33.5378C94.2443 33.7195 94.1148 33.888 93.989 34.0584C93.874 34.2143 93.7482 34.3627 93.6313 34.5173C93.3207 34.9279 93.085 35.3811 92.8762 35.8495C92.8259 35.962 92.7819 36.0777 92.7304 36.1896C92.3532 37.0044 91.7132 37.4797 90.8349 37.6299C90.5407 37.6809 90.2402 37.7054 89.9409 37.7211C88.9784 37.7714 88.0411 37.6368 87.1351 37.3049C86.5416 37.0874 86.0437 36.7372 85.6627 36.2261C85.339 35.791 85.1516 35.3007 85.0668 34.7719C84.9687 34.1615 84.9297 33.5492 85.014 32.9293C85.1089 32.2201 85.3321 31.5556 85.6697 30.9307C85.9526 30.4076 86.3732 30.0065 86.8667 29.6828C87.2646 29.4219 87.672 29.1786 88.1071 28.9793C88.637 28.7372 89.1714 28.5096 89.7203 28.3147C90.1899 28.1481 90.6765 28.067 91.1694 28.0249C91.485 27.9979 91.8025 27.969 92.1199 27.9998C92.6782 28.0538 93.1824 28.2412 93.6143 28.6083C93.7772 28.7466 93.9192 28.9032 94.0261 29.0874C94.1324 29.2697 94.2367 29.4545 94.3235 29.6476C94.4964 30.0329 94.6586 30.424 94.7516 30.7924C94.8553 31.289 94.883 31.7486 94.8377 32.205ZM84.5984 27.2655C84.567 27.5478 84.4827 27.8175 84.3608 28.0746C84.3538 28.0903 84.3444 28.106 84.3387 28.123C84.1577 28.6272 83.8804 29.0729 83.5353 29.481C83.2725 29.7921 83.0638 30.1411 82.8563 30.49C82.5627 30.9854 82.398 31.5191 82.3854 32.0969C82.3766 32.4848 82.3634 32.8721 82.3609 33.26C82.3609 33.436 82.3817 33.6114 82.3961 33.7868C82.4326 34.191 82.4628 34.594 82.4068 35.0002C82.2905 35.8476 81.7693 36.4574 80.9413 36.6856C80.7716 36.7328 80.5987 36.7762 80.4246 36.7982C79.7142 36.8881 79.0534 36.7535 78.4738 36.3154C78.2349 36.1349 78.0066 35.9394 77.7822 35.7414C77.5553 35.5427 77.3195 35.3585 77.0479 35.2258C76.9058 35.1567 76.7587 35.0938 76.6091 35.0442C76.3702 34.9643 76.1225 34.9486 75.8786 35.0184C75.6246 35.0907 75.3706 35.1674 75.1248 35.2642C74.894 35.3554 74.6596 35.4283 74.4188 35.4836C74.1566 35.544 73.8951 35.5471 73.6317 35.4893C72.7961 35.3044 72.0147 34.997 71.3143 34.4953C70.8692 34.176 70.4398 33.8371 70.0406 33.463C69.5358 32.9909 69.0989 32.4641 68.7562 31.8593C68.4161 31.2595 68.1074 30.6434 67.8641 30.0015C67.5517 29.1767 67.2857 28.333 67.1525 27.4572C67.0651 26.8813 67.0192 26.3011 67.0405 25.7177C67.0487 25.4863 67.089 25.2612 67.1575 25.0425C67.1883 24.9431 67.2442 24.8507 67.2964 24.7596C67.3518 24.664 67.4875 24.6539 67.568 24.7407C67.6271 24.8042 67.6931 24.8702 67.7258 24.9482C67.8503 25.2399 67.9723 25.5335 68.0452 25.844C68.1099 26.1188 68.1822 26.3916 68.2545 26.6645C68.3815 27.1441 68.5601 27.6031 68.7864 28.0444C68.8832 28.2336 68.9907 28.416 69.146 28.5637C69.2082 28.6234 69.2862 28.6681 69.3616 28.7127C69.4314 28.7542 69.5616 28.6869 69.5666 28.6096C69.5729 28.5216 69.5773 28.4336 69.5798 28.3456C69.5848 28.1343 69.5842 27.9225 69.5943 27.7112C69.6075 27.427 69.6584 27.1498 69.8005 26.8983C69.8432 26.8229 69.8985 26.7525 69.9576 26.6877C70.0645 26.5714 70.2739 26.5689 70.3902 26.6739C70.4838 26.7581 70.5574 26.8568 70.5926 26.9782C70.6316 27.1133 70.663 27.251 70.6957 27.3887C70.7605 27.6634 70.8208 27.9388 70.8887 28.2129C70.9145 28.3147 70.9472 28.4172 70.9937 28.5115C71.0597 28.6442 71.1666 28.7328 71.3238 28.7416C71.3935 28.746 71.464 28.7498 71.5344 28.7511C71.5878 28.7523 71.6406 28.7441 71.6934 28.7492C72.1071 28.7881 72.4378 28.9547 72.6163 29.354C72.6666 29.4665 72.7144 29.5803 72.7716 29.689C72.8785 29.8915 72.9797 30.0989 73.1042 30.2894C73.4651 30.8414 73.9259 31.3016 74.4489 31.6989C74.7224 31.907 75.0374 32.0183 75.3762 32.0554C75.5762 32.0774 75.7616 32.0353 75.9194 31.8989C76.0382 31.7958 76.0747 31.6688 76.0477 31.5185C76.0282 31.4116 75.9817 31.3167 75.91 31.2369C75.8044 31.1187 75.6881 31.0099 75.5856 30.8892C75.502 30.7918 75.4756 30.671 75.4844 30.5428C75.4932 30.4171 75.6296 30.3083 75.7421 30.3441C75.8427 30.3768 75.9408 30.4164 76.0395 30.4542C76.2866 30.5485 76.5311 30.649 76.7807 30.7371C77.1498 30.8672 77.5339 30.9232 77.9237 30.9257C78.0815 30.9269 78.2412 30.9106 78.3971 30.8861C78.6963 30.8402 78.917 30.6717 79.0566 30.407C79.1389 30.2517 79.2005 30.0857 79.264 29.921C79.3847 29.6067 79.5425 29.3125 79.7324 29.034C79.9493 28.7158 80.2423 28.5021 80.6056 28.3826C80.8401 28.3053 81.0727 28.2211 81.3104 28.1551C81.8077 28.0167 82.1849 27.7074 82.5112 27.3277C82.625 27.1951 82.7161 27.041 82.8054 26.8889C82.9569 26.6292 83.0657 26.3501 83.1493 26.0603C83.2442 25.7334 83.2744 25.4021 83.2059 25.067C83.1549 24.8256 83.0946 24.586 83.038 24.3452C83.0474 24.3427 83.0562 24.3402 83.065 24.3377C82.9475 23.9687 82.8255 23.6003 82.713 23.2293C82.6048 22.8748 82.503 22.5189 82.4055 22.1612C82.3735 22.043 82.3565 21.9192 82.3464 21.7966C82.3402 21.7287 82.3553 21.6564 82.3716 21.5885C82.4169 21.3986 82.6262 21.3075 82.7846 21.4112C82.8569 21.459 82.9286 21.5143 82.9883 21.5778C83.06 21.6545 83.1248 21.74 83.182 21.8286C83.6032 22.4818 83.9559 23.1696 84.2488 23.892C84.5097 24.5389 84.6286 25.2116 84.7046 25.8968C84.7128 25.9666 84.716 26.0383 84.7103 26.1081C84.6751 26.4941 84.6418 26.8807 84.5984 27.2655ZM106.059 31.1784C105.997 30.9395 105.957 30.6943 105.886 30.4586C105.713 29.8783 105.657 29.2817 105.63 28.6819C105.595 27.8703 105.647 27.0612 105.727 26.2533C105.789 25.6221 105.874 24.9934 105.893 24.3578C105.911 23.7348 105.757 23.1721 105.39 22.6692C105.337 22.5981 105.285 22.5271 105.23 22.4579C105.067 22.2498 104.902 22.0436 104.738 21.8362C104.294 21.2741 103.964 20.6649 103.852 19.942C103.764 19.3673 103.626 18.7996 103.509 18.2294C103.42 17.7956 103.278 17.3782 103.117 16.9677C102.853 16.2925 102.511 15.655 102.154 15.0263C101.806 14.4108 101.399 13.8375 100.936 13.3006C100.451 12.7379 99.9169 12.2255 99.3856 11.7094C98.9292 11.2655 98.4394 10.8588 97.9321 10.479C97.084 9.84532 96.1963 9.26693 95.2835 8.72878C94.2927 8.14536 93.2516 7.66631 92.201 7.20422C91.732 6.99802 91.2555 6.81193 90.7664 6.66104C89.7712 6.35488 88.7609 6.099 87.7462 5.87331C86.1078 5.50867 84.4469 5.29617 82.767 5.23456C82.4326 5.22262 82.0969 5.21319 81.7649 5.26474C81.6442 5.28297 81.5254 5.32195 81.411 5.36596C81.2758 5.41751 81.2198 5.58851 81.2903 5.72242C81.3223 5.78277 81.3632 5.84627 81.4166 5.88713C81.4996 5.95063 81.5945 6.0003 81.6888 6.04871C81.924 6.16942 82.1641 6.28132 82.398 6.4058C82.6155 6.52148 82.8343 6.63904 83.0386 6.77546C83.2291 6.90246 83.4108 7.04517 83.5799 7.19919C83.7981 7.39723 83.9188 7.64682 83.9024 7.9511C83.8987 8.03912 83.8949 8.12713 83.8961 8.21515C83.8974 8.30065 84.0345 8.41695 84.1219 8.40061C84.2074 8.38552 84.296 8.36729 84.3733 8.32957C84.6449 8.19503 84.9341 8.1177 85.2277 8.05357C85.6716 7.95613 86.1041 8.00768 86.5291 8.15668C86.6969 8.21577 86.8535 8.29813 86.9912 8.40941C87.2533 8.62002 87.408 8.88469 87.3809 9.23424C87.3684 9.39204 87.3564 9.55047 87.3476 9.7089C87.3432 9.78811 87.413 9.88618 87.4909 9.91259C87.5909 9.94654 87.6953 9.9698 87.7934 10.0094C87.9562 10.076 88.1222 10.1395 88.2737 10.2276C88.5754 10.4023 88.7911 10.6513 88.8602 11.0052C88.8703 11.0574 88.8841 11.109 88.8929 11.1605C88.9149 11.2869 88.9715 11.3931 89.0646 11.4812C89.1419 11.5534 89.2148 11.6301 89.2902 11.7043C89.5449 11.9545 89.7353 12.2507 89.9032 12.5619C89.9271 12.6065 89.9353 12.6618 89.9422 12.7134C89.9592 12.841 89.819 12.9611 89.7039 12.9177C89.6385 12.8932 89.5694 12.8712 89.5115 12.8328C89.3946 12.7549 89.2796 12.6719 89.1727 12.5801C88.9979 12.4298 88.8106 12.2972 88.605 12.1947C88.2787 12.0312 88.0241 11.7974 87.8631 11.4673C87.7713 11.2787 87.6148 11.1731 87.4187 11.1234C87.2992 11.0933 87.1766 11.0763 87.0553 11.053C86.9515 11.0335 86.8453 11.0222 86.7447 10.9908C86.2474 10.8355 85.979 10.3923 86.0733 9.88367C86.0959 9.76233 86.1349 9.64477 86.1632 9.52469C86.1996 9.37192 86.116 9.2487 85.9576 9.21161C85.8011 9.17577 85.6445 9.16446 85.4855 9.19589C85.2598 9.24115 85.0397 9.30151 84.8335 9.40775C84.5311 9.56304 84.2023 9.62905 83.8704 9.68312C83.6767 9.71518 83.4819 9.70575 83.2901 9.67432C82.8022 9.59385 82.4112 9.17514 82.525 8.60053C82.5527 8.46285 82.5979 8.32831 82.6237 8.19C82.64 8.10073 82.6111 8.01083 82.5527 7.9423C82.4961 7.87629 82.4307 7.81279 82.3578 7.76626C82.2088 7.67196 82.056 7.58332 81.8976 7.50473C80.7886 6.95086 79.6287 6.53531 78.421 6.25177C78.1286 6.18262 77.8312 6.14867 77.5333 6.11472C77.1039 6.06568 76.6889 6.1166 76.2841 6.26434C75.4391 6.57177 74.596 6.88548 73.78 7.26583C72.9326 7.66128 72.1058 8.09318 71.3194 8.60367C70.4593 9.1632 69.6389 9.77239 68.8882 10.4702C67.6956 11.5792 66.6218 12.792 65.7335 14.1631C65.1954 14.9942 64.7 15.8467 64.3209 16.7646C64.0983 17.3027 63.8902 17.8453 63.6884 18.3916C63.1477 19.8546 62.7825 21.359 62.587 22.9056C62.5606 23.1149 62.5398 23.3262 62.5291 23.5374C62.4656 24.8111 62.5499 26.0748 62.7806 27.329C62.8793 27.8665 62.9881 28.4028 63.1006 28.9856C63.2697 29.696 63.4539 30.4485 63.7224 31.1803C63.9166 31.7103 64.1153 32.2377 64.3479 32.752C64.7559 33.6554 65.2519 34.5066 65.831 35.3107C65.9133 35.4251 65.9976 35.5383 66.0768 35.6552C66.6231 36.4587 67.2354 37.2106 67.8723 37.943C68.374 38.5195 68.9624 38.9954 69.6144 39.394C69.8577 39.5424 70.1142 39.6555 70.3902 39.7247C70.9139 39.8548 71.4269 39.7813 71.8795 39.5204C72.2398 39.3123 72.7496 38.7854 72.9954 38.5365C73.3833 38.1423 74.2754 37.3005 74.7168 37.1509C74.9261 37.0805 75.3429 37.0867 75.5542 37.1213C75.712 37.1465 75.8647 37.1943 76.0018 37.276C76.2438 37.4206 76.4922 37.5583 76.7197 37.7236C77.405 38.2209 78.0821 38.7295 78.7604 39.2362C78.9736 39.3953 79.198 39.5323 79.4382 39.6467C79.8041 39.8221 80.1737 39.9919 80.5264 40.1912C81.1463 40.5426 81.8146 40.7633 82.4911 40.9657C82.5923 40.9959 82.6979 41.016 82.8022 41.0261C83.3819 41.0827 83.9622 41.1462 84.5443 41.1317C85.0026 41.1204 85.4609 41.1417 85.9192 41.1543C86.4146 41.1675 87.7676 41.287 87.9933 41.3228C88.5069 41.4033 89.0187 41.3693 89.5097 41.2034C90.105 41.0028 90.6155 40.6671 91.0141 40.1679C91.3221 39.7819 91.5724 39.3802 91.8848 38.9973C92.3035 38.4837 93.1623 37.9606 93.7891 37.7532C94.0274 37.6746 94.265 37.7016 94.3128 37.7161C94.3379 37.7242 94.3725 37.7689 94.3687 37.7909C94.3555 37.8581 94.3392 37.9311 94.3008 37.9858C94.1694 38.1731 94.0167 38.3466 93.8928 38.539C93.6168 38.969 92.2928 40.8991 91.7974 41.3549C91.0487 42.0458 90.3364 42.1011 89.8862 42.1967C89.7655 42.2218 89.6448 42.2507 89.526 42.2841C89.3864 42.3224 89.2695 42.3979 89.1752 42.5085C89.079 42.621 89.096 42.792 89.2073 42.8882C89.4003 43.0548 89.6291 43.1422 89.8749 43.1894C90.0478 43.2221 90.2226 43.2441 90.3967 43.2717C90.8041 43.3371 91.1794 43.4817 91.5183 43.7175C91.6057 43.7778 91.695 43.8357 91.7805 43.8973C92.0256 44.0758 92.2979 44.1091 92.5864 44.045C92.6895 44.0224 92.7901 43.9878 92.892 43.9589C93.1925 43.8734 93.4854 43.8998 93.7727 44.0167C93.8381 44.0431 93.901 44.0758 93.9658 44.1028C94.1179 44.1663 94.2738 44.1726 94.4322 44.1311C94.5008 44.1129 94.5687 44.094 94.6359 44.0714C95.0949 43.9168 95.5714 43.8746 96.0467 43.9256C96.654 43.9903 96.5126 43.9796 97.0614 43.752C97.1104 43.7319 97.1576 43.7074 97.2047 43.6835C97.382 43.5942 97.5706 43.5553 97.7687 43.5704C97.9082 43.581 98.0516 43.5861 98.1867 43.6206C98.4615 43.6904 98.7117 43.6269 98.9562 43.5138C99.0361 43.4767 99.1109 43.4295 99.1857 43.3824C99.4925 43.1906 99.8276 43.0856 100.188 43.0856C100.487 43.0863 100.739 42.985 100.961 42.7939C101.001 42.7594 101.044 42.7279 101.085 42.6946C101.306 42.5123 101.55 42.3759 101.835 42.323C101.887 42.313 101.938 42.2973 101.99 42.2872C102.149 42.2551 102.291 42.1872 102.413 42.0804C102.667 41.8566 102.951 41.6824 103.268 41.5636C103.356 41.5309 103.407 41.4599 103.439 41.3737C103.509 41.1883 103.522 40.9946 103.519 40.8004C103.515 40.5395 103.452 40.1503 103.391 39.8687C103.394 39.8662 103.363 39.7417 103.344 39.6826C103.34 39.665 103.327 39.6254 103.327 39.6254C103.235 39.328 103.13 39.0124 102.995 38.749C102.693 38.158 102.527 37.5337 102.436 36.8837C102.401 36.6391 102.367 36.3946 102.33 36.15C102.301 35.9583 102.259 35.7684 102.239 35.5754C102.211 35.3101 102.146 35.0555 102.053 34.8059C101.973 34.5909 101.895 34.3752 101.828 34.1558C101.797 34.0565 101.791 33.949 101.784 33.8446C101.777 33.7384 101.916 33.6485 102.008 33.7C102.083 33.7428 102.163 33.7893 102.217 33.8534C102.422 34.0974 102.599 34.3608 102.731 34.6519C102.833 34.8763 102.943 35.0982 103.004 35.3396C103.057 35.5484 103.16 35.7351 103.31 35.8885C103.536 36.1179 103.805 36.0802 103.999 35.8501C104.032 35.8105 104.058 35.7627 104.081 35.715C104.134 35.6037 104.187 35.4924 104.233 35.3774C104.4 34.9631 104.639 34.5965 104.945 34.2715C105.102 34.1043 105.246 33.9251 105.4 33.7554C105.938 33.165 106.275 32.0127 106.059 31.1784Z" fill="var(--fill-0, #EBEAE2)"/>
<path id="Vector_28" d="M76.1988 48.4472C76.1963 48.3303 76.1906 48.2423 76.1944 48.1543C76.2315 47.2339 76.163 46.3185 76.0391 45.4088C75.9178 44.518 75.8046 43.624 75.6191 42.7432C75.4488 41.9322 75.2614 41.1237 74.9182 40.363C74.8886 40.2989 74.8628 40.2329 74.8383 40.1668C74.7861 40.0273 74.8031 39.8902 74.8572 39.7544C74.9068 39.63 74.993 39.552 75.1256 39.5262C75.2885 39.4942 75.4431 39.5118 75.5814 39.6086C75.8725 39.8123 76.1334 40.0468 76.3176 40.3567C76.4987 40.6604 76.654 40.9766 76.791 41.3022C77.0035 41.8058 77.2154 42.3094 77.426 42.8142C77.69 43.4467 78.0943 43.9723 78.6368 44.3903C78.7909 44.5092 78.9486 44.6204 79.1391 44.6776C79.2624 44.7147 79.395 44.6242 79.3956 44.4916C79.3963 44.4211 79.3982 44.3495 79.3856 44.2809C79.3554 44.1257 79.3158 43.9716 79.2812 43.8164C79.229 43.5819 79.329 43.3486 79.5333 43.2279C79.6565 43.1556 79.7879 43.1103 79.9307 43.0902C80.1626 43.0575 80.3934 43.0802 80.6115 43.1487C81.039 43.2832 81.4143 43.507 81.701 43.8635C81.9104 44.1231 81.9978 44.4237 81.999 44.7481C82.0003 45.119 81.9575 45.4861 81.8808 45.8501C81.7815 46.3166 81.7205 46.7875 81.6822 47.2634C81.6243 47.9795 81.7262 48.6679 81.9424 49.3487C82.1216 49.912 82.3989 50.4207 82.7754 50.8708C83.0917 51.2493 83.423 51.6177 83.77 51.9678C84.3119 52.5123 84.9563 52.9102 85.6598 53.2133C85.7629 53.2579 85.8547 53.2466 85.9025 53.1887C85.9534 53.1271 85.9478 53.0586 85.9251 52.9894C85.8365 52.7216 85.7478 52.4538 85.6573 52.1866C85.5718 51.9326 85.5423 51.6705 85.5473 51.4045C85.5504 51.2606 85.5907 51.1273 85.6787 51.0097C85.7152 50.9613 85.822 50.928 85.8673 50.9594C85.9396 51.0097 86.0132 51.0581 86.0792 51.1153C86.435 51.4278 86.8468 51.6107 87.3164 51.6654C87.3686 51.6717 87.4201 51.6868 87.4729 51.69C87.6936 51.7038 87.8791 51.8019 88.0526 51.9276C88.1526 52.0005 88.245 52.0835 88.3462 52.1533C88.477 52.2426 88.6102 52.33 88.7492 52.4067C88.9365 52.511 89.1383 52.567 89.3565 52.567C89.5149 52.567 89.6733 52.5877 89.8318 52.5902C90.0506 52.594 90.2486 52.6594 90.434 52.7688C90.5855 52.8581 90.7358 52.9511 90.8861 53.0441C91.3029 53.3025 91.753 53.4302 92.2465 53.3899C92.3346 53.383 92.4226 53.3799 92.5106 53.3773C92.7979 53.3692 93.072 53.427 93.3323 53.5477C93.5246 53.6364 93.7176 53.7231 93.9081 53.8149C94.2897 53.9972 94.6896 54.0142 95.0982 53.9501C95.1856 53.9362 95.2717 53.9174 95.3579 53.8966C95.6408 53.8281 95.9168 53.8476 96.189 53.9532C96.3858 54.0305 96.5876 54.0922 96.7963 54.1337C97.2634 54.2273 97.7085 54.1695 98.1354 53.962C98.2146 53.9237 98.2913 53.8797 98.3693 53.8382C98.6327 53.6986 98.9011 53.6577 99.1803 53.7929C99.3928 53.8966 99.6172 53.9224 99.8505 53.8979C100.083 53.8728 100.298 53.8004 100.494 53.6722C100.597 53.6049 100.69 53.5213 100.796 53.4597C100.853 53.4264 100.927 53.4207 100.995 53.4119C101.029 53.4075 101.064 53.4232 101.098 53.4327C101.357 53.5043 101.616 53.532 101.875 53.432C101.924 53.4138 102.024 53.5094 102.014 53.5628C101.983 53.7539 101.95 53.9444 101.914 54.1349C101.884 54.2908 101.838 54.4442 101.821 54.6014C101.791 54.9006 101.791 55.1986 101.879 55.4929C101.966 55.7802 102.027 56.075 102.119 56.3598C102.306 56.9382 102.167 57.4361 101.776 57.8806C101.611 58.0679 101.418 58.2182 101.207 58.3502C100.912 58.5351 100.599 58.6218 100.25 58.569C99.9881 58.5294 99.7241 58.5049 99.4632 58.4653C99.2136 58.4269 99.1583 58.2622 99.3173 58.0478C99.3588 57.9912 99.4091 57.9403 99.45 57.8831C99.5399 57.7586 99.4996 57.5983 99.3563 57.5285C99.2784 57.4902 99.1947 57.4518 99.1099 57.4405C98.8244 57.4009 98.5472 57.4393 98.2863 57.5694C97.9525 57.7366 97.6545 57.9542 97.3791 58.205C97.0799 58.4791 96.7787 58.7513 96.4769 59.0229C96.3983 59.0933 96.3191 59.1637 96.2343 59.2272C96.0494 59.3655 95.8483 59.468 95.6244 59.5353C95.2498 59.6472 94.8675 59.7113 94.4796 59.7371C93.0249 59.8327 91.633 59.5868 90.3171 58.9481C89.9047 58.7475 89.4942 58.5426 89.1138 58.283C88.763 58.0441 88.3808 57.8598 88.0023 57.6694C86.5211 56.9237 85.0167 56.2253 83.4934 55.5708C82.7962 55.2716 82.1116 54.9453 81.4338 54.6039C80.355 54.0601 79.3837 53.361 78.4929 52.5487C78.232 52.3111 77.9786 52.0647 77.7296 51.8144C77.2399 51.3222 76.8306 50.774 76.5829 50.1176C76.483 49.853 76.3962 49.5858 76.3503 49.3054C76.3025 49.0093 76.2466 48.715 76.1988 48.4472Z" fill="var(--fill-0, #EBEAE2)"/>
<path id="Vector_29" d="M101.979 45.5966C101.981 45.6356 101.993 45.6884 101.984 45.7381C101.976 45.7859 101.958 45.8424 101.925 45.8745C101.851 45.9455 101.77 46.0109 101.684 46.065C101.353 46.2725 100.997 46.38 100.604 46.3127C100.503 46.2957 100.403 46.2687 100.307 46.2316C100.172 46.1794 100.078 46.0839 100.048 45.9349C99.9619 45.5124 99.9072 45.0868 99.9374 44.6549C99.9613 44.3041 100.218 44.0494 100.57 44.0249C100.654 44.0193 100.741 44.0325 100.824 44.052C101.066 44.1098 101.259 44.25 101.42 44.4367C101.707 44.7699 101.879 45.1591 101.979 45.5966Z" fill="var(--fill-0, #EBEAE2)"/>
<path id="Vector_30" d="M98.7877 46.021C98.8028 46.1392 98.8261 46.2574 98.8305 46.3769C98.8399 46.617 98.7022 46.8094 98.4772 46.8848C98.0823 47.0175 97.7045 47.0087 97.3569 46.7484C97.2858 46.6956 97.2311 46.6309 97.2085 46.546C97.1858 46.4636 97.1657 46.38 97.1538 46.2958C97.1104 45.989 97.1205 45.6815 97.1632 45.3766C97.1796 45.2603 97.2154 45.1403 97.2714 45.0378C97.3883 44.8253 97.5914 44.7253 97.8334 44.7913C98.1471 44.8775 98.3715 45.0805 98.5394 45.3502C98.6677 45.5564 98.7469 45.7815 98.7877 46.021Z" fill="var(--fill-0, #EBEAE2)"/>
<path id="Vector_31" d="M95.7906 46.2675C95.807 46.3511 95.8296 46.4341 95.839 46.5183C95.8592 46.6969 95.7542 46.8647 95.5926 46.9238C95.3487 47.0131 95.0947 47.0489 94.8376 47.0376C94.7206 47.0326 94.5993 46.9999 94.4905 46.9553C94.1051 46.7962 94.0712 46.7044 94.0618 46.3442C94.0561 46.1235 94.0857 45.9016 94.1033 45.6809C94.1089 45.613 94.1252 45.5464 94.1416 45.4798C94.2629 44.9724 94.7458 44.9152 95.067 45.0881C95.2827 45.2038 95.4543 45.371 95.5618 45.5917C95.6661 45.8067 95.763 46.0261 95.7906 46.2675Z" fill="var(--fill-0, #EBEAE2)"/>
<path id="Vector_32" d="M92.0186 51.0442C92.0344 50.8908 92.0457 50.7374 92.0664 50.5852C92.0802 50.4878 92.2072 50.4123 92.3059 50.4475C92.6794 50.5815 93.066 50.655 93.4545 50.7242C93.5206 50.7361 93.584 50.7688 93.6425 50.8028C93.7198 50.8468 93.7771 50.9159 93.784 51.0065C93.8097 51.3516 93.7651 51.6923 93.6922 52.0281C93.6626 52.1632 93.5954 52.2846 93.4916 52.382C93.3596 52.5071 93.2049 52.5631 93.022 52.5385C92.6467 52.4889 92.3914 52.2776 92.2443 51.94C92.1205 51.6565 92.0212 51.3629 92.0186 51.0442Z" fill="var(--fill-0, #EBEAE2)"/>
<path id="Vector_33" d="M99.2075 50.999C99.3829 50.9732 99.6017 50.9405 99.8211 50.9097C99.9041 50.8984 99.9972 50.9688 100.008 51.0468C100.015 51.0977 100.027 51.1486 100.025 51.1989C100.017 51.5252 99.9588 51.8439 99.8482 52.1501C99.7319 52.4739 99.366 52.7203 99.012 52.7279C98.9617 52.7291 98.9083 52.7241 98.8618 52.7071C98.6832 52.6392 98.5179 52.5468 98.4141 52.3815C98.1872 52.02 98.1212 51.6226 98.1784 51.2033C98.191 51.1115 98.2608 51.0499 98.3469 51.0298C98.4456 51.0059 98.5487 50.9958 98.6505 50.994C98.8209 50.9895 98.9913 50.9965 99.2075 50.999Z" fill="var(--fill-0, #EBEAE2)"/>
<path id="Vector_34" d="M96.8506 51.4208C96.8318 51.6547 96.8204 51.8936 96.7909 52.1306C96.7651 52.3362 96.6859 52.5254 96.5583 52.692C96.4847 52.7889 96.3955 52.8674 96.2848 52.9184C96.1553 52.9781 96.0227 52.9863 95.8881 52.9309C95.6209 52.8215 95.4292 52.6267 95.321 52.367C95.1532 51.9634 95.1148 51.5409 95.2255 51.1134C95.2343 51.0788 95.3022 51.0424 95.3462 51.0373C95.4116 51.0285 95.4845 51.0355 95.5474 51.0562C95.7473 51.1222 95.9497 51.1241 96.1553 51.1065C96.2572 51.0977 96.3603 51.0946 96.4621 51.0952C96.513 51.0958 96.5633 51.1084 96.6136 51.1191C96.7463 51.1486 96.8525 51.2838 96.8506 51.4208Z" fill="var(--fill-0, #EBEAE2)"/>
<path id="Vector_35" d="M103.984 44.536C103.984 44.5618 103.99 44.6303 103.989 44.6988C103.986 45.0327 103.798 45.2835 103.465 45.3791C103.387 45.4011 103.295 45.3835 103.212 45.3684C103.143 45.3564 103.091 45.3049 103.06 45.2408C103.038 45.1949 103.021 45.1458 103.005 45.0968C102.937 44.8843 102.872 44.6705 102.803 44.4587C102.722 44.2129 102.61 43.9815 102.465 43.7665C102.427 43.7093 102.385 43.6546 102.35 43.5955C102.215 43.3679 102.277 43.173 102.52 43.0404C102.627 42.9813 102.738 42.9398 102.862 42.9404C103.06 42.941 103.237 43.0027 103.371 43.1498C103.463 43.251 103.543 43.3648 103.614 43.4805C103.78 43.7458 103.933 44.1877 103.984 44.536Z" fill="var(--fill-0, #EBEAE2)"/>
<path id="Vector_36" d="M92.916 45.8979C92.96 46.0632 92.9612 46.2506 92.9267 46.4386C92.8946 46.6152 92.7651 46.7366 92.5821 46.7743C92.3558 46.8208 92.1395 46.7925 91.9277 46.7051C91.6812 46.6039 91.5379 46.4423 91.5561 46.1557C91.5706 45.9331 91.563 45.7093 91.6404 45.4955C91.6875 45.366 91.7453 45.2428 91.8378 45.1372C91.961 44.9976 92.1169 44.9404 92.2973 44.9517C92.4671 44.9624 92.5884 45.0624 92.6639 45.2026C92.7783 45.4144 92.865 45.6389 92.916 45.8979Z" fill="var(--fill-0, #EBEAE2)"/>
<path id="Vector_37" d="M90.6845 50.2792C90.6889 50.4515 90.6738 50.6212 90.6059 50.7815C90.5324 50.9544 90.4594 51.1273 90.3783 51.2964C90.3494 51.3561 90.301 51.4089 90.2551 51.4586C90.103 51.6233 89.8641 51.6221 89.7119 51.458C89.6774 51.4203 89.6403 51.3825 89.6158 51.3385C89.402 50.9563 89.2976 50.5483 89.3417 50.1082C89.3479 50.0416 89.3706 49.9755 89.3901 49.9102C89.4422 49.7385 89.5749 49.6675 89.7459 49.7209C89.9741 49.792 90.2023 49.863 90.4293 49.9391C90.6059 49.9982 90.6814 50.1044 90.6845 50.2792Z" fill="var(--fill-0, #EBEAE2)"/>
<path id="Vector_38" d="M90.3359 45.2755C90.3711 45.4434 90.3611 45.6131 90.3114 45.7797C90.2818 45.8797 90.2234 45.9639 90.1404 46.0299C90.0253 46.1217 89.8965 46.1582 89.7563 46.1104C89.6777 46.0834 89.5966 46.0463 89.5324 45.9935C89.3822 45.8709 89.2835 45.7068 89.2565 45.515C89.22 45.2585 89.2376 45.002 89.347 44.7619C89.3747 44.7015 89.4205 44.6418 89.4734 44.6041C89.5255 44.5664 89.5978 44.5399 89.6613 44.5393C89.8223 44.5381 89.9618 44.6066 90.0668 44.7279C90.2026 44.8851 90.3083 45.0605 90.3359 45.2755Z" fill="var(--fill-0, #EBEAE2)"/>
<path id="Vector_39" d="M101.976 50.662C101.993 50.9185 101.982 51.1738 101.914 51.4227C101.816 51.7811 101.622 52.0734 101.294 52.2633C101.238 52.2966 101.17 52.3142 101.104 52.3287C101.008 52.35 100.893 52.2463 100.903 52.1495C100.91 52.0822 100.909 52.0112 100.93 51.9477C101.047 51.59 101.113 51.2222 101.157 50.85C101.172 50.718 101.243 50.6293 101.367 50.5878C101.512 50.5394 101.658 50.4948 101.805 50.4508C101.855 50.4357 101.946 50.5049 101.956 50.5621C101.962 50.5954 101.969 50.6287 101.976 50.662Z" fill="var(--fill-0, #EBEAE2)"/>
<path id="Vector_40" d="M88.1439 49.778C88.159 49.9647 88.1691 50.154 88.0886 50.3294C88.054 50.4048 88.0075 50.4784 87.9516 50.5393C87.8629 50.6349 87.7403 50.6456 87.6253 50.5953C87.4398 50.5148 87.3254 50.3671 87.2663 50.186C87.1871 49.9421 87.1569 49.6881 87.1952 49.431C87.2003 49.3977 87.2078 49.3637 87.2204 49.3329C87.3222 49.0802 87.5253 48.8916 87.8654 49.111C88.0169 49.2084 88.1137 49.3417 88.132 49.5234C88.1401 49.6083 88.1402 49.6931 88.1439 49.778Z" fill="var(--fill-0, #EBEAE2)"/>
<path id="Vector_41" d="M73.4016 47.0419C73.3978 46.5138 73.2036 46.0889 72.8314 45.7387C72.5359 45.4608 72.1952 45.4004 71.8261 45.5344C71.4929 45.6551 71.3332 45.9323 71.2641 46.2649C71.2484 46.3422 71.2433 46.4277 71.2597 46.5038C71.3986 47.1375 71.7431 47.6008 72.3718 47.8228C72.5692 47.8925 72.7673 47.8932 72.959 47.8077C73.1941 47.7027 73.3488 47.5279 73.3859 47.2658C73.3972 47.1865 73.3972 47.1054 73.4016 47.0419Z" fill="var(--fill-0, #EBEAE2)"/>
<path id="Vector_42" d="M73.4622 50.3049C73.1297 49.7095 72.6946 49.3248 72.1527 49.1117C71.722 48.9425 71.387 49.0419 71.1487 49.3744C70.9337 49.675 70.9676 50.066 71.1154 50.4759C71.1493 50.5708 71.1983 50.6702 71.26 50.7475C71.7761 51.3957 72.3658 51.7502 73.0517 51.6924C73.2673 51.6742 73.4402 51.5774 73.554 51.3869C73.6936 51.153 73.7194 50.8795 73.588 50.5652C73.5484 50.4696 73.4981 50.3778 73.4622 50.3049Z" fill="var(--fill-0, #EBEAE2)"/>
<path id="Vector_43" d="M73.693 54.1461C72.9851 53.454 72.2841 53.0365 71.5617 52.8467C70.9877 52.6964 70.6734 52.8655 70.5992 53.31C70.532 53.7124 70.7922 54.1927 71.1896 54.6805C71.2813 54.7937 71.3926 54.91 71.5052 54.998C72.4469 55.7304 73.3019 56.0894 74.0299 55.9234C74.2588 55.8719 74.3952 55.7279 74.4122 55.4758C74.4336 55.1665 74.3059 54.8239 73.9815 54.4517C73.8828 54.3391 73.7747 54.2329 73.693 54.1461Z" fill="var(--fill-0, #EBEAE2)"/>
<path id="Vector_44" d="M140.575 47.1117C140.551 47.4839 140.542 47.8246 140.502 48.1622C140.481 48.3427 140.422 48.5231 140.351 48.6916C140.321 48.7626 140.221 48.8374 140.144 48.8487C139.856 48.8902 139.592 48.8117 139.365 48.6281C139.212 48.5042 139.138 48.3332 139.135 48.1402C139.126 47.5216 139.122 46.903 139.12 46.285C139.117 45.4501 139.117 44.6146 139.117 43.7797C139.116 43.1303 139.114 42.4808 139.119 41.8314C139.13 40.4709 139.148 39.1098 139.154 37.7494C139.16 36.3575 139.156 34.9662 139.157 33.5743C139.157 33.4504 139.162 33.3266 139.164 33.2034C139.17 32.8544 139.273 32.5363 139.444 32.2333C139.641 31.8838 139.836 31.5317 140.008 31.1696C140.1 30.9772 140.159 30.7641 140.203 30.5541C140.312 30.0386 140.179 29.5708 139.863 29.1578C139.732 28.9862 139.57 28.8391 139.431 28.6731C139.289 28.5021 139.207 28.3003 139.214 28.0752C139.25 26.9932 139.222 25.9094 139.323 24.8299C139.331 24.7388 139.348 24.6457 139.377 24.559C139.417 24.4389 139.488 24.3339 139.615 24.2943C139.792 24.2396 139.969 24.1755 140.15 24.1516C140.794 24.0648 141.439 23.9913 142.09 23.9982C142.306 24.0007 142.522 23.9819 142.737 23.9668C142.857 23.9586 142.942 23.8234 142.913 23.6971C142.878 23.5468 142.842 23.3965 142.802 23.2475C142.274 21.3081 141.744 19.3692 141.217 17.4291C141.153 17.1915 141.104 16.9488 141.052 16.708C141.031 16.6087 141.165 16.4628 141.273 16.4666C141.52 16.476 141.767 16.4836 142.013 16.5068C142.143 16.5188 142.249 16.6011 142.29 16.7243C142.368 16.9588 142.428 17.199 142.495 17.4373C143.017 19.3139 143.538 21.1911 144.06 23.0684C144.109 23.2469 144.156 23.4267 144.209 23.604C144.325 23.9894 144.414 24.0655 144.784 24.0837C145 24.095 145.217 24.0906 145.433 24.1032C145.742 24.1214 146.051 24.1441 146.358 24.1742C146.61 24.1994 146.838 24.2918 147.038 24.4471C147.169 24.5483 147.241 24.691 147.211 24.8519C147.17 25.0632 147.095 25.2675 147.041 25.4762C146.896 26.0515 146.969 26.5833 147.379 27.0366C147.544 27.2196 147.734 27.3811 147.9 27.5635C148.067 27.7458 148.228 27.9337 148.371 28.1337C148.439 28.2299 148.469 28.3587 148.499 28.4769C148.541 28.641 148.443 28.8975 148.306 28.9679C148.031 29.11 147.753 29.2439 147.472 29.3741C147.078 29.557 146.694 29.7576 146.354 30.0304C146.086 30.2448 145.868 30.4956 145.723 30.8175C145.541 31.2211 145.588 31.6002 145.778 31.9768C145.905 32.2295 146.093 32.4345 146.31 32.6137C146.524 32.7909 146.743 32.9638 146.951 33.148C147.23 33.3945 147.22 33.6837 146.919 33.9333C146.728 34.0911 146.516 34.2212 146.325 34.379C146.064 34.5953 145.806 34.8172 145.562 35.0529C145.361 35.2472 145.217 35.4886 145.101 35.7439C144.94 36.0966 144.918 36.4555 145.036 36.8283C145.222 37.4206 145.581 37.86 146.146 38.1272C146.369 38.2328 146.589 38.3441 146.808 38.4579C146.884 38.4975 146.94 38.71 146.901 38.7967C146.85 38.908 146.806 39.0268 146.733 39.1224C146.545 39.3676 146.34 39.6002 146.147 39.8416C145.815 40.2559 145.563 40.7149 145.401 41.2209C145.265 41.6415 145.245 42.0659 145.321 42.5035C145.483 43.4345 146.271 43.8319 146.987 43.8017C147.359 43.7866 147.722 43.7011 148.075 43.5823C148.371 43.4829 148.672 43.4169 148.982 43.4C149.071 43.3956 149.164 43.4226 149.252 43.4471C149.385 43.4836 149.515 43.6703 149.507 43.7973C149.502 43.8589 149.502 43.9218 149.493 43.9821C149.464 44.1657 149.436 44.3499 149.399 44.5316C149.119 45.8946 148.839 47.2582 148.555 48.6205C148.53 48.74 148.488 48.8594 148.435 48.9695C148.337 49.1731 148.185 49.3284 147.954 49.368C147.558 49.4353 147.162 49.5177 146.762 49.5441C146.146 49.5843 145.526 49.5969 144.908 49.5937C144.352 49.5906 143.796 49.556 143.24 49.5252C142.961 49.5101 142.692 49.4479 142.432 49.3335C142.15 49.2096 141.991 49.0015 141.94 48.7079C141.91 48.5262 141.894 48.3408 141.881 48.1559C141.837 47.5084 141.795 46.8602 141.757 46.2121C141.743 45.9625 141.693 45.7229 141.603 45.4897C141.537 45.3193 141.358 45.1974 141.163 45.2238C141.079 45.2351 140.965 45.2778 140.929 45.3426C140.84 45.5016 140.757 45.6764 140.728 45.8543C140.658 46.2818 140.621 46.7137 140.575 47.1117Z" fill="var(--fill-0, #66F9FF)"/>
<path id="Vector_45" d="M147.546 14.3857C148.82 14.5083 149.991 14.6183 151.162 14.7372C151.501 14.7711 151.836 14.8346 152.173 14.8767C152.659 14.9377 153.047 15.1785 153.368 15.5324C153.555 15.7386 153.721 15.9643 153.907 16.1706C153.988 16.2592 154.093 16.3302 154.198 16.3925C154.244 16.4201 154.328 16.4277 154.374 16.4044C154.511 16.3365 154.65 16.263 154.766 16.1649C155.125 15.8606 155.534 15.799 155.985 15.8663C156.602 15.9587 157.192 16.1391 157.761 16.3881C157.937 16.4654 158.057 16.6238 158.058 16.8263C158.06 17.0733 158.061 17.3242 158.02 17.5656C157.906 18.237 157.779 18.9059 157.64 19.5724C157.476 20.3601 157.294 21.1441 157.122 21.9299C156.951 22.7164 156.787 23.5041 156.613 24.2894C156.587 24.4069 156.526 24.5176 156.476 24.6288C156.444 24.7018 156.313 24.7508 156.239 24.7319C155.957 24.6584 155.74 24.4893 155.58 24.2535C155.472 24.0945 155.453 23.9021 155.49 23.7166C155.604 23.1401 155.724 22.5642 155.852 21.9903C156.041 21.1447 156.24 20.301 156.435 19.4573C156.525 19.065 156.619 18.674 156.709 18.2817C156.743 18.1314 156.777 17.9799 156.801 17.8271C156.841 17.5593 156.705 17.3229 156.454 17.2456C155.897 17.0746 155.684 16.8854 155.024 17.4895C154.846 17.653 154.618 17.7775 154.393 17.8705C154.085 17.9988 153.777 17.9416 153.533 17.7052C153.379 17.5562 153.252 17.3776 153.125 17.2035C152.906 16.9042 152.7 16.5943 152.48 16.2963C152.345 16.1152 152.156 16.009 151.93 15.9851C151.561 15.9461 151.191 15.8958 150.821 15.8776C149.182 15.7959 147.548 15.6425 145.912 15.5123C144.771 15.4212 143.627 15.3401 142.483 15.2992C141.153 15.2514 139.822 15.2502 138.494 15.3652C138.276 15.3841 138.065 15.4149 137.87 15.5211C137.756 15.5834 137.667 15.6796 137.644 15.8009C137.609 15.9819 137.591 16.1687 137.591 16.3529C137.586 17.9309 137.585 19.5089 137.586 21.0868C137.587 22.4178 137.594 23.7481 137.593 25.0784C137.592 25.8831 137.581 26.6878 137.569 27.4919C137.567 27.6773 137.552 27.8634 137.526 28.0464C137.497 28.2444 137.371 28.3783 137.193 28.4632C137.138 28.4896 137.078 28.5078 137.02 28.5279C136.569 28.6838 136.361 28.5531 136.356 28.0879C136.346 27.1285 136.347 26.1691 136.346 25.2104C136.346 24.2818 136.35 23.3532 136.351 22.4253C136.352 21.8061 136.35 21.1874 136.355 20.5688C136.37 18.9286 136.386 17.2883 136.406 15.6481C136.409 15.4325 136.428 15.2156 136.456 15.0012C136.509 14.6039 136.714 14.375 137.089 14.299C137.332 14.2499 137.577 14.2097 137.823 14.1871C139.18 14.0613 140.539 14.0255 141.903 14.0513C143.049 14.0726 144.19 14.1713 145.332 14.2543C146.104 14.3103 146.877 14.3461 147.546 14.3857Z" fill="var(--fill-0, #EBEAE2)"/>
<path id="Vector_46" d="M142.254 52.4563C141.881 52.4129 141.573 52.3777 141.266 52.3412C140.057 52.1973 138.91 51.8295 137.792 51.363C137.392 51.1958 137.01 50.9915 136.687 50.691C136.424 50.4464 136.281 50.1572 136.284 49.7901C136.291 48.6452 136.29 47.5004 136.29 46.3549C136.29 45.5508 136.284 44.7461 136.283 43.9414C136.282 43.3228 136.282 42.7035 136.286 42.0849C136.296 40.7232 136.309 39.3615 136.319 37.9997C136.323 37.5358 136.314 37.0718 136.319 36.6072C136.324 36.0527 136.632 35.69 137.086 35.4253C137.246 35.3329 137.497 35.4618 137.507 35.6522C137.531 36.0848 137.552 36.5173 137.554 36.9498C137.558 37.9715 137.552 38.9924 137.547 40.0134C137.542 40.8181 137.527 41.6228 137.523 42.4276C137.52 43.2316 137.526 44.0363 137.526 44.8411C137.525 45.5527 137.526 46.2644 137.521 46.9761C137.515 47.7192 137.501 48.4616 137.492 49.2048C137.491 49.2972 137.492 49.3908 137.504 49.482C137.531 49.6737 137.61 49.8466 137.779 49.946C138.018 50.0868 138.261 50.2276 138.518 50.3295C139.382 50.6733 140.266 50.9424 141.194 51.0726C142.914 51.314 144.642 51.4441 146.378 51.4146C147.15 51.4014 147.924 51.3467 148.686 51.1933C148.836 51.1625 148.987 51.1241 149.13 51.0707C149.28 51.0153 149.4 50.9047 149.446 50.7507C149.551 50.3948 149.654 50.0371 149.736 49.6756C149.983 48.5893 150.222 47.501 150.46 46.4128C150.646 45.5666 150.822 44.7178 151.01 43.8716C151.104 43.4492 151.209 43.0286 151.322 42.6105C151.4 42.3238 151.667 42.2654 151.894 42.4822C152.005 42.5885 152.11 42.7035 152.201 42.8268C152.314 42.9802 152.375 43.1619 152.348 43.3517C152.3 43.6881 152.245 44.0244 152.174 44.3564C151.958 45.3547 151.734 46.3512 151.511 47.3476C151.322 48.1932 151.129 49.0381 150.939 49.8837C150.865 50.2163 150.8 50.5501 150.728 50.8827C150.688 51.0644 150.651 51.2467 150.6 51.4246C150.497 51.7742 150.269 52.0187 149.931 52.147C149.729 52.2237 149.519 52.2796 149.309 52.3293C148.644 52.4852 147.966 52.5613 147.287 52.6015C146.608 52.6418 145.928 52.6688 145.245 52.6411C144.225 52.599 143.203 52.5877 142.254 52.4563Z" fill="var(--fill-0, #EBEAE2)"/>
<path id="Vector_47" d="M140.56 12.8701C140.405 12.8776 140.374 12.8801 140.343 12.8808C140.037 12.8871 139.936 12.8236 139.86 12.5645C139.798 12.3571 139.747 12.1465 139.689 11.9377C139.622 11.6995 139.554 11.4612 139.483 11.2242C139.429 11.0425 139.382 11.0111 139.139 11.0293C139.014 11.0381 138.894 11.0632 138.779 10.9979C138.644 10.9218 138.51 10.8451 138.376 10.7671C138.027 10.5641 137.668 10.3843 137.262 10.3245C136.957 10.2793 136.759 10.102 136.657 9.81468C136.61 9.68203 136.519 9.61162 136.378 9.63928C136.105 9.69272 135.833 9.7493 135.562 9.81405C132.132 10.6345 128.703 11.4587 125.272 12.2779C124.731 12.4074 124.186 12.5262 123.641 12.6362C123.492 12.6658 123.333 12.6563 123.18 12.6444C122.974 12.628 122.779 12.4401 122.728 12.2313C122.678 12.0245 122.767 11.7598 122.94 11.6567C123.07 11.5781 123.209 11.4989 123.355 11.4587C123.891 11.3091 124.43 11.1663 124.972 11.0368C128.552 10.1812 132.134 9.32997 135.715 8.47685C135.895 8.4341 136.077 8.39135 136.256 8.34608C136.411 8.30773 136.553 8.23983 136.625 8.09146C136.766 7.80227 137.023 7.72746 137.309 7.68596C137.558 7.6495 137.804 7.64258 138.046 7.713C138.731 7.91166 139.389 8.18011 140 8.5548C140.13 8.63465 140.253 8.73461 140.359 8.84463C140.587 9.0829 140.709 9.37209 140.59 9.69335C140.477 10.0027 140.496 10.2862 140.588 10.5955C140.79 11.2764 140.961 11.966 141.146 12.6526C141.163 12.7186 141.061 12.8456 140.992 12.8512C140.931 12.8562 140.869 12.8632 140.807 12.865C140.684 12.8688 140.56 12.8701 140.56 12.8701Z" fill="var(--fill-0, #66F9FF)"/>
<path id="Vector_48" d="M158.085 42.5538C158.041 42.8631 157.942 43.0486 157.746 43.1724C157.553 43.2931 157.346 43.3428 157.132 43.2429C156.936 43.1523 156.737 43.0618 156.56 42.9411C156.306 42.7688 156.056 42.584 155.827 42.379C154.769 41.4322 153.719 40.4766 152.667 39.5229C152.346 39.2325 152.051 38.9175 151.802 38.5611C151.694 38.4051 151.636 38.2341 151.604 38.0487C151.57 37.8538 151.624 37.6815 151.717 37.5168C151.86 37.2628 152.164 37.1352 152.428 37.222C152.545 37.2603 152.664 37.3012 152.769 37.3622C153.062 37.5332 153.362 37.6966 153.634 37.8972C154.801 38.7603 155.914 39.6902 156.952 40.7061C157.195 40.9431 157.428 41.1927 157.636 41.4593C157.786 41.651 157.911 41.8717 158.004 42.0968C158.071 42.2608 158.069 42.4539 158.085 42.5538Z" fill="var(--fill-0, #EBEAE2)"/>
<path id="Vector_49" d="M154.173 33.6222C154.224 33.6398 154.374 33.6787 154.512 33.746C154.678 33.8265 154.84 33.9195 154.99 34.027C156.373 35.0191 157.698 36.0772 158.802 37.3867C159.061 37.6935 159.31 38.0072 159.499 38.3649C159.603 38.5598 159.67 38.7648 159.656 38.9854C159.648 39.1055 159.62 39.2306 159.572 39.3406C159.493 39.5242 159.335 39.6185 159.137 39.6368C158.947 39.6544 158.767 39.6053 158.601 39.5186C158.189 39.3029 157.818 39.0276 157.476 38.712C156.863 38.1461 156.248 37.5822 155.631 37.0221C155.219 36.6493 154.791 36.2941 154.388 35.9112C154.098 35.6358 153.827 35.3385 153.57 35.0317C153.455 34.8933 153.382 34.7142 153.314 34.5444C153.243 34.3678 153.258 34.1817 153.333 34.0031C153.465 33.6819 153.744 33.5304 154.173 33.6222Z" fill="var(--fill-0, #EBEAE2)"/>
<path id="Vector_50" d="M152.107 50.6764C152.128 50.5827 152.149 50.4287 152.197 50.2835C152.341 49.8421 152.502 49.4071 152.742 49.0085C153.141 48.3471 153.538 47.6845 153.958 47.0376C154.416 46.3316 154.995 45.7343 155.675 45.2364C156.029 44.9768 156.415 44.7844 156.845 44.6983C156.99 44.6687 157.154 44.6832 157.301 44.7165C157.617 44.7875 157.817 45.1101 157.748 45.4238C157.715 45.5721 157.667 45.723 157.595 45.8563C157.432 46.1574 157.206 46.4127 156.958 46.6472C156.599 46.9873 156.243 47.3306 155.873 47.6575C154.828 48.5779 153.831 49.5442 152.893 50.5733C152.749 50.7317 152.587 50.8751 152.423 51.0153C152.386 51.0473 152.311 51.0442 152.253 51.0423C152.182 51.0398 152.106 50.9172 152.11 50.8286C152.112 50.7977 152.109 50.7669 152.107 50.6764Z" fill="var(--fill-0, #EBEAE2)"/>
<path id="Vector_51" d="M154.392 30.4731C154.412 30.4197 154.445 30.3002 154.501 30.1921C154.606 29.989 154.925 29.8539 155.136 29.9123C155.468 30.0035 155.764 30.1638 156.036 30.3725C156.625 30.8239 157.166 31.3281 157.679 31.8619C158.171 32.3736 158.623 32.9218 159.03 33.5034C159.206 33.7548 159.364 34.022 159.502 34.2961C159.585 34.4577 159.628 34.6438 159.661 34.8236C159.725 35.1618 159.334 35.4875 159.002 35.3819C158.915 35.3536 158.823 35.3215 158.75 35.2687C158.625 35.1794 158.504 35.0814 158.4 34.9695C157.598 34.1113 156.698 33.36 155.828 32.5754C155.576 32.3485 155.318 32.1259 155.087 31.8795C154.877 31.6557 154.693 31.4067 154.51 31.1596C154.375 30.9773 154.359 30.7604 154.392 30.4731Z" fill="var(--fill-0, #EBEAE2)"/>
<path id="Vector_52" d="M133.482 33.861C133.497 33.8164 133.519 33.6894 133.581 33.5869C133.725 33.3493 133.868 33.1072 134.048 32.8973C134.962 31.8241 136.061 30.9817 137.312 30.3347C137.557 30.2077 137.809 30.2178 137.912 30.3517C138.035 30.5108 138.042 30.6899 137.988 30.8779C137.874 31.2683 137.683 31.621 137.447 31.9498C136.886 32.7319 136.256 33.4561 135.521 34.0773C135.192 34.3552 134.814 34.5752 134.452 34.8122C134.378 34.8606 134.279 34.8738 134.189 34.8933C133.987 34.9373 133.728 34.8229 133.627 34.6488C133.499 34.4287 133.436 34.1936 133.482 33.861Z" fill="var(--fill-0, #EBEAE2)"/>
<path id="Vector_53" d="M155.528 26.2792C155.609 26.3094 155.797 26.3477 155.95 26.4414C156.186 26.5847 156.407 26.7557 156.619 26.933C157.522 27.6881 158.313 28.55 159.009 29.4974C159.154 29.6942 159.274 29.9123 159.382 30.1324C159.434 30.2374 159.448 30.3694 159.449 30.4895C159.454 30.856 159.042 31.1006 158.725 30.934C158.476 30.8026 158.278 30.6089 158.074 30.4216C157.507 29.9004 156.94 29.3792 156.368 28.8624C156.139 28.6562 155.897 28.4645 155.664 28.2633C155.382 28.0194 155.138 27.7447 154.946 27.4234C154.813 27.2008 154.776 26.9645 154.823 26.7124C154.876 26.4263 155.146 26.2289 155.528 26.2792Z" fill="var(--fill-0, #EBEAE2)"/>
<path id="Vector_54" d="M148.115 31.931C147.938 31.8958 147.806 31.804 147.67 31.7354C147.518 31.6587 147.457 31.3997 147.558 31.2463C147.625 31.1457 147.697 31.0332 147.797 30.9735C148.007 30.8465 148.229 30.734 148.458 30.6459C149.179 30.3687 149.915 30.1386 150.663 29.9456C151.206 29.8054 151.76 29.7727 152.316 29.7582C152.567 29.7513 152.802 29.8236 153.019 29.9563C153.262 30.1053 153.345 30.4624 153.171 30.6818C153.076 30.8012 152.973 30.9244 152.848 31.0068C152.486 31.2438 152.1 31.4242 151.671 31.5255C150.979 31.6895 150.284 31.8385 149.576 31.8939C149.085 31.9322 148.581 32.0221 148.115 31.931Z" fill="var(--fill-0, #EBEAE2)"/>
<path id="Vector_55" d="M151.389 34.0516C151.47 34.0717 151.529 34.0849 151.589 34.1006C151.782 34.1515 151.93 34.4036 151.896 34.6149C151.871 34.7714 151.817 34.9204 151.702 35.0267C151.499 35.2146 151.293 35.402 151.069 35.5623C150.895 35.6868 150.695 35.7805 150.499 35.8685C149.709 36.2237 148.897 36.5129 148.055 36.7254C147.721 36.8096 147.385 36.8247 147.046 36.8366C146.985 36.8385 146.922 36.8247 146.864 36.8071C146.716 36.7612 146.572 36.7034 146.5 36.5481C146.433 36.4029 146.493 36.1822 146.645 36.0489C146.761 35.9477 146.877 35.8446 147.005 35.7591C147.75 35.2599 148.521 34.806 149.344 34.4439C149.711 34.281 150.094 34.1654 150.49 34.0836C150.798 34.0195 151.101 34.0189 151.389 34.0516Z" fill="var(--fill-0, #EBEAE2)"/>
<path id="Vector_56" d="M151.522 26.9443C150.898 26.8185 150.109 26.689 149.361 26.3917C149.188 26.3231 149.03 26.2358 148.894 26.105C148.681 25.9 148.75 25.5033 149.026 25.4266C149.232 25.3694 149.446 25.3097 149.656 25.3059C150.64 25.2908 151.623 25.2871 152.6 25.4279C152.939 25.4769 153.262 25.5612 153.567 25.7146C153.745 25.8039 153.841 25.9554 153.902 26.1339C153.984 26.3728 153.888 26.6551 153.665 26.7701C153.504 26.8538 153.329 26.9273 153.152 26.9613C152.712 27.0455 152.24 27.0348 151.522 26.9443Z" fill="var(--fill-0, #EBEAE2)"/>
<path id="Vector_57" d="M150.029 38.7378C150.554 38.812 150.816 39.1496 150.78 39.545C150.763 39.7317 150.717 39.9109 150.611 40.0656C150.524 40.1913 150.427 40.312 150.322 40.4233C149.748 41.0337 149.078 41.5203 148.338 41.9063C148.121 42.0189 147.883 42.0918 147.65 42.1704C147.566 42.1993 147.469 42.1955 147.378 42.1999C147.09 42.2138 146.852 41.9334 146.924 41.6461C146.959 41.5002 147.007 41.338 147.103 41.2305C147.818 40.4264 148.58 39.6676 149.389 38.9584C149.611 38.7648 149.878 38.7101 150.029 38.7378Z" fill="var(--fill-0, #EBEAE2)"/>
<path id="Vector_58" d="M135.099 40.6855C135.08 40.8055 135.021 40.9791 134.959 41.1488C134.95 41.174 134.849 41.1865 134.803 41.1708C134.75 41.1526 134.698 41.1042 134.667 41.0551C134.585 40.9256 134.506 40.793 134.44 40.6553C134.082 39.9072 133.753 39.1465 133.479 38.3637C133.398 38.133 133.335 37.8935 133.291 37.6533C133.225 37.2925 133.367 36.9907 133.617 36.7386C133.915 36.4381 134.424 36.489 134.666 36.8291C134.869 37.1133 134.98 37.4371 135.009 37.7715C135.092 38.719 135.264 39.6815 135.099 40.6855Z" fill="var(--fill-0, #EBEAE2)"/>
<path id="Vector_59" d="M10.2765 75.395C10.4513 75.097 10.5211 74.8883 10.6084 74.6896C11.1535 73.4499 11.4779 72.1473 11.7068 70.8182C11.7212 70.7346 11.7269 70.6334 11.6923 70.5617C11.6388 70.4511 11.5653 70.3335 11.4672 70.2656C11.361 70.1914 11.2164 70.2103 11.1089 70.2977C11.0102 70.3788 10.9027 70.463 10.8392 70.5699C10.6851 70.8314 10.5286 71.0961 10.4192 71.3777C10.0728 72.2692 9.66668 73.133 9.22597 73.9811C8.98393 74.4463 8.8123 74.9405 8.71737 75.4529C8.67964 75.6547 8.73057 75.8804 8.77395 76.0878C8.81544 76.2877 9.08012 76.4122 9.29324 76.3739C9.47053 76.3418 9.63398 76.2758 9.74274 76.1356C9.95398 75.8621 10.1646 75.5855 10.2765 75.395ZM11.2836 76.0822C10.9611 76.7083 10.533 77.2584 10.0539 77.7664C9.87792 77.9525 9.66416 78.1147 9.44224 78.2448C8.89968 78.5629 8.17356 78.3077 7.89443 77.7287C7.75926 77.4477 7.6989 77.1516 7.69261 76.8448C7.68192 76.3198 7.74668 75.7986 7.88499 75.2951C8.09182 74.5406 8.28044 73.7749 8.56649 73.0488C9.78676 69.9531 10.5072 66.7374 10.9812 63.4545C11.3861 60.6531 11.6514 57.8403 11.7841 55.0138C11.8633 53.3182 12.0117 51.6289 12.277 49.951C12.3933 49.2186 12.5769 48.5031 12.7799 47.7927C12.8811 47.4394 13.1087 47.1798 13.4513 47.0389C13.8493 46.8755 14.2234 46.9471 14.5547 47.2068C14.6515 47.2829 14.7389 47.4029 14.7728 47.5199C14.8445 47.7688 14.9036 48.0266 14.9212 48.2844C14.9445 48.6301 14.9212 48.9797 14.9218 49.3273C14.9237 51.5026 14.9162 53.6784 14.9306 55.8537C14.9539 59.2951 14.7684 62.7252 14.3598 66.1421C14.1687 67.7458 13.7607 69.305 13.269 70.839C12.8315 72.2051 12.3813 73.57 11.8174 74.8914C11.647 75.2919 11.4622 75.6855 11.2836 76.0822Z" fill="var(--fill-0, #EBEAE2)"/>
<path id="Vector_60" d="M7.96646 47.1847C8.34681 46.5428 8.80198 46.2549 9.42501 46.263C9.70288 46.2662 9.92732 46.3938 10.0902 46.6164C10.3008 46.9024 10.4359 47.2274 10.456 47.5801C10.4862 48.1001 10.5126 48.6231 10.4906 49.1424C10.4246 50.7084 10.2266 52.2613 9.95499 53.8034C9.55577 56.0736 8.9887 58.3073 8.47632 60.553C8.35373 61.0911 8.07397 61.4929 7.64081 61.828C7.04167 62.2907 6.41739 62.661 5.63216 62.6503C5.50328 62.6484 5.37503 62.6226 5.24615 62.6056C5.09778 62.5868 4.91044 62.3762 4.9293 62.2416C4.9601 62.0272 4.9821 61.8103 5.03554 61.6016C5.63467 59.2428 6.20678 56.8783 6.66886 54.4868C6.94108 53.0767 7.10517 51.6527 7.3032 50.2325C7.41134 49.458 7.49306 48.6778 7.71436 47.924C7.79986 47.6336 7.90988 47.35 7.96646 47.1847Z" fill="var(--fill-0, #EBEAE2)"/>
<path id="Vector_61" d="M4.01837 71.3451C3.826 71.6846 3.72164 72.1158 3.60848 72.5326C3.29917 73.6724 3.12439 74.8317 3.21932 76.0162C3.24007 76.2714 3.31111 76.5279 3.39661 76.7706C3.4557 76.9366 3.6135 77.0334 3.7933 77.0711C3.94042 77.1025 4.16548 77.0063 4.25539 76.8888C4.47102 76.6059 4.61373 76.2897 4.66277 75.9407C4.74198 75.3812 4.83692 74.8211 4.86081 74.2584C4.9023 73.3028 4.89601 72.3453 4.90167 71.3884C4.9023 71.2621 4.86961 71.1288 4.81994 71.0125C4.79228 70.9471 4.70301 70.8849 4.63071 70.8685C4.55464 70.8516 4.44085 70.8641 4.38867 70.9125C4.26231 71.0276 4.12965 71.1483 4.01837 71.3451ZM4.89475 78.1656C4.75644 78.3932 4.55715 78.6271 4.35032 78.8465C4.2359 78.9678 4.07432 79.0571 3.91778 79.1231C3.66065 79.2325 3.39284 79.2093 3.19229 79.0081C3.01186 78.827 2.84525 78.6183 2.72329 78.3945C2.46993 77.9343 2.34357 77.4263 2.26561 76.9083C2.14742 76.1337 2.11787 75.3548 2.15119 74.5721C2.21217 73.1381 2.37751 71.7179 2.72455 70.3241C3.09044 68.8517 3.47896 67.3844 3.8612 65.9158C3.90458 65.7479 3.96745 65.5851 4.02906 65.4229C4.27613 64.7659 4.71935 64.3007 5.42599 64.2032C6.08548 64.1127 6.66764 63.838 7.2674 63.5922C7.41954 63.5293 7.6465 63.6883 7.6333 63.8543C7.61318 64.1121 7.59244 64.3711 7.54591 64.6251C7.32148 65.8623 7.06434 67.0945 6.86379 68.3356C6.55322 70.2625 6.29106 72.1969 5.9849 74.1238C5.85602 74.9367 5.66992 75.7408 5.50332 76.5474C5.3889 77.1051 5.2091 77.6489 4.89475 78.1656Z" fill="var(--fill-0, #EBEAE2)"/>
<path id="Vector_62" d="M18.2454 39.0181C18.2353 39.3909 18.2133 39.731 18.2215 40.0711C18.2259 40.2528 18.2674 40.4377 18.3221 40.6118C18.3454 40.6854 18.4384 40.7696 18.5145 40.7878C18.7961 40.8551 19.0677 40.8017 19.3098 40.6401C19.4732 40.5313 19.5631 40.3673 19.5839 40.1755C19.6505 39.5607 19.7115 38.9452 19.7712 38.3297C19.8517 37.4986 19.929 36.6668 20.0063 35.8357C20.0673 35.1888 20.1296 34.5425 20.1849 33.8956C20.3012 32.5395 20.4087 31.1828 20.5288 29.8274C20.6514 28.4411 20.7853 27.0562 20.9135 25.6705C20.9249 25.5473 20.9305 25.4241 20.9406 25.3002C20.967 24.9526 20.8934 24.6263 20.7513 24.3088C20.5879 23.9423 20.4263 23.5739 20.2886 23.1979C20.2151 22.9974 20.1755 22.7799 20.1509 22.5667C20.0906 22.043 20.266 21.5898 20.6193 21.2075C20.7658 21.0491 20.9406 20.9177 21.094 20.7649C21.2518 20.6078 21.3517 20.4148 21.3656 20.1903C21.4297 19.1096 21.5592 18.0327 21.5586 16.9482C21.5586 16.8564 21.551 16.7627 21.5296 16.6735C21.5007 16.5502 21.4397 16.439 21.3165 16.3874C21.1461 16.317 20.9764 16.2372 20.7979 16.1963C20.1654 16.0498 19.5298 15.9172 18.8804 15.8637C18.6654 15.8461 18.4522 15.8078 18.2391 15.7726C18.1209 15.7531 18.0486 15.611 18.0895 15.4878C18.1379 15.3413 18.1869 15.1948 18.2416 15.0496C18.947 13.1679 19.6549 11.2863 20.359 9.40402C20.4452 9.17329 20.5162 8.93628 20.5898 8.70052C20.6199 8.6037 20.5011 8.44654 20.3924 8.44025C20.1453 8.42642 19.8982 8.41133 19.6518 8.41133C19.5216 8.41133 19.4085 8.48363 19.3563 8.60245C19.2563 8.82877 19.174 9.06201 19.0859 9.29337C18.3919 11.114 17.6991 12.9341 17.0056 14.7547C16.939 14.9283 16.8761 15.103 16.807 15.2747C16.6561 15.6481 16.5599 15.7154 16.1902 15.699C15.974 15.6902 15.7583 15.6657 15.5421 15.6581C15.2328 15.6475 14.9234 15.6418 14.6141 15.6431C14.362 15.6443 14.1256 15.716 13.9119 15.8518C13.7717 15.9404 13.6868 16.0762 13.7025 16.2391C13.7233 16.4528 13.7799 16.6634 13.8132 16.8765C13.905 17.4625 13.7824 17.9855 13.3329 18.3986C13.1506 18.5658 12.9469 18.7091 12.7646 18.8751C12.5822 19.0411 12.4037 19.2127 12.2434 19.3994C12.166 19.4887 12.1252 19.6138 12.0837 19.7289C12.0271 19.8886 12.1007 20.1532 12.2302 20.2362C12.4911 20.4028 12.7557 20.5619 13.0229 20.7178C13.3983 20.9366 13.7616 21.1717 14.0753 21.4747C14.3224 21.713 14.5167 21.9833 14.6311 22.3172C14.7738 22.7359 14.6921 23.1087 14.4689 23.4664C14.3187 23.7059 14.1124 23.8926 13.8798 24.0511C13.6497 24.2076 13.4165 24.3597 13.1921 24.5238C12.8915 24.7432 12.8746 25.0318 13.1512 25.3084C13.326 25.4832 13.5259 25.6328 13.7007 25.807C13.9408 26.0465 14.1772 26.2911 14.3985 26.5488C14.5808 26.7607 14.7015 27.0147 14.7933 27.28C14.9203 27.6459 14.909 28.0048 14.7575 28.3651C14.5167 28.9378 14.1194 29.3421 13.5322 29.5558C13.3002 29.6407 13.0707 29.7306 12.8425 29.8236C12.7633 29.8557 12.6866 30.0619 12.718 30.1524C12.7576 30.2681 12.791 30.3901 12.8551 30.4919C13.0192 30.7541 13.2015 31.0043 13.3719 31.2627C13.6636 31.7059 13.8717 32.1862 13.9873 32.7055C14.0835 33.1368 14.064 33.5605 13.9477 33.9893C13.7 34.9015 12.879 35.224 12.1686 35.1278C11.7989 35.0781 11.4456 34.9593 11.1048 34.8084C10.82 34.6821 10.5264 34.5884 10.2196 34.5431C10.131 34.5299 10.0361 34.5488 9.94617 34.5645C9.81037 34.5884 9.66264 34.7625 9.65949 34.8902C9.65824 34.9518 9.6532 35.014 9.65697 35.075C9.66829 35.2605 9.67835 35.4459 9.69909 35.6308C9.85061 37.0139 10.004 38.3976 10.1606 39.7807C10.1744 39.902 10.2046 40.0246 10.2473 40.139C10.3259 40.3509 10.4629 40.5194 10.6899 40.5804C11.0778 40.6841 11.4644 40.8029 11.8599 40.8658C12.4697 40.9632 13.0852 41.033 13.7007 41.0877C14.2552 41.1361 14.8122 41.1531 15.3686 41.1745C15.6477 41.1852 15.9212 41.1481 16.1909 41.0582C16.4832 40.9607 16.6611 40.7684 16.7378 40.481C16.7862 40.3025 16.8183 40.1196 16.8478 39.9366C16.9522 39.296 17.054 38.6547 17.1515 38.0128C17.1892 37.7658 17.2609 37.5313 17.3728 37.3081C17.4539 37.1446 17.6431 37.0396 17.8349 37.0836C17.9179 37.1031 18.0273 37.1559 18.0568 37.2238C18.131 37.3904 18.1983 37.5721 18.2102 37.7519C18.2397 38.1838 18.2366 38.6176 18.2454 39.0181Z" fill="var(--fill-0, #F297EE)"/>
<path id="Vector_63" d="M14.3393 5.78655C13.0593 5.79095 11.8824 5.79157 10.7062 5.801C10.366 5.80352 10.0259 5.83558 9.6858 5.84627C9.19606 5.86198 8.78868 6.06631 8.43599 6.3882C8.23041 6.57617 8.04495 6.78552 7.83937 6.9735C7.75072 7.0546 7.63944 7.11558 7.53005 7.16776C7.48102 7.19102 7.3974 7.19102 7.35277 7.16336C7.22326 7.08289 7.09186 6.99676 6.98562 6.88863C6.65556 6.55228 6.25383 6.45295 5.7993 6.4781C5.17627 6.5133 4.5721 6.63778 3.98303 6.8333C3.80008 6.89366 3.66617 7.04014 3.64606 7.24194C3.62154 7.48713 3.59702 7.73735 3.61525 7.9819C3.66681 8.66025 3.73156 9.3386 3.80763 10.0151C3.89753 10.8141 4.00692 11.6113 4.10437 12.4103C4.20181 13.2088 4.29234 14.0085 4.39293 14.8069C4.40802 14.9263 4.45832 15.042 4.4973 15.1577C4.52307 15.2331 4.6488 15.2941 4.72424 15.2822C5.01218 15.235 5.24354 15.0866 5.4246 14.8666C5.54656 14.7182 5.58429 14.529 5.5648 14.341C5.50381 13.7557 5.43843 13.171 5.36361 12.5883C5.25359 11.7289 5.13478 10.8701 5.01847 10.0119C4.9644 9.61334 4.90782 9.21475 4.85501 8.81617C4.83426 8.6634 4.81478 8.50937 4.80598 8.35534C4.79026 8.08438 4.94743 7.86182 5.20393 7.80839C5.77477 7.68894 6.00487 7.52045 6.60527 8.18371C6.76809 8.36288 6.9831 8.50748 7.19811 8.6219C7.49359 8.77781 7.80605 8.74953 8.0701 8.53703C8.23733 8.40249 8.38004 8.23652 8.52275 8.07495C8.76919 7.79707 9.00243 7.50788 9.25013 7.23126C9.40039 7.0634 9.59779 6.97538 9.82601 6.97224C10.1976 6.96784 10.5697 6.95212 10.94 6.96784C12.5803 7.03888 14.2211 7.03762 15.8613 7.05962C17.0068 7.07471 18.1529 7.09986 19.2958 7.16525C20.6242 7.24069 21.9495 7.36328 23.2609 7.60155C23.4766 7.64053 23.684 7.6902 23.8683 7.81405C23.9758 7.88697 24.0556 7.9907 24.0675 8.11393C24.0851 8.2975 24.0858 8.48485 24.0688 8.66843C23.928 10.2401 23.7821 11.8112 23.635 13.3823C23.5112 14.7069 23.3798 16.0316 23.2578 17.3562C23.1842 18.1571 23.1207 18.9593 23.0579 19.7615C23.0434 19.9464 23.0403 20.1331 23.0497 20.3179C23.0598 20.5172 23.1729 20.6624 23.342 20.7636C23.3949 20.7951 23.4521 20.819 23.5086 20.8441C23.9431 21.0409 24.1625 20.9302 24.2102 20.4675C24.309 19.5132 24.397 18.5576 24.4869 17.6026C24.5736 16.6785 24.656 15.7537 24.7402 14.8295C24.7968 14.2134 24.8572 13.5973 24.9087 12.9806C25.0464 11.346 25.1822 9.71141 25.3142 8.07683C25.3312 7.8612 25.3324 7.64367 25.3243 7.42741C25.3086 7.02694 25.125 6.78049 24.7585 6.66984C24.5221 6.59817 24.2813 6.5353 24.0386 6.49004C22.6989 6.2392 21.3491 6.07762 19.9893 5.97641C18.8451 5.89153 17.7009 5.88399 16.5561 5.86073C15.7828 5.84501 15.0095 5.80918 14.3393 5.78655Z" fill="var(--fill-0, #EBEAE2)"/>
<path id="Vector_64" d="M16.0782 44.1842C16.4536 44.1753 16.7635 44.1691 17.0728 44.1609C18.2899 44.1301 19.4662 43.8698 20.6224 43.5089C21.036 43.3794 21.4359 43.2122 21.7848 42.9425C22.0689 42.7231 22.2387 42.449 22.2701 42.0831C22.3695 40.942 22.4757 39.8022 22.5826 38.6624C22.6568 37.8609 22.7379 37.0606 22.8133 36.2596C22.8718 35.6435 22.929 35.0268 22.9824 34.4107C23.0987 33.054 23.2113 31.6966 23.3282 30.3399C23.3678 29.8779 23.4187 29.4164 23.4577 28.9537C23.5036 28.4011 23.2308 28.0113 22.8026 27.7058C22.6524 27.5983 22.3908 27.7032 22.3632 27.8925C22.2997 28.3206 22.2381 28.7494 22.1959 29.18C22.0972 30.1966 22.008 31.2138 21.9193 32.231C21.8495 33.0326 21.7898 33.8354 21.7188 34.637C21.6477 35.4379 21.5673 36.2389 21.4924 37.0398C21.4264 37.7483 21.3598 38.4575 21.2994 39.1666C21.2366 39.9066 21.1813 40.6472 21.1215 41.3878C21.114 41.4802 21.1039 41.5732 21.0832 41.6631C21.0392 41.8511 20.9442 42.0158 20.767 42.0994C20.5161 42.2176 20.2609 42.3352 19.9956 42.4132C19.1035 42.6747 18.1975 42.8614 17.262 42.9048C15.5263 42.9853 13.7942 42.9551 12.0685 42.7646C11.3009 42.6797 10.5358 42.5527 9.79205 42.3295C9.64494 42.2855 9.49845 42.2333 9.36014 42.1667C9.21554 42.0976 9.10741 41.9762 9.07597 41.8184C9.00367 41.4544 8.93515 41.0892 8.88674 40.7214C8.74089 39.6168 8.60383 38.5109 8.46741 37.4057C8.36116 36.5457 8.26497 35.6844 8.15621 34.8243C8.10152 34.3949 8.0355 33.9662 7.96195 33.5393C7.91165 33.247 7.65076 33.1646 7.40494 33.3589C7.28486 33.4544 7.16918 33.5594 7.06734 33.6738C6.94034 33.8159 6.86302 33.9907 6.87245 34.1824C6.88879 34.5219 6.91205 34.862 6.95291 35.1997C7.07488 36.2131 7.20564 37.2259 7.33452 38.2393C7.44454 39.0987 7.55896 39.9575 7.66835 40.8169C7.71173 41.1545 7.74631 41.4934 7.78717 41.8316C7.80981 42.0158 7.8293 42.2007 7.8645 42.383C7.93366 42.7401 8.13861 43.0047 8.46301 43.1638C8.65665 43.2587 8.86097 43.3348 9.06592 43.4033C9.71346 43.6202 10.3811 43.7585 11.0538 43.8616C11.7259 43.9647 12.4004 44.0546 13.0826 44.0905C14.1029 44.1433 15.1214 44.2269 16.0782 44.1842Z" fill="var(--fill-0, #EBEAE2)"/>
<path id="Vector_65" d="M21.4361 4.92533C21.5901 4.94734 21.6203 4.95236 21.6511 4.95551C21.9554 4.99071 22.0623 4.93665 22.1622 4.68581C22.2421 4.48463 22.3131 4.27968 22.3904 4.07787C22.4791 3.84651 22.5684 3.61579 22.6608 3.38632C22.7324 3.21029 22.7815 3.18388 23.0223 3.22412C23.1449 3.24486 23.2631 3.2807 23.3838 3.22663C23.5252 3.16313 23.666 3.09901 23.8062 3.03426C24.1728 2.86451 24.5462 2.71803 24.9567 2.69666C25.2648 2.67968 25.4779 2.52188 25.6062 2.24463C25.6652 2.11764 25.7621 2.0554 25.8998 2.09626C26.1669 2.17485 26.4329 2.25595 26.6963 2.34585C30.0359 3.48125 33.3735 4.61917 36.7131 5.75331C37.2406 5.93248 37.7718 6.10097 38.3049 6.26128C38.4495 6.30466 38.6092 6.30969 38.762 6.31158C38.9694 6.31472 39.1807 6.14561 39.2504 5.94254C39.3202 5.74137 39.2561 5.46977 39.0939 5.35095C38.9701 5.26042 38.8399 5.16926 38.6985 5.1152C38.1785 4.91653 37.6549 4.72479 37.128 4.54561C33.642 3.3618 30.1547 2.18176 26.668 1.00047C26.492 0.940745 26.3159 0.88165 26.1405 0.820039C25.9903 0.767229 25.8551 0.686129 25.7966 0.532102C25.6835 0.230963 25.4352 0.132889 25.1541 0.0649912C24.9102 0.00526642 24.6656 -0.0236541 24.4186 0.023497C23.7163 0.157406 23.0367 0.364244 22.3948 0.680471C22.2578 0.748369 22.1258 0.835755 22.0101 0.935715C21.7611 1.15135 21.6128 1.4286 21.7008 1.75929C21.785 2.07803 21.7398 2.35842 21.6197 2.65768C21.3556 3.31716 21.1205 3.98797 20.8741 4.65437C20.8502 4.7185 20.9401 4.85429 21.008 4.86624C21.069 4.87692 21.1293 4.8895 21.1909 4.89704C21.3135 4.91276 21.4361 4.92533 21.4361 4.92533Z" fill="var(--fill-0, #F297EE)"/>
<path id="Vector_66" d="M1.23405 32.8564C1.24914 33.1683 1.33087 33.3625 1.51444 33.5033C1.69488 33.6416 1.89669 33.7102 2.11924 33.631C2.3223 33.5587 2.52851 33.4864 2.71649 33.3833C2.98619 33.2349 3.25213 33.0746 3.49857 32.8916C4.63963 32.0467 5.77377 31.1929 6.9098 30.3411C7.25683 30.0808 7.57935 29.7954 7.86037 29.4634C7.98296 29.3182 8.05651 29.1529 8.10492 28.9712C8.15647 28.7807 8.11875 28.604 8.04205 28.4318C7.92386 28.1652 7.63215 28.0099 7.36119 28.0722C7.24174 28.0992 7.11915 28.1287 7.0085 28.1803C6.70107 28.323 6.38736 28.4575 6.09817 28.6323C4.85589 29.3836 3.6614 30.2065 2.53292 31.1213C2.2695 31.335 2.01362 31.562 1.78227 31.8084C1.61504 31.9851 1.47107 32.1932 1.35791 32.4088C1.27555 32.566 1.25983 32.7584 1.23405 32.8564Z" fill="var(--fill-0, #EBEAE2)"/>
<path id="Vector_67" d="M5.95724 24.3259C5.90506 24.3391 5.75104 24.3636 5.60833 24.4177C5.43544 24.483 5.26506 24.5604 5.106 24.6534C3.6374 25.5128 2.21909 26.4433 0.99945 27.6447C0.7134 27.9263 0.435522 28.2155 0.213597 28.5538C0.0928901 28.7386 0.00613392 28.9366 0.000475776 29.1573C-0.00266763 29.278 0.0136793 29.405 0.0507715 29.5194C0.11364 29.7093 0.261378 29.818 0.456898 29.8545C0.644874 29.8891 0.827823 29.857 1.00134 29.786C1.43199 29.6093 1.8268 29.3698 2.19647 29.0869C2.8591 28.5808 3.52298 28.0766 4.19001 27.5762C4.63449 27.2423 5.09406 26.9286 5.53036 26.5847C5.8447 26.3377 6.1427 26.0667 6.42686 25.785C6.55448 25.6587 6.64313 25.487 6.72675 25.3236C6.81413 25.1545 6.81602 24.9678 6.75881 24.7829C6.65634 24.451 6.39292 24.2743 5.95724 24.3259Z" fill="var(--fill-0, #EBEAE2)"/>
<path id="Vector_68" d="M6.4327 41.4983C6.42076 41.4027 6.41448 41.2474 6.38053 41.0984C6.27805 40.6458 6.15734 40.1975 5.95491 39.7782C5.61919 39.0829 5.28599 38.3863 4.92764 37.7029C4.53723 36.9579 4.01605 36.3091 3.38422 35.7502C3.05542 35.4598 2.69016 35.2316 2.26957 35.1058C2.12749 35.0631 1.96341 35.0624 1.81441 35.0819C1.49378 35.1234 1.26305 35.4258 1.30329 35.7452C1.32215 35.8961 1.35673 36.0507 1.41582 36.1897C1.54973 36.5046 1.75091 36.78 1.97661 37.0365C2.30226 37.4081 2.62478 37.7834 2.96364 38.143C3.91798 39.1558 4.82203 40.2107 5.66006 41.3222C5.78894 41.4939 5.93731 41.6517 6.08694 41.8063C6.12151 41.8415 6.19633 41.8453 6.25354 41.8491C6.32458 41.8528 6.41196 41.7378 6.41573 41.6491C6.41699 41.6183 6.42202 41.5882 6.4327 41.4983Z" fill="var(--fill-0, #EBEAE2)"/>
<path id="Vector_69" d="M6.03196 21.1706C6.01624 21.1153 5.99423 20.9933 5.94897 20.8808C5.86347 20.6689 5.55793 20.5048 5.34229 20.5432C5.00343 20.6029 4.6935 20.7349 4.40367 20.9172C3.77562 21.312 3.18968 21.7641 2.62953 22.2481C2.092 22.7121 1.5922 23.2163 1.13264 23.7576C0.933974 23.9915 0.751653 24.243 0.588195 24.5032C0.492007 24.6566 0.431028 24.8377 0.380734 25.0137C0.286432 25.3438 0.646036 25.7053 0.986153 25.6298C1.07605 25.6103 1.16973 25.5871 1.24769 25.5412C1.37908 25.4632 1.50922 25.3771 1.62427 25.2753C2.50191 24.4951 3.46819 23.8305 4.40681 23.1308C4.6784 22.9278 4.95628 22.7303 5.20901 22.5059C5.43911 22.3028 5.64469 22.0715 5.85027 21.8426C6.00115 21.6735 6.03762 21.4591 6.03196 21.1706Z" fill="var(--fill-0, #EBEAE2)"/>
<path id="Vector_70" d="M26.5376 26.4823C26.5263 26.4364 26.5162 26.3081 26.464 26.2C26.3427 25.9504 26.222 25.6964 26.0636 25.4701C25.2519 24.3171 24.236 23.376 23.0509 22.6165C22.8183 22.4675 22.5662 22.4537 22.4512 22.5775C22.3147 22.724 22.2902 22.9026 22.3273 23.0943C22.4046 23.4942 22.5624 23.8626 22.7661 24.2115C23.2521 25.0426 23.8123 25.8215 24.4868 26.5087C24.788 26.8161 25.1444 27.0701 25.4827 27.3392C25.5518 27.3945 25.6499 27.4165 25.7373 27.4442C25.9347 27.507 26.2031 27.4171 26.3194 27.253C26.4672 27.0456 26.5514 26.8174 26.5376 26.4823Z" fill="var(--fill-0, #EBEAE2)"/>
<path id="Vector_71" d="M5.28976 16.8892C5.20552 16.9112 5.01565 16.9326 4.85408 17.0112C4.60575 17.1325 4.37 17.2821 4.14242 17.4387C3.17299 18.1063 2.30604 18.8915 1.52458 19.7704C1.36175 19.9534 1.22218 20.159 1.09393 20.3683C1.03295 20.4683 1.00718 20.5984 0.994602 20.7179C0.954995 21.0819 1.34289 21.3635 1.67358 21.2271C1.93511 21.1196 2.14949 20.9455 2.37016 20.7776C2.9825 20.3111 3.59672 19.8446 4.21345 19.3838C4.46052 19.199 4.71891 19.0305 4.96976 18.8513C5.27278 18.6357 5.54186 18.3848 5.76253 18.0824C5.9153 17.8731 5.9744 17.6411 5.95113 17.3859C5.92473 17.096 5.67451 16.8741 5.28976 16.8892Z" fill="var(--fill-0, #EBEAE2)"/>
<path id="Vector_72" d="M12.146 23.2036C12.3258 23.1853 12.466 23.1061 12.6081 23.0502C12.7659 22.9879 12.8508 22.7358 12.7646 22.5736C12.7074 22.4674 12.6452 22.3486 12.5522 22.28C12.3547 22.1342 12.1435 22.0009 11.9241 21.8921C11.2319 21.5495 10.5203 21.2521 9.79287 20.9906C9.26603 20.8007 8.7172 20.7165 8.16521 20.6505C7.915 20.6209 7.67421 20.6706 7.44599 20.7831C7.19075 20.9089 7.07507 21.2565 7.22784 21.491C7.31146 21.6187 7.40262 21.7513 7.51955 21.8444C7.85778 22.1141 8.22556 22.3297 8.64363 22.4705C9.31758 22.6975 9.99467 22.9106 10.695 23.0313C11.1804 23.1149 11.6733 23.2513 12.146 23.2036Z" fill="var(--fill-0, #EBEAE2)"/>
<path id="Vector_73" d="M8.68959 25.0118C8.60786 25.0238 8.54688 25.032 8.4859 25.042C8.28975 25.0747 8.11812 25.3117 8.13258 25.5255C8.14327 25.6839 8.18288 25.8367 8.28724 25.9536C8.47207 26.1592 8.66004 26.3648 8.86876 26.5452C9.03096 26.6854 9.2202 26.7973 9.40755 26.9035C10.1613 27.3304 10.9434 27.6932 11.7613 27.9824C12.0864 28.0974 12.4196 28.1439 12.7559 28.1873C12.8156 28.1949 12.8798 28.1867 12.9395 28.1741C13.0923 28.1427 13.24 28.098 13.3261 27.9509C13.4066 27.8126 13.367 27.5869 13.228 27.4404C13.1224 27.3285 13.0155 27.2147 12.8967 27.1179C12.2008 26.5521 11.4753 26.0284 10.6907 25.5915C10.3386 25.396 9.96896 25.2451 9.58294 25.1269C9.28181 25.0345 8.97942 25.0056 8.68959 25.0118Z" fill="var(--fill-0, #EBEAE2)"/>
<path id="Vector_74" d="M9.21576 17.9226C9.84884 17.8547 10.6466 17.7994 11.4187 17.5731C11.5978 17.5203 11.7632 17.448 11.9103 17.3304C12.1416 17.1462 12.1096 16.7445 11.8418 16.6426C11.6425 16.5666 11.4356 16.4873 11.2257 16.4641C10.2481 16.3578 9.2692 16.2629 8.2828 16.3126C7.94142 16.3302 7.61199 16.3836 7.29388 16.5081C7.10842 16.581 6.9984 16.7225 6.92107 16.8947C6.81797 17.1255 6.88712 17.4153 7.09836 17.5504C7.25113 17.6485 7.41835 17.7378 7.59124 17.7881C8.02252 17.9126 8.4934 17.9459 9.21576 17.9226Z" fill="var(--fill-0, #EBEAE2)"/>
<path id="Vector_75" d="M9.60995 29.8036C9.07934 29.8287 8.78701 30.1399 8.78701 30.5379C8.78638 30.7252 8.8153 30.9075 8.90709 31.0716C8.9819 31.2049 9.0674 31.3338 9.16108 31.4545C9.6766 32.1159 10.2977 32.6622 11 33.1155C11.2049 33.2475 11.435 33.3424 11.6588 33.4424C11.7406 33.4782 11.8374 33.4832 11.9285 33.4964C12.214 33.5367 12.4767 33.2802 12.4321 32.9872C12.4095 32.8388 12.3768 32.6722 12.2919 32.5566C11.6538 31.6902 10.966 30.8635 10.2261 30.0821C10.0236 29.8689 9.76209 29.7897 9.60995 29.8036Z" fill="var(--fill-0, #EBEAE2)"/>
<path id="Vector_76" d="M24.2939 33.1267C24.3021 33.2481 24.3442 33.4266 24.3901 33.6014C24.397 33.6272 24.4964 33.6492 24.5448 33.6379C24.5988 33.6247 24.6548 33.5806 24.69 33.5354C24.7837 33.414 24.8742 33.2889 24.9528 33.1582C25.379 32.4465 25.777 31.7197 26.1228 30.966C26.2246 30.7434 26.3088 30.5108 26.3755 30.2757C26.4748 29.9223 26.3617 29.6086 26.136 29.3345C25.8663 29.0076 25.3551 29.0114 25.0823 29.3276C24.8547 29.5917 24.7139 29.9041 24.6535 30.2342C24.4832 31.1696 24.2235 32.1127 24.2939 33.1267Z" fill="var(--fill-0, #EBEAE2)"/>
</g>
</svg>
