<svg preserveAspectRatio="none" width="100%" height="100%" overflow="visible" style="display: block;" viewBox="0 0 10.1854 10.74" fill="none" xmlns="http://www.w3.org/2000/svg">
<path id="Vector" d="M3.87068 0.084084C3.60529 0.131519 3.33105 0.206007 3.03274 0.311469C2.9419 0.343476 2.88652 0.436046 2.90264 0.531721C2.91852 0.626361 3.00096 0.696357 3.09756 0.696818C5.01325 0.708446 6.64814 2.08706 6.98491 3.97397C7.37049 6.13398 5.92683 8.20396 3.76682 8.58954C2.51544 8.8129 1.26464 8.43733 0.335514 7.55818C0.264592 7.49209 0.160165 7.4861 0.0798024 7.54378C0.00231789 7.60089 -0.0223239 7.70577 0.0217721 7.79247C1.08123 9.89319 3.44065 11.0716 5.75817 10.6579C8.67311 10.1375 10.6216 7.3423 10.1013 4.42724C9.58092 1.51231 6.78573 -0.436202 3.87068 0.084084Z" fill="var(--fill-0, #FFFF63)"/>
</svg>
