<svg preserveAspectRatio="none" width="100%" height="100%" overflow="visible" style="display: block;" viewBox="0 0 4.37506 5.87179" fill="none" xmlns="http://www.w3.org/2000/svg">
<path id="Vector" d="M0.233278 3.21984C1.54606 3.66704 1.43669 3.66286 1.77319 5.13612C1.79559 5.23415 1.79858 5.33711 1.82564 5.43343C1.85233 5.52861 1.88218 5.63063 1.94004 5.70643C1.99659 5.78071 2.08693 5.86468 2.1683 5.87152C2.23586 5.87722 2.35754 5.79001 2.37695 5.72105C2.51207 5.23813 2.61958 4.74705 2.75097 4.2628C2.8469 3.90945 3.03988 3.64387 3.39057 3.48144C3.70243 3.33706 4.07663 3.32983 4.32766 3.05418C4.35808 3.02074 4.35994 2.96014 4.37506 2.91226C4.32896 2.83134 4.30171 2.71089 4.23303 2.67708C3.9667 2.546 3.68805 2.44113 3.41277 2.32942C3.06302 2.18732 2.85604 1.91585 2.76048 1.55793C2.64402 1.12118 2.55053 0.677767 2.43257 0.241392C2.40887 0.154194 2.33403 0.0537005 2.25658 0.0176052C2.18678 -0.0148807 2.04176 -0.00158026 1.9979 0.0506631C1.72298 0.378181 1.77021 0.810183 1.68025 1.19659C1.53281 1.83016 1.26182 2.31442 0.573512 2.45842C0.392663 2.49622 0.234393 2.64516 0.0653024 2.74205C-0.0453717 2.8055 -0.00674086 3.05627 0.116438 3.12789C0.158804 3.15259 0.189232 3.20483 0.233278 3.21984Z" fill="var(--fill-0, #F297EE)"/>
</svg>
