<svg preserveAspectRatio="none" width="100%" height="100%" overflow="visible" style="display: block;" viewBox="0 0 2.69899 3.55854" fill="none" xmlns="http://www.w3.org/2000/svg">
<path id="Vector" d="M0.14396 1.95124C0.953691 2.22238 0.886223 2.21985 1.09392 3.11271C1.10774 3.17211 1.10958 3.23452 1.12616 3.29289C1.14262 3.35046 1.16116 3.4124 1.19674 3.45834C1.23162 3.50335 1.28735 3.55424 1.33766 3.55839C1.37934 3.56173 1.45441 3.50888 1.46626 3.4672C1.54974 3.17441 1.61594 2.87691 1.69699 2.58344C1.75617 2.36929 1.87521 2.20834 2.09166 2.1099C2.28405 2.0224 2.51489 2.01802 2.66975 1.85085C2.68851 1.83059 2.68955 1.79397 2.69899 1.76485C2.67056 1.71591 2.65363 1.64281 2.61138 1.62243C2.44708 1.54298 2.27507 1.47943 2.10525 1.41162C1.88949 1.32561 1.76193 1.16109 1.70298 0.944179C1.63102 0.679373 1.57345 0.410761 1.50057 0.146301C1.48606 0.0934545 1.43978 0.0325516 1.392 0.0106763C1.34906 -0.00901141 1.25949 -0.000955128 1.23254 0.0305913C1.06284 0.229196 1.09208 0.491011 1.03659 0.725191C0.94563 1.10916 0.778457 1.40252 0.353731 1.48979C0.242282 1.51282 0.144651 1.60297 0.0403407 1.6618C-0.0280483 1.70014 -0.00409946 1.85223 0.0717732 1.89564C0.0980236 1.9106 0.116788 1.94215 0.14396 1.95124Z" fill="var(--fill-0, #FFFF63)"/>
</svg>
