<svg preserveAspectRatio="none" width="100%" height="100%" overflow="visible" style="display: block;" viewBox="0 0 13.2184 10.9688" fill="none" xmlns="http://www.w3.org/2000/svg">
<path id="Vector" d="M13.2184 5.47385C13.2184 5.58574 13.1739 5.69305 13.0948 5.77216C13.0157 5.85128 12.9084 5.89573 12.7965 5.89573H1.44033L5.78213 10.2382C5.82358 10.2768 5.85682 10.3234 5.87988 10.3752C5.90294 10.4269 5.91534 10.4828 5.91634 10.5394C5.91734 10.5961 5.90692 10.6523 5.8857 10.7049C5.86448 10.7574 5.8329 10.8051 5.79284 10.8452C5.75278 10.8852 5.70506 10.9168 5.65253 10.938C5.6 10.9593 5.54373 10.9697 5.48709 10.9687C5.43044 10.9677 5.37458 10.9553 5.32283 10.9322C5.27108 10.9092 5.2245 10.8759 5.18588 10.8345L0.123379 5.77198C0.0443753 5.69288 0 5.58565 0 5.47385C0 5.36205 0.0443753 5.25483 0.123379 5.17573L5.18588 0.113227C5.26585 0.0387065 5.37163 -0.00186265 5.48092 6.57266e-05C5.59022 0.0019941 5.6945 0.0462695 5.77179 0.123564C5.84909 0.200859 5.89336 0.305138 5.89529 0.414433C5.89722 0.523727 5.85665 0.629503 5.78213 0.709477L1.44033 5.05198H12.7965C12.9084 5.05198 13.0157 5.09642 13.0948 5.17554C13.1739 5.25466 13.2184 5.36196 13.2184 5.47385Z" fill="var(--fill-0, #F7F7F4)"/>
</svg>
